<?xml version="1.0" encoding="UTF-8" standalone="no"?>
<svg version="1.1" viewBox="0 0 256 100" xmlns="http://www.w3.org/2000/svg">
  <style>
    #color-inp { fill: #1f2d44; }

    #color-isima { fill: #00579d; }

    @media (prefers-color-scheme: dark) {
      #color-inp { fill: white; }

      #color-isima { fill: white; }
    }
  </style>
  <g id="color-inp">
    <path d="m 37.8652,89.3594 c -1.3446,0 -2.4355,0.9936 -2.4355,2.2148 0,1.2213 1.0909,2.2149 2.4355,2.2149 1.3447,0 2.4356,-0.9936 2.4356,-2.2149 0,-1.2212 -1.0909,-2.2083 -2.4356,-2.2148 z"/>
    <path d="m 23.5352,83.3906 c -2.7803,0.007 -5.4629,1.1946 -7.1778,3.1758 -1.2602,1.4551 -1.9551,3.2744 -1.9551,5.1387 -0.006,2.6243 -2.3593,4.7617 -5.25,4.7617 -2.8517,0 -5.183,-2.0793 -5.248,-4.6582 V 84.8789 L 3.8984,84.832 C 3.7166,84.0006 2.9035,83.3965 1.9746,83.3965 c -1.0848,0 -1.9609,0.7997 -1.9609,1.7871 v 6.5156 c 0,4.5796 4.0978,8.3008 9.1386,8.3008 2.8063,0 5.4694,-1.1809 7.1973,-3.1816 0.2469,0.2728 0.5338,0.5376 0.7871,0.7714 0.9874,0.8835 2.156,1.5407 3.4746,1.9434 0.9484,0.2923 1.93,0.4356 2.9239,0.4356 3.6571,0 7.0025,-2.0349 8.4121,-5.0879 l 0.0058,0.0058 0.0977,-0.2324 c 0.3702,-0.877 0.5717,-1.8003 0.5976,-2.7422 l 0.0079,-0.2266 c 0,-2.6243 2.3436,-4.7558 5.2343,-4.7558 2.8842,0 5.2364,2.1315 5.2364,4.7558 v 5.8399 c -0.013,0.1234 -0.013,0.2261 0,0.3301 0.078,0.9159 0.7475,1.6953 1.7089,1.9941 0.6756,0.2079 1.4292,0.1445 2.0528,-0.1738 0.5456,-0.2793 0.949,-0.7291 1.1504,-1.2617 0.0325,-0.0909 0.0579,-0.1878 0.0839,-0.3047 l 0.0313,-0.1563 -0.1484,-0.0781 c -0.7211,-0.3898 -0.9877,-0.9014 -0.9942,-1.9473 v -0.1894 -4.0469 c 0,-4.5666 -4.0933,-8.2891 -9.1211,-8.2891 -5.0278,0 -9.1191,3.7166 -9.1191,8.2832 0,0.4872 -0.0838,0.9744 -0.2461,1.4356 l -0.0332,0.084 c -0.7211,1.9357 -2.716,3.2344 -4.957,3.2344 -0.5717,0 -1.1302,-0.0832 -1.6758,-0.252 -2.7348,-0.838 -4.2082,-3.5479 -3.2793,-6.0293 0.721,-1.9358 2.7075,-3.2344 4.9551,-3.2344 0.5586,0 1.1176,0.085 1.6308,0.2344 0.0585,0.026 0.1232,0.045 0.1817,0.0645 0.2013,0.065 0.4151,0.0918 0.623,0.0918 0.838,0 1.5794,-0.4821 1.8457,-1.2032 0.1689,-0.4482 0.1297,-0.9293 -0.0976,-1.3515 -0.2144,-0.3963 -0.5772,-0.6951 -1.0254,-0.8575 L 26.459,83.832 c -0.9484,-0.2923 -1.93,-0.4414 -2.9238,-0.4414 z"/>
    <path d="m 80.6797,31.7656 c -4.1834,0 -7.5742,3.2746 -7.5742,7.3086 V 79.4473 H 82.752 V 40.4258 h 10.6269 c 6.405,0 8.5938,3.1964 8.5938,7.4902 0,4.3653 -2.1823,7.5606 -8.5938,7.5606 h -6.7031 v 8.582 h 6.5547 c 12.81,0 18.539,-6.8339 18.539,-16.1426 0,-9.3152 -5.7303,-16.1504 -18.5468,-16.1504 z"/>
    <path d="m 23.9961,31.6504 c -3.4169,0 -6.1836,2.6694 -6.1836,5.9629 v 41.834 h 9.0156 V 43.4141 L 51.0898,60.3359 V 49.1504 L 27.2383,32.5332 v 0.0059 c -0.9419,-0.5587 -2.0534,-0.8887 -3.2422,-0.8887 z"/>
    <path d="M 0,31.6426 V 79.4395 H 8.9707 V 31.6426 Z"/>
    <path d="m 101.9414,15.4355 v 10.5489 h 7.1582 v -1.8828 h -4.6191 v -2.6309 h 3.8535 v -1.8848 h -3.8535 v -2.2656 h 4.625 v -1.8848 z"/>
    <path d="m 89.002,15.4355 v 10.5489 h 2.539 v -6.6192 l 0.0449,-0.0117 4.002,6.6309 h 2.5332 V 15.4355 h -2.5332 v 6.6133 l -0.0449,0.0117 -4.002,-6.625 z"/>
    <path d="m 64.8887,15.4355 v 10.5489 h 2.539 v -4.0391 -0.0078 h 1.3653 c 0.5326,0 0.9342,0.1302 1.207,0.3965 0.2793,0.2663 0.416,0.6502 0.416,1.1504 v 0.6367 c 0,0.3313 0.0334,0.6877 0.0918,1.0644 0.0585,0.3768 0.1873,0.6436 0.3887,0.793 h 2.6191 V 25.8359 C 73.3078,25.6865 73.1567,25.4328 73.0723,25.082 72.9878,24.7312 72.9434,24.4135 72.9434,24.1406 v -0.6699 c 0,-0.6366 -0.1426,-1.1689 -0.4414,-1.5977 -0.2989,-0.4287 -0.7802,-0.7341 -1.4493,-0.916 0.5847,-0.2468 1.0196,-0.5653 1.3184,-0.955 0.2988,-0.3898 0.4492,-0.8567 0.4492,-1.4024 0,-0.9809 -0.3708,-1.7552 -1.1113,-2.3203 -0.7471,-0.5652 -1.747,-0.8438 -3.0137,-0.8438 z m 2.539,1.8848 h 1.2676 c 0.5067,0 0.8965,0.1282 1.1758,0.3945 0.2793,0.2664 0.416,0.6123 0.416,1.0411 0,0.4222 -0.138,0.7394 -0.4043,0.9668 -0.2663,0.2273 -0.6548,0.3378 -1.168,0.3378 h -1.2871 z" />
    <path d="m 54.2285,15.4355 v 10.5489 h 7.1582 v -1.8828 h -4.6191 v -2.6309 h 3.8535 v -1.8848 h -3.8535 v -2.2656 h 4.625 v -1.8848 z" />
    <path d="m 29.5508,15.4355 v 6.8399 c 0,1.2082 0.4159,2.1578 1.2539,2.8398 0.838,0.6821 1.9288,1.0254 3.2734,1.0254 1.3382,0 2.4224,-0.3433 3.2539,-1.0254 0.8315,-0.6885 1.2481,-1.6316 1.2481,-2.8398 v -6.8399 h -2.5528 v 6.8399 c 0,0.6561 -0.1693,1.1511 -0.5136,1.4824 -0.3378,0.3313 -0.8185,0.4922 -1.4356,0.4922 -0.6171,0 -1.1043,-0.1687 -1.4551,-0.5 -0.3507,-0.3313 -0.5273,-0.825 -0.5273,-1.4746 v -6.8399 z" />
    <path d="m 20.5918,15.4355 -3.5664,10.5489 h 2.6777 l 0.6289,-2.0528 h 3.2481 l 0.6367,2.0528 h 2.6699 L 23.3145,15.4355 H 21.957 l -0.0078,0.0059 v -0.0059 z m 1.3379,3.3399 h 0.0469 l 1.0195,3.2734 H 20.916 Z" />
    <path d="m 41.4707,15.4297 3.5273,10.5488 h 2.7403 l 3.5469,-10.5488 h -2.6563 l -2.1699,7.7168 -0.0781,0.3574 h -0.045 l -0.0781,-0.3828 -2.1367,-7.6914 z" />
    <path d="m 80.9844,15.293 c -1.2992,0 -2.3567,0.4015 -3.1817,1.207 -0.825,0.8055 -1.2343,1.8401 -1.2343,3.1133 v 2.2012 c 0,1.2797 0.4146,2.326 1.2656,3.125 0.851,0.799 1.949,1.2011 3.3066,1.2011 1.0848,0 1.9755,-0.1628 2.6641,-0.4746 0.6886,-0.3118 1.2202,-0.695 1.6035,-1.1367 h 0.0137 v -4.1699 h -4.4766 v 1.625 h 1.9375 v 1.8828 c -0.1559,0.1234 -0.3704,0.2215 -0.6367,0.293 -0.2663,0.0714 -0.63,0.1093 -1.0977,0.1093 -0.6496,0 -1.1505,-0.2197 -1.5078,-0.6679 -0.3573,-0.4483 -0.539,-1.0394 -0.539,-1.7735 v -2.2148 c 0,-0.7211 0.1753,-1.3057 0.539,-1.7539 0.3638,-0.4482 0.8386,-0.6758 1.4297,-0.6758 0.5782,0 1.0052,0.1236 1.291,0.3769 0.2858,0.2469 0.4297,0.6288 0.4297,1.1485 h 2.377 l 0.0136,-0.0449 C 85.2076,17.6182 84.863,16.7994 84.1484,16.1953 83.4339,15.5912 82.381,15.293 80.9844,15.293 Z" />
    <path d="m 103.1875,0.6055 v 1.8828 h 2.8398 v 8.666 h 2.5391 v -8.666 h 2.8906 V 0.6055 Z" />
    <path d="m 91.125,0.6055 v 10.5429 h 2.541 V 4.5293 l 0.0449,-0.0137 4.002,6.6328 h 2.5332 V 0.6055 h -2.5332 v 6.6133 l -0.0469,0.0117 -4,-6.625 z" />
    <path d="m 62.959,0.6055 v 10.5488 h 2.539 V 4.4648 l 0.0469,-0.0078 2.3633,6.6973 h 1.7031 l 2.4102,-6.8008 0.0449,0.0059 v 6.7949 h 2.5391 V 0.6055 H 71.248 L 68.7793,7.9844 H 68.7344 L 66.2852,0.6055 Z" />
    <path d="m 51.0703,0.6055 v 10.5429 h 2.541 v -4.041 h 1.3633 c 0.5327,0 0.9362,0.1302 1.209,0.3965 0.2793,0.2663 0.416,0.6502 0.416,1.1504 V 9.291 c 0,0.3313 0.0314,0.6877 0.0899,1.0645 0.0584,0.3767 0.1892,0.6435 0.3906,0.7929 h 2.6172 V 11.0059 C 59.4894,10.8565 59.3403,10.6027 59.2559,10.252 59.1714,9.9012 59.127,9.5834 59.127,9.3105 V 8.6406 C 59.127,8.004 58.9824,7.4717 58.6836,7.043 58.3848,6.6142 57.9054,6.3088 57.2363,6.127 57.821,5.8801 58.2559,5.5616 58.5547,5.1719 58.8535,4.7821 59.002,4.3152 59.002,3.7695 59.002,2.7886 58.6331,2.0144 57.8926,1.4492 57.1455,0.8841 56.1437,0.6055 54.877,0.6055 Z m 2.541,1.8769 h 1.2657 c 0.5066,0 0.8964,0.1302 1.1757,0.3965 0.2794,0.2663 0.4161,0.6103 0.4161,1.0391 0,0.4222 -0.1361,0.7414 -0.4024,0.9687 -0.2663,0.2274 -0.6567,0.3379 -1.1699,0.3379 h -1.2852 z" />
    <path d="m 40.418,0.6055 v 10.5488 h 7.1582 V 9.2715 H 42.957 V 6.6406 h 3.8535 V 4.7559 H 42.957 V 2.4883 h 4.625 V 0.6055 Z" />
    <path d="m 29.752,0.6055 v 10.5429 h 7.2304 V 9.2637 H 32.291 V 0.6055 Z" />
    <path d="m 82.8633,0.4551 c -1.3772,0 -2.5019,0.4231 -3.3594,1.2676 -0.8575,0.8444 -1.2851,1.9162 -1.2851,3.2089 v 1.8965 c 0,1.2992 0.427,2.3723 1.291,3.2168 0.8639,0.8445 1.9894,1.2656 3.373,1.2656 1.3772,0 2.4928,-0.4211 3.3438,-1.2656 0.8509,-0.8445 1.2812,-1.9176 1.2812,-3.2168 V 4.9316 c 0,-1.2927 -0.429,-2.3645 -1.293,-3.2089 C 85.3509,0.8782 84.2339,0.4551 82.8633,0.4551 Z m 0.0058,1.8847 c 0.6691,0 1.1884,0.24 1.5586,0.7207 0.3703,0.4807 0.5528,1.0981 0.5528,1.8516 h -0.0059 v 1.916 c 0,0.7665 -0.1831,1.3904 -0.5469,1.8711 -0.3637,0.4872 -0.8823,0.7285 -1.5449,0.7285 -0.6821,0 -1.2098,-0.2478 -1.5801,-0.7285 C 80.9325,8.212 80.752,7.5882 80.752,6.8281 V 4.918 c 0,-0.7601 0.1811,-1.3768 0.5449,-1.8575 0.3637,-0.4807 0.8837,-0.7207 1.5722,-0.7207 z" />
    <path d="m 21.9688,0.4492 c -1.2927,0 -2.3371,0.4022 -3.1231,1.2012 -0.786,0.799 -1.1836,1.8388 -1.1836,3.125 v 2.2031 c 0,1.2927 0.41,2.3319 1.2285,3.1309 0.8185,0.799 1.9028,1.1953 3.2539,1.1953 1.3252,0 2.3512,-0.3061 3.0723,-0.9297 0.721,-0.6236 1.0722,-1.5326 1.0527,-2.7344 L 26.2559,7.5957 h -2.4668 c 0,0.6561 -0.1308,1.123 -0.3907,1.4023 -0.2598,0.2794 -0.6816,0.4219 -1.2597,0.4219 -0.6236,0 -1.1056,-0.2262 -1.4434,-0.6679 -0.3313,-0.4418 -0.5,-1.0329 -0.5,-1.7735 V 4.7637 c 0,-0.7341 0.1556,-1.3259 0.461,-1.7676 0.3053,-0.4417 0.7408,-0.6621 1.3125,-0.6621 0.6495,0 1.1184,0.1425 1.4042,0.4219 0.2859,0.2793 0.4278,0.741 0.4278,1.3906 h 2.4687 L 26.2891,4.0996 C 26.315,2.9108 25.9391,2.0084 25.1855,1.3848 24.432,0.7612 23.3524,0.4492 21.9688,0.4492 Z" />
  </g>
  <g id="color-isima">
    <path d="m 175.4688,43.6016 v 36.041 h 6.2558 v -36.041 z" />
    <path d="m 231.2305,42.9258 c -2.6309,0 -4.8079,0.7939 -6.5293,2.3789 -1.728,1.585 -2.584,3.7143 -2.584,6.3906 v 3.9434 h 6.2539 0.008 v -3.9434 c 0,-0.9029 0.2596,-1.6419 0.7793,-2.207 0.5197,-0.5652 1.2083,-0.8516 2.0723,-0.8516 0.8574,0 1.5388,0.2864 2.039,0.8516 0.5002,0.5651 0.7481,1.2976 0.7481,2.207 v 5.918 l -6.3926,2.6504 c -3.6702,1.4551 -5.5078,4.1069 -5.5078,7.959 v 3.332 c 0,2.7218 0.8508,4.8583 2.5527,6.4238 1.6955,1.5655 3.8842,2.3457 6.5606,2.3457 2.6308,0 4.7941,-0.7939 6.4961,-2.3789 1.7019,-1.585 2.5527,-3.7143 2.5527,-6.3906 V 51.6953 c 0,-2.6763 -0.8508,-4.8056 -2.5527,-6.3906 -1.702,-1.585 -3.8653,-2.3789 -6.4961,-2.3789 z m 2.7793,20.6055 v 8.0234 c 0,0.9029 -0.2459,1.6438 -0.7461,2.209 -0.5002,0.5716 -1.1816,0.8496 -2.0391,0.8496 -0.8574,0 -1.5526,-0.2845 -2.0723,-0.8496 -0.5196,-0.5652 -0.7812,-1.2996 -0.7812,-2.209 h -0.006 v -3.3262 c 0,-1.546 0.6814,-2.5852 2.0391,-3.1308 z" />
    <path d="m 160.9902,42.9258 c -2.6308,0 -4.8078,0.7939 -6.5293,2.3789 -1.7279,1.585 -2.5859,3.7143 -2.5859,6.3906 h 0.0137 v 2.6582 c 0,1.6305 0.4022,3.0849 1.2207,4.3516 0.8185,1.2667 1.8118,2.2993 2.9941,3.0918 1.1758,0.7925 2.3457,1.5197 3.502,2.1758 1.1563,0.656 2.1366,1.3852 2.9551,2.1777 0.8119,0.799 1.2226,1.6433 1.2226,2.5527 v 2.7852 c 0,0.9029 -0.2596,1.6438 -0.7793,2.209 -0.5197,0.5651 -1.2148,0.8515 -2.0723,0.8515 -0.8639,0 -1.5408,-0.2727 -2.041,-0.8183 -0.5002,-0.5392 -0.7461,-1.2873 -0.7461,-2.2422 v -3.9414 h -6.2558 v 3.9414 c 0,2.6763 0.8449,4.8075 2.5469,6.3926 1.7019,1.585 3.8652,2.3769 6.496,2.3769 2.6309,0 4.8059,-0.7919 6.5274,-2.3769 1.7214,-1.5851 2.5859,-3.7163 2.5859,-6.3926 v -2.7852 c 0,-2.0397 -0.6238,-3.8335 -1.8711,-5.373 -1.2472,-1.5461 -2.6055,-2.6885 -4.08,-3.4356 -1.4746,-0.7535 -2.831,-1.5978 -4.0782,-2.5527 -1.2472,-0.9549 -1.8711,-1.9502 -1.8711,-2.9961 v -2.6504 c 0,-0.9029 0.2596,-1.6419 0.7793,-2.207 0.5197,-0.5652 1.2083,-0.8516 2.0723,-0.8516 0.8575,0 1.5389,0.2864 2.0391,0.8516 0.5001,0.5651 0.748,1.2976 0.748,2.207 v 3.9434 h 6.2559 v -3.9434 c 0,-2.6763 -0.8528,-4.8056 -2.5547,-6.3906 -1.702,-1.585 -3.8633,-2.3789 -6.4942,-2.3789 z" />
    <path d="m 196.0019,42.9199 c -2.5853,0 -4.6571,0.773 -6.2226,2.3125 -1.5655,1.5461 -2.3457,3.6518 -2.3457,6.3281 v 28.0821 h 6.2637 V 51.5605 c 0,-1.9487 0.8377,-2.9238 2.5136,-2.9238 0.8575,0 1.5389,0.2596 2.0391,0.7793 0.5002,0.5262 0.7481,1.2416 0.7481,2.1445 v 28.0821 h 6.2538 V 51.5605 c 0,-0.9094 0.2407,-1.6248 0.7149,-2.1445 0.4742,-0.5197 1.1171,-0.7793 1.9355,-0.7793 0.812,0 1.4633,0.2596 1.9375,0.7793 0.4743,0.5262 0.7129,1.2416 0.7129,2.1445 v 28.0821 h 6.2559 V 51.5605 c 0,-2.6763 -0.805,-4.7885 -2.416,-6.3281 -1.6045,-1.5395 -3.7017,-2.3125 -6.2871,-2.3125 -1.3187,0 -2.5207,0.2917 -3.6055,0.8828 -1.0913,0.5847 -1.8578,1.3851 -2.3125,2.3789 -0.5002,-0.9484 -1.3261,-1.735 -2.4824,-2.3457 -1.1498,-0.6106 -2.391,-0.916 -3.7032,-0.916 z" />
    <path d="m 139.9102,32.0449 v 47.5977 h 6.2558 V 32.0449 Z" />
    <path d="M 54.7227,31.6426 V 67.6758 L 30.459,50.7539 v 11.1856 l 23.8535,16.6171 v -0.0058 c 0.9419,0.5586 2.0534,0.8887 3.2422,0.8887 3.4169,0 6.1836,-2.6695 6.1836,-5.9629 v -41.834 z" />
    <path d="m 178.5938,31.1621 c -1.0849,0 -1.9684,0.3322 -2.6504,0.9883 -0.6821,0.6561 -1.0196,1.5324 -1.0196,2.6172 0,1.0848 0.3375,1.9611 1.0196,2.6172 0.682,0.6561 1.5655,0.9817 2.6504,0.9882 1.0848,0 1.9683,-0.3321 2.6503,-0.9882 0.6821,-0.6561 1.0196,-1.5324 1.0196,-2.6172 0,-1.0848 -0.3375,-1.9611 -1.0196,-2.6172 -0.6755,-0.6561 -1.5655,-0.9883 -2.6503,-0.9883 z" />
    <path d="m 8.9844,15.6699 c -4.9499,0 -8.9707,3.8713 -8.9707,8.6524 v 1.7929 h 8.9707 z" />
  </g>
</svg>
