<?xml version="1.0" encoding="UTF-8" standalone="no"?>
<svg version="1.1" width="234" height="100" viewBox="0 0 714 305" xmlns="http://www.w3.org/2000/svg">
  <style>
    #inp-col {
      fill: #0e1c4c;
    }
    #isima-col {
      fill: #005be5;
    }

    @media (prefers-color-scheme: dark) {
      #inp-col {
        fill: white;
      }
      #isima-col {
        fill: white;
      }
    }
  </style>
  <g id="inp-col">
    <path d="M 97.439997,81.696783 C 92.446394,81.034473 88.891978,78.512735 87.254689,74.470649 86.616657,72.895497 86.571502,72.127794 86.46473,61.040002 l -0.113244,-11.76 h 4.824255 4.824256 v 11.184944 c 0,7.990208 0.109197,11.424599 0.382301,12.023997 0.52223,1.146179 1.830205,1.751059 3.786422,1.751059 1.38653,0 1.78532,-0.144816 2.57589,-0.935385 L 103.68,72.369234 V 60.824616 49.280002 h 4.82123 4.82122 l -0.10822,11.76 c -0.10432,11.335447 -0.13436,11.825239 -0.8319,13.567069 -0.94635,2.363101 -2.87545,4.516576 -4.9593,5.536106 -2.83719,1.388112 -6.69924,1.989142 -9.983033,1.553606 z M 234.25365,81.575654 c -5.14486,-0.911763 -8.89196,-4.154749 -10.63792,-9.206749 -0.64444,-1.86473 -0.73574,-2.744381 -0.73574,-7.088903 0,-5.699814 0.52751,-7.864583 2.66039,-10.917523 3.68989,-5.281607 11.29456,-7.095783 18.47798,-4.408122 3.5468,1.32703 6.15555,4.901354 6.72825,9.218602 l 0.21583,1.627043 h -4.48323 -4.48324 l -0.35474,-1.408826 c -0.53506,-2.12488 -1.83368,-3.071174 -4.21465,-3.071174 -1.64379,0 -2.02606,0.124448 -2.99469,0.974921 -1.87849,1.649338 -2.76754,6.092369 -2.15603,10.774839 0.58372,4.469712 2.14814,6.17024 5.6764,6.17024 1.10969,0 2.3844,-0.167113 2.83268,-0.371366 0.72527,-0.330458 0.81505,-0.559571 0.81505,-2.08 v -1.708634 h -2.72 -2.72 v -3.36 -3.36 h 7.36 7.36 v 7.023716 7.023715 l -1.0535,0.803542 c -1.39855,1.06673 -4.1112,2.285879 -6.41901,2.884903 -2.44279,0.634061 -6.95018,0.870304 -9.15383,0.479776 z M 48.07861,81.208319 c 0.08441,-0.224576 2.860899,-7.504333 6.16998,-16.177238 l 6.016512,-15.768923 4.174163,0.08892 4.174167,0.08892 6.134524,16 6.134525,16.000001 -4.667184,0.08893 c -2.56695,0.04891 -4.846704,0.02003 -5.066121,-0.06415 -0.219418,-0.0842 -0.775613,-1.388009 -1.235994,-2.897363 l -0.837056,-2.744272 -4.688643,0.08843 -4.68864,0.08843 -0.837081,2.720001 -0.837079,2.72 -5.049769,0.08832 c -3.989626,0.06977 -5.017552,0.0026 -4.896304,-0.32 z M 66.445851,68.004101 c -0.100442,-0.261747 -0.567632,-1.710764 -1.038198,-3.220038 -0.47057,-1.509277 -0.965863,-2.62712 -1.100653,-2.484099 -0.258023,0.273779 -1.907002,5.355222 -1.907002,5.876557 0,0.166915 0.951405,0.303481 2.114237,0.303481 1.73976,0 2.081891,-0.08429 1.931616,-0.475901 z m 63.951039,13.195902 c -0.0787,-0.22 -2.51224,-7.240001 -5.40796,-15.600001 -2.89571,-8.36 -5.36364,-15.455648 -5.48428,-15.768106 -0.20541,-0.531997 0.11182,-0.562506 4.99091,-0.48 l 5.21027,0.08811 2.72509,9.68599 c 1.4988,5.327297 2.82116,9.575297 2.93857,9.440001 0.11742,-0.135296 1.42331,-4.529265 2.90199,-9.764378 l 2.68852,-9.518391 5.19151,-0.0016 5.19152,-0.0016 -1.70867,4.88 c -0.93976,2.684 -3.48369,9.956 -5.65316,16.160001 l -3.94449,11.28 h -4.7484 c -3.50911,0 -4.78573,-0.104397 -4.89142,-0.4 z M 157.44,65.440002 v -16.16 h 11.68 11.67999 v 3.68 3.68 H 173.76 166.72 v 2.4 2.4 h 5.92 5.91999 v 3.68 3.68 H 172.64 166.72 v 2.72 2.72 h 7.04 7.03999 v 3.680001 3.68 H 169.12 157.44 Z m 31.03999,-0.0311 V 49.2178 l 8.4,0.136934 c 7.56292,0.12329 8.61391,0.20698 10.54653,0.839796 2.64233,0.865203 4.58086,2.304112 5.83329,4.329859 0.83742,1.354509 0.96858,1.89863 1.0772,4.468951 0.16896,3.997737 -0.56851,5.998118 -2.99611,8.127033 -0.95306,0.835792 -1.73465,1.601146 -1.73687,1.700788 -0.002,0.09964 1.36263,2.691638 3.03301,5.76 1.67037,3.068358 3.03837,5.906586 3.04,6.307171 l 0.003,0.728339 -4.82977,-0.08833 -4.82978,-0.08834 -2.73599,-5.200001 -2.73599,-5.2 h -1.39423 -1.39424 v 5.28 5.280001 h -4.64 -4.64 V 65.408905 Z m 15.85455,-2.834358 c 1.14964,-1.149636 1.11984,-3.592884 -0.0582,-4.770909 -0.78461,-0.784602 -1.04209,-0.843629 -3.68,-0.843629 h -2.83637 v 3.2 3.2 h 2.89455 c 2.64656,0 2.96184,-0.06729 3.68,-0.785456 z m 55.50545,2.865462 v -16.16 h 4.44473 4.44473 l 4.75527,8.076528 4.75527,8.076525 0.0855,-8.076525 0.0855,-8.076528 h 4.79747 4.79746 l -0.083,16.08 -0.083,16.080001 h -4.46967 -4.46968 l -4.81032,-8.137252 -4.81033,-8.137248 -0.0854,8.217248 -0.0854,8.217252 h -4.6346 -4.6346 z m 37.12,0 v -16.16 h 11.68 11.68 v 3.68 3.68 h -7.04 -7.04 v 2.4 2.4 h 5.92 5.92 v 3.68 3.68 h -5.92 -5.92 v 2.72 2.72 h 7.04 7.04 v 3.680001 3.68 h -11.68 -11.68 z M 60.604398,38.563716 c -4.782617,-1.040371 -7.905142,-3.910112 -9.781119,-8.989285 -0.603172,-1.633067 -0.702711,-2.578732 -0.721492,-6.85443 -0.0193,-4.395676 0.06488,-5.224546 0.739997,-7.285159 2.265895,-6.9160561 8.476819,-10.5497766 16.02927,-9.3779736 6.441581,0.9994454 10.197517,4.6305776 11.163865,10.7929056 l 0.268192,1.710227 h -4.751558 -4.751555 l -0.0013,-1.2 c -0.0016,-1.474458 -0.999734,-3.189739 -2.099782,-3.607977 -1.489136,-0.566168 -4.125469,-0.38065 -5.062259,0.356231 -1.769063,1.39161 -1.956679,2.186629 -1.956679,8.291746 0,4.843198 0.08151,5.764077 0.603149,6.814096 0.753085,1.515902 1.938237,2.145904 4.036851,2.145904 2.780087,0 4.48,-1.45104 4.48,-3.824109 v -0.975891 h 4.684768 4.684771 l -0.187168,1.813478 c -0.243507,2.359335 -1.786806,5.47082 -3.46599,6.98786 -1.725341,1.558742 -4.724643,2.928825 -7.316381,3.342131 -2.650473,0.422669 -4.156851,0.390752 -6.5956,-0.139754 z m 176.599642,-0.0082 c -7.18994,-1.56208 -11.28405,-7.42365 -11.28405,-16.155491 0,-7.188936 2.66352,-12.326712 7.69545,-14.8440817 7.44555,-3.72486 16.35226,-1.0695735 19.77234,5.8945717 3.37899,6.88047 2.25628,16.69592 -2.44777,21.399968 -1.90614,1.906147 -4.21553,3.126153 -7.05807,3.728662 -2.58482,0.547879 -4.07154,0.542618 -6.6779,-0.02365 z m 5.87227,-7.805412 c 0.55832,-0.340455 1.33204,-1.289492 1.76,-2.158804 0.69848,-1.41882 0.76368,-1.947461 0.76368,-6.191275 0,-4.243815 -0.0652,-4.772455 -0.76368,-6.191269 -0.98216,-1.995063 -2.23172,-2.765976 -4.48587,-2.767535 -1.59902,-0.0011 -1.82043,0.09435 -2.93393,1.264877 -1.60975,1.692203 -2.00213,3.539695 -1.83971,8.662238 0.14389,4.538195 0.7411,6.231992 2.5961,7.363046 1.33145,0.811827 3.58863,0.820442 4.90341,0.01872 z M 86.079998,22.564094 V 6.4000002 h 4.639999 4.64 v 12.4800008 12.48 h 6.730483 6.73048 l -0.0905,3.6 -0.0905,3.6 -11.280003,0.08409 -11.279999,0.0841 z M 116.16,22.560001 V 6.4000002 h 11.68 11.68 V 10.08 13.76 h -7.04 -7.04 v 2.400001 2.4 h 5.92 5.92 v 3.68 3.68 h -5.92 -5.92 v 2.72 2.72 h 7.04 7.04 v 3.68 3.68 h -11.68 -11.68 z m 30.72,-0.0311 V 6.337804 l 8.4,0.1369364 c 7.56291,0.1232899 8.6139,0.2069779 10.54652,0.8397936 2.64233,0.8652055 4.58086,2.3041143 5.83329,4.329859 0.83742,1.35451 0.96858,1.898631 1.07721,4.468951 0.16895,3.99774 -0.56852,5.998121 -2.99612,8.127035 -0.95306,0.835792 -1.73465,1.601146 -1.73687,1.700786 -0.002,0.09964 1.36263,2.69164 3.03301,5.76 1.67037,3.06836 3.03837,5.906587 3.04,6.307173 l 0.003,0.728332 -4.82978,-0.08833 -4.82978,-0.08834 -2.73599,-5.2 -2.73599,-5.2 H 157.55423 156.16 v 5.28 5.28 h -4.64 -4.64 z m 15.85454,-2.834356 c 1.14964,-1.149639 1.11984,-3.592885 -0.0582,-4.770909 -0.78461,-0.78461 -1.04209,-0.843638 -3.68,-0.843638 H 156.16 v 3.200001 3.2 h 2.89454 c 2.64656,0 2.96184,-0.06729 3.68,-0.785455 z m 19.02545,2.865454 V 6.4000002 h 5.68407 5.68407 l 3.14058,9.4400008 c 1.72732,5.192 3.2375,9.439891 3.35594,9.439759 0.11844,-1.33e-4 1.58658,-4.212133 3.26254,-9.360001 l 3.0472,-9.3597588 5.8328,-0.087219 5.8328,-0.087219 V 22.552782 38.720001 h -4.67237 -4.67238 l 0.11238,-7.977626 c 0.0618,-4.387694 0.0196,-7.807694 -0.0938,-7.6 -0.11342,0.207694 -1.24457,3.329626 -2.51367,6.937626 -1.2691,3.608 -2.50096,7.028 -2.73746,7.6 l -0.43001,1.04 h -3.02209 c -2.28476,0 -3.06374,-0.108518 -3.19277,-0.444784 -0.0939,-0.24463 -1.28162,-3.59263 -2.63942,-7.439999 -1.35781,-3.847369 -2.58085,-7.283217 -2.71787,-7.635217 -0.13702,-0.352 -0.16577,2.996 -0.0639,7.44 l 0.18524,8.08 H 186.45094 181.76 Z m 81.6,0 V 6.4000002 h 4.44473 4.44473 l 4.75527,8.0765268 4.75527,8.076527 0.0855,-8.076527 0.0855,-8.0765268 h 4.79747 4.79746 l -0.083,16.0800008 -0.083,16.08 h -4.46967 -4.46968 l -4.81032,-8.13725 -4.81033,-8.137251 -0.0854,8.217251 -0.0854,8.21725 h -4.6346 -4.6346 z m 44.48,3.68 V 13.76 h -4.64 -4.64 V 10.08 6.4000002 h 14.08 14.08 V 10.08 13.76 h -4.8 -4.8 v 12.480001 12.48 h -4.64 -4.64 z" />
    <path d="m 22.559999,301.31864 c -5.934649,-1.57398 -9.476509,-3.48487 -13.3973481,-7.2281 -2.8655138,-2.73571 -4.6151905,-5.15055 -6.1235627,-8.45153 -2.13565459,-4.67373 -2.18719094,-5.10416 -2.32272025,-19.399 -0.13318198,-14.04726 -0.080678,-14.6039 1.55298755,-16.46455 2.4421592,-2.78146 7.4562497,-2.50152 9.6236955,0.5373 0.746842,1.0471 0.746972,1.04914 0.910625,14.32725 0.157451,12.77485 0.19104,13.35303 0.883038,15.2 1.99193,5.31653 6.551253,9.17543 12.143489,10.27796 7.480129,1.47472 15.059249,-2.0481 18.325799,-8.51796 1.004326,-1.98921 1.470874,-4.09809 1.744954,-7.88749 0.906755,-12.53669 9.606921,-22.33986 22.419042,-25.26131 4.957267,-1.13037 13.327347,-0.48698 16.760425,1.28833 3.112439,1.60951 4.108567,5.36148 2.18232,8.21983 -1.577408,2.34072 -4.628585,3.09882 -8.062745,2.0033 -2.442663,-0.77923 -6.871258,-0.72341 -9.61329,0.12118 -3.913183,1.20533 -7.533545,4.04299 -9.512994,7.45635 -1.408167,2.42824 -1.920503,4.81579 -1.773268,8.26367 0.113748,2.66366 0.271626,3.36735 1.177421,5.24791 4.809574,9.98537 18.442524,12.56562 26.438022,5.00381 3.442563,-3.25583 4.730227,-6.22304 5.096438,-11.74392 0.554662,-8.36191 4.04224,-15.21819 10.229803,-20.11094 9.55818,-7.55801 23.04566,-8.46611 33.63787,-2.26482 4.72798,2.76804 8.8234,7.28422 11.04129,12.17565 1.88093,4.14831 1.98756,4.94329 2.21704,16.52845 0.20381,10.28921 0.24135,10.77549 0.93418,12.10093 0.39702,0.75951 1.20603,1.6666 1.79781,2.01576 0.98208,0.57944 1.05173,0.71931 0.79829,1.60302 -0.77296,2.69514 -3.04926,4.78837 -5.90124,5.42661 -3.57364,0.79975 -7.22622,-0.87102 -8.80737,-4.02868 l -0.8,-1.59764 -0.16294,-12.48 c -0.17737,-13.58621 -0.14074,-13.30555 -2.1719,-16.64 -1.86697,-3.06493 -5.38671,-5.76942 -9.00208,-6.917 -2.89622,-0.91932 -7.38994,-0.91932 -10.28616,0 -4.25442,1.35043 -8.03888,4.62383 -9.93221,8.59094 -0.86427,1.81092 -1.05073,2.69712 -1.42334,6.76499 -0.4873,5.31984 -1.22297,8.08844 -3.06558,11.53685 -1.799697,3.3681 -4.177108,6.21807 -7.144228,8.56429 -11.622959,9.19072 -28.022009,8.4499 -38.935221,-1.75888 l -2.08687,-1.95216 -1.734736,1.75902 c -3.435434,3.48353 -8.281127,6.24531 -13.414736,7.64567 -1.39313,0.38003 -3.61225,0.60724 -6.72,0.68807 -4.110344,0.10689 -4.968751,0.0335 -7.52,-0.64316 z m 95.306231,-19.69369 c -1.50284,-0.37562 -3.81926,-1.82514 -4.51638,-2.82618 -3.46547,-4.97632 0.008,-11.38206 6.17015,-11.37917 3.97715,0.002 6.9546,2.41646 7.63894,6.19489 0.27982,1.54499 -0.55731,4.2136 -1.74674,5.56829 -1.70425,1.94104 -5.12347,3.04763 -7.54597,2.44217 z M 0,166.40001 V 97.280003 h 12.96 12.959999 v 69.120007 69.12 H 12.96 0 Z m 51.595253,6.96 0.08475,-62.16001 0.855296,-2.20136 c 3.545427,-9.12521 13.458303,-13.720883 22.714284,-10.530483 2.558393,0.88184 4.954396,2.486303 35.985647,24.097423 18.28462,12.73397 34.00077,23.70661 34.92477,24.38364 l 1.68,1.23097 v 15.98991 c 0,8.79445 -0.108,15.98058 -0.24,15.96919 -0.132,-0.0114 -15.864,-10.9342 -34.96,-24.27291 l -34.719998,-24.2522 -0.08096,51.95291 -0.08096,51.95292 H 64.634293 51.510511 Z m 159.680777,2.24 c 0.0978,-67.00312 -0.11741,-61.03226 2.38466,-66.16001 1.70155,-3.48717 5.67195,-7.38327 9.3793,-9.20379 5.19416,-2.55062 4.3039,-2.477164 29.92,-2.468706 20.05254,0.0066 23.24598,0.07564 27.2,0.58785 24.48804,3.172226 39.05802,16.104606 42.23286,37.486066 0.57341,3.86178 0.67597,12.57099 0.18848,16.00776 -1.57004,11.06918 -5.50689,19.2128 -12.53061,25.92049 -6.84689,6.53882 -16.05437,10.57943 -28.51358,12.51292 -2.48903,0.38625 -6.68928,0.54993 -17.13715,0.66779 l -13.84,0.15612 v -12.35325 -12.35324 l 9.2,-6.4e-4 c 15.27789,-0.001 20.03606,-0.61535 25.07272,-3.23571 4.66014,-2.42447 7.70237,-6.34715 9.1542,-11.80352 0.78496,-2.95006 0.79017,-10.87156 0.009,-13.76 -1.9535,-7.22369 -6.59063,-11.65399 -14.47597,-13.83028 -2.4836,-0.68545 -3.12578,-0.70976 -21.52,-0.81451 l -18.96001,-0.1081 v 56.33638 56.33638 h -13.92571 -13.92571 z" />
  </g>
  <g id="isima-col">
    <path d="m 633.27998,236.01584 c -12.8065,-1.46514 -22.03774,-13.92225 -20.71268,-26.57368 -1.39465,-11.57448 2.32235,-25.39341 14.44746,-29.5619 6.45862,-2.88175 13.02709,-5.50828 19.54522,-8.25114 -0.43405,-7.5357 1.59289,-15.66921 -1.54292,-22.68257 -5.05893,-7.12511 -16.69626,-0.96886 -14.52115,7.04443 -0.81465,2.90924 1.51698,9.01021 -1.41751,9.76903 -5.56086,0 -11.12172,0 -16.68258,0 0.25988,-10.70537 -0.93177,-23.38226 8.94476,-30.45716 13.07002,-10.54145 36.75653,-6.23368 41.93636,10.93458 1.77542,18.55152 0.55536,37.31736 0.88301,55.9659 -0.23704,8.18411 1.51503,17.17029 -4.26295,24.03976 -5.8175,8.48992 -16.86382,11.27448 -26.61702,9.77275 z m 8.80275,-16.45263 c 8.65128,-6.94977 2.87386,-20.4715 4.49532,-30.1452 -4.28764,0.21843 -17.43798,3.97748 -16.01807,12.33589 0.06,6.92725 -2.01443,18.45436 8.07654,18.38474 l 1.91747,-0.15727 1.52874,-0.41818 z m -210.72274,16.10983 c -11.95795,-1.81783 -20.81421,-13.45844 -19.71393,-25.44058 1.08183,-3.32331 -2.97574,-11.71019 3.00308,-10.23245 4.93028,0 9.86057,0 14.79085,0 0.68617,6.61042 -2.51341,15.7851 4.67894,19.50657 14.29624,3.76819 15.13231,-19.86287 5.77233,-25.55117 -10.37358,-7.75534 -25.3025,-12.9192 -27.92968,-27.31221 -0.76978,-10.92164 -1.53772,-24.17483 8.43064,-31.46009 13.80166,-11.1457 39.39848,-5.14408 42.45822,13.72247 -0.0323,5.21834 1.38561,12.62215 -0.0654,16.85443 -5.6512,0 -11.3024,0 -16.9536,0 -0.75174,-6.7014 2.19568,-16.1189 -5.44682,-19.53844 -7.51679,-2.57573 -12.39626,4.78175 -10.88656,11.31282 -2.51453,12.37385 11.30756,16.96231 19.62066,22.27985 9.45015,5.77492 15.5987,16.52076 14.14218,27.72518 1.39699,11.00918 -4.19679,22.55023 -14.86157,26.65092 -5.36094,2.26985 -11.36754,2.24777 -17.03938,1.4827 z m -54.08,-69.11303 c 0,-22.66667 0,-45.33334 0,-68.000007 5.97333,0 11.94667,0 17.92,0 0,45.333337 0,90.666667 0,136.000007 -5.97333,0 -11.94667,0 -17.92,0 0,-22.66667 0,-45.33333 0,-68 z m 101.76,16.48 c 0,-17.17334 0,-34.34667 0,-51.52001 5.86667,0 11.73333,0 17.6,0 0,34.34667 0,68.69334 0,103.04001 -5.86667,0 -11.73333,0 -17.6,0 0,-17.17333 0,-34.34667 0,-51.52 z m 34.63609,8.4 c 0.44593,-15.45955 -0.86048,-31.07312 1.03706,-46.43201 5.04424,-16.9689 31.31407,-21.17695 40.87436,-6.15617 9.21661,-15.6733 36.16122,-10.19014 40.66959,6.81914 1.97923,18.97342 0.71443,38.18799 1.12472,57.26822 0.0261,10.54027 0.0522,21.08055 0.0783,31.62082 -5.97693,0 -11.95385,0 -17.93078,0 -0.0564,-27.89334 -0.11281,-55.78667 -0.1693,-83.68001 -6.24929,-11.95027 -19.32253,0.0273 -15.01218,10.21486 -0.13843,24.4881 -0.1353,48.97677 -0.20179,73.46515 -5.85815,0 -11.71631,0 -17.57446,0 -0.0572,-27.78667 -0.1144,-55.57334 -0.1716,-83.36001 -4.9505,-11.2201 -19.4269,-2.72695 -15.11593,7.86245 -0.14919,25.16548 -0.0596,50.33172 -0.0841,75.49756 -5.87115,0 -11.74229,0 -17.61344,0 0.0299,-14.37333 0.0597,-28.74667 0.0895,-43.12 z m -28.19395,-75.30484 c -14.67989,-2.77095 -6.48154,-26.01224 6.78284,-19.34041 11.26233,4.49488 5.24541,22.88004 -6.78284,19.34041 z" />
    <path d="m 163.29552,235.18713 c -0.91547,-0.16356 -2.57147,-0.66484 -3.68,-1.11394 -1.38721,-0.562 -12.78918,-8.32613 -36.57552,-24.90596 l -34.560002,-24.08941 -0.08297,-16.08304 -0.08297,-16.08305 2.482973,1.74192 c 14.804469,10.38599 67.331629,46.94636 67.448979,46.94636 0.0847,0 0.154,-23.4 0.154,-52.00001 V 97.600003 h 12.96632 12.96632 l -0.0865,61.680007 c -0.083,59.17265 -0.11073,61.75154 -0.68201,63.44 -1.4615,4.31955 -3.64459,7.25842 -7.11701,9.58092 -1.31741,0.88114 -3.33078,1.89101 -4.47416,2.24417 -2.479,0.76568 -6.3729,1.05379 -8.67742,0.64203 z M 0.31999999,77.17119 c 0,-4.910388 0.64848945,-7.90225 2.54274681,-11.731188 C 6.7125995,57.658146 14.716008,52.325234 23.919999,51.408926 l 2,-0.199113 V 66.244908 81.280003 H 13.12 0.31999999 Z" />
  </g>
</svg>
