<?xml version="1.0" encoding="UTF-8" standalone="no"?>
<svg viewBox="0 0 111 100" version="1.1" xmlns="http://www.w3.org/2000/svg" xmlns:xlink="http://www.w3.org/1999/xlink">
  <defs>
    <linearGradient id="linear-gradient" x2="1" gradientUnits="objectBoundingBox">
      <stop offset="0" stop-color="#006c82" />
      <stop offset="1" stop-color="#00989f" />
    </linearGradient>
  </defs>
  <style>
    #color-inp { fill: #1f2d44; }

    #color-uca { fill: url(#linear-gradient); }

    @media (prefers-color-scheme: dark) {
      #color-inp { fill: white; }

      #color-uca { fill: white; }
    }
  </style>
  <g id="color-inp">
    <path d="M 0,29.814736 V 77.167818 H 8.8782457 V 29.814736 Z m 23.734665,0 a 6.0172885,6.0254779 0 0 0 -6.122661,5.908801 v 41.444281 h 8.916947 V 41.464401 l 24.003,16.757534 V 47.16651 L 26.939193,30.693177 a 6.2801733,6.2887205 0 0 0 -3.204528,-0.878441 z m 56.081822,0.124016 a 7.3634173,7.3734388 0 0 0 -7.490133,7.234211 v 39.989686 h 9.551662 V 38.500958 h 10.508891 c 6.326409,0 8.491223,3.167407 8.491223,7.417651 0,4.312416 -2.164814,7.479657 -8.491223,7.479657 h -6.633529 v 8.502782 h 6.491621 c 12.673951,0 18.347341,-6.766302 18.347341,-15.982439 0,-9.216138 -5.69535,-15.979856 -18.367982,-15.979857 z"/>
    <path d="m 82.105067,0.00203584 a 4.9485758,4.9553107 0 0 0 -2.510472,0.651079 4.1506741,4.1563231 0 0 0 -1.71837,1.83955656 6.1929854,6.2014139 0 0 0 -0.590851,2.7386657 v 0.5890715 a 5.8495177,5.8574788 0 0 0 0.632134,2.6611563 4.1216114,4.1272209 0 0 0 1.695148,1.7982181 4.7557055,4.7621779 0 0 0 2.489832,0.632994 4.7213587,4.7277844 0 0 0 2.536271,-0.695001 4.3448654,4.3507787 0 0 0 1.692569,-1.839557 6.1903433,6.1987683 0 0 0 0.593432,-2.7386657 V 5.1693295 A 5.7583667,5.7662038 0 0 0 86.313268,2.4720022 4.3897804,4.3957548 0 0 0 84.594897,0.63502932 5.0714315,5.0783336 0 0 0 82.105067,0.00203584 Z M 22.387835,0.02012136 A 4.6103923,4.6166669 0 0 0 19.939286,0.65311484 4.149353,4.1550002 0 0 0 18.30606,2.4720022 6.3198042,6.3284053 0 0 0 17.748751,5.1899987 v 0.5167294 a 5.4281094,5.435497 0 0 0 1.246205,3.8367157 4.5020679,4.5081951 0 0 0 3.434161,1.3667492 5.9102851,5.9183289 0 0 0 2.327281,-0.452138 3.7107713,3.7158216 0 0 0 1.612586,-1.3228275 3.8574056,3.8626554 0 0 0 0.632132,-1.9842408 V 7.0088861 H 24.162968 V 7.1458195 A 1.5469253,1.5490307 0 0 1 23.714024,8.3368807 1.9102084,1.9128081 0 0 1 22.447178,8.7037585 1.4663425,1.4683382 0 0 1 21.079705,8.070765 4.7900522,4.7965714 0 0 1 20.672045,5.781654 V 5.0478981 a 4.2431461,4.248921 0 0 1 0.448943,-2.1470104 1.3910439,1.392937 0 0 1 1.287488,-0.6329935 1.9564444,1.9591071 0 0 1 1.305548,0.3668778 1.6327922,1.6350144 0 0 1 0.448944,1.2479015 v 0.1369332 h 2.858789 L 27.00111,3.8542533 A 3.9511986,3.9565762 0 0 0 25.613004,1.0406619 4.9208341,4.9275313 0 0 0 22.387835,0.02012136 Z M 29.93731,0.16222194 V 10.770676 h 7.348225 l 0.0026,-2.2090181 H 32.796163 V 0.16222194 Z m 10.183795,0 V 10.770676 h 7.634621 V 8.582327 H 42.979894 V 6.3965618 h 4.040493 V 4.2702204 H 42.979894 V 2.3712401 h 4.793892 V 0.16222194 Z m 10.449548,0 V 10.770676 h 2.858789 V 7.112232 h 1.163642 l 1.875759,3.658444 h 2.980055 V 10.481308 L 57.312547,6.417231 A 3.3633406,3.3679181 0 0 0 58.633576,5.2726754 3.4822332,3.4869725 0 0 0 59.10316,3.4124497 2.8547443,2.8586296 0 0 0 57.980802,1.0019072 5.047653,5.0545227 0 0 0 54.918181,0.16222194 Z m 11.817019,0 V 10.770676 h 2.856211 V 8.2206166 l -0.203831,-3.9684816 2.306641,6.513374 h 1.89898 l 2.283419,-6.5185414 -0.20383,3.9684816 v 2.5552268 h 2.85879 0.02838 V 0.16222194 h -3.63283 l -2.273094,6.86733336 -2.286,-6.86733336 z m 27.571327,0 V 10.770676 h 2.86395 V 4.7197751 l 3.565748,6.0509009 h 2.773645 L 99.15719,0.16222194 H 96.300973 V 6.2131229 L 92.755866,0.16222194 Z m 11.837661,0 V 2.3712401 h 3.14261 v 8.3994359 h 2.8562 V 2.3712401 H 111 V 0.16222194 Z M 82.081846,2.247225 a 1.5654197,1.5675502 0 0 1 1.411334,0.7544248 3.9274201,3.9327653 0 0 1 0.510867,2.2503564 V 5.72223 A 4.1189694,4.1245752 0 0 1 83.49318,7.9493336 1.5561725,1.5582904 0 0 1 82.099908,8.6882567 1.575988,1.5781328 0 0 1 80.673092,7.9312482 4.2127624,4.2184959 0 0 1 80.182867,5.6834753 V 4.9264668 C 80.244955,3.1274218 80.878389,2.247225 82.081846,2.247225 Z M 53.408802,2.3712401 H 54.89754 A 1.3487709,1.3506066 0 0 1 55.898632,2.7174487 1.2536568,1.255363 0 0 1 56.22373,3.6578962 1.2536568,1.255363 0 0 1 55.898632,4.5983436 1.3434868,1.3453153 0 0 1 54.89754,4.9264668 H 53.408802 Z M 82.205693,13.19672 a 4.8653509,4.8719726 0 0 0 -2.531113,0.653663 4.3012714,4.3071254 0 0 0 -1.674508,1.839556 6.2471476,6.2556498 0 0 0 -0.590852,2.777422 v 0.924944 a 5.1520143,5.1590261 0 0 0 1.406174,3.611939 4.7557055,4.7621779 0 0 0 3.511564,1.309908 8.4691188,8.4806452 0 0 0 2.629159,-0.382379 4.3025924,4.3084482 0 0 0 1.834476,-1.085132 l 0.04128,-0.04134 v -4.516214 h -4.734549 v 2.00491 h 1.816416 v 1.426173 a 2.208761,2.2117671 0 0 1 -1.388113,0.366878 1.849441,1.8519581 0 0 1 -1.633225,-0.73634 4.0648072,4.0703393 0 0 1 -0.526347,-2.289112 v -0.632992 a 4.1572792,4.1629372 0 0 1 0.526347,-2.227104 1.5654197,1.5675502 0 0 1 1.408753,-0.757009 1.5099365,1.5119915 0 0 1 1.71837,1.511433 l 0.02065,0.124015 h 2.796866 l -0.02065,-0.165353 a 3.8732579,3.8785294 0 0 0 -1.36747,-2.77742 4.9974538,5.0042553 0 0 0 -3.24323,-0.940448 z m -60.898936,0.188607 -4.102414,10.789309 h 3.101323 l 0.632132,-1.960988 h 3.387717 l 0.634714,1.960988 h 3.121964 L 23.959137,13.385327 Z m 9.120779,0 v 7.071441 a 3.6473619,3.6523259 0 0 0 1.225565,2.839428 4.8085467,4.815091 0 0 0 3.225169,1.023125 5.5403969,5.5479373 0 0 0 2.306641,-0.431469 3.6249044,3.6298378 0 0 0 1.550662,-1.369333 4.1216114,4.1272209 0 0 0 0.528926,-2.103089 v -7.030103 h -2.900071 v 7.024936 a 1.8811457,1.8837059 0 0 1 -0.387021,1.309909 1.442564,1.4445273 0 0 1 -1.119778,0.392714 c -0.981525,0 -1.492144,-0.535848 -1.511959,-1.59411 v -7.133449 z m 11.388718,0 3.733456,10.789309 h 3.083261 l 3.774738,-10.789309 h -3.24581 l -2.061528,7.27555 -2.058948,-7.27555 z m 13.101927,0 v 10.789309 h 7.773947 l -0.0026,-2.22452 h -4.876455 v -2.229687 h 4.123057 v -2.144428 h -4.123057 v -1.942902 h 4.899676 v -2.247772 z m 10.632738,0 v 10.789309 h 2.900072 v -3.717868 h 1.204924 l 1.91704,3.717868 h 3.039399 v -0.263532 l -2.224077,-4.149337 a 3.3791929,3.383792 0 0 0 1.364892,-1.165224 3.4531706,3.4578703 0 0 0 0.490226,-1.901564 2.9207958,2.9247709 0 0 0 -1.14042,-2.451882 5.0674684,5.0743651 0 0 0 -3.124544,-0.85777 z m 24.573208,0 v 10.789309 h 2.897493 v -6.172332 l 3.632831,6.172332 h 2.835568 l 0.0026,-10.789309 H 96.59259 v 6.172332 L 92.9804,13.385327 Z m 12.815533,0 v 10.789309 h 7.77395 l -0.003,-2.22452 h -4.87646 v -2.229687 h 4.12306 v -2.144428 h -4.12306 v -1.942902 h 4.8971 v -2.247772 z m -34.511891,2.229688 h 1.50938 a 1.4002911,1.4021968 0 0 1 1.021734,0.346207 1.533715,1.5358024 0 0 1 0.01806,1.922234 1.4002911,1.4021968 0 0 1 -1.019154,0.346209 H 68.44841 68.42776 Z m -45.797402,1.330577 0.980452,3.043536 h -1.958323 z"/>
  </g>
  <g id="color-uca">
    <path d="m 43.387886,90.532423 a 2.615638,2.6191979 0 1 1 -2.611675,-2.493529 2.5548707,2.5583478 0 0 1 2.611675,2.493529" />
    <path d="M 0.01981544,24.33815 H 8.8971323 v -10.34054 0 a 8.7280406,8.7399193 0 0 0 -8.87731686,8.56266 z" />
    <path d="m 30.143247,59.836218 23.592262,16.450679 v 0 a 6.2801733,6.2887205 0 0 0 3.203496,0.878357 6.0172885,6.0254779 0 0 0 6.122971,-5.906423 V 29.815977 H 54.143707 V 65.497918 L 30.143247,48.740343 Z" />
    <path d="m 51.673382,97.602934 a 2.1043997,2.1072637 0 0 1 -1.056823,-2.186633 v -4.741013 a 9.5748204,9.5878515 0 0 0 -9.816569,-9.298152 9.5748204,9.5878515 0 0 0 -9.816569,9.298152 v 0 a 4.8561037,4.8627128 0 0 1 -0.264206,1.615172 l -0.04095,0.101858 a 5.6249428,5.6325982 0 0 1 -5.32639,3.637775 5.9036799,5.9117148 0 0 1 -1.795279,-0.285731 5.273549,5.2807262 0 0 1 -3.531111,-6.764938 5.6249428,5.6325982 0 0 1 5.32639,-3.637775 6.1824171,6.1908313 0 0 1 1.755648,0.264565 2.1136469,2.1165235 0 0 0 0.203439,0.08202 2.5601548,2.5636391 0 0 0 0.673725,0.101857 2.0938314,2.0966811 0 0 0 1.981544,-1.349283 1.849441,1.8519581 0 0 0 -0.10172,-1.511992 1.9709757,1.9736582 0 0 0 -1.101738,-0.960372 v 0 l -0.24439,-0.08202 a 10.315918,10.329958 0 0 0 -3.142729,-0.490769 10.090022,10.103754 0 0 0 -7.714811,3.55576 v 0 a 9.0820764,9.094437 0 0 0 -2.10176,5.763558 5.499445,5.5069296 0 0 1 -5.6526843,5.333639 5.5034081,5.5108981 0 0 1 -5.6328689,-5.231781 V 82.989662 A 2.0859053,2.0887441 0 0 0 2.2127241,81.375813 2.0343851,2.0371539 0 0 0 0.06076735,83.3627 v 7.316557 a 9.5959568,9.6090168 0 0 0 9.83638415,9.319317 10.051712,10.065392 0 0 0 7.7346265,-3.571633 8.5008235,8.512393 0 0 0 0.857348,0.858515 9.9724502,9.9860225 0 0 0 3.73455,2.186633 10.317239,10.33128 0 0 0 3.142729,0.490769 9.8892253,9.9026844 0 0 0 9.041124,-5.711968 v 0 l 0.101719,-0.264565 a 8.8614645,8.8735249 0 0 0 0.652589,-3.086156 v -0.244723 a 5.6421161,5.649795 0 0 1 11.265738,0 v 6.5599 a 1.1017384,1.1032379 0 0 0 0,0.367746 2.5971436,2.6006783 0 0 0 1.83623,2.227641 2.8560653,2.8599524 0 0 0 2.203477,-0.203715 2.6222432,2.625812 0 0 0 1.24441,-1.410134 c 0.04095,-0.101858 0.06077,-0.203716 0.101719,-0.347904 l 0.04095,-0.183873 z" />
  </g>
</svg>
