<?xml version="1.0" encoding="UTF-8" standalone="no"?>
<svg
   viewBox="0 0 256 256"
   version="1.1"
   xmlns="http://www.w3.org/2000/svg">
  <defs>
    <filter id="shadow-blur" style="color-interpolation-filters:sRGB" width="200%" height="200%">
      <feGaussianBlur stdDeviation="3" />
    </filter>
  </defs>
  <g>
    <circle style="fill:#1e191a;" cx="128" cy="128" r="128" />
    <circle style="fill:#000000;" cx="128" cy="128" r="121" />
    <circle style="fill:#f1f1f1;" cx="128" cy="128" r="117" />
    <circle style="fill:#000000;" cx="128" cy="128" r="103" />
    <path style="opacity:0.5;fill:#000000;filter:url(#shadow-blur)"
          d="M 60.132812,23.744141 C 58.491364,23.731415 56.78125,23.8125 55,24 35.999998,26 25.999999,36.000001 19,49 c -7.000003,12.999999 -7.999999,33.999999 -1,45 7.000003,11 17.000001,23 30,23 13.000002,0 25,-5 25,-5 L 98,70 C 98,70 92.999999,50 89,41 85.375001,32.843749 76.000152,23.867157 60.132812,23.744141 Z m 135.734378,0 C 179.99985,23.867157 170.625,32.843749 167,41 c -4,9 -9,29 -9,29 l 25,42 c 0,0 12,5 25,5 13,0 23,-12 30,-23 7,-11.000001 6,-32.000001 -1,-45 -7,-12.999999 -17,-23 -36,-25 -1.78125,-0.1875 -3.49136,-0.268585 -5.13281,-0.255859 z" />
    <path style="fill:#ffffff;"
          d="M 60.132812,23.744141 C 58.491368,23.731415 56.78125,23.8125 55,24 35.999998,26 25.999999,36.000001 19,49 c -7.000003,12.999999 -7.999999,33.999999 -1,45 7.000003,11 17.000001,23 30,23 9.166617,0 17.742847,-2.46552 22.058594,-3.93164 0.210914,-2.04431 1.049884,-4.84363 2.246094,-8.20117 1.388406,-3.89701 3.278528,-8.447764 5.287109,-12.904299 2.008581,-4.456536 4.139363,-8.814042 6.029297,-12.326172 1.889934,-3.512126 3.438126,-6.110002 4.673828,-7.345703 1.294628,-1.294625 3.549889,-2.171619 6.517578,-3.033204 0.874553,-0.253899 1.823785,-0.495798 2.806641,-0.730468 C 96.686468,64.875603 92.549015,48.985286 89,41 85.375001,32.843749 76.000152,23.867157 60.132812,23.744141 Z m 135.734378,0 C 179.99985,23.867157 170.625,32.843749 167,41 c -3.54902,7.985286 -7.68647,23.875603 -8.61914,27.527344 0.98165,0.234429 1.92916,0.476853 2.80273,0.730468 2.9677,0.861585 5.23077,1.738579 6.52539,3.033204 1.23571,1.235701 2.7839,3.833577 4.67383,7.345703 1.88994,3.51213 4.02072,7.869636 6.0293,12.326172 2.00858,4.456535 3.89089,9.007289 5.2793,12.904299 1.19657,3.35855 2.04179,6.15865 2.2539,8.20312 C 190.26239,114.53661 198.83616,117 208,117 c 13,0 23,-12 30,-23 7,-11.000001 6,-32.000001 -1,-45 -7,-12.999999 -17,-23 -36,-25 -1.78125,-0.1875 -3.49136,-0.268585 -5.13281,-0.255859 z M 91.818359,72.453125 c -1.013555,0.45398 -1.751315,0.893893 -2.113281,1.255859 -0.764296,0.764296 -2.466111,3.414482 -4.326172,6.871094 -0.662108,1.230416 -1.362937,2.597788 -2.072265,4.013672 L 114,106.16211 v 21.72656 c -5.02464,-2.79976 -34.561536,-19.23104 -40.0625,-21.60156 -1.070568,3.10199 -1.762743,5.73059 -1.902344,7.20508 1.511746,0.75367 4.247455,2.35564 4.964844,4.50781 0.999999,3 10e-7,7 1,15 1.000003,8 2.999997,15 7,16 3.705668,0.92642 23.68968,-3.29661 29,-7.10352 v 8.16211 c -11.54575,0.58083 -26.337014,5.91964 -26.96875,9.69336 H 114 v 2.49414 H 87.292969 c 0.537083,2.1583 1.821473,4.52036 3.851562,6.96289 L 114,162.97656 v 2.5918 l -20.941406,5.71289 C 93.951246,172.18445 94.908949,173.09079 96,174 c 0.589854,0.49154 1.160894,0.98507 1.730469,1.47852 L 114,167.10938 v 2.81054 l -14.275391,7.3418 C 104.05435,181.25547 107.64759,185.51105 110,191 c 3,7 10,10 18,10 8,0 15,-3 18,-10 2.35241,-5.48895 5.94565,-9.74453 10.27539,-13.73828 L 142,169.91992 v -2.80859 l 16.26953,8.36523 C 158.8388,174.98339 159.41047,174.49127 160,174 c 1.09066,-0.90888 2.04705,-1.81588 2.93945,-2.71875 L 142,165.57031 v -2.59375 l 22.85352,6.23438 c 2.03112,-2.4433 3.31627,-4.80592 3.85351,-6.96485 H 142 v -2.49414 h 26.96875 c -0.63173,-3.77372 -15.423,-9.11253 -26.96875,-9.69336 v -8.16211 c 5.31032,3.8069 25.29433,8.02994 29,7.10352 4,-1 6,-8 7,-16 1,-8 0,-12 1,-15 0.71802,-2.15407 3.45791,-3.75895 4.96875,-4.51172 -0.14055,-1.47557 -0.83246,-4.10336 -1.90234,-7.20312 -5.49201,2.3651 -35.04072,18.80316 -40.06641,21.60351 v -21.72656 l 30.69141,-21.56836 c -0.71056,-1.415928 -1.4121,-2.783221 -2.07422,-4.013672 -1.86006,-3.456612 -3.56188,-6.106798 -4.32617,-6.871094 -0.36199,-0.361985 -1.09763,-0.801853 -2.10938,-1.255859 L 165.80469,85.435547 128,112 90.195312,85.435547 Z M 117,108.26953 128,116 139,108.26953 V 143.25 L 128,146 117,143.25 Z M 82,116 l 32,16.48438 v 4.9121 c -2.75903,1.12933 -23.326592,9.40756 -28,6.60352 -5.000001,-3 -4,-28 -4,-28 z m 92,0 c 0,0 1,25 -4,28 -4.67341,2.80404 -25.24097,-5.47419 -28,-6.60352 v -4.9121 z m -57,31.25 11,2.75 11,-2.75 V 156 169.25 L 128,172 117,169.25 V 156 Z m -59,12.50195 v 2.49414 h 24.158203 c -0.08222,-0.88037 -0.106062,-1.68526 -0.121094,-2.49414 z m 115.96289,0 c -0.015,0.80888 -0.0389,1.61377 -0.12109,2.49414 h 24.15429 v -2.49414 z m -2.95898,11.13477 c -0.36686,0.57941 -0.75982,1.15973 -1.22266,1.73828 -0.0949,0.11859 -0.25376,0.28796 -0.36523,0.41992 l 15.25586,4.1582 0.6582,-2.4082 z m -86.007816,0.002 -14.322266,3.90625 0.658203,2.41406 15.253907,-4.1621 c -0.112113,-0.13269 -0.271846,-0.3027 -0.367188,-0.42188 -0.462494,-0.57812 -0.856007,-1.15736 -1.222656,-1.73633 z m 38.753906,4.04883 2.50195,0.625 v 10.95508 l -5.36523,5.36719 -1.77344,-1.77149 4.63672,-4.6289 z m 8.49609,0 v 10.54688 l 4.63672,4.6289 -1.76562,1.77149 -5.36524,-5.36719 V 175.5625 l 0.83203,-0.20898 z m -40.283199,3.50391 -12.533203,6.44531 1.144531,2.22266 13.384765,-6.88282 c -0.710644,-0.61633 -1.357528,-1.20358 -1.996093,-1.78515 z m 72.076169,0 c -0.63855,0.58157 -1.28546,1.16881 -1.99609,1.78515 l 13.38672,6.88282 1.14453,-2.22266 z" />
    <path style="fill:#000000;"
          d="m 58.619592,28.759844 c -1.002014,0.03383 -2.034618,0.101889 -3.100396,0.214077 -17.423487,1.834051 -25.571504,10.237754 -32.118604,22.396654 -3.020595,5.609669 -4.923613,13.475611 -5.152559,21.031004 -0.229198,7.563739 1.280266,14.683387 3.971456,18.912402 3.36508,5.287979 7.390167,10.674999 11.818407,14.549709 4.417885,3.86565 9.00139,6.14173 13.959155,6.14173 7.590074,0 14.309931,-1.73924 18.255414,-2.99705 l -0.605314,-1.91191 c -3.826148,1.21977 -10.366689,2.90847 -17.6501,2.90847 -4.349904,0 -8.440974,-1.97493 -12.637797,-5.64715 C 31.172781,100.69462 27.216417,95.432109 23.909943,90.236226 21.597058,86.601692 20.028865,79.709569 20.248525,72.460635 20.468438,65.203363 22.351144,57.54093 25.164864,52.315457 31.573852,40.413051 38.862371,32.742913 55.733272,30.96703 c 1.020397,-0.107411 2.007198,-0.174524 2.960138,-0.206691 14.295973,-0.482608 21.225064,7.039705 23.909943,13.080709 2.347687,5.282272 5.319364,15.871561 6.894682,21.761815 L 91.432091,65.08613 C 89.849902,59.170174 86.919112,48.636982 84.42668,43.02904 81.464343,36.363743 73.64803,28.25251 58.619592,28.759844 Z m 138.757388,0 c -15.02844,-0.507334 -22.84475,7.603897 -25.80709,14.269196 -2.49243,5.607942 -5.41584,16.141134 -6.99803,22.057086 l 1.92667,0.516733 c 1.57533,-5.890254 4.55438,-16.479542 6.90207,-21.761814 2.68488,-6.041009 9.61397,-13.563315 23.90994,-13.080708 0.95294,0.03216 1.93974,0.09928 2.96014,0.206691 16.8709,1.775883 24.15942,9.446023 30.56841,21.348429 2.81371,5.225476 4.69643,12.887906 4.91634,20.145178 0.21966,7.248934 -1.34853,14.141057 -3.66142,17.775591 -3.30647,5.19588 -7.26284,10.458394 -11.44931,14.121554 -4.19682,3.67222 -8.29528,5.64715 -12.64518,5.64715 -7.28341,0 -13.81657,-1.68871 -17.64272,-2.90847 l -0.61269,1.91191 c 3.94548,1.25781 10.66534,2.99705 18.25541,2.99705 4.95777,0 9.54127,-2.27609 13.95915,-6.14173 4.42825,-3.87472 8.45333,-9.261734 11.81841,-14.549713 2.6912,-4.229015 4.20066,-11.348663 3.97146,-18.912401 -0.22896,-7.555397 -2.13197,-15.421336 -5.15256,-21.031005 -6.5471,-12.1589 -14.69512,-20.562603 -32.1186,-22.396654 -1.06578,-0.112188 -2.09839,-0.180245 -3.1004,-0.214073 z" />
    <path style="fill:#ffffff;"
          d="m 113.25391,42.748047 c -1.53045,0 -2.96979,0.867323 -3.87696,2.169922 -0.90716,1.302595 -1.38086,3.020557 -1.38086,5.080078 0,3.366656 2.16212,5.609378 3.78711,7.359375 1.625,1.750001 2.7168,3.00924 2.7168,4.642578 0,1.440476 -0.34467,2.343618 -0.65625,2.791016 -0.31158,0.447401 -0.49529,0.457031 -0.58984,0.457031 -0.0946,0 -0.28802,-0.0096 -0.59961,-0.457031 C 112.34271,64.343618 111.99805,63.440476 111.99805,62 h -4.00196 c 0,2.059521 0.4737,3.777479 1.38086,5.080078 0.90717,1.302599 2.34651,2.169922 3.87696,2.169922 1.53044,0 2.96783,-0.867323 3.875,-2.169922 0.90716,-1.302599 1.37304,-3.020557 1.37304,-5.080078 0,-3.36666 -2.16211,-5.609374 -3.78711,-7.359375 -1.62499,-1.749997 -2.71679,-3.009248 -2.71679,-4.642578 0,-1.440476 0.34467,-2.343614 0.65625,-2.791016 0.31158,-0.447398 0.50505,-0.457031 0.59961,-0.457031 0.0946,0 0.27826,0.0096 0.58984,0.457031 0.31158,0.447402 0.65625,1.35054 0.65625,2.791016 h 4.00195 c 0,-2.059521 -0.46587,-3.777483 -1.37304,-5.080078 -0.90717,-1.302599 -2.34456,-2.169922 -3.875,-2.169922 z M 102.00391,43 v 25.998047 h 3.99218 V 43 Z m 18.49804,0 v 25.998047 h 4.00196 V 43 Z m 6.4961,0 v 25.998047 h 4 v -10.1875 l 2.3164,10.1875 h 1.37696 L 137,58.826172 v 10.171875 h 4.00195 V 43 h -4.50976 L 133.99609,53.96875 131.50391,43 Z m 19.69336,0 -3.67383,25.71875 -0.0391,0.279297 h 4.04296 l 0.7129,-4.996094 h 2.53124 l 0.7129,4.996094 h 4.04296 L 154.98242,68.71875 151.30859,43 Z M 148.99609,55.158203 149.68945,60 h -1.38086 z" />
  </g>
</svg>
