<svg xmlns="http://www.w3.org/2000/svg" width="105" height="35" viewBox="0 0 105 35">
    <g fill="none">
        <path fill="#000" d="M56.958 12.107l4.098 10.713 4.098-10.713h3.284l-6.775 16.86c-.96 2.427-2.645 3.197-4.83 3.226-.576-.01-1.151-.08-1.714-.207l.468-2.781c.369.151.763.231 1.163.236.958 0 1.598-.296 2.004-1.237l.699-1.627-5.756-14.47h3.26zm42.196-.367c3.11 0 5.842 1.332 5.842 5.18v9.472h-3.052V24.86c-1.046 1.213-2.674 1.893-4.534 1.893-2.296 0-4.882-1.568-4.882-4.734 0-3.286 2.586-4.647 4.882-4.647 1.89 0 3.516.619 4.534 1.834v-2.138c0-1.657-1.337-2.663-3.284-2.663-1.57 0-2.935.592-4.156 1.805l-1.25-2.16c1.627-1.569 3.662-2.309 5.9-2.309zm-16.16-5.088v19.74h-3.052V24.44c-1.074 1.421-2.703 2.308-4.504 2.308-3.605 0-6.25-2.781-6.25-7.487 0-4.617 2.617-7.517 6.25-7.517 1.743 0 3.371.829 4.504 2.337V6.652h3.053zm-36.912 0V23.35h8.544v3.043H42.682V6.652h3.4zm43.626 5.446v14.294h-3.052V12.098h3.052zm8.893 7.394c-1.715 0-2.994 1.006-2.994 2.575 0 1.539 1.279 2.544 2.994 2.544 1.337 0 2.646-.494 3.343-1.474v-2.16c-.697-.978-2.006-1.485-3.343-1.485zm-22.292-4.996c-2.412 0-3.952 1.979-3.952 4.764 0 2.753 1.54 4.735 3.952 4.735 1.45-.002 2.936-.828 3.633-1.894v-5.682c-.697-1.066-2.179-1.923-3.633-1.923zm11.882-7.919c1.039.013 1.872.861 1.866 1.899-.007 1.038-.85 1.875-1.89 1.876-1.05-.019-1.89-.875-1.889-1.924.02-1.037.875-1.864 1.913-1.85z"/>
        <ellipse cx="17.563" cy="17.542" fill="#0180FF" rx="17.453" ry="17.432"/>
        <path fill="#F9F9FA" stroke="#FFF" stroke-width=".5" d="M18.983 8.071l7.485 17.159c.047.113.035.243-.032.345-.068.103-.182.166-.305.168h-1.733c-.263 0-.5-.158-.602-.4l-6.213-14.947-6.216 14.939c-.1.242-.338.4-.6.4H8.995c-.124-.001-.238-.064-.306-.167-.067-.104-.079-.233-.031-.347L16.172 8.07c.147-.336.479-.553.846-.553h1.114c.37-.002.704.216.851.554h0z"/>
    </g>
</svg>
