<svg xmlns="http://www.w3.org/2000/svg" viewBox="0 0 946.34 627.77">
  <defs>
    <style>
      .cls-1 {
        fill: #ed6a71;
      }

      @media (prefers-color-scheme: dark) {
        .cls-1 {
          fill: white;
        }
      }
    </style>
  </defs>
  <g id="Calque_2" data-name="Calque 2">
    <g id="Calque_1-2" data-name="Calque 1">
      <circle class="cls-1" cx="748.9" cy="396.7" r="29.29" />
      <path class="cls-1"
        d="M510.6,213.14a1,1,0,0,0-1,1s-.14,119.74-.42,121.8c-3.77,28.43-32.75,48.89-63.72,38.21-16.94-5.84-30.64-25.71-30.64-43.62V214.11a1,1,0,0,0-1-1H357.23a1,1,0,0,0-1,1c0,6-.07,123.14-.07,123.14a94.55,94.55,0,0,0,94.6,94.43c37.77,0,51.35-14.73,65.84-27.27l-.08,14.43c0,8.71-7.15,24.49-22.35,34.23-40.5,25.92-93.13,2.44-113.3-12.29a1,1,0,0,0-1.48.38c-2.95,6.29-15.07,32.37-17.5,37.54a.89.89,0,0,0,.36,1.13c117.16,70.61,202,2.59,202-69.72,0-88.14,0-193.41,0-196a1,1,0,0,0-1-1Z" />
      <path class="cls-1"
        d="M343.68,395.67a122.33,122.33,0,0,1-7-17.33c-.19-.6-.37-1.21-.55-1.81a1,1,0,0,0-.95-.71H225.52a1,1,0,0,1-1-1V119.71a1,1,0,0,0-1-1H170a1,1,0,0,0-1,1V425.22a1,1,0,0,0,1,1H363.53a.64.64,0,0,0,.46-1.08A124.34,124.34,0,0,1,343.68,395.67Z" />
      <path class="cls-1"
        d="M758.46,136.25a1,1,0,0,1,.45,1.29L740,177.73a1,1,0,0,1-1.43.38,47.12,47.12,0,0,0-26.65-8.2h-3a29,29,0,0,0-10.58,2h0a29.29,29.29,0,0,0-18.7,27.31c0,.79,0,10.18,0,13.25a1,1,0,0,0,1,1h55a1,1,0,0,1,1,1v48.22a1,1,0,0,1-1,1h-54a1,1,0,0,0-1,1V425.22a1,1,0,0,1-1,1H626.12a1,1,0,0,1-1-1V264.55a1,1,0,0,0-1-1h-30a1,1,0,0,1-1-1V214.39a1,1,0,0,1,1-1h30a1,1,0,0,0,1-1s-.13-14.39-.13-16.4a76.29,76.29,0,0,1,14.79-45.27C650.06,136.79,682.61,98,758.46,136.25Z" />
    </g>
  </g>
</svg>
