<?xml version="1.0" encoding="UTF-8" standalone="no"?>
<svg viewBox="0 0 100 100" version="1.1" xmlns="http://www.w3.org/2000/svg">
  <defs>
    <linearGradient x2="1" gradientUnits="objectBoundingBox" id="uca-gradient">
      <stop offset="0" style="stop-color:#006e83" />
      <stop offset="1" style="stop-color:#00989f" />
    </linearGradient>
    <linearGradient x2="1" y2="-0.5" gradientUnits="objectBoundingBox" id="shadow">
      <stop offset="0" style="stop-opacity:0;stop-color:#000000" />
      <stop offset="1" style="stop-opacity:0.5;stop-color:#000000" />
    </linearGradient>
  </defs>
  <style>
    #text0 { fill: #006d82; }

    #text1 { fill: #575756; }

    #uca-logo { fill: url(#uca-gradient); }

    #uca-logo-shadow { fill: url(#shadow); }

    @media (prefers-color-scheme: dark) {
      #text0 { fill: white; }

      #text1 { fill: white; }

      #uca-logo { fill: white; }

      #uca-logo-shadow { fill: none; }
    }
  </style>
  <path id="text0" d="m 95.218327,47.381063 h -0.960891 l 0.706851,-1.87912 h 1.514543 z m -2.851647,8.632509 v -7.870389 h 5.183578 v 1.372009 h -3.646733 v 1.845183 h 3.105686 v 1.37007 h -3.105686 v 1.912087 h 3.646733 v 1.37104 z m -7.281248,-6.499155 v 6.49838 h -1.536845 v -6.49838 h -2.05462 v -1.37104 h 5.647055 v 1.37104 z M 74.730784,48.143183 h 1.536845 v 7.870389 h -1.536845 z m -8.341914,7.936129 c -1.1936,0 -2.100193,-0.25404 -2.873948,-1.038461 l 0.994828,-0.994828 c 0.497414,0.497414 1.171299,0.662249 1.900452,0.662249 0.907562,0 1.393341,-0.341305 1.393341,-0.972527 0,-0.275371 -0.07757,-0.50808 -0.242405,-0.663218 -0.155139,-0.143504 -0.332579,-0.221073 -0.697155,-0.275372 l -0.950226,-0.132838 c -0.674854,-0.09987 -1.172268,-0.309308 -1.525209,-0.652552 -0.376212,-0.375243 -0.564318,-0.884292 -0.564318,-1.546541 0,-1.404007 1.039431,-2.388169 2.74208,-2.388169 1.082094,0 1.867484,0.265675 2.541369,0.917258 l -0.973497,0.961861 c -0.496444,-0.475112 -1.093729,-0.541046 -1.613444,-0.541046 -0.817388,0 -1.215901,0.452811 -1.215901,0.993858 0,0.199741 0.06787,0.409179 0.232708,0.564318 0.155139,0.143503 0.409179,0.264705 0.729153,0.309308 l 0.928894,0.132837 c 0.718487,0.09987 1.171299,0.298643 1.502908,0.607951 0.419845,0.397543 0.607951,0.972527 0.607951,1.668713 0,1.525209 -1.27117,2.387199 -2.917581,2.387199 M 56.00174,49.514417 H 54.5541 v 2.076922 h 1.44764 c 0.673885,0 1.11603,-0.430511 1.11603,-1.038461 0,-0.606981 -0.442145,-1.038461 -1.11603,-1.038461 m 1.1936,6.49838 -1.536845,-3.138654 H 54.5541 v 3.138654 h -1.536844 v -7.86942 h 3.083385 c 1.603748,0 2.553974,1.094699 2.553974,2.409501 0,1.105364 -0.674854,1.790884 -1.437944,2.067225 l 1.757918,3.392694 z m -14.84204,2.9e-4 v -7.870389 h 5.184547 v 1.372009 h -3.647702 v 1.846153 h 3.105686 v 1.37007 h -3.105686 v 1.911117 h 3.647702 v 1.37104 z m -7.535192,0 h -1.148997 l -2.597607,-7.870389 h 1.591143 l 1.580478,5.130249 1.580477,-5.130249 H 37.42638 Z M 24.607352,48.143183 h 1.536844 v 7.870389 h -1.536844 z m -7.181767,7.869904 -3.117322,-4.829667 v 4.829667 h -1.535875 v -7.870389 h 1.37007 l 3.117322,4.819971 v -4.819971 h 1.536845 v 7.870389 z m -13.2390668,0.06623 c -1.614414,0 -2.8962489,-1.093729 -2.8962489,-2.763411 v -5.171943 h 1.5368445 v 5.117644 c 0,0.905623 0.530381,1.44667 1.3594044,1.44667 0.8290234,0 1.3710398,-0.541047 1.3710398,-1.44667 v -5.117644 h 1.5252091 v 5.171943 c 0,1.669682 -1.2828046,2.763411 -2.8962489,2.763411" />
  <path id="text1" d="m 94.952749,88.055762 h -3.921135 c 0.0223,-0.429541 0.08339,-0.704912 0.236587,-1.067549 0.311247,-0.689399 0.923076,-1.068519 1.72495,-1.068519 0.799935,0 1.411764,0.37912 1.721072,1.067549 0.154169,0.363607 0.216225,0.639948 0.238526,1.068519 m 2.709113,0.680672 c 0,-3.107626 -1.832578,-5.116674 -4.668711,-5.116674 -2.880735,0 -4.66968,2.093405 -4.66968,5.462827 0,4.532965 2.693599,5.48416 4.953778,5.48416 1.982869,0 3.025208,-0.644796 4.064639,-1.684227 l 0.03588,-0.03684 -1.643503,-1.602779 -0.03588,-0.03491 -0.03588,0.03588 c -0.650613,0.651583 -1.194569,0.982223 -2.364898,0.982223 -1.361344,0 -2.246605,-0.884292 -2.267936,-2.25824 h 6.632187 z M 81.008285,83.619566 c -0.99095,0 -1.92857,0.372333 -2.593728,1.025856 v -0.902715 h -2.685842 v 10.701674 h 2.746928 v -6.458625 c 0,-1.388493 0.88817,-1.882998 1.719133,-1.882998 0.821266,0 1.69877,0.494505 1.69877,1.882998 v 6.458625 h 2.746928 v -6.82611 c 0,-1.370071 -0.327731,-2.280542 -1.092759,-3.04751 -0.622495,-0.622495 -1.500969,-0.951195 -2.53943,-0.951195 m -12.360205,5.17873 c 0,1.630897 -0.288946,2.7159 -1.698771,2.7159 -1.549449,0 -1.678408,-1.401098 -1.678408,-2.7159 0,-1.364253 0.128959,-2.695538 1.678408,-2.695538 1.409825,0 1.698771,1.077246 1.698771,2.695538 m 0.08145,-4.13736 c -0.705882,-0.747575 -1.427278,-1.0404 -2.532642,-1.0404 -1.034583,0 -1.975112,0.346154 -2.579184,0.950226 -1.01519,1.016159 -1.09276,2.393017 -1.09276,4.227534 0,1.847122 0.07757,3.232706 1.09276,4.247896 0.612798,0.612799 1.52133,0.950226 2.557852,0.950226 1.058823,0 1.825791,-0.302521 2.472526,-0.978345 v 0.948287 c 0,0.503232 -0.150291,2.146734 -2.084679,2.146734 -0.86199,0 -1.452487,-0.231739 -2.041046,-0.799935 l -0.03588,-0.03491 -1.720103,1.741434 0.03782,0.03491 c 1.045249,1.006464 2.13413,1.398189 3.880412,1.398189 2.81674,0 4.709434,-1.787006 4.709434,-4.446668 V 83.742708 H 68.72953 Z M 58.180084,83.620148 c -1.130575,0 -2.104071,0.515837 -2.61409,1.055914 V 83.74232 h -2.685842 v 10.701674 h 2.746928 v -6.440203 c 0,-1.306075 0.859081,-1.901421 1.658047,-1.901421 0.632191,0 0.967678,0.216225 1.368131,0.615707 l 0.03587,0.03685 2.064317,-2.087588 -0.03588,-0.03587 c -0.718487,-0.718487 -1.453457,-1.011312 -2.53749,-1.011312 m -11.81372,4.435605 H 42.44522 c 0.0223,-0.429541 0.08436,-0.704912 0.236587,-1.067549 0.311247,-0.689399 0.923076,-1.068519 1.72495,-1.068519 0.799935,0 1.411764,0.37912 1.721072,1.067549 0.154169,0.363607 0.216225,0.638978 0.238526,1.068519 M 44.406757,83.61976 c -2.880735,0 -4.66968,2.093405 -4.66968,5.462827 0,4.532965 2.693599,5.48416 4.953778,5.48416 1.982869,0 3.025208,-0.644796 4.064639,-1.684227 l 0.03588,-0.03684 -1.643503,-1.602779 -0.03588,-0.03491 -0.03588,0.03588 c -0.650613,0.651583 -1.194569,0.982223 -2.364898,0.982223 -1.361344,0 -2.246605,-0.884292 -2.267936,-2.25824 h 6.632187 v -1.231415 c 0,-3.107626 -1.832578,-5.116674 -4.668711,-5.116674 m -11.841843,6.5614 -2.120555,-6.439233 h -2.896248 l 3.930831,10.668707 0.01261,0.03394 h 2.146734 l 3.922105,-10.702643 h -2.896249 z m -10.672004,0.02085 c 0,1.387523 -0.88817,1.882029 -1.719133,1.882029 -0.821266,0 -1.69877,-0.494506 -1.69877,-1.882029 v -6.459595 h -2.746928 v 6.826111 c 0,1.3691 0.326761,2.280541 1.092759,3.046539 0.622495,0.622495 1.499999,0.951196 2.53943,0.951196 0.990949,0 1.92857,-0.372334 2.593728,-1.024887 v 0.902715 h 2.685842 V 83.742417 H 21.892906 Z M 8.2204199,89.398198 H 4.7617925 L 6.5206796,84.336792 Z M 7.5940467,79.856187 H 5.3057482 L 0.02520865,94.375247 -1.41922e-6,94.44409 H 3.0581737 l 0.8755651,-2.56367 h 5.0749805 l 0.8532639,2.56367 H 12.922098 L 7.6066517,79.889154 Z M 92.837237,71.693459 c 0,1.42243 0.818358,3.082416 3.12314,3.082416 h 1.49612 v -2.339689 h -1.007433 c -0.581771,0 -0.86393,-0.296703 -0.86393,-0.905623 v -5.035226 h 1.871363 v -2.116676 h -1.871363 v -3.132836 h -2.747897 v 3.132836 h -1.118939 v 2.116676 h 1.118939 z M 84.566201,63.95135 c -0.99095,0 -1.92857,0.372333 -2.593728,1.025856 v -0.902715 h -2.685842 v 10.700705 h 2.746928 V 68.31657 c 0,-1.387523 0.88817,-1.882028 1.719133,-1.882028 0.821266,0 1.69877,0.494505 1.69877,1.882028 v 6.458626 h 2.746928 v -6.825141 c 0,-1.370071 -0.327731,-2.280542 -1.092759,-3.04751 C 86.483136,64.28005 85.604662,63.95135 84.566201,63.95135 M 71.87555,71.963012 c -0.30543,0.30446 -0.700064,0.452812 -1.205235,0.452812 -0.499353,0 -0.876535,-0.144473 -1.184873,-0.452812 -0.549774,-0.550743 -0.595346,-1.519391 -0.595346,-2.549126 0,-1.017129 0.04557,-1.977051 0.595346,-2.526824 0.308338,-0.309308 0.68552,-0.452812 1.184873,-0.452812 0.505171,0 0.899805,0.148352 1.205235,0.452812 0.549773,0.549773 0.594376,1.509695 0.594376,2.526824 0,1.029735 -0.0446,1.999353 -0.594376,2.549126 m -1.205235,-8.010984 c -1.713315,0 -2.747898,0.716548 -3.313185,1.317711 -1.011311,1.053975 -1.214931,2.367807 -1.214931,4.144147 0,1.836457 0.199741,3.106656 1.214931,4.165479 0.565287,0.601163 1.5989,1.318681 3.313185,1.318681 1.820942,0 2.869099,-0.826115 3.332577,-1.317711 1.01519,-1.060762 1.214931,-2.329992 1.214931,-4.166449 0,-1.77634 -0.20362,-3.089203 -1.214931,-4.143177 -0.463478,-0.492566 -1.512604,-1.318681 -3.332577,-1.318681 M 58.381086,63.95135 c -1.31868,0 -2.270845,0.394635 -3.169681,1.316741 -0.66128,-0.873626 -1.606657,-1.316741 -2.812862,-1.316741 -0.973496,0 -1.912087,0.373303 -2.593728,1.027795 v -0.904654 h -2.685842 v 10.700705 h 2.746928 V 68.31657 c 0,-1.387523 0.88817,-1.882028 1.719133,-1.882028 0.821266,0 1.69877,0.494505 1.69877,1.882028 v 6.458626 h 2.746928 v -6.520681 c 0,-1.343891 0.925985,-1.819973 1.719133,-1.819973 0.821266,0 1.69877,0.494505 1.69877,1.882028 v 6.458626 h 2.745959 v -6.825141 c 0,-1.277957 -0.373303,-2.246605 -1.174208,-3.04751 -0.605041,-0.605041 -1.565933,-0.951195 -2.6393,-0.951195 m -16.394301,3.098996 0.03588,0.03588 2.065286,-2.086618 -0.03588,-0.03588 c -0.719456,-0.718487 -1.454427,-1.011311 -2.53846,-1.011311 -1.130574,0 -2.103101,0.514867 -2.61409,1.055914 v -0.933743 h -2.685842 v 10.701674 h 2.747898 v -6.440203 c 0,-1.307045 0.859081,-1.90239 1.657077,-1.90239 0.633161,0 0.969618,0.217194 1.368131,0.616677 m -16.391102,1.3372 c 0.0223,-0.429541 0.08436,-0.704912 0.236587,-1.067549 0.311247,-0.689399 0.923076,-1.068519 1.72495,-1.068519 0.799935,0 1.411764,0.37912 1.722042,1.067549 0.154169,0.363607 0.215255,0.638978 0.237556,1.068519 z m 2.246605,6.510985 c 1.981899,0 3.024238,-0.644796 4.063669,-1.684227 l 0.03588,-0.03684 -1.643503,-1.602779 -0.03588,-0.03491 -0.03588,0.03588 c -0.650614,0.651583 -1.195539,0.982223 -2.364899,0.982223 -1.361343,0 -2.246605,-0.884292 -2.267936,-2.257271 h 6.632187 v -1.232384 c 0,-3.107626 -1.832578,-5.115705 -4.668711,-5.115705 -2.880735,0 -4.67065,2.092436 -4.67065,5.461858 0,4.532965 2.694569,5.48416 4.955718,5.48416 m -9.133117,-0.122565 h 1.556237 v -2.339688 h -1.06755 c -0.620555,0 -0.885261,-0.270524 -0.885261,-0.905623 V 60.188068 h -2.746928 v 11.505487 c 0,1.42243 0.823206,3.082416 3.143502,3.082416 M 6.5012872,74.897852 c 2.8826743,0 4.8946318,-1.72689 5.3804098,-4.62023 l 0.0097,-0.05915 H 8.9233929 l -0.0097,0.03878 c -0.225921,0.920168 -0.8241753,2.015836 -2.3930172,2.015836 -0.7291528,0 -1.3584348,-0.260827 -1.7724617,-0.73497 -0.5245634,-0.582741 -0.6990946,-1.250808 -0.6990946,-4.055912 0,-2.805105 0.1745312,-3.473172 0.7000642,-4.055912 0.4130573,-0.474144 1.0423393,-0.73594 1.7714921,-0.73594 1.5678722,0 2.1670962,1.096637 2.3930172,2.016805 l 0.0097,0.03879 h 2.9680011 l -0.0097,-0.05915 C 11.395916,61.793459 9.3839585,60.0656 6.5012842,60.0656 c -1.553328,0 -2.8797654,0.539107 -3.9424667,1.602778 -1.4408524,1.440852 -1.4408524,3.191983 -1.4389131,5.616028 v 0.395604 c -0.00194,2.423075 -0.00194,4.175175 1.4389131,5.616027 1.0627013,1.062701 2.3891387,1.601809 3.9424667,1.601809" />
  <path id="uca-logo" d="m 83.938277,19.960751 c 0,2.751776 -2.229152,4.981897 -4.980928,4.981897 -2.749836,0 -4.980927,-2.230121 -4.980927,-4.981897 0,-2.751776 2.231091,-4.981897 4.980927,-4.981897 2.751776,0 4.980928,2.230121 4.980928,4.981897 M 49.476114,1.5472208 c -5.617967,0.054299 -11.024557,2.7159 -14.494819,7.1383277 v 0 l -0.0039,-9.697e-4 C 32.398232,11.95704 30.977742,16.059493 30.977742,20.253091 v 0 c -0.01067,5.905943 -4.82191,10.71234 -10.731732,10.71234 v 0 c -5.834191,0 -10.5988942,-4.682286 -10.7278534,-10.489328 v 0 V 4.8749498 L 9.5094301,4.7741095 C 9.1400056,2.9328049 7.5265613,1.5860055 5.6571378,1.5472208 v 0 H 5.494242 C 3.3174496,1.5908536 1.5585626,3.3778596 1.5585626,5.5653178 v 0 14.6722592 c 0,10.303161 8.3852563,18.687448 18.6903564,18.687448 v 0 c 5.731412,0 11.181635,-2.668389 14.710074,-7.167416 v 0 c 0.506141,0.617646 1.085973,1.212992 1.611506,1.737555 v 0 c 2.016805,1.988686 4.410792,3.459597 7.110208,4.373947 v 0 c 1.937297,0.653522 3.948285,0.987071 5.976726,0.987071 v 0 c 7.479633,0 14.320288,-4.577567 17.197144,-11.450219 v 0 l 0.01551,0.0078 0.201681,-0.524563 c 0.757271,-1.978021 1.170329,-4.053973 1.227536,-6.177437 v 0 l 0.01067,-0.50711 c 0,-5.904004 4.803487,-10.7074913 10.704582,-10.7074913 v 0 c 5.902065,0 10.705553,4.8034873 10.705553,10.7074913 v 0 l 9.69e-4,13.149959 c -0.02133,0.28022 -0.02133,0.516807 0,0.739819 v 0 c 0.160957,2.061408 1.532966,3.823204 3.491595,4.483513 v 0 c 1.376857,0.467356 2.91855,0.318035 4.192628,-0.397543 v 0 c 1.109243,-0.628312 1.945054,-1.635745 2.351323,-2.837102 v 0 c 0.06884,-0.205559 0.124112,-0.425662 0.176471,-0.692307 v 0 l 0.0669,-0.351972 -0.307369,-0.181318 C 98.212989,33.240197 97.67679,32.089261 97.664185,29.737937 v 0 -0.420814 -9.11247 c 0,-10.2857075 -8.366834,-18.6535107 -18.649633,-18.6535107 v 0 c -10.282798,0 -18.647693,8.365864 -18.648662,18.6506017 v 0 h -0.0058 c 0,1.102456 -0.167744,2.190367 -0.499353,3.235616 v 0 l -0.06593,0.193923 c -1.470911,4.354555 -5.546215,7.278922 -10.138326,7.279892 v 0 c -1.164511,0 -2.318357,-0.191015 -3.431478,-0.567226 v 0 c -5.588896,-1.892738 -8.60053,-7.97903 -6.708805,-13.569847 v 0 c 1.468971,-4.354555 5.544276,-7.2779529 10.135417,-7.2779529 v 0 c 1.148028,0 2.285389,0.1842274 3.330638,0.5284419 v 0 c 0.120232,0.05624 0.246283,0.105688 0.376211,0.149321 v 0 c 0.414027,0.140595 0.843568,0.210407 1.278927,0.210407 v 0 c 1.706527,0 3.22204,-1.0879112 3.767935,-2.7062036 v 0 C 58.747601,6.6697127 58.67391,5.5905278 58.202676,4.6364237 v 0 C 57.763439,3.7463144 57.02362,3.0656426 56.108301,2.7039751 v 0 l 0.0019,-0.00582 -0.48093,-0.1628958 C 53.748251,1.8991922 51.798349,1.5666132 49.827116,1.5472208 v 0 z" />
  <path id="uca-logo-shadow" d="m 30.976772,20.25503 c 0,-9.69e-4 0,-9.69e-4 0,-0.0019 v 0 -0.0048 c 0,0.0019 0,0.0039 0,0.0068 m 0,0 c 0,0 0,0 0,0 m -7.008398,10.030698 3.900773,6.996764 c 2.746927,-1.230445 5.197152,-3.110535 7.089846,-5.524883 v 0 l 0.0078,0.0087 C 33.363045,29.730211 32.161689,27.358526 31.518832,24.75898 v 0 c -0.36365,-1.473893 -0.544968,-2.984558 -0.54206,-4.50395 v 0 c -0.0087,4.596959 -2.931155,8.514216 -7.008398,10.030698" />
</svg>
