<?xml version="1.0" standalone="no"?>
<!DOCTYPE svg PUBLIC "-//W3C//DTD SVG 20010904//EN"
 "http://www.w3.org/TR/2001/REC-SVG-20010904/DTD/svg10.dtd">
<svg version="1.0" xmlns="http://www.w3.org/2000/svg"
 width="512.000000pt" height="512.000000pt" viewBox="0 0 512.000000 512.000000"
 preserveAspectRatio="xMidYMid meet">
<metadata>
Created by potrace 1.11, written by Peter Selinger 2001-2013
</metadata>
<g transform="translate(0.000000,512.000000) scale(0.100000,-0.100000)"
fill="#000000" stroke="none">
<path d="M2405 5110 c-3 -5 -31 -10 -62 -10 -79 0 -251 -28 -430 -71 -151 -36
-343 -110 -512 -196 -127 -64 -271 -152 -271 -165 0 -5 29 -8 64 -8 38 0 98
-10 150 -25 l86 -25 132 64 c222 107 449 175 723 217 104 16 487 16 590 0 295
-46 509 -110 735 -222 l103 -50 77 20 c42 12 104 21 138 21 34 0 62 3 62 8 0
7 -89 67 -154 104 -35 20 -251 125 -281 137 -58 24 -72 29 -95 39 -30 13 -127
44 -190 62 -25 7 -56 16 -70 20 -24 7 -88 21 -190 40 -105 20 -181 30 -233 30
-31 0 -59 5 -62 10 -4 6 -67 10 -155 10 -88 0 -151 -4 -155 -10z"/>
<path d="M2320 4609 c-158 -25 -195 -33 -325 -69 -70 -19 -147 -47 -222 -81
-24 -10 -47 -19 -53 -19 -20 0 -9 -37 20 -65 30 -29 40 -55 140 -375 23 -74
51 -161 62 -194 22 -64 20 -70 -32 -82 -52 -13 -151 -67 -175 -95 -49 -60
-216 -451 -303 -713 -21 -63 -27 -66 -242 -106 -25 -5 -69 -14 -98 -19 -114
-23 -207 -12 -312 37 -43 19 -146 88 -180 119 -31 29 -48 29 -54 1 -21 -96
-32 -500 -17 -618 60 -474 257 -884 581 -1211 122 -123 190 -180 320 -267 346
-231 741 -352 1149 -352 110 0 305 18 388 35 143 30 246 61 388 115 57 21 246
118 318 162 252 154 523 428 670 676 163 276 249 525 288 827 20 165 -2 658
-32 690 -6 5 -27 -8 -57 -37 -50 -48 -144 -114 -202 -140 -105 -49 -199 -60
-312 -37 -29 6 -78 15 -108 21 -203 38 -212 42 -232 104 -86 260 -254 654
-303 712 -24 29 -123 83 -175 96 -52 12 -54 18 -32 82 11 33 39 120 62 194
104 332 108 342 151 386 23 23 38 47 34 53 -8 14 -49 31 -163 70 -143 49 -265
78 -429 101 -85 12 -435 11 -513 -1z m11 -369 c25 -24 30 -37 27 -67 -3 -35
-6 -38 -32 -38 -25 0 -31 5 -38 33 -12 46 -42 40 -46 -9 -2 -26 5 -50 27 -85
97 -159 106 -183 91 -250 -16 -71 -84 -103 -150 -69 -33 17 -44 35 -54 84 -7
40 6 61 40 61 19 0 25 -8 34 -40 12 -45 25 -57 45 -40 29 24 17 73 -40 164
-86 137 -94 198 -35 257 40 40 91 40 131 -1z m-213 -215 c1 -126 0 -240 -3
-252 -4 -18 -12 -23 -40 -23 l-35 0 0 256 0 255 38 -3 37 -3 3 -230z m370 0
c1 -126 0 -240 -3 -253 -5 -19 -11 -23 -38 -20 l-32 3 -3 240 c-1 132 0 246 3
253 3 8 17 12 37 10 l33 -3 3 -230z m146 223 c2 -7 9 -40 16 -73 19 -99 25
-117 35 -116 6 0 11 11 13 23 3 29 23 137 29 161 3 13 15 17 49 17 l44 0 0
-255 0 -255 -29 0 c-40 0 -45 20 -37 149 7 122 -5 164 -22 74 -6 -32 -17 -95
-23 -141 -10 -65 -16 -82 -28 -80 -11 2 -19 28 -29 98 -7 52 -19 113 -25 135
-11 37 -12 29 -17 -95 l-5 -135 -32 -3 -33 -3 0 255 0 256 45 0 c28 0 47 -5
49 -12z m401 -25 c9 -56 22 -148 35 -238 6 -44 16 -102 21 -128 5 -26 9 -62 9
-78 0 -28 -2 -30 -32 -27 -30 3 -34 7 -44 48 -10 42 -13 45 -45 45 -29 0 -34
-4 -37 -25 -7 -65 -11 -70 -48 -70 l-37 0 7 38 c3 20 11 69 16 107 5 39 14 99
20 135 5 36 15 99 21 140 6 41 13 78 15 82 3 5 25 8 49 8 43 0 44 -1 50 -37z
m-1201 -605 c-8 -26 -21 -177 -16 -198 1 -8 19 -26 40 -39 20 -13 80 -54 132
-91 52 -36 163 -113 245 -170 83 -57 187 -130 233 -162 45 -32 87 -58 94 -58
6 0 40 22 77 49 36 26 107 76 156 109 50 34 149 102 220 152 72 50 165 114
207 143 43 29 79 57 81 62 6 13 -9 176 -18 204 -10 31 25 27 57 -6 25 -27 98
-162 98 -182 0 -11 -66 -59 -470 -336 -144 -99 -130 -66 -130 -307 0 -233 -3
-226 72 -184 24 12 106 56 183 96 326 169 393 204 454 237 70 38 76 37 98 -24
19 -55 17 -64 -22 -101 -44 -44 -59 -89 -50 -157 9 -75 -19 -227 -72 -385 -42
-124 -46 -130 -101 -130 -71 0 -251 41 -472 108 -36 11 -72 21 -80 23 -13 3
-15 -17 -15 -135 0 -103 3 -140 13 -143 9 -4 12 12 12 57 l0 62 53 -7 c68 -9
257 -58 329 -85 69 -26 122 -60 126 -83 3 -16 -15 -17 -241 -17 -206 0 -246
-2 -250 -15 -4 -8 -2 -17 4 -20 5 -4 112 -6 238 -5 155 0 232 -3 236 -10 8
-13 -54 -120 -74 -128 -15 -6 -140 23 -293 67 -18 6 -50 13 -70 17 -34 6 -38
4 -38 -15 0 -14 8 -23 28 -27 43 -10 201 -51 267 -69 32 -9 62 -18 65 -21 5
-5 -76 -84 -87 -84 -2 0 -63 30 -134 66 -72 36 -133 64 -136 60 -15 -15 14
-37 113 -86 60 -30 112 -59 116 -64 3 -5 -18 -34 -48 -63 -62 -61 -95 -110
-114 -168 -54 -164 -222 -265 -418 -253 -90 6 -159 28 -222 71 -73 50 -101 88
-145 199 -20 50 -43 84 -91 133 -35 36 -64 71 -64 78 0 6 42 32 93 56 116 56
152 80 139 93 -7 7 -55 -12 -142 -57 -129 -65 -132 -66 -153 -48 -57 49 -71
63 -66 67 6 6 74 25 238 66 110 28 141 44 121 64 -9 9 -60 -2 -274 -58 -54
-14 -107 -26 -116 -26 -19 0 -76 80 -82 115 -3 19 4 20 237 25 132 3 239 8
238 13 -2 4 -3 12 -3 17 0 6 -88 10 -245 10 -135 0 -245 3 -245 6 0 23 32 51
93 79 71 32 275 88 370 101 l47 6 0 -62 c0 -45 3 -61 13 -57 9 3 12 40 12 143
0 118 -2 138 -15 135 -8 -2 -44 -12 -80 -23 -214 -65 -401 -108 -467 -108 -34
0 -45 5 -61 28 -56 79 -128 383 -116 488 8 65 -7 110 -51 157 -39 41 -40 46
-22 100 22 61 28 62 98 24 64 -34 186 -98 454 -237 77 -40 159 -83 183 -96 75
-42 72 -49 72 184 0 114 -4 212 -8 218 -4 5 -50 40 -102 75 -52 36 -147 101
-210 145 -63 45 -152 106 -197 138 -46 31 -83 61 -83 65 0 19 74 159 98 184
32 34 67 37 56 5z m-183 -1714 c10 -13 10 -17 -2 -25 -8 -5 -123 -8 -259 -6
l-245 2 -3 23 -3 22 249 0 c215 0 251 -2 263 -16z m2327 -6 l-3 -23 -249 -3
c-153 -1 -253 1 -259 7 -7 7 -6 16 3 26 11 13 49 15 262 15 l249 0 -3 -22z
m-2258 -213 c20 -25 26 -22 -199 -81 -80 -20 -97 -22 -108 -11 -22 22 4 35
132 67 65 16 120 31 123 35 11 10 40 5 52 -10z m1854 -24 c123 -31 152 -46
137 -70 -7 -11 -31 -8 -137 19 -139 34 -184 49 -184 59 0 16 26 32 45 27 11
-2 74 -18 139 -35z m-1706 -133 c-4 -14 -207 -124 -246 -135 -20 -5 -23 -2
-20 13 2 13 41 38 113 76 107 56 161 72 153 46z m1537 -46 c72 -38 111 -63
113 -76 3 -15 0 -18 -20 -13 -39 11 -242 121 -246 135 -8 26 46 10 153 -46z"/>
<path d="M2970 4031 c-14 -54 -10 -96 10 -96 18 0 27 95 11 122 -7 14 -11 9
-21 -26z"/>
<path d="M2342 2593 l3 -347 105 -22 c111 -24 131 -23 275 11 l50 12 3 347 c2
334 2 346 -17 346 -10 0 -24 -6 -30 -14 -7 -8 -48 -38 -91 -66 l-80 -53 -80
53 c-43 28 -84 58 -91 66 -6 8 -20 14 -30 14 -19 0 -19 -12 -17 -347z"/>
<path d="M1655 2773 c-4 -10 -9 -86 -12 -170 -8 -212 16 -319 84 -373 34 -27
88 -23 203 14 75 24 92 30 245 89 104 40 107 41 103 95 -3 51 16 37 -243 172
-88 45 -206 107 -262 136 -56 30 -104 54 -106 54 -3 0 -8 -8 -12 -17z"/>
<path d="M3381 2754 c-36 -19 -153 -81 -260 -136 -298 -154 -276 -139 -279
-190 -4 -54 -1 -55 103 -95 153 -59 170 -65 245 -89 115 -37 169 -41 203 -14
67 53 92 160 85 372 -5 144 -12 189 -27 187 -3 0 -35 -16 -70 -35z"/>
<path d="M2348 2154 c-12 -12 -10 -412 2 -419 19 -12 144 -29 210 -29 74 0
199 19 212 32 4 4 7 100 6 213 l-3 204 -35 -1 c-19 0 -68 -5 -108 -11 -48 -8
-93 -8 -135 -2 -34 5 -80 12 -102 15 -22 3 -43 2 -47 -2z"/>
<path d="M2487 1594 c-4 -4 -7 -48 -7 -99 l0 -91 -40 -39 c-37 -36 -51 -65
-31 -65 4 0 31 25 60 55 l52 55 -3 91 c-3 85 -12 112 -31 93z"/>
<path d="M2607 1594 c-4 -4 -7 -47 -7 -96 l0 -89 51 -55 c29 -30 56 -54 60
-54 20 0 6 28 -31 65 l-39 38 -3 95 c-3 88 -12 115 -31 96z"/>
<path d="M1015 4505 c-122 -25 -185 -50 -291 -117 -145 -92 -269 -270 -319
-458 -23 -85 -31 -295 -15 -369 63 -291 272 -530 517 -591 54 -14 92 -10 273
27 137 28 135 27 138 51 2 12 0 22 -5 22 -4 0 -62 -11 -129 -25 -189 -38 -239
-41 -308 -16 -82 29 -176 92 -243 165 -203 219 -263 497 -168 782 68 200 226
369 415 441 109 42 136 47 240 47 85 0 116 -5 164 -24 93 -36 170 -85 240
-153 60 -58 65 -68 91 -152 14 -49 35 -115 45 -145 10 -30 30 -94 45 -142 21
-71 31 -88 46 -88 25 0 24 23 -5 112 -13 40 -38 120 -56 178 -18 58 -39 125
-47 148 -39 125 -235 271 -411 307 -85 17 -133 17 -217 0z"/>
<path d="M3895 4504 c-80 -15 -212 -78 -270 -129 -22 -19 -43 -35 -46 -35 -4
0 -23 -21 -44 -46 -40 -48 -51 -75 -115 -284 -23 -74 -48 -154 -56 -178 -19
-57 -18 -74 4 -70 18 3 32 41 117 313 l47 150 72 71 c56 54 96 82 172 120 l99
49 120 0 c98 0 133 -5 190 -24 333 -110 526 -401 513 -771 -4 -93 -10 -131
-33 -199 -66 -193 -244 -380 -422 -442 -69 -25 -130 -21 -311 17 -139 29 -134
29 -130 2 3 -24 1 -23 138 -51 181 -37 219 -41 273 -27 219 54 438 281 502
520 23 86 31 292 15 373 -52 261 -196 460 -412 570 -85 42 -112 52 -218 72
-89 18 -112 18 -205 -1z"/>
<path d="M195 3523 c-47 -117 -61 -158 -85 -243 -7 -25 -16 -56 -21 -70 -15
-47 -40 -175 -55 -290 -8 -63 -19 -134 -24 -158 -13 -54 -13 -363 -1 -411 5
-20 15 -81 21 -136 12 -103 17 -128 52 -275 143 -598 531 -1153 1047 -1499
323 -216 703 -362 1076 -410 246 -32 375 -38 515 -21 47 6 126 15 175 21 315
37 643 148 943 321 319 183 639 485 849 798 212 317 361 716 403 1080 6 52 16
131 22 175 23 172 -16 553 -82 799 -28 107 -90 289 -101 300 -5 6 -9 15 -9 22
0 19 -44 114 -52 114 -5 0 -8 -12 -8 -27 0 -43 -28 -178 -45 -219 -19 -45 -19
-72 -1 -115 29 -70 70 -244 97 -419 16 -101 16 -483 0 -590 -29 -200 -90 -438
-141 -557 -6 -13 -14 -33 -19 -45 -32 -78 -117 -246 -163 -321 -153 -254 -406
-526 -643 -693 -141 -99 -325 -201 -465 -257 -25 -10 -54 -22 -65 -27 -64 -28
-244 -80 -340 -100 -33 -6 -71 -14 -85 -17 -158 -32 -515 -44 -663 -23 -185
27 -265 44 -432 90 -179 50 -428 168 -612 291 -484 324 -822 795 -971 1354
-28 105 -37 150 -62 316 -13 85 -13 473 0 558 31 200 60 335 86 389 15 31 13
54 -6 97 -23 51 -51 155 -62 231 -7 46 -15 84 -19 84 -4 0 -28 -53 -54 -117z"/>
</g>
</svg>
