<svg xmlns="http://www.w3.org/2000/svg" xmlns:xlink="http://www.w3.org/1999/xlink" width="1920" height="1080" viewBox="0 0 1920 1080">
  <defs>
    <clipPath id="clip-Background">
      <rect width="1920" height="1080"/>
    </clipPath>
  </defs>
  <g id="Background" clip-path="url(#clip-Background)">
    <g id="Groupe_66" data-name="Groupe 66" transform="translate(26.465 578.959)">
      <path id="Tracé_344" data-name="Tracé 344" d="M759.85,476.8c-7.332,17.633-22.673,33.559-39.14,48.642Q699,545.338,674.256,563.891q-6.856,5.15-13.931,10.171l-3.277,2.311q-4.358,3.083-8.864,6.109l-.361.245q-4.371,2.974-8.819,5.89a241.71,241.71,0,0,1-31.293,17.942c-3.863,1.79-7.847,3.457-11.974,4.95q-3.348,1.217-6.837,2.279c-3.811,1.159-7.725,2.169-11.813,3-.682.142-1.371.277-2.06.406-4.184.785-8.42,1.358-12.7,1.751-15.688,1.436-31.892.386-47.606-2.073-7.854-1.23-15.585-2.813-23.066-4.616-.921-.219-1.835-.444-2.755-.644-25.473-6.373-49.389-15.025-75.043-21.109q-13.261-3.148-27.038-5.343-6.721-1.069-13.519-1.931c-10.667-1.326-21.469-2.215-32.317-2.665-14.626-.644-29.729-.367-43.647,2.189q-2.781.509-5.491,1.146-3.438.8-6.747,1.835a120.086,120.086,0,0,0-17.311,7.126c-1.1.541-2.189,1.088-3.277,1.641h0c-3.412,1.738-6.779,3.515-10.2,5.24a128.713,128.713,0,0,1-19.145,8.124,101.391,101.391,0,0,1-11,2.807,162.028,162.028,0,0,1-30.8,2.8c-5.066,0-10.139-.11-15.154-.373h-.155c-1.712-.09-3.431-.193-5.15-.322-7.828-.534-15.63-1.358-23.317-2.485-26.336-3.863-51.314-11.163-71.405-22.3-27.289-15.115-44.619-37.653-42.018-60.172,1.867-16.223,13.461-31.287,24.463-46.035,20.465-27.463,39.636-55.55,49.724-85.156,8.182-24.031,10.622-49.44,29.452-71.039a98.711,98.711,0,0,1,22.725-18.753A145.1,145.1,0,0,1,183.578,296.2a181.818,181.818,0,0,1,25.358-8.272,201.778,201.778,0,0,1,22.737-4.275c4.159-.541,8.369-.959,12.6-1.242q4.893-.341,9.83-.431h.509q3.019-.058,6.038,0a281.339,281.339,0,0,1,43.775,4.114c9.051,1.513,18.025,3.367,26.812,5.407q7.867,1.822,15.592,3.817c1.571.406,3.142.818,4.693,1.236,36.643,9.817,68.882,23.375,104.185,34.5.18.058.354.116.534.161h0a217.494,217.494,0,0,0,22.042,5.536q8.2,1.642,16.738,2.871c8.7,1.288,17.594,2.3,26.549,3.18l1.976.193c13.139,1.287,26.394,2.247,39.269,3.367,4.571.4,9.1.811,13.57,1.288q4.249.425,8.42.9c2,.232,4,.464,6,.708s4.12.5,6.18.766c1.339.167,2.672.341,4.011.528,8.111,1.075,16.2,2.279,24.205,3.657,4.867.837,9.708,1.738,14.491,2.71q5.2,1.056,10.3,2.227,3.785.856,7.506,1.8c20.156,5.066,39.018,11.71,55.273,20.677C754.99,404.864,773.877,443.084,759.85,476.8Z" transform="translate(-31.667 -161.675)" fill="#6c63ff" opacity="0.1"/>
      <circle id="Ellipse_146" data-name="Ellipse 146" cx="13.924" cy="13.924" r="13.924" transform="translate(146.364 30.347)" fill="#6c63ff" opacity="0.1"/>
      <circle id="Ellipse_147" data-name="Ellipse 147" cx="13.924" cy="13.924" r="13.924" transform="translate(430.976 0)" fill="#6c63ff" opacity="0.1"/>
      <circle id="Ellipse_148" data-name="Ellipse 148" cx="13.924" cy="13.924" r="13.924" transform="translate(599.736 31.184)" fill="#6c63ff" opacity="0.1"/>
      <ellipse id="Ellipse_149" data-name="Ellipse 149" cx="23.336" cy="23.336" rx="23.336" ry="23.336" transform="translate(0 54.623)" fill="#6c63ff" opacity="0.1"/>
      <ellipse id="Ellipse_150" data-name="Ellipse 150" cx="23.336" cy="23.336" rx="23.336" ry="23.336" transform="translate(22.371 169.855)" fill="#6c63ff" opacity="0.1"/>
      <ellipse id="Ellipse_151" data-name="Ellipse 151" cx="23.336" cy="23.336" rx="23.336" ry="23.336" transform="translate(648.694 127.438)" fill="#6c63ff" opacity="0.1"/>
      <path id="Tracé_345" data-name="Tracé 345" d="M370.83,322.559a25.109,25.109,0,0,1-.341,5.858c-1.288,5.981-6.734,10.088-12.006,13.2s-11.066,6.064-14.2,11.324c-3.779,6.354-2.575,14.9,1.86,20.832s11.465,9.47,18.7,10.944a43.3,43.3,0,0,0,37.544-10.242,40.941,40.941,0,0,0,12.431-36.694c-5.369.753-10.152-3.985-11.89-9.122s-1.378-10.706-2.053-16.094a5.524,5.524,0,0,0-.8-2.575,5.784,5.784,0,0,0-3.328-1.809c-6.206-1.706-16.647-5.44-23.079-4.011C367.875,305.5,370.733,317.692,370.83,322.559Z" transform="translate(-142.715 -168.476)" fill="#be6f72"/>
      <path id="Tracé_346" data-name="Tracé 346" d="M370.83,322.559a25.109,25.109,0,0,1-.341,5.858c-1.288,5.981-6.734,10.088-12.006,13.2s-11.066,6.064-14.2,11.324c-3.779,6.354-2.575,14.9,1.86,20.832s11.465,9.47,18.7,10.944a43.3,43.3,0,0,0,37.544-10.242,40.941,40.941,0,0,0,12.431-36.694c-5.369.753-10.152-3.985-11.89-9.122s-1.378-10.706-2.053-16.094a5.524,5.524,0,0,0-.8-2.575,5.784,5.784,0,0,0-3.328-1.809c-6.206-1.706-16.647-5.44-23.079-4.011C367.875,305.5,370.733,317.692,370.83,322.559Z" transform="translate(-142.715 -168.476)" opacity="0.1"/>
      <path id="Tracé_347" data-name="Tracé 347" d="M358.273,761.017a128.741,128.741,0,0,1-19.145,8.124,101.384,101.384,0,0,1-11,2.807,69.205,69.205,0,0,1,.8-14.806,78.825,78.825,0,0,0,1.436-8.453,22.17,22.17,0,0,0-2.543-11.871c7.171-.979,13.982-2.575,21.186-2.1l.457.032a8.033,8.033,0,0,1,2.511.47,6.778,6.778,0,0,1,2.723,2.395,16.537,16.537,0,0,1,1.024,1.577,25.106,25.106,0,0,1,2.968,11.749,78.155,78.155,0,0,1-.425,10.081Z" transform="translate(-137.658 -321.937)" fill="#be6f72"/>
      <path id="Tracé_348" data-name="Tracé 348" d="M419.825,750.1q-3.438.8-6.747,1.835a120.127,120.127,0,0,0-17.311,7.126,25.542,25.542,0,0,1-.528-5.33A29.768,29.768,0,0,1,418,749.048a3.006,3.006,0,0,1,1.442.579A1.933,1.933,0,0,1,419.825,750.1Z" transform="translate(-161.672 -326.866)" fill="#be6f72"/>
      <path id="Tracé_349" data-name="Tracé 349" d="M399.13,658.01a49.432,49.432,0,0,1-2.575,12.392c-1.616,4.249-4.242,8.369-3.908,12.907.148,1.97.818,4.107.914,6.058q-2.781.508-5.491,1.146-3.438.805-6.747,1.835a120.149,120.149,0,0,0-17.311,7.126c-1.1.541-2.189,1.088-3.277,1.642h0c-.451-.058-.895-.129-1.345-.212-3.219-.586-6.6-2.028-8.427-4.6a7.394,7.394,0,0,1-.972-1.931c-1.049-3.135.045-7.043-2.137-9.528l-.1.09-.077.052a21.636,21.636,0,0,1-3.914,2.82h0a26.232,26.232,0,0,1-21.244,2.047,23.25,23.25,0,0,1-3.985-1.79c-2.948-1.68-5.794-4.506-5.562-7.88.129-1.88,1.2-3.682.914-5.543a11.594,11.594,0,0,0-1.745-3.618c-4.307-7.725.83-17.658-1.873-26.053-.064-.2-.135-.4-.206-.592-.2-.547-.425-1.075-.644-1.6-.554-1.23-1.172-2.44-1.661-3.7a21.563,21.563,0,0,1-.966-3.264,40.855,40.855,0,0,1-.644-9.8,102.487,102.487,0,0,1,3.747-25.827c.393-1.481.83-3.573,1.41-5.852h0a44.807,44.807,0,0,1,2.279-7.03c1.287-2.961,3.039-5.323,5.433-5.884,3.6-.843,9.116.94,12.772,1.378l14.452,1.725,28.9,3.457c4.989.6,10.229,1.287,14.343,4.094.27.187.534.38.8.586a16.306,16.306,0,0,1,2.9,2.948c.3.38.579.779.85,1.185a26.783,26.783,0,0,1,2.382,4.545c3.586,8.614,3.669,18.225,3.7,27.553C400.1,638.621,400.134,648.348,399.13,658.01Z" transform="translate(-129.911 -267.276)" fill="#3f3d56"/>
      <path id="Tracé_350" data-name="Tracé 350" d="M361.315,719.269c-.869-3.348-2.7-8.195-2.974-9.515a120.743,120.743,0,0,1-1.97-13.4c-.715-8.021-2-19.313.83-26.941,2.659,1.416,5,5.427,6.225,8.163,4.455,9.92-.56,22.1,3.624,32.136a5.292,5.292,0,0,1,.573,1.931,4.673,4.673,0,0,1-.888,2.369l-1.41,2.343Z" transform="translate(-147.497 -298.703)" opacity="0.1"/>
      <path id="Tracé_351" data-name="Tracé 351" d="M497.555,236.732c4.738-7.725,11.227-15.321,10.822-24.353-.148-3.219-1.2-6.367-2.009-9.521a60.743,60.743,0,0,1-.444-27.868,31.473,31.473,0,0,1,22.763,5.1,12.993,12.993,0,0,1,5.028,5.652c.856,2.2.714,4.654.56,7.011-.354,5.414-.837,11.188-4.172,15.45-1.036,1.333-2.311,2.459-3.322,3.8a24.633,24.633,0,0,0-3.18,6.586l-10.944,29.774c-5.523,15.006-11.51,30.7-23.677,41.085-.3.251-9.013-12.128-9.734-13.371-2.916-5.092-1.642-7.242,1.886-11.5C488.091,256.148,491.87,245.983,497.555,236.732Z" transform="translate(-191.024 -122.427)" fill="#be6f72"/>
      <path id="Tracé_352" data-name="Tracé 352" d="M290.558,665.33a49.461,49.461,0,0,1-.56,6.637c-.116.811-.251,1.616-.412,2.42-2.2,11.459-7.661,22.358-11.485,33.521-5.041,14.736-7.255,27.521-9.013,42.153-5.066,0-10.139-.11-15.154-.373h-.155c-1.712-.09-3.431-.193-5.15-.322,1.551-13.648-1.288-27.965,1.487-41.625,1.12-5.5,3.032-10.834,4.184-16.307a46.177,46.177,0,0,0,.8-4.88,13.089,13.089,0,0,1,.946-4.577,3.381,3.381,0,0,1,.219-.393,11.028,11.028,0,0,1,2.266-2.575,56.544,56.544,0,0,1,27.72-13.216C287.719,665.594,289.142,665.427,290.558,665.33Z" transform="translate(-109.443 -297.249)" fill="#fbbebe"/>
      <path id="Tracé_353" data-name="Tracé 353" d="M290.558,665.33a49.461,49.461,0,0,1-.56,6.637c-.116.811-.251,1.616-.412,2.42-2.2,11.459-7.661,22.358-11.485,33.521-5.041,14.736-7.255,27.521-9.013,42.153-5.066,0-10.139-.11-15.154-.373h-.155c-1.712-.09-3.431-.193-5.15-.322,1.551-13.648-1.288-27.965,1.487-41.625,1.12-5.5,3.032-10.834,4.184-16.307a46.177,46.177,0,0,0,.8-4.88,13.089,13.089,0,0,1,.946-4.577,3.381,3.381,0,0,1,.219-.393,11.028,11.028,0,0,1,2.266-2.575,56.544,56.544,0,0,1,27.72-13.216C287.719,665.594,289.142,665.427,290.558,665.33Z" transform="translate(-109.443 -297.249)" opacity="0.1"/>
      <path id="Tracé_354" data-name="Tracé 354" d="M238.493,698.45a100.865,100.865,0,0,1-.882,10.693c-1.719,14.491-2.041,29.613-3.219,44.323-1.712-.09-3.431-.193-5.15-.322-7.828-.534-15.63-1.358-23.317-2.485q.888-4.97,1.79-9.939a53.815,53.815,0,0,0,1.255-12.283c-.2-3.895-1.242-7.686-2.073-11.5-1.77-8.176-2.762-16.995-5.678-24.707a32.186,32.186,0,0,0-7.12-11.587c12.064-4.738,23.658-5.009,36.617-4.506a4.644,4.644,0,0,1,2.627.644,4.443,4.443,0,0,1,1.32,2,49.935,49.935,0,0,1,3.624,14.691A48.175,48.175,0,0,1,238.493,698.45Z" transform="translate(-90.018 -301.033)" fill="#fbbebe"/>
      <ellipse id="Ellipse_152" data-name="Ellipse 152" cx="25.106" cy="25.107" rx="25.106" ry="25.107" transform="translate(220.545 100.548)" fill="#be6f72"/>
      <path id="Tracé_355" data-name="Tracé 355" d="M383.734,372.057c3.219-5.491,6.038-12.347,12.231-13.873,3.5-.869,7.133.315,10.538,1.481a5.15,5.15,0,0,1,2.575,1.493,5.06,5.06,0,0,1,.779,2.665,174.5,174.5,0,0,1-.11,34.119c-.818,8.028-2.2,16.017-2.44,24.083-.341,11.182,1.5,22.364.895,33.533-.457,8.465-2.311,16.783-4.152,25.055l-7.725,34.634a5.9,5.9,0,0,1-1.242,2.929,5.793,5.793,0,0,1-2.279,1.287,84.821,84.821,0,0,1-68.644-5.375c-2.787-1.532-5.568-3.3-7.384-5.916-2.575-3.708-2.813-8.614-1.976-13.055s2.646-8.633,3.862-12.991c1.88-6.759,2.324-13.815,2.749-20.819.567-9.219,1.133-18.5.148-27.681-.676-6.328-2.086-12.56-3.148-18.836a207.784,207.784,0,0,1-2.717-28.6c-.161-5.723.1-12.077,4.062-16.2a18.663,18.663,0,0,1,7.126-4.2c4.4-1.622,9.309-2.575,13.751-1.094s8.021,6.141,6.972,10.706c-.483,2.118-1.854,3.972-2.189,6.122-.444,2.845,1.062,5.71,3.219,7.635C360.237,399.636,377.947,382,383.734,372.057Z" transform="translate(-132.863 -187.724)" fill="#e3e8f4"/>
      <path id="Tracé_356" data-name="Tracé 356" d="M412.627,326.958a18.984,18.984,0,0,1,11-.644c2.324.554,4.835,1.532,6.978.5.779-.373,1.423-.985,2.208-1.333,2.124-.934,4.88.212,6.759-1.146,1.184-.856,1.571-2.414,1.97-3.83a34.346,34.346,0,0,1,11.35-17.2c-.676,4.938-1.165,10.558,2.1,14.33a14.308,14.308,0,0,0,5.684,3.624c3.032,1.2,6.36,2,9.56,1.345s6.193-3.077,6.7-6.3c-.109,4.847-4.725,8.234-6.019,12.914-.489,1.751-.444,3.611-.785,5.4-.869,4.571-4.133,8.24-6.985,11.922a84.823,84.823,0,0,0-16.866,40.7,19.629,19.629,0,0,1-1.094,5.15,32.384,32.384,0,0,1-2.137,3.682c-4.719,7.97-3.264,18.025-1.661,27.128,2.5,14.259,5,28.229,9.058,42.127.7,2.375,1.481,4.854,3.251,6.586-.56,5.62-6.232,8.182-11.33,10.609a55.583,55.583,0,0,0-13.776,9.328,10.855,10.855,0,0,0-3.451,4.8c-.5,1.809-.142,3.8-.785,5.556s-3.219,3.019-4.352,1.539c-1.416-5.3,1-10.841.895-16.326-.077-3.7-1.288-7.3-1.461-11-.167-4.191,1.069-8.3,2.382-12.283,3.657-11.079,8.073-22.055,9.341-33.649s-1.1-24.257-9.328-32.529c-9.766-9.862-15.186-23.233-25.654-32.291-1.661-1.436-3.541-3.219-3.264-5.395a6.007,6.007,0,0,1,1.23-2.614c3.592-5.073,8.369-9.212,12.231-14.066S413.328,333.138,412.627,326.958Z" transform="translate(-160.834 -168.278)" fill="#3f3d56"/>
      <path id="Tracé_357" data-name="Tracé 357" d="M346.53,355.4a18.808,18.808,0,0,1-1.835,2.086,6.052,6.052,0,0,1-2.89.895,93.458,93.458,0,0,1-11.44,1.024c-3.219,0-6.56-.283-9.656.6-4.32,1.223-7.77,4.635-9.933,8.562s-3.187,8.369-4.017,12.791A171.074,171.074,0,0,0,303.83,410.9a77.695,77.695,0,0,0,14.066-14.6c3.09-4.191,5.891-8.826,10.3-11.626,2.028-1.288,4.307-2.137,6.347-3.393,4.255-2.62,7.2-6.856,10.036-10.944,2.086-3.032,8.118-8.955,8.594-12.585C353.579,354.277,348.784,352.584,346.53,355.4Z" transform="translate(-129.108 -186.334)" fill="#3f3d56"/>
      <path id="Tracé_358" data-name="Tracé 358" d="M388.783,250.141a20.356,20.356,0,0,1,2.279,1.59c4.371,3.051,10.223,2.485,15.508,1.79a11.64,11.64,0,0,0,4.68-1.288,7.316,7.316,0,0,0,3.064-6.83,13.6,13.6,0,0,0-3.148-7.081,25.473,25.473,0,0,0-17.607-9.6,11.33,11.33,0,0,0-5.272.56c-2.079.856-3.644,2.62-5.562,3.8-5.659,3.476-14.375,1.931-18.025,7.48-2.672,4.094-.766,9.656-2.028,14.362-.94,3.515-3.65,6.714-3.129,10.3.29,1.931,1.5,3.618,2.466,5.343a23.613,23.613,0,0,1,2.955,13.023c2.478,1.751,5.935-.972,6.624-3.92s-.1-6.09.483-9.064c1.037-5.221,5.646-9.051,7.725-13.841C381.29,253.328,383.723,247.534,388.783,250.141Z" transform="translate(-148.932 -141.675)" fill="#3f3d56"/>
      <path id="Tracé_359" data-name="Tracé 359" d="M295.125,339.516a4.852,4.852,0,0,0,.335,3.457c1.288,1.931,4.236,1.236,6.553,1.526,3.612.444,6.277,3.863,6.978,7.455s-.135,7.249-1.049,10.776q-3.1,11.993-7.39,23.645c-7.686-.908-15.779-3.863-19.86-10.422-3.708-5.968-3.328-13.57-5.684-20.188-1.654-4.661-4.622-8.716-7.558-12.695,4.719.592,8.092-4.8,8.369-9.553s-1.217-9.573-.2-14.214c.238-1.1,18.836,2.369,20.645,3.624C301.492,326.551,295.949,334.482,295.125,339.516Z" transform="translate(-116.148 -173.903)" fill="#fbbebe"/>
      <path id="Tracé_360" data-name="Tracé 360" d="M295.125,339.516a4.852,4.852,0,0,0,.335,3.457c1.288,1.931,4.236,1.236,6.553,1.526,3.612.444,6.277,3.863,6.978,7.455s-.135,7.249-1.049,10.776q-3.1,11.993-7.39,23.645c-7.686-.908-15.779-3.863-19.86-10.422-3.708-5.968-3.328-13.57-5.684-20.188-1.654-4.661-4.622-8.716-7.558-12.695,4.719.592,8.092-4.8,8.369-9.553s-1.217-9.573-.2-14.214c.238-1.1,18.836,2.369,20.645,3.624C301.492,326.551,295.949,334.482,295.125,339.516Z" transform="translate(-116.148 -173.903)" opacity="0.1"/>
      <ellipse id="Ellipse_153" data-name="Ellipse 153" cx="25.106" cy="25.107" rx="25.106" ry="25.107" transform="translate(149.731 107.63)" fill="#fbbebe"/>
      <path id="Tracé_361" data-name="Tracé 361" d="M257.791,309.645c.914-1.429-.644-3.425.071-4.963.425-.927,1.5-1.326,2.33-1.931a8.683,8.683,0,0,0,2.427-3.148,36.591,36.591,0,0,0,3.347-24.431c-.592-2.781-1.12-6.476,1.423-7.725a4.617,4.617,0,0,1,2.247-.386c4.584.148,9.013,3.219,13.461,2.131a7.725,7.725,0,0,0,5.665-6.74c.29-4.159-2.826-7.725-5.89-10.525-5.517-5.073-13.924-6.2-21.418-6.322l-13.937-.232c-4.461-.077-9.463.064-12.566,3.264-4.468,4.6-2.221,12.135-2.865,18.514A19.313,19.313,0,0,1,225,280.122c-2.891,2.3-6.869,4.506-6.817,8.189a13.315,13.315,0,0,0,.908,3.676c1.423,4.815.064,10.139-2.665,14.356s-6.721,7.461-10.86,10.3a30.275,30.275,0,0,0-6.257,5.021,14.806,14.806,0,0,0-3.264,8.324,10.944,10.944,0,0,0,1.365,6.714c2.723,4.352,9.257,4.989,13.731,2.465s7.2-7.3,9.013-12.1c1.082-2.852,2.182-6.116,4.95-7.4,3.5-1.629,7.6.946,9.875,4.069s3.682,6.933,6.6,9.47a11.786,11.786,0,0,0,16.21-1.339c2.762-3.354,3.373-8,3.219-12.341A17.98,17.98,0,0,0,257.791,309.645Z" transform="translate(-90.684 -147.637)" fill="#3f3d56"/>
      <path id="Tracé_362" data-name="Tracé 362" d="M246.706,375.856c-2.865.612-5.858-.74-7.989-2.762a31.726,31.726,0,0,1-5.06-7.152,125.923,125.923,0,0,0-12.972-17.986c-4.223-4.873-10.1-9.824-16.371-8.317A15.532,15.532,0,0,0,198.6,342.7a41.677,41.677,0,0,0-15.56,37.2c.489,4.1,1.6,8.111,2.066,12.231a78.4,78.4,0,0,1,.27,10.216c-.174,10.377-.528,21.353-6.122,30.1-8.671,13.519-13.313,29.664-19.68,44.419-3.438,7.976-5.5,16.467-7.519,24.913q-1.8,7.519-3.586,15.032l-7.789,32.767c-.8,3.38-1.609,6.92-.76,10.3,1.288,5.047,6.032,8.575,11.034,10.01s10.3,1.191,15.5,1.236c9.94.1,19.956,1.333,29.285,4.783,2.665.985,5.324,2.163,8.163,2.395a18.993,18.993,0,0,0,8.324-1.539c7.255-2.807,13.474-7.725,20.156-11.7a79.653,79.653,0,0,1,13.133-6.354c2.292-.856,4.751-1.667,6.328-3.541a11.436,11.436,0,0,0,2.118-5.053c2.176-10.146.715-20.658,0-31.01s-6.9-21.289-1.783-30.315a24.286,24.286,0,0,0,2.787-5.594c.7-2.639.109-5.478.7-8.144a42.108,42.108,0,0,1,2.176-5.626,29.662,29.662,0,0,0,1.391-10.487,115.072,115.072,0,0,0-2.446-23.175c-2.028-9.656,4.68-19.2,8.523-28.325,1.378-3.264,3.328-6.347,3.9-9.843.515-3.154-.148-6.367-.644-9.528a83.367,83.367,0,0,1-.9-14.806c.122-4.442.592-8.967-.47-13.287s-4.094-8.51-8.453-9.4a3.451,3.451,0,0,0-2.91.457,3.766,3.766,0,0,0-1.024,1.8c-1.416,4.339-1.139,9.013-1.931,13.519S251.147,374.9,246.706,375.856Z" transform="translate(-70.587 -181.126)" fill="#f86d70"/>
      <path id="Tracé_363" data-name="Tracé 363" d="M204.625,436.737c.264-1.783-.567-4.152-2.369-4.088-1.661.064-2.4,2.144-2.395,3.811s.232,3.579-.946,4.751c-1.043,1.036-2.768,1-3.978,1.848a3.27,3.27,0,0,0-1.371,2.685c0,.895.406,1.751.431,2.646s-.573,1.931-1.461,1.873a4.036,4.036,0,0,0,.586,4.893c.464.451,1.069.837,1.223,1.468a3.54,3.54,0,0,1-.1,1.32,3.456,3.456,0,0,0,2.736,3.946c-1,.715-.8,2.388.116,3.219a5.035,5.035,0,0,0,3.457.991,21.012,21.012,0,0,0,8.118-1.68,4.841,4.841,0,0,0,2.24-1.545,1.931,1.931,0,0,0-.187-2.5c1.249.206,2.749.322,3.566-.644,1.139-1.352-.084-3.354-1.288-4.661a2.575,2.575,0,0,0,1.2-4.584c-.412-.3-.972-.566-1.03-1.075s.373-.837.554-1.288c.412-1.011-.528-2.041-1.436-2.652-2.15-1.429-5.317-1.4-7.229-2.845S204.348,438.668,204.625,436.737Z" transform="translate(-89.257 -214.358)" fill="#be6f72"/>
      <path id="Tracé_368" data-name="Tracé 368" d="M791.008,299.642a19.646,19.646,0,0,1,.83,7.918c-.167,3.258-.985,7.081-4.011,8.324-1.97.792-4.4.193-6.154,1.391-2.124,1.442-2.021,4.545-1.693,7.081.908,6.972,1.932,14.2,5.73,20.1a42.685,42.685,0,0,0,7.6,8.311c5.581,5.034,11.7,9.952,19.036,11.633a7.962,7.962,0,0,0,3.669.154,7.6,7.6,0,0,0,3.174-1.931c4.249-3.9,6.438-9.47,9.27-14.517,2-3.612,4.39-7.081,5.517-11.06a19.312,19.312,0,0,0-5.91-19.487c-1.255-1.075-2.646-1.976-3.863-3.09a19.813,19.813,0,0,1-5.794-11.246,49.214,49.214,0,0,1-.277-12.875,70.051,70.051,0,0,0-19.113,1.539c-2.794.56-6.727.818-9.257,2.15C786.92,295.548,790.229,297.486,791.008,299.642Z" transform="translate(-298.669 -163.61)" fill="#fbbebe"/>
      <path id="Tracé_369" data-name="Tracé 369" d="M791.008,299.642a19.646,19.646,0,0,1,.83,7.918c-.167,3.258-.985,7.081-4.011,8.324-1.97.792-4.4.193-6.154,1.391-2.124,1.442-2.021,4.545-1.693,7.081.908,6.972,1.932,14.2,5.73,20.1a42.685,42.685,0,0,0,7.6,8.311c5.581,5.034,11.7,9.952,19.036,11.633a7.962,7.962,0,0,0,3.669.154,7.6,7.6,0,0,0,3.174-1.931c4.249-3.9,6.438-9.47,9.27-14.517,2-3.612,4.39-7.081,5.517-11.06a19.312,19.312,0,0,0-5.91-19.487c-1.255-1.075-2.646-1.976-3.863-3.09a19.813,19.813,0,0,1-5.794-11.246,49.214,49.214,0,0,1-.277-12.875,70.051,70.051,0,0,0-19.113,1.539c-2.794.56-6.727.818-9.257,2.15C786.92,295.548,790.229,297.486,791.008,299.642Z" transform="translate(-298.669 -163.61)" opacity="0.1"/>
      <path id="Tracé_370" data-name="Tracé 370" d="M679.185,265.992c-10.455-3.586-15.45-17.594-26.394-19.165-1.725-.251-3.5-.154-5.189-.554-6.3-1.494-9.013-8.781-10.834-14.993-6.141-20.71-14.162-40.975-25.557-59.335-4.809-7.725-12.412-14.073-15.882-22.531-.8-1.931-1.2-4.133-2.639-5.659s-4.506-1.745-5.285.2a4.507,4.507,0,0,0-.142,2.131l.753,8.015-13.094-1.178a7.647,7.647,0,0,0-3.624.258,6.148,6.148,0,0,0-2.852,2.968c-4.429,8.324.29,19.229,8.1,24.495,9.129,6.148,22.164,7.081,28.229,16.255,3.6,5.459,3.676,12.482,6.052,18.579,1.133,2.916,2.787,5.594,4.107,8.42,2.517,5.388,3.8,11.246,5.755,16.86,2.794,8.028,6.933,15.508,11.06,22.944,3.18,5.742,6.438,11.588,11.33,15.978a55.724,55.724,0,0,0,10.789,7.081c9.309,5.086,20.285,9.978,30.147,6.077C684.586,284.043,682.378,274.238,679.185,265.992Z" transform="translate(-222.768 -111.014)" fill="#fbbebe"/>
      <path id="Tracé_371" data-name="Tracé 371" d="M772.512,749.132c-.792,8.4-5.89,16.01-7.081,24.1-7.854-1.229-15.585-2.813-23.066-4.616-.921-.219-1.834-.444-2.755-.644,4.236-11.588.547-24.566,1.667-36.907.109-1.184.264-2.369.47-3.541,9.7-3.309,18.463-7.725,28.634-6.437.2,2.06.406,4.126.605,6.186q.612,6.174,1.21,12.334A50.006,50.006,0,0,1,772.512,749.132Z" transform="translate(-284.352 -317.03)" fill="#fbbebe"/>
      <path id="Tracé_372" data-name="Tracé 372" d="M876.122,770.022c-3.811,1.159-7.725,2.169-11.813,3-.682.141-1.371.277-2.06.406-4.184.785-8.42,1.358-12.7,1.751-.438-8.948-6.437-17.175-7.313-26.362a38.714,38.714,0,0,1,.071-6.856c.077-.9.167-1.8.251-2.7l1.815-18.521a28.544,28.544,0,0,1,4.358-.212c8.369.2,15.984,3.824,24.276,6.65a57.853,57.853,0,0,1,.644,11.819c-.315,10.055-1.931,20.233,1.8,29.458C875.665,768.973,875.9,769.495,876.122,770.022Z" transform="translate(-320.869 -316.908)" fill="#fbbebe"/>
      <path id="Tracé_373" data-name="Tracé 373" d="M721.7,577.8c1.127,8.781-3.36,17.188-5.3,25.821-1.287,5.71-1.461,11.588-1.635,17.446l-1.017,35.091c-.1,3.508-.193,7.081.875,10.448,2.15,6.746,8.774,11.3,15.669,12.927s14.1.8,21.128-.129c3.444-.457,7.036-.991,9.888-2.981,3.92-2.736,5.633-7.609,7.114-12.154l4.178-12.83c4.809,10.828,2.775,22.667,5.659,34.158a6.616,6.616,0,0,0,1.287,2.916c1.217,1.352,3.219,1.564,5.041,1.693,12.618.888,25.409,1.77,37.821-.644,3.412-.644,6.972-1.687,9.328-4.249,2.743-2.981,3.219-7.365,3.187-11.414-.174-13.912-5.2-27.334-6.322-41.2-.483-5.942-.245-11.916-.457-17.877a119.738,119.738,0,0,0-1.255-13.39,17.989,17.989,0,0,0-1.648-5.858c-1.931-3.6-5.942-5.562-9.74-7.081C785.99,576.5,753.532,576.619,721.7,577.8Z" transform="translate(-275.118 -265.884)" fill="#f86d70"/>
      <ellipse id="Ellipse_154" data-name="Ellipse 154" cx="27.682" cy="27.682" rx="27.682" ry="27.682" transform="translate(473.541 83.811)" fill="#fbbebe"/>
      <path id="Tracé_374" data-name="Tracé 374" d="M800.575,334.16c-2.054,4.506-5.285,9.013-10.094,10.159-4.423,1.062-9.109-1.069-12.366-4.242s-5.388-7.294-7.648-11.24c-1.648-2.884-3.483-5.794-6.27-7.609-3.811-2.472-8.729-2.408-13.223-1.68s-8.955,2.028-13.519,1.732c-5.684-.38-11.478-3.219-16.841-1.326,1.738,7.777,1.114,16.326.914,24.3a10.947,10.947,0,0,1-.515,3.631,11.734,11.734,0,0,1-1.873,3.013l-5.15,6.637c5.524,4.133,10.3,9.528,12.231,16.152,1.088,3.772.753,7.777.714,11.7-.122,11.53,2.382,23.014,1.59,34.518-.927,13.474-6.309,26.207-9.083,39.424a103.208,103.208,0,0,0-1.326,34.505c28.853,9.985,58.582,15.1,89.083,16.77,5.388.3,11.208.341,15.631-2.755,3.676-2.575,5.736-6.985,6.438-11.427s.219-8.961-.271-13.429q-1.989-18.122-3.972-36.243c-.753-6.875-1.507-13.789-1.017-20.684a115.165,115.165,0,0,1,2.472-15.244l6.438-30.939a63.676,63.676,0,0,1,3.669-12.927c1.493-3.348,3.56-6.438,5.208-9.7a42.83,42.83,0,0,0,4.017-12.405,8.221,8.221,0,0,0-.052-3.8c-.689-2.111-2.794-3.38-4.757-4.416a138.206,138.206,0,0,0-38.085-13.358C802.017,327.072,802.191,330.625,800.575,334.16Z" transform="translate(-275.225 -173.909)" fill="#e3e8f4"/>
      <path id="Tracé_375" data-name="Tracé 375" d="M822.178,275.3c3.219-6.167,9.238-10.493,12.734-16.519a24.418,24.418,0,0,0,.785-22.531c-1.229-2.511-2.9-4.815-3.863-7.442-1.075-2.987-1.178-6.277-2.42-9.2-1.706-4-5.4-6.888-9.425-8.549s-8.369-2.26-12.7-2.839l-14.626-1.97a16.092,16.092,0,0,0-6.373,0c-2.06.566-3.978,2.247-4.146,4.384-.2,2.53,2.022,4.886,1.506,7.371-.187.875-.7,1.764-.406,2.614a2.653,2.653,0,0,0,1.288,1.287c3.47,1.931,7.616,2.105,11.375,3.367s7.532,4.429,7.152,8.369c-.206,2.118-1.571,4.32-.644,6.219.888,1.757,3.219,2.079,5.079,2.626a13.613,13.613,0,0,1,9.367,14.485c-.271,1.931-.966,3.779-1.107,5.717-.47,6.785.6,8.723,6.141,12.669Z" transform="translate(-299.499 -133.588)" fill="#3f3d56"/>
      <path id="Tracé_376" data-name="Tracé 376" d="M891.655,348.051a9.393,9.393,0,0,1-.689,3.753c-2.009,4.281-8.156,4.011-12.232,6.438-5.073,3.026-6.193,9.779-6.656,15.663-.528,6.663-.889,13.422.476,19.957s4.648,12.907,10.133,16.738c6.676,4.641,15.753,4.8,23.375,1.976s13.989-8.292,19.512-14.266c5.24-5.665,9.933-11.98,12.746-19.171a6.107,6.107,0,0,0,.535-3.94c-.6-1.931-2.7-2.807-4.416-3.862-4-2.414-6.663-6.624-8.047-11.073a48.084,48.084,0,0,1-1.661-13.847c-.052-4.847-.064-10.146-3.155-13.886s-8.446-4.79-13.325-4.751c-3.991,0-15.038.38-17.761,3.862C888.256,334.539,891.817,343.905,891.655,348.051Z" transform="translate(-331.375 -176.999)" fill="#be6f72"/>
      <path id="Tracé_377" data-name="Tracé 377" d="M891.655,348.051a9.393,9.393,0,0,1-.689,3.753c-2.009,4.281-8.156,4.011-12.232,6.438-5.073,3.026-6.193,9.779-6.656,15.663-.528,6.663-.889,13.422.476,19.957s4.648,12.907,10.133,16.738c6.676,4.641,15.753,4.8,23.375,1.976s13.989-8.292,19.512-14.266c5.24-5.665,9.933-11.98,12.746-19.171a6.107,6.107,0,0,0,.535-3.94c-.6-1.931-2.7-2.807-4.416-3.862-4-2.414-6.663-6.624-8.047-11.073a48.084,48.084,0,0,1-1.661-13.847c-.052-4.847-.064-10.146-3.155-13.886s-8.446-4.79-13.325-4.751c-3.991,0-15.038.38-17.761,3.862C888.256,334.539,891.817,343.905,891.655,348.051Z" transform="translate(-331.375 -176.999)" opacity="0.1"/>
      <path id="Tracé_378" data-name="Tracé 378" d="M847.447,601.525a5.5,5.5,0,0,0,1.339,2.627,5.314,5.314,0,0,0,2.169,1.024c21.128,6.2,43.7,3.727,65.573,1.2-2.993-9.116-6.006-18.334-6.837-27.894-.689-7.886.084-16.094-2.71-23.491-.824-2.189-48.848,7.886-53.586,8.7-2.427.419-5.221.277-6.94,2.2-2.073,2.33-2.247,7.88-2.466,10.783C843.372,585.065,845.1,593.511,847.447,601.525Z" transform="translate(-321.492 -257.83)" fill="#be6f72"/>
      <path id="Tracé_379" data-name="Tracé 379" d="M898.588,751.891c-3.863,1.79-7.847,3.457-11.974,4.951q-3.348,1.217-6.837,2.279c-3.811,1.159-7.725,2.169-11.813,3q-3.5-8.865-7-17.735c-1.719-4.352-3.438-8.723-4.873-13.171a82.508,82.508,0,0,1-2.459-9.264,66.083,66.083,0,0,1,1.6-32.04c8.922,1.68,17.645,2.775,26.433,4.049,4.693.644,9.4,1.4,14.163,2.3q.56,4.655,1.017,9.309.7,7.184,1.14,14.369Q898.967,735.9,898.588,751.891Z" transform="translate(-324.524 -306.006)" fill="#be6f72"/>
      <path id="Tracé_380" data-name="Tracé 380" d="M898.588,751.891c-3.863,1.79-7.847,3.457-11.974,4.951q-3.348,1.217-6.837,2.279c-3.811,1.159-7.725,2.169-11.813,3q-3.5-8.865-7-17.735c-1.719-4.352-3.438-8.723-4.873-13.171a82.508,82.508,0,0,1-2.459-9.264,66.083,66.083,0,0,1,1.6-32.04c8.922,1.68,17.645,2.775,26.433,4.049,4.693.644,9.4,1.4,14.163,2.3q.56,4.655,1.017,9.309.7,7.184,1.14,14.369Q898.967,735.9,898.588,751.891Z" transform="translate(-324.524 -306.006)" opacity="0.1"/>
      <path id="Tracé_381" data-name="Tracé 381" d="M964.367,732.3c.052,3.708-1,7.494-1.983,11.131-.071.257-.135.509-.2.766a10.61,10.61,0,0,1-5.684-4.262,12.175,12.175,0,0,1-1.526-3.573q-4.371,2.974-8.819,5.891A241.768,241.768,0,0,1,914.862,760.2c-3.863,1.79-7.848,3.457-11.974,4.95q-1.287-4.506-2.446-9.07a83.968,83.968,0,0,1-1.983-9.521,48.355,48.355,0,0,1,2.137-21.662h0l.29-.837a47.356,47.356,0,0,1,4.217-8.877c1.6-2.575,4.777-2.144,8.015-1.288,1.468.38,2.955.837,4.307,1.12,8.414,1.764,17.15-.058,25.75.425a30.777,30.777,0,0,1,11.813,3.006c4.139,2.079,7.474,5.26,8.781,9.656a14.423,14.423,0,0,1,.425,1.931A17.1,17.1,0,0,1,964.367,732.3Z" transform="translate(-340.798 -314.313)" fill="#be6f72"/>
      <path id="Tracé_382" data-name="Tracé 382" d="M710.933,251.144c-13.294-12.875-28.4-23.787-43.859-33.99a120.461,120.461,0,0,1-11.588-8.259c-3.863-3.219-7.229-7-11.33-9.895s-9.173-4.886-14.1-3.933-9.3,5.665-8.581,10.6c.644,4.339,4.545,7.313,8.15,9.8,6.824,4.719,13.68,9.45,21.1,13.152a66.142,66.142,0,0,1,7.487,3.991c4.622,3.116,7.989,7.725,11.484,12.058a167.654,167.654,0,0,0,47.638,40.557c.219.129,7.834-16.306,7.513-18.437C724.143,261.889,714.435,254.543,710.933,251.144Z" transform="translate(-242.24 -129.635)" fill="#be6f72"/>
      <path id="Tracé_383" data-name="Tracé 383" d="M903.677,605.448c-10.261.644-20.1,4.107-30.141,6.315s-20.941,3.064-30.256-1.287l5.665,38.683a17.95,17.95,0,0,1,.174,6.47c-.431,2.021-1.551,3.927-1.455,5.993.148,3.27,3.219,5.568,6.109,7.081a54.623,54.623,0,0,0,27.3,6.29c-.7,2.832-1.577,5.633-2.285,8.465,4.732,5.079,12.469,5.42,19.223,7.03,5.15,1.217,9.978,3.328,15.025,4.815a64.141,64.141,0,0,0,18.8,2.62c4.294-.045,8.845-.644,12.18-3.322,4.1-3.3,5.375-8.916,6.264-14.1a32.093,32.093,0,0,0,.644-8.755A34.7,34.7,0,0,0,948,662.085L939.18,640.68c-1.6-3.863-3.219-7.783-5.15-11.51C927.721,617.112,917.254,604.6,903.677,605.448Z" transform="translate(-321.284 -275.902)" fill="#3f3d56"/>
      <path id="Tracé_384" data-name="Tracé 384" d="M877.652,362.789a9.657,9.657,0,0,1,10.107-6.161c2.575.361,4.873,1.77,7.081,3.148l12.3,7.674a53.62,53.62,0,0,1,5.852,4.03c8.478,7.03,11.749,18.585,12.682,29.561s0,22.139,2.182,32.935c-5.189,4.3-10.944,7.937-16.132,12.231a40.539,40.539,0,0,0-7.525,7.4c-1.635,2.272-2.8,4.873-4.506,7.081a17.033,17.033,0,0,1-11.285,6.27c2.813,1.635,4.391,4.809,5.15,7.97s.965,6.438,1.809,9.6c1.159,4.294,3.56,8.214,4.352,12.592.554,3.019.309,6.116.509,9.18,1,15.856,13.448,29.716,12.643,45.578a69.115,69.115,0,0,1-16.519-8.684c-2.292-1.642-4.507-3.418-6.676-5.189l-16.4-13.294c-7.976-6.438-16.029-13.017-22.37-21.1-3.979-5.073-7.223-10.686-11.214-15.746s-8.9-9.656-15-11.781c-.9,1.345-2.485,2.279-3.38,3.624a2.691,2.691,0,0,0-.373.7,3.045,3.045,0,0,0,.212,1.777,36.986,36.986,0,0,1,1.287,7.976l.405,4.841a16.471,16.471,0,0,1,0,3.863c-.611,4.139-4.448,7.352-8.587,8a3.736,3.736,0,0,1-1.809-.058,3.871,3.871,0,0,1-2.137-2.762c-1.629-5.5.869-11.3,1.068-17.021a40.9,40.9,0,0,0-.148-4.352l-.386-5.71c-3.74-.779-5.89-4.8-6.882-8.485-2.678-9.959-5.375-20.265-3.824-30.462.412-2.73,1.133-5.5.644-8.227-.644-3.65-3.27-6.611-4.654-10.049-4.506-11.208,5.066-23.375,4.178-35.407-.373-5.053-3.579-9.444-5.51-14.13a39.914,39.914,0,0,0-3.863-7.8,43.152,43.152,0,0,0-7.21-7.332,275.362,275.362,0,0,1-22.647-22.313,16.739,16.739,0,0,1-9.753-4.468,8.972,8.972,0,0,1-3.141-6.071c-.045-2.337,1.68-4.79,4.017-4.912,1.365-.071,2.639.605,3.972.9,4.172.914,8.369-2.157,10.229-6.013s1.86-8.292,1.828-12.566a12.051,12.051,0,0,1,11.156,3.908c2.877,3.129,4.751,7.03,7.017,10.622a16.46,16.46,0,0,0,3.5,4.229c3.1,2.459,7.558,2.923,10.261,5.794,1.371,1.468,2.131,3.412,3.386,4.983,3.528,4.423,9.985,4.963,14.806,7.873s8.176,8.227,13.519,9.952c1.931.644,4.036.727,5.948,1.442,4.416,1.642,7.114,6.335,7.725,11s-.431,9.386-1.487,13.982l-2.479,10.757c-.547,2.382-.966,5.247.792,6.946a7.159,7.159,0,0,0,2.852,1.436c4.506,1.468,9.528,2.91,13.763.831A16.277,16.277,0,0,0,864,389C870.281,381.593,874.459,371.9,877.652,362.789Z" transform="translate(-287.404 -166.9)" fill="#6c63ff"/>
      <path id="Tracé_385" data-name="Tracé 385" d="M1012.986,705.08c-.888,5.89-4.133,11.684-9.444,14.382a13.518,13.518,0,0,1-10.229.708,10.61,10.61,0,0,1-5.685-4.262,12.179,12.179,0,0,1-1.526-3.573,1.118,1.118,0,0,0-.045-.2,28.329,28.329,0,0,1-.6-6.933,90.51,90.51,0,0,1,.644-10.809,58.552,58.552,0,0,1,1.777-8.935c1.2-4.178,2.923-8.2,4.506-12.231.824-2.125,1.616-4.255,2.266-6.438h0c.393-1.287.727-2.613,1-3.953l.1-.483c.051-.27.1-.541.142-.811.644-3.67.831-7.468,2.485-10.783,3.863-7.783,11.382-5.794,12.528,1.384a12.7,12.7,0,0,1,.148,1.68c.174,9.083-3.431,17.961-1.783,27.076a63.037,63.037,0,0,0,1.751,6.579c.579,1.989,1.1,4,1.5,6.045A34.357,34.357,0,0,1,1012.986,705.08Z" transform="translate(-371.927 -290.281)" fill="#be6f72"/>
      <path id="Tracé_386" data-name="Tracé 386" d="M1013.551,551.026c.174,3.721,0,7.487.747,11.137,1.745,8.626,8.369,16.261,7.635,25.029-.18,2.137-.972,4.435-2.839,5.491s-4.957.972-5.569,3.1c-.174.592-.084,1.236-.277,1.822-.406,1.249-1.931,1.783-3.219,1.751a35.342,35.342,0,0,0-3.908-.348c-4.667.393-6.38,6.637-10.538,8.781a7.958,7.958,0,0,1-8.749-1.487,10.9,10.9,0,0,1-3.141-8.6,63.809,63.809,0,0,1,1.287-7.011c.728-4.178.348-8.459-.032-12.682-.56-6.187-1.139-12.45-3.173-18.315-.959-2.768-2.234-5.414-3.064-8.221a47.805,47.805,0,0,1-1.577-12.289c-.251-8.71.348-18.025,5.549-25.029,3.907-5.253,9.508-9.521,13.931-14.381,2.768-3.045,3.566-4,6.624-1.416,2.517,2.118,5.15,5.041,5.433,7.912.772,7.358,0,14.594,1.377,22.087S1013.19,543.333,1013.551,551.026Z" transform="translate(-368.951 -237.233)" fill="#6c63ff"/>
      <ellipse id="Ellipse_155" data-name="Ellipse 155" cx="32.832" cy="32.832" rx="32.832" ry="32.832" transform="translate(544.998 106.342)" fill="#be6f72"/>
      <path id="Tracé_387" data-name="Tracé 387" d="M943.832,345.882a3.672,3.672,0,0,1,5.465-1.751l8.646,3.612a28.221,28.221,0,0,0,4.017-12.721c.18-2.762-.039-5.562.49-8.279.785-4.03,3.173-7.641,3.727-11.71.438-3.283-.354-6.586-.83-9.862-1.468-10.12.109-20.446-.734-30.636s-4.931-21.109-14.021-25.789a85.184,85.184,0,0,0-8.027-3.077c-5.968-2.272-11.317-5.91-17.214-8.369s-12.823-3.586-18.54-.76-9.045,10.776-5.33,15.965a19.477,19.477,0,0,0,4.725,4.146c3.483,2.491,7.036,5.568,7.841,9.779,1.442,7.577-6.437,13.519-8.658,20.928a17.792,17.792,0,0,0-.213,8.877c.959,4.39,3.3,8.536,3.219,13.03-.064,4.925-3.013,9.386-3.567,14.285-.2,1.8-.077,3.618-.3,5.408a27.9,27.9,0,0,1-2.079,6.843c-5.15,12.875-10.371,25.885-18.025,37.46A49.614,49.614,0,0,0,908,367.75a38.97,38.97,0,0,1-5.9,13.867,44.676,44.676,0,0,0,18.45-6.438,59.953,59.953,0,0,1-5.858,13.912c.219-.373,4.268-1.287,5.015-1.712a8.739,8.739,0,0,0,3.541-3.779c2.189-3.914,3.553-8.633,5.581-12.7a184.974,184.974,0,0,1,15.006-25.016Z" transform="translate(-335.94 -143.903)" fill="#3f3d56"/>
      <g id="Groupe_47" data-name="Groupe 47" transform="translate(234.034 150.344)">
        <path id="Tracé_660" data-name="Tracé 660" d="M500.023,265.539l-.21,1.544-1.3,9.526-2.131,15.6-.533,3.906a1.244,1.244,0,0,1-1.233,1.076H480.405a1.244,1.244,0,0,1-1.233-1.073l-.543-3.909-2.167-15.6-1.324-9.533-.213-1.534a1.244,1.244,0,0,1,1.232-1.416H498.79a1.245,1.245,0,0,1,1.233,1.413Z" transform="translate(-471.974 -259.993)" fill="#6c63ff"/>
        <path id="Tracé_661" data-name="Tracé 661" d="M516.7,235.646v.935a1.245,1.245,0,0,1-1.245,1.245H495.745a1.244,1.244,0,0,1-1.245-1.245v-.933A116.879,116.879,0,0,0,516.7,235.646Z" transform="translate(-490.061 -233.693)" opacity="0.1"/>
        <path id="Tracé_662" data-name="Tracé 662" d="M499.959,264.93h0v0a1.253,1.253,0,0,0-.126-.244h0c-.015-.023-.031-.044-.047-.066l-.017-.021a1.262,1.262,0,0,0-.159-.165l-.039-.033-.046-.035-.06-.04-.049-.03q-.038-.022-.078-.042l-.038-.018c-.025-.011-.051-.022-.078-.031l-.032-.012q-.055-.018-.112-.031l-.028-.006q-.047-.01-.094-.016l-.035,0a1.209,1.209,0,0,0-.124-.007H476.164a1.248,1.248,0,0,0-1.232,1.416l.036.259.177,1.275h0l1.324,9.533h0l1.738,12.513.972,7a1.244,1.244,0,0,0,1.233,1.073h.674a1.24,1.24,0,0,1-.07-.27l-.655-4.712h16.026l2.131-15.6H478.194l-1.3-9.38a131.521,131.521,0,0,0,22.927-.146l.21-1.544A1.236,1.236,0,0,0,499.959,264.93Z" transform="translate(-471.98 -259.993)" opacity="0.1"/>
        <path id="Tracé_663" data-name="Tracé 663" d="M466.33,241.259a131.725,131.725,0,0,1-28.585,0,1.244,1.244,0,0,1-1.244-1.244V238.37a1.244,1.244,0,0,1,1.244-1.244,117.123,117.123,0,0,0,28.585,0,1.244,1.244,0,0,1,1.244,1.244v1.644A1.244,1.244,0,0,1,466.33,241.259Z" transform="translate(-436.5 -235.06)" fill="#2f2e41"/>
        <path id="Tracé_664" data-name="Tracé 664" d="M498.536,449.091H479.4a.721.721,0,0,1-.713-.608l-2.067-13.022a.722.722,0,0,1,.713-.835h23.405a.722.722,0,0,1,.712.842l-2.2,13.022A.722.722,0,0,1,498.536,449.091Z" transform="translate(-473.544 -417.443)" fill="#2f2e41"/>
        <path id="Tracé_843" data-name="Tracé 843" d="M2.066,0H20.129a2.067,2.067,0,1,1,0,4.133H2.066A2.067,2.067,0,0,1,2.066,0Z" transform="translate(4.439 0)" fill="#2f2e41"/>
      </g>
      <g id="Groupe_30" data-name="Groupe 30" transform="translate(315.454 249.254)" opacity="0.2">
        <path id="Tracé_390" data-name="Tracé 390" d="M573.757,744.687a12.224,12.224,0,0,1-.238,2.067Q566.8,745.685,560,744.822v-.554a10.865,10.865,0,0,1,1.609-5.459,5.989,5.989,0,0,1,10.9.335,10.861,10.861,0,0,1,1.249,5.542Z" transform="translate(-535.821 -571.489)" fill="#3f3d56"/>
        <ellipse id="Ellipse_156" data-name="Ellipse 156" cx="9.019" cy="6.888" rx="9.019" ry="6.888" transform="translate(24.244 170.787) rotate(-88.19)" fill="#3f3d56"/>
        <ellipse id="Ellipse_157" data-name="Ellipse 157" cx="9.019" cy="6.888" rx="9.019" ry="6.888" transform="translate(24.596 159.766) rotate(-88.19)" fill="#3f3d56"/>
        <ellipse id="Ellipse_158" data-name="Ellipse 158" cx="9.019" cy="6.888" rx="9.019" ry="6.888" transform="translate(24.94 148.744) rotate(-88.19)" fill="#3f3d56"/>
        <ellipse id="Ellipse_159" data-name="Ellipse 159" cx="9.019" cy="6.888" rx="9.019" ry="6.888" transform="translate(25.292 137.723) rotate(-88.19)" fill="#3f3d56"/>
        <path id="Tracé_391" data-name="Tracé 391" d="M531.472,533.408a31.935,31.935,0,0,1-2.446-3.863l18.193-2.4-19.583-.47a33.078,33.078,0,0,1,.2-26.162l25.828,14.452L530,496.4a33.012,33.012,0,1,1,53.329,38.625,32.7,32.7,0,0,1,3.573,6.135l-23.877,11.459L588.348,545a33.051,33.051,0,0,1-6.322,30.842,33.012,33.012,0,1,1-51.861-1.635,33.012,33.012,0,0,1,1.288-40.8Z" transform="translate(-522.44 -480.747)" fill="#6c63ff"/>
        <path id="Tracé_392" data-name="Tracé 392" d="M589.751,596.834a32.831,32.831,0,0,1-7.725,20.175,33.012,33.012,0,1,1-51.861-1.635C525.936,609.625,589.867,593.132,589.751,596.834Z" transform="translate(-522.44 -521.911)" opacity="0.1"/>
      </g>
      <path id="Tracé_367" data-name="Tracé 367" d="M231.673,344.38c-6.92,2.852-9.656,11.723-8.034,19.023s6.508,13.384,11.272,19.171l13.351,16.287c3.689,4.506,7.725,9.251,13.352,10.821,8.227,2.3,16.454-2.942,23.568-7.68a355.036,355.036,0,0,1,67.7-35.252,22.77,22.77,0,0,0,6.618-3.425,12.2,12.2,0,0,0,2.871-14.163,14.179,14.179,0,0,0-12.534-7.764,16.936,16.936,0,0,0-13.339,6.85c-1.487,1.976-2.575,4.236-4.011,6.244-3.631,5.047-9.3,8.169-14.839,10.989a378.957,378.957,0,0,1-41.2,18.025c-2.575.94-5.478,1.835-7.905.592a9.6,9.6,0,0,1-3.393-3.631,90.164,90.164,0,0,1-9.721-20.716c-1.758-5.472-3.18-11.433-7.4-15.321-5.987-5.511-16.828-4.191-21.315,2.575,0,0-5.259,7.693-2.041,10.912S231.673,344.38,231.673,344.38Z" transform="translate(-100.379 -181.709)" fill="#fbbebe"/>
      <g id="Groupe_48" data-name="Groupe 48" transform="translate(308.512 47.847) rotate(-13)">
        <path id="Tracé_660-2" data-name="Tracé 660" d="M25.109,1.693l-.21,1.85L23.6,14.956,21.467,33.648l-.533,4.68A1.344,1.344,0,0,1,19.7,39.617H5.491a1.343,1.343,0,0,1-1.233-1.286l-.543-4.683L1.549,14.956.225,3.534.012,1.7A1.7,1.7,0,0,1,.306.512,1.169,1.169,0,0,1,1.244,0H23.876a1.169,1.169,0,0,1,.937.511A1.7,1.7,0,0,1,25.109,1.693Z" transform="translate(2.94 4.133)" fill="#6c63ff"/>
        <rect id="Rectangle_176" data-name="Rectangle 176" width="22.196" height="4.133" rx="2.066" transform="translate(4.439 0)" fill="#2f2e41"/>
        <path id="Tracé_661-2" data-name="Tracé 661" d="M22.2,0V.935A1.245,1.245,0,0,1,20.951,2.18H1.244A1.245,1.245,0,0,1,0,.935V0A116.874,116.874,0,0,0,22.2,0Z" transform="translate(4.439 1.953)" opacity="0.1"/>
        <path id="Tracé_662-2" data-name="Tracé 662" d="M25.038.963h0v0a1.617,1.617,0,0,0-.126-.292h0C24.9.64,24.88.614,24.864.588L24.847.563a1.423,1.423,0,0,0-.159-.2l-.039-.04L24.6.283c-.019-.017-.04-.033-.06-.048L24.5.2q-.038-.027-.078-.05L24.378.128Q24.34.108,24.3.09L24.269.076a1.09,1.09,0,0,0-.112-.038L24.129.032Q24.082.02,24.035.013L24,.008A1.047,1.047,0,0,0,23.876,0H1.244A1.173,1.173,0,0,0,.307.513,1.7,1.7,0,0,0,.011,1.7l.036.31L.224,3.534h0L1.548,14.957h0L3.286,29.95l.972,8.382a1.343,1.343,0,0,0,1.233,1.286h.674a1.731,1.731,0,0,1-.07-.323L5.44,33.648H21.466L23.6,14.957H3.274L1.971,3.717A109.857,109.857,0,0,0,24.9,3.543l.21-1.85A1.755,1.755,0,0,0,25.038.963Z" transform="translate(2.941 4.133)" opacity="0.1"/>
        <path id="Tracé_663-2" data-name="Tracé 663" d="M29.83,4.133a131.722,131.722,0,0,1-28.585,0A1.244,1.244,0,0,1,0,2.889V1.244A1.244,1.244,0,0,1,1.244,0,117.119,117.119,0,0,0,29.83,0a1.244,1.244,0,0,1,1.244,1.244V2.889A1.244,1.244,0,0,1,29.83,4.133Z" transform="translate(0 2.067)" fill="#2f2e41"/>
        <path id="Tracé_664-2" data-name="Tracé 664" d="M21.922,14.466H2.789a.722.722,0,0,1-.713-.608L.009.835A.722.722,0,0,1,.722,0h23.4a.722.722,0,0,1,.711.842l-2.2,13.022A.722.722,0,0,1,21.922,14.466Z" transform="translate(3.07 18.736)" fill="#2f2e41"/>
      </g>
      <g id="Groupe_49" data-name="Groupe 49" transform="translate(342.655 28.065) rotate(-1)">
        <path id="Tracé_660-3" data-name="Tracé 660" d="M25.109,1.693l-.21,1.85L23.6,14.956,21.467,33.648l-.533,4.68A1.344,1.344,0,0,1,19.7,39.617H5.491a1.343,1.343,0,0,1-1.233-1.286l-.543-4.683L1.549,14.956.225,3.534.012,1.7A1.7,1.7,0,0,1,.306.512,1.169,1.169,0,0,1,1.244,0H23.876a1.169,1.169,0,0,1,.937.511A1.7,1.7,0,0,1,25.109,1.693Z" transform="translate(2.94 4.133)" fill="#6c63ff"/>
        <rect id="Rectangle_176-2" data-name="Rectangle 176" width="22.196" height="4.133" rx="2.067" transform="translate(4.439 0)" fill="#2f2e41"/>
        <path id="Tracé_661-3" data-name="Tracé 661" d="M22.2,0V.935A1.245,1.245,0,0,1,20.951,2.18H1.244A1.245,1.245,0,0,1,0,.935V0A116.875,116.875,0,0,0,22.2,0Z" transform="translate(4.439 1.953)" opacity="0.1"/>
        <path id="Tracé_662-3" data-name="Tracé 662" d="M25.038.963h0v0a1.617,1.617,0,0,0-.126-.292h0C24.9.64,24.88.614,24.864.588L24.847.563a1.423,1.423,0,0,0-.159-.2l-.039-.04L24.6.283c-.019-.017-.04-.033-.06-.048L24.5.2q-.038-.027-.078-.05L24.378.128Q24.34.108,24.3.09L24.269.076a1.082,1.082,0,0,0-.112-.038L24.129.032Q24.082.02,24.035.013L24,.008A1.047,1.047,0,0,0,23.876,0H1.244A1.173,1.173,0,0,0,.307.513,1.7,1.7,0,0,0,.011,1.7l.036.31L.224,3.534h0L1.548,14.957h0L3.286,29.95l.972,8.382a1.343,1.343,0,0,0,1.233,1.286h.674a1.731,1.731,0,0,1-.07-.323L5.44,33.648H21.466L23.6,14.957H3.274L1.971,3.717A109.857,109.857,0,0,0,24.9,3.543l.21-1.85A1.755,1.755,0,0,0,25.038.963Z" transform="translate(2.941 4.133)" opacity="0.1"/>
        <path id="Tracé_663-3" data-name="Tracé 663" d="M29.83,4.133a131.721,131.721,0,0,1-28.585,0A1.244,1.244,0,0,1,0,2.889V1.244A1.244,1.244,0,0,1,1.244,0,117.118,117.118,0,0,0,29.83,0a1.244,1.244,0,0,1,1.244,1.244V2.889A1.244,1.244,0,0,1,29.83,4.133Z" transform="translate(0 2.067)" fill="#2f2e41"/>
        <path id="Tracé_664-3" data-name="Tracé 664" d="M21.922,14.466H2.789a.722.722,0,0,1-.713-.608L.009.835A.722.722,0,0,1,.722,0h23.4a.722.722,0,0,1,.711.842l-2.2,13.022A.722.722,0,0,1,21.922,14.466Z" transform="translate(3.07 18.736)" fill="#2f2e41"/>
      </g>
      <g id="Groupe_50" data-name="Groupe 50" transform="translate(379.655 51.065) rotate(-1)">
        <path id="Tracé_660-4" data-name="Tracé 660" d="M25.109,1.693l-.21,1.85L23.6,14.956,21.467,33.648l-.533,4.68A1.344,1.344,0,0,1,19.7,39.617H5.491a1.343,1.343,0,0,1-1.233-1.286l-.543-4.683L1.549,14.956.225,3.534.012,1.7A1.7,1.7,0,0,1,.306.512,1.169,1.169,0,0,1,1.244,0H23.876a1.169,1.169,0,0,1,.937.511A1.7,1.7,0,0,1,25.109,1.693Z" transform="translate(2.94 4.133)" fill="#6c63ff"/>
        <rect id="Rectangle_176-3" data-name="Rectangle 176" width="22.196" height="4.133" rx="2.067" transform="translate(4.439 0)" fill="#2f2e41"/>
        <path id="Tracé_661-4" data-name="Tracé 661" d="M22.2,0V.935A1.245,1.245,0,0,1,20.951,2.18H1.244A1.245,1.245,0,0,1,0,.935V0A116.875,116.875,0,0,0,22.2,0Z" transform="translate(4.439 1.953)" opacity="0.1"/>
        <path id="Tracé_662-4" data-name="Tracé 662" d="M25.038.963h0v0a1.617,1.617,0,0,0-.126-.292h0C24.9.64,24.88.614,24.864.588L24.847.563a1.423,1.423,0,0,0-.159-.2l-.039-.04L24.6.283c-.019-.017-.04-.033-.06-.048L24.5.2q-.038-.027-.078-.05L24.378.128Q24.34.108,24.3.09L24.269.076a1.082,1.082,0,0,0-.112-.038L24.129.032Q24.082.02,24.035.013L24,.008A1.047,1.047,0,0,0,23.876,0H1.244A1.173,1.173,0,0,0,.307.513,1.7,1.7,0,0,0,.011,1.7l.036.31L.224,3.534h0L1.548,14.957h0L3.286,29.95l.972,8.382a1.343,1.343,0,0,0,1.233,1.286h.674a1.731,1.731,0,0,1-.07-.323L5.44,33.648H21.466L23.6,14.957H3.274L1.971,3.717A109.857,109.857,0,0,0,24.9,3.543l.21-1.85A1.755,1.755,0,0,0,25.038.963Z" transform="translate(2.941 4.133)" opacity="0.1"/>
        <path id="Tracé_663-4" data-name="Tracé 663" d="M29.83,4.133a131.721,131.721,0,0,1-28.585,0A1.244,1.244,0,0,1,0,2.889V1.244A1.244,1.244,0,0,1,1.244,0,117.118,117.118,0,0,0,29.83,0a1.244,1.244,0,0,1,1.244,1.244V2.889A1.244,1.244,0,0,1,29.83,4.133Z" transform="translate(0 2.067)" fill="#2f2e41"/>
        <path id="Tracé_664-4" data-name="Tracé 664" d="M21.922,14.466H2.789a.722.722,0,0,1-.713-.608L.009.835A.722.722,0,0,1,.722,0h23.4a.722.722,0,0,1,.711.842l-2.2,13.022A.722.722,0,0,1,21.922,14.466Z" transform="translate(3.07 18.736)" fill="#2f2e41"/>
      </g>
    </g>
    <g id="Groupe_67" data-name="Groupe 67" transform="translate(851 206)">
      <path id="Tracé_864" data-name="Tracé 864" d="M651.421,359.286c29.238-21.858,75.032-42.53,125.639-56.714,46.078-12.915,91.021-19.151,126.56-17.559l.185-4.133c-35.962-1.611-81.372,4.677-127.862,17.708-51.079,14.317-97.369,35.232-127,57.384Z" transform="translate(-548.818 -159.209)" fill="#ccc"/>
      <path id="Tracé_865" data-name="Tracé 865" d="M621.943,376.122a137.673,137.673,0,0,0,11.915,56.209q.987,2.222,2.056,4.4a138.194,138.194,0,0,0,262.378-60.611q0-4.8-.327-9.519-.155-2.4-.4-4.774a138.181,138.181,0,0,0-275.621,14.293Z" transform="translate(-516.304 -159.209)" fill="#6c63ff"/>
      <path id="Tracé_866" data-name="Tracé 866" d="M622.27,432.331q.987,2.222,2.056,4.4,6.056.658,12.75.956c3.694.165,7.5.248,11.381.248,33.931,0,74.767-6.263,116.484-17.954,46.491-13.031,88.552-31.259,118.437-51.327q1.527-1.024,3-2.052-.155-2.4-.4-4.774-2.377,1.694-4.9,3.392C851.54,385.05,809.9,403.083,763.823,416c-41.353,11.592-81.8,17.8-115.347,17.8q-5.752,0-11.215-.244Q629.307,433.2,622.27,432.331Z" transform="translate(-504.717 -159.209)" opacity="0.1"/>
      <path id="Tracé_867" data-name="Tracé 867" d="M660.327,434.627c33.93,0,74.769-6.263,116.484-17.955,46.491-13.031,88.553-31.259,118.439-51.327,30.51-20.487,44.816-40.673,40.284-56.841s-27.246-25.978-63.958-27.624l-.185,4.133c17.144.768,31.116,3.316,41.528,7.574,10.386,4.247,16.655,9.978,18.633,17.034s-.4,15.21-7.065,24.236c-6.682,9.048-17.294,18.487-31.542,28.054-29.53,19.829-71.17,37.863-117.249,50.778-41.354,11.591-81.8,17.8-115.347,17.8q-5.749,0-11.213-.244c-17.144-.768-31.117-3.316-41.528-7.574-10.386-4.247-16.655-9.978-18.633-17.033-3.551-12.669,7.18-29.132,30.217-46.354l-2.477-3.313c-11.855,8.863-20.63,17.6-26.082,25.965-5.845,8.969-7.743,17.32-5.641,24.819,4.532,16.168,27.246,25.978,63.958,27.624C652.643,434.545,656.443,434.627,660.327,434.627Z" transform="translate(-516.588 -159.209)" fill="#ccc"/>
      <ellipse id="Ellipse_203" data-name="Ellipse 203" cx="1.583" cy="1.583" rx="1.583" ry="1.583" transform="translate(238.574 50.651)" fill="#f2f2f2"/>
      <ellipse id="Ellipse_204" data-name="Ellipse 204" cx="2.724" cy="2.724" rx="2.724" ry="2.724" transform="translate(447.491 117.077)" fill="#ccc"/>
      <ellipse id="Ellipse_205" data-name="Ellipse 205" cx="5.381" cy="5.381" rx="5.381" ry="5.381" transform="translate(450.64 221.032)" fill="#ccc"/>
      <ellipse id="Ellipse_206" data-name="Ellipse 206" cx="3.586" cy="3.586" rx="3.586" ry="3.586" transform="translate(129.431 58.149)" fill="#ccc"/>
      <ellipse id="Ellipse_207" data-name="Ellipse 207" cx="5.823" cy="5.823" rx="5.823" ry="5.823" transform="translate(0 204.756)" fill="#ccc"/>
      <ellipse id="Ellipse_208" data-name="Ellipse 208" cx="2.498" cy="2.498" rx="2.498" ry="2.498" transform="translate(48.856 115.082)" fill="#ccc"/>
      <ellipse id="Ellipse_209" data-name="Ellipse 209" cx="3.897" cy="3.897" rx="3.897" ry="3.897" transform="translate(350.789 81.588)" fill="#ccc"/>
      <ellipse id="Ellipse_210" data-name="Ellipse 210" cx="2.498" cy="2.498" rx="2.498" ry="2.498" transform="translate(57.6 196.274)" fill="#ccc"/>
      <ellipse id="Ellipse_211" data-name="Ellipse 211" cx="3.109" cy="3.109" rx="3.109" ry="3.109" transform="translate(440.244 299.304)" fill="#ccc"/>
      <ellipse id="Ellipse_212" data-name="Ellipse 212" cx="3.367" cy="3.367" rx="3.367" ry="3.367" transform="translate(377.18 342.324)" fill="#ccc"/>
      <path id="Tracé_868" data-name="Tracé 868" d="M508.342,6.645h6.645V0h3.565V6.645H525.2v3.568h-6.648v6.645h-3.565V10.213h-6.645Z" transform="translate(-225.682)" fill="#ccc"/>
      <path id="Tracé_869" data-name="Tracé 869" d="M668.758,366.2h4.174v-4.172h2.238V366.2h4.172v2.239H675.17v4.172h-2.238V368.44h-4.174Z" transform="translate(-540.24)" fill="#ccc"/>
      <path id="Tracé_870" data-name="Tracé 870" d="M767.733,344.844h3.119v-3.119h1.675v3.119h3.119v1.675h-3.119v3.119h-1.675v-3.119h-3.119Z" transform="translate(-735.519)" fill="#ccc"/>
      <ellipse id="Ellipse_213" data-name="Ellipse 213" cx="11.611" cy="11.611" rx="11.611" ry="11.611" transform="translate(230.13 97.106)" opacity="0.1"/>
      <ellipse id="Ellipse_214" data-name="Ellipse 214" cx="11.611" cy="11.611" rx="11.611" ry="11.611" transform="translate(319.325 182.079)" opacity="0.1"/>
      <ellipse id="Ellipse_215" data-name="Ellipse 215" cx="11.611" cy="11.611" rx="11.611" ry="11.611" transform="translate(191.075 298.719)" opacity="0.1"/>
      <ellipse id="Ellipse_216" data-name="Ellipse 216" cx="11.611" cy="11.611" rx="11.611" ry="11.611" transform="translate(230.13 200.024)" opacity="0.1"/>
      <ellipse id="Ellipse_217" data-name="Ellipse 217" cx="11.611" cy="11.611" rx="11.611" ry="11.611" transform="translate(313.52 263.885)" opacity="0.1"/>
      <ellipse id="Ellipse_218" data-name="Ellipse 218" cx="11.611" cy="11.611" rx="11.611" ry="11.611" transform="translate(167.852 137.746)" opacity="0.1"/>
      <ellipse id="Ellipse_219" data-name="Ellipse 219" cx="11.611" cy="11.611" rx="11.611" ry="11.611" transform="translate(129.324 216.385)" opacity="0.1"/>
      <ellipse id="Ellipse_220" data-name="Ellipse 220" cx="15.306" cy="15.306" rx="15.306" ry="15.306" transform="translate(226.435 145.662)" fill="#fff"/>
      <path id="Tracé_871" data-name="Tracé 871" d="M762.189,298.01a21.639,21.639,0,0,1,21.639,21.639c0,11.951-21.639,51.195-21.639,51.195S740.55,331.6,740.55,319.649A21.639,21.639,0,0,1,762.189,298.01Zm0,32.195a10.028,10.028,0,1,0-10.028-10.028A10.028,10.028,0,0,0,762.189,330.2Z" transform="translate(-520.448 -159.209)" fill="#ccc"/>
      <ellipse id="Ellipse_221" data-name="Ellipse 221" cx="15.306" cy="15.306" rx="15.306" ry="15.306" transform="translate(309.825 211.107)" fill="#fff"/>
      <path id="Tracé_872" data-name="Tracé 872" d="M678.8,363.455a21.639,21.639,0,0,1,21.639,21.639c0,11.951-21.639,51.195-21.639,51.195s-21.639-39.244-21.639-51.195A21.639,21.639,0,0,1,678.8,363.455Zm0,32.195a10.028,10.028,0,1,0-10.028-10.028A10.028,10.028,0,0,0,678.8,395.65Z" transform="translate(-353.668 -159.209)" fill="#ccc"/>
      <ellipse id="Ellipse_222" data-name="Ellipse 222" cx="15.306" cy="15.306" rx="15.306" ry="15.306" transform="translate(125.629 163.606)" fill="#fff"/>
      <path id="Tracé_873" data-name="Tracé 873" d="M862.995,315.955a21.639,21.639,0,0,1,21.639,21.639c0,11.951-21.639,51.195-21.639,51.195s-21.639-39.244-21.639-51.195A21.639,21.639,0,0,1,863,315.955Zm0,32.195a10.028,10.028,0,1,0-10.028-10.028,10.028,10.028,0,0,0,10.028,10.028Z" transform="translate(-722.06 -159.209)" fill="#ccc"/>
      <ellipse id="Ellipse_223" data-name="Ellipse 223" cx="15.306" cy="15.306" rx="15.306" ry="15.306" transform="translate(226.435 42.745)" fill="#fff"/>
      <path id="Tracé_874" data-name="Tracé 874" d="M762.189,195.093a21.639,21.639,0,0,1,21.639,21.639c0,11.951-21.639,51.195-21.639,51.195s-21.639-39.244-21.639-51.195a21.639,21.639,0,0,1,21.639-21.639Zm0,32.195a10.028,10.028,0,1,0-10.028-10.028,10.028,10.028,0,0,0,10.028,10.028Z" transform="translate(-520.448 -159.209)" fill="#ccc"/>
      <ellipse id="Ellipse_224" data-name="Ellipse 224" cx="15.306" cy="15.306" rx="15.306" ry="15.306" transform="translate(187.38 245.94)" fill="#fff"/>
      <path id="Tracé_875" data-name="Tracé 875" d="M801.245,398.289a21.639,21.639,0,0,1,21.639,21.639c0,11.951-21.639,51.195-21.639,51.195s-21.639-39.244-21.639-51.195A21.639,21.639,0,0,1,801.245,398.289Zm0,32.195a10.028,10.028,0,1,0-10.028-10.028,10.028,10.028,0,0,0,10.028,10.028Z" transform="translate(-598.56 -159.209)" fill="#3f3d56"/>
      <ellipse id="Ellipse_225" data-name="Ellipse 225" cx="15.306" cy="15.306" rx="15.306" ry="15.306" transform="translate(315.63 128.245)" fill="#fff"/>
      <path id="Tracé_876" data-name="Tracé 876" d="M672.994,280.593a21.639,21.639,0,0,1,21.639,21.639c0,11.951-21.639,51.195-21.639,51.195s-21.639-39.244-21.639-51.195a21.639,21.639,0,0,1,21.639-21.639Zm0,32.195a10.028,10.028,0,1,0-10.028-10.028A10.028,10.028,0,0,0,672.994,312.788Z" transform="translate(-342.058 -159.209)" fill="#3f3d56"/>
      <ellipse id="Ellipse_226" data-name="Ellipse 226" cx="15.306" cy="15.306" rx="15.306" ry="15.306" transform="translate(164.157 85.495)" fill="#fff"/>
      <path id="Tracé_877" data-name="Tracé 877" d="M824.467,237.843a21.639,21.639,0,0,1,21.639,21.639c0,11.951-21.639,51.195-21.639,51.195s-21.639-39.244-21.639-51.195a21.639,21.639,0,0,1,21.639-21.639Zm0,32.195a10.028,10.028,0,1,0-10.028-10.028,10.028,10.028,0,0,0,10.028,10.028h0Z" transform="translate(-645.004 -159.209)" fill="#3f3d56"/>
      <path id="Tracé_878" data-name="Tracé 878" d="M196.177,569.715,184,568.332l-.465-47.644,17.979,2.041Z" transform="translate(422.821)" fill="#ffb8b8"/>
      <path id="Tracé_879" data-name="Tracé 879" d="M0,14.887H38.531V0H14.887A14.887,14.887,0,0,0,0,14.887H0Z" transform="translate(583.714 562.187) rotate(6.474)" fill="#2f2e41"/>
      <path id="Tracé_880" data-name="Tracé 880" d="M81.672,568.954H69.412L63.58,521.665H81.674Z" transform="translate(662.606)" fill="#ffb8b8"/>
      <path id="Tracé_881" data-name="Tracé 881" d="M0,14.887H38.531V0H14.887A14.887,14.887,0,0,0,0,14.887H0Z" transform="translate(708.377 565.451)" fill="#2f2e41"/>
      <path id="Tracé_882" data-name="Tracé 882" d="M311.614,516.7l-7,22.769-38,82.231-10,78,23,1,14-72,48-52,42,136,19-2s-16-176-38-194C364.614,516.7,328.614,499.7,311.614,516.7Z" transform="translate(344.702 -159.209)" fill="#2f2e41"/>
      <ellipse id="Ellipse_227" data-name="Ellipse 227" cx="24.561" cy="24.561" rx="24.561" ry="24.561" transform="translate(662.807 210.118)" fill="#ffb8b8"/>
      <path id="Tracé_883" data-name="Tracé 883" d="M283.045,521.2s-3-102,39-95,24.5,105.5,24.5,105.5-9,18-31-2S283.045,521.2,283.045,521.2Z" transform="translate(370.771 -159.209)" fill="#ccc"/>
      <path id="Tracé_884" data-name="Tracé 884" d="M120.984,309.986,111.1,347.869,96.044,362.927l20.94-6.941Z" transform="translate(590.832)" opacity="0.2"/>
      <path id="Tracé_885" data-name="Tracé 885" d="M335.407,564.333a10.056,10.056,0,0,0,5.277-14.488L364.043,522.8l-18.414-2.4L326.27,546.453a10.11,10.11,0,0,0,9.137,17.88Z" transform="translate(318.099 -159.209)" fill="#ffb8b8"/>
      <path id="Tracé_886" data-name="Tracé 886" d="M326.213,446.971l-2.63,51.724-31,40,13,10,42-42s15-51,4-66c-4.125-5.625-8.672-7.172-12.744-6.908A13.78,13.78,0,0,0,326.213,446.971Z" transform="translate(355.733 -159.209)" fill="#ccc"/>
      <path id="Tracé_887" data-name="Tracé 887" d="M238.53,419.7a1.014,1.014,0,0,1,.143-1.617,14.283,14.283,0,0,0-1.376-25.037c-7.221-3.443-17.006-.764-22.344-7.38a12.409,12.409,0,0,1-2.3-10.077c1.152-6.249,5.849-10.889,11.11-14.07a40.429,40.429,0,0,1,61.089,39.134c-.679,6.014-2.535,12.758,1.041,17.641,3.147,4.3,9.088,5.1,14.307,6.171,11.193,2.29,21.992,7.574,29.588,16.108s11.648,20.508,9.358,31.7-11.478,21.03-22.771,22.765c-9.192,1.412-18.683-2.491-25.432-8.888s-11.016-15.035-13.707-23.937c-3.194-10.565-4.454-21.95-10.221-31.362-5.643-9.21-17.8-15.812-27.335-11.015a1.022,1.022,0,0,1-1.147-.137Z" transform="translate(451.759 -159.209)" fill="#2f2e41"/>
    </g>
    <path id="Tracé_888" data-name="Tracé 888" d="M899.5,514.392c-8.747,21.034-27.047,40.033-46.691,58.026q-25.9,23.729-55.415,45.862-8.179,6.144-16.618,12.133l-3.909,2.757q-5.2,3.678-10.575,7.288l-.43.292q-5.214,3.548-10.521,7.027c-11.573,7.6-23.806,15.152-37.33,21.4-4.608,2.135-9.361,4.124-14.284,5.905q-3.994,1.452-8.156,2.719c-4.546,1.382-9.215,2.588-14.092,3.579-.814.169-1.636.33-2.457.484-4.992.937-10.045,1.62-15.152,2.089-18.715,1.713-38.044.461-56.789-2.473-9.369-1.467-18.592-3.356-27.516-5.506-1.1-.261-2.189-.53-3.287-.768-30.387-7.6-58.917-17.924-89.519-25.181q-15.82-3.755-32.254-6.374-8.017-1.275-16.127-2.3c-12.725-1.582-25.611-2.642-38.551-3.179-17.448-.768-35.464-.438-52.067,2.611q-3.318.607-6.551,1.367-4.1.96-8.048,2.189a143.25,143.25,0,0,0-20.65,8.5c-1.313.645-2.611,1.3-3.909,1.958h0c-4.07,2.074-8.086,4.193-12.164,6.251a153.54,153.54,0,0,1-22.839,9.692,120.945,120.945,0,0,1-13.116,3.348,193.286,193.286,0,0,1-36.739,3.341c-6.044,0-12.1-.131-18.077-.446h-.184c-2.043-.108-4.093-.23-6.144-.384-9.338-.637-18.646-1.62-27.815-2.964-31.417-4.608-61.213-13.316-85.18-26.6C53.8,629,33.125,602.115,36.227,575.252c2.227-19.352,16.058-37.322,29.182-54.916,24.413-32.76,47.282-66.266,59.316-101.584,9.761-28.667,12.671-58.978,35.133-84.743a117.754,117.754,0,0,1,27.108-22.37,173.086,173.086,0,0,1,25.1-12.686,216.893,216.893,0,0,1,30.249-9.868,240.705,240.705,0,0,1,27.124-5.1c4.961-.645,9.983-1.144,15.036-1.482q5.836-.407,11.727-.515h.607q3.6-.069,7.2,0a335.614,335.614,0,0,1,52.22,4.907c10.8,1.8,21.5,4.016,31.985,6.451q9.384,2.173,18.6,4.554c1.874.484,3.748.975,5.6,1.475,43.711,11.711,82.17,27.884,124.284,41.154.215.069.422.138.637.192h0a259.448,259.448,0,0,0,26.294,6.6q9.78,1.958,19.966,3.425c10.383,1.536,20.988,2.749,31.67,3.794l2.358.23c15.674,1.536,31.486,2.68,46.845,4.016,5.452.476,10.859.968,16.188,1.536q5.068.507,10.045,1.075c2.381.277,4.769.553,7.157.845s4.915.6,7.372.914c1.6.2,3.187.407,4.784.63,9.676,1.283,19.329,2.719,28.875,4.362,5.806,1,11.581,2.073,17.286,3.233q6.2,1.259,12.287,2.657,4.515,1.021,8.954,2.15c24.044,6.044,46.545,13.969,65.936,24.666C893.706,428.575,916.238,474.168,899.5,514.392Z" transform="translate(923.798 57.15)" fill="#6c63ff" opacity="0.1"/>
  </g>
</svg>
