<svg xmlns="http://www.w3.org/2000/svg" xmlns:xlink="http://www.w3.org/1999/xlink" width="1920" height="1080" viewBox="0 0 1920 1080">
  <defs>
    <linearGradient id="linear-gradient" x1="0.5" y1="1" x2="0.5" gradientUnits="objectBoundingBox">
      <stop offset="0" stop-color="gray" stop-opacity="0.251"/>
      <stop offset="0.535" stop-color="gray" stop-opacity="0.122"/>
      <stop offset="1" stop-color="gray" stop-opacity="0.102"/>
    </linearGradient>
    <clipPath id="clip-Clubs">
      <rect width="1920" height="1080"/>
    </clipPath>
  </defs>
  <g id="Clubs" clip-path="url(#clip-Clubs)">
    <path id="Tracé_563" data-name="Tracé 563" d="M758.691,202.261c-73.206-2.119-142.929-21.812-209.507-43.358S416.662,113.44,345.209,102.02c-45.958-7.347-98.521-8.387-135.543,12.156C174.025,133.919,162.51,168,156.323,199.723c-4.66,23.817-7.4,48.877,5.362,71.171,8.868,15.48,24.591,28.486,35.472,43.319,37.859,51.592,11.1,115.2-29.918,165.576-19.229,23.626-41.569,46.162-56.42,71.323S89.1,605.078,102.1,630.748c12.872,25.377,43.56,44.525,76.8,57.962,67.517,27.294,147.046,35.1,224.652,39.525,171.738,9.8,344.382,5.545,516.573,1.269,63.728-1.573,127.727-3.159,190.413-11.42,34.816-4.555,70.752-11.8,96.032-29.273,32.079-22.18,40.03-59.739,18.528-87.552-36.06-46.657-135.735-58.254-160.97-108.324-13.868-27.56.373-58.254,20.541-83.822,43.254-54.828,115.748-102.931,119.56-165.614,2.624-43.04-32.226-86.157-86.112-106.522-56.477-21.343-134.807-18.665-176.455,16.673C898.736,190.08,823.335,204.088,758.691,202.261Z" transform="translate(-80.226 90.169)" fill="#d8d7e7"/>
    <g id="Groupe_23" data-name="Groupe 23" transform="translate(803 193.002)">
      <g id="Groupe_20" data-name="Groupe 20" transform="translate(265 -40)" opacity="0.5">
        <circle id="Ellipse_48" data-name="Ellipse 48" cx="75.526" cy="75.526" r="75.526" transform="translate(228.483 30.665)" fill="url(#linear-gradient)"/>
      </g>
      <circle id="Ellipse_49" data-name="Ellipse 49" cx="73.934" cy="73.934" r="73.934" transform="translate(495.222 -8.226)" fill="#f5f5f5"/>
      <path id="Tracé_204" data-name="Tracé 204" d="M578.885,169.984c0,24.593-17.671,36.7-40.613,36.7s-42.469-12.1-42.469-36.7,18.6-44.53,41.541-44.53S578.885,145.391,578.885,169.984Z" transform="translate(30.943 -96.99)" fill="#333"/>
      <path id="Tracé_205" data-name="Tracé 205" d="M538.272,236.924a73.588,73.588,0,0,0,40.64-12.162c-2.724-14.888-13.092-15.737-13.092-15.737H508.655s-9.783.8-12.839,14.5A73.593,73.593,0,0,0,538.272,236.924Z" transform="translate(30.943 -96.99)" fill="#6c63ff"/>
      <path id="Tracé_206" data-name="Tracé 206" d="M291.923,133.874h22.866V152.8a10.8,10.8,0,0,1-10.8,10.8h-1.275a10.8,10.8,0,0,1-10.8-10.8v-18.93Z" transform="translate(265 -40)" opacity="0.1"/>
      <path id="Tracé_207" data-name="Tracé 207" d="M293.982,133.027h18.747a2.06,2.06,0,0,1,2.06,2.06v16.871a10.8,10.8,0,0,1-10.8,10.8h-1.275a10.8,10.8,0,0,1-10.8-10.8v-16.87a2.06,2.06,0,0,1,2.06-2.06Z" transform="translate(265 -40)" fill="#fda57d"/>
      <path id="Tracé_208" data-name="Tracé 208" d="M526.022,199.5a32.909,32.909,0,0,0,22.866.063v-2.809H526.022Z" transform="translate(30.943 -96.99)" opacity="0.1"/>
      <circle id="Ellipse_50" data-name="Ellipse 50" cx="32.775" cy="32.775" r="32.775" transform="translate(535.666 38.489)" fill="#fda57d"/>
      <path id="Tracé_209" data-name="Tracé 209" d="M499.721,170.4s20.41-2.474,35.872-22.265c0,0,20.41,22.471,34.635,20,0,0,8.246-8.659,0-17.317s-14.637-19.585-25.564-18.142-24.327,2.062-30.1,7.216S499.721,170.4,499.721,170.4Z" transform="translate(30.943 -96.99)" opacity="0.1"/>
      <path id="Tracé_210" data-name="Tracé 210" d="M499.721,169.984s20.41-2.474,35.872-22.265c0,0,20.41,22.471,34.635,20,0,0,8.246-8.659,0-17.317s-14.637-19.585-25.564-18.142-24.327,2.062-30.1,7.216S499.721,169.984,499.721,169.984Z" transform="translate(30.943 -96.99)" fill="#333"/>
      <ellipse id="Ellipse_51" data-name="Ellipse 51" cx="3.049" cy="5.717" rx="3.049" ry="5.717" transform="translate(532.604 65.516)" fill="#fda57d"/>
      <ellipse id="Ellipse_52" data-name="Ellipse 52" cx="3.049" cy="5.717" rx="3.049" ry="5.717" transform="translate(598.162 65.516)" fill="#fda57d"/>
      <g id="Groupe_21" data-name="Groupe 21" transform="translate(265 -40)" opacity="0.5">
        <circle id="Ellipse_53" data-name="Ellipse 53" cx="75.526" cy="75.526" r="75.526" transform="translate(548.337 36.052)" fill="url(#linear-gradient)"/>
      </g>
      <circle id="Ellipse_54" data-name="Ellipse 54" cx="73.934" cy="73.934" r="73.934" transform="translate(815.076 -2.838)" fill="#f5f5f5"/>
      <path id="Tracé_211" data-name="Tracé 211" d="M858.126,242.311a73.588,73.588,0,0,0,40.64-12.162c-2.724-14.888-13.091-15.737-13.091-15.737H828.509s-9.783.8-12.839,14.5a73.594,73.594,0,0,0,42.456,13.4Z" transform="translate(30.943 -96.99)" fill="#6c63ff"/>
      <circle id="Ellipse_55" data-name="Ellipse 55" cx="35.686" cy="35.686" r="35.686" transform="translate(852.608 33.852)" fill="#72351c"/>
      <path id="Tracé_212" data-name="Tracé 212" d="M611.777,139.261h22.866v18.93a10.8,10.8,0,0,1-10.8,10.8h-1.275a10.8,10.8,0,0,1-10.8-10.8Z" transform="translate(265 -40)" opacity="0.1"/>
      <path id="Tracé_213" data-name="Tracé 213" d="M613.836,138.414h18.747a2.06,2.06,0,0,1,2.06,2.06v16.871a10.8,10.8,0,0,1-10.8,10.8h-1.275a10.8,10.8,0,0,1-10.8-10.8v-16.87a2.06,2.06,0,0,1,2.06-2.06Z" transform="translate(265 -40)" fill="#fda57d"/>
      <path id="Tracé_214" data-name="Tracé 214" d="M845.875,204.885a32.909,32.909,0,0,0,22.866.063v-2.809H845.875Z" transform="translate(30.943 -96.99)" opacity="0.1"/>
      <circle id="Ellipse_56" data-name="Ellipse 56" cx="32.775" cy="32.775" r="32.775" transform="translate(855.519 43.876)" fill="#fda57d"/>
      <path id="Tracé_215" data-name="Tracé 215" d="M834.005,143.829s13.813,28.038,52.776,11.751l-9.071-14.225-16.08-5.772Z" transform="translate(30.943 -96.99)" opacity="0.1"/>
      <path id="Tracé_216" data-name="Tracé 216" d="M834.005,143.417s13.813,28.038,52.776,11.751l-9.071-14.225-16.08-5.772Z" transform="translate(30.943 -96.99)" fill="#72351c"/>
      <path id="Tracé_217" data-name="Tracé 217" d="M833.883,141.522a18.933,18.933,0,0,1,4.693-7.633c6.448-6.373,17.015-7.718,22.436-14.984a4.243,4.243,0,0,1-1.943,5.984c5.187-.034,11.213-.488,14.148-4.765a9.714,9.714,0,0,1-1.638,10.258c4.6.209,9.515,3.333,9.813,7.932.2,3.064-1.723,5.964-4.24,7.721a23.572,23.572,0,0,1-8.561,3.225C859.838,151.19,828.172,159.277,833.883,141.522Z" transform="translate(30.943 -96.99)" fill="#72351c"/>
      <path id="Tracé_218" data-name="Tracé 218" d="M890.125,173.928h-.869l-16.9,15.049c-16.286-7.628-28.244,0-28.244,0l-17.73-14.431-1.788.225a32.772,32.772,0,1,0,65.539-.843ZM857.3,194.75c-6.376,0-11.545-1.292-11.545-2.886s5.169-2.886,11.545-2.886,11.545,1.292,11.545,2.886-5.169,2.886-11.545,2.886Z" transform="translate(30.943 -96.99)" fill="#72351c"/>
      <ellipse id="Ellipse_57" data-name="Ellipse 57" cx="3.049" cy="5.717" rx="3.049" ry="5.717" transform="translate(852.458 70.903)" fill="#fda57d"/>
      <ellipse id="Ellipse_58" data-name="Ellipse 58" cx="3.049" cy="5.717" rx="3.049" ry="5.717" transform="translate(918.016 70.903)" fill="#fda57d"/>
      <g id="Groupe_22" data-name="Groupe 22" transform="translate(265 -40)" opacity="0.5">
        <circle id="Ellipse_59" data-name="Ellipse 59" cx="75.526" cy="75.526" r="75.526" transform="translate(388.419 159.962)" fill="url(#linear-gradient)"/>
      </g>
      <circle id="Ellipse_60" data-name="Ellipse 60" cx="73.934" cy="73.934" r="73.934" transform="translate(655.011 121.142)" fill="#f5f5f5"/>
      <path id="Tracé_219" data-name="Tracé 219" d="M669.147,292.723s-8.384,41.3-12.957,39.009c0,0,44.123,38.11,83.08,0,0,0-6.86-29.1-16.768-39.009Z" transform="translate(30.943 -96.99)" fill="#333"/>
      <path id="Tracé_220" data-name="Tracé 220" d="M698.208,366.22a73.588,73.588,0,0,0,40.64-12.162c-2.724-14.888-13.091-15.737-13.091-15.737H668.591s-9.783.8-12.839,14.5a73.593,73.593,0,0,0,42.456,13.4Z" transform="translate(30.943 -96.99)" fill="#6c63ff"/>
      <circle id="Ellipse_61" data-name="Ellipse 61" cx="32.775" cy="32.775" r="32.775" transform="translate(695.602 160.672)" fill="#333"/>
      <path id="Tracé_221" data-name="Tracé 221" d="M451.859,263.171h22.866V282.1a10.8,10.8,0,0,1-10.8,10.8h-1.275a10.8,10.8,0,0,1-10.8-10.8v-18.93Z" transform="translate(265 -40)" opacity="0.1"/>
      <path id="Tracé_222" data-name="Tracé 222" d="M453.918,262.324h18.747a2.06,2.06,0,0,1,2.06,2.06v16.871a10.8,10.8,0,0,1-10.8,10.8h-1.275a10.8,10.8,0,0,1-10.8-10.8V264.383a2.06,2.06,0,0,1,2.06-2.06Z" transform="translate(265 -40)" fill="#be7c5e"/>
      <path id="Tracé_223" data-name="Tracé 223" d="M685.958,328.794a32.909,32.909,0,0,0,22.866.063v-2.809H685.958Z" transform="translate(30.943 -96.99)" opacity="0.1"/>
      <circle id="Ellipse_62" data-name="Ellipse 62" cx="32.775" cy="32.775" r="32.775" transform="translate(695.602 167.786)" fill="#be7c5e"/>
      <path id="Tracé_224" data-name="Tracé 224" d="M666.1,285.1h62.5s-5.335-25.237-28.964-23.628S666.1,285.1,666.1,285.1Z" transform="translate(30.943 -96.99)" fill="#333"/>
      <ellipse id="Ellipse_63" data-name="Ellipse 63" cx="3.049" cy="5.717" rx="3.049" ry="5.717" transform="translate(693.23 193.447)" fill="#be7c5e"/>
      <ellipse id="Ellipse_64" data-name="Ellipse 64" cx="3.049" cy="5.717" rx="3.049" ry="5.717" transform="translate(757.256 193.447)" fill="#be7c5e"/>
      <path id="Tracé_225" data-name="Tracé 225" d="M666.1,285.948h62.5s-5.335-25.237-28.964-23.628S666.1,285.948,666.1,285.948Z" transform="translate(30.943 -96.99)" opacity="0.1"/>
      <path id="Tracé_226" data-name="Tracé 226" d="M698,223.639a68.839,68.839,0,1,1-68.839,68.839A68.839,68.839,0,0,1,698,223.639m0-17a85.839,85.839,0,1,0,85.839,85.839A85.839,85.839,0,0,0,698,206.639Z" transform="translate(30.943 -96.99)" fill="#ccc"/>
      <rect id="Rectangle_55" data-name="Rectangle 55" width="20.122" height="21.181" transform="translate(716.237 89.582)" fill="#ccc"/>
      <rect id="Rectangle_56" data-name="Rectangle 56" width="21.181" height="20.122" transform="matrix(0.515, -0.857, 0.857, 0.515, 761.338, 116.318)" fill="#ccc"/>
      <rect id="Rectangle_57" data-name="Rectangle 57" width="21.181" height="20.122" transform="matrix(0.875, -0.485, 0.485, 0.875, 796.581, 143.121)" fill="#ccc"/>
      <rect id="Rectangle_58" data-name="Rectangle 58" width="20.122" height="21.181" transform="matrix(0.53, -0.848, 0.848, 0.53, 796.875, 246.318)" fill="#ccc"/>
      <rect id="Rectangle_59" data-name="Rectangle 59" width="20.122" height="21.181" transform="matrix(0.485, -0.875, 0.875, 0.485, 633.03, 150.451)" fill="#ccc"/>
      <rect id="Rectangle_60" data-name="Rectangle 60" width="21.181" height="20.122" transform="matrix(0.848, -0.53, 0.53, 0.848, 632.393, 240.48)" fill="#ccc"/>
      <rect id="Rectangle_61" data-name="Rectangle 61" width="20.122" height="21.181" transform="matrix(0.857, -0.515, 0.515, 0.857, 668.4, 108.527)" fill="#ccc"/>
      <rect id="Rectangle_62" data-name="Rectangle 62" width="20.122" height="21.181" transform="translate(716.237 280.213)" fill="#ccc"/>
      <rect id="Rectangle_63" data-name="Rectangle 63" width="20.122" height="21.181" transform="matrix(0.857, -0.515, 0.515, 0.857, 761.338, 274.657)" fill="#ccc"/>
      <rect id="Rectangle_64" data-name="Rectangle 64" width="21.181" height="20.122" transform="matrix(0.515, -0.857, 0.857, 0.515, 668.401, 282.448)" fill="#ccc"/>
      <rect id="Rectangle_65" data-name="Rectangle 65" width="24.358" height="18.004" transform="translate(620.922 187.015)" fill="#ccc"/>
      <rect id="Rectangle_66" data-name="Rectangle 66" width="24.358" height="18.004" transform="translate(836.97 205.019) rotate(180)" fill="#ccc"/>
      <path id="Tracé_227" data-name="Tracé 227" d="M857.92,99.729a68.839,68.839,0,1,1-68.839,68.839A68.839,68.839,0,0,1,857.92,99.729m0-17a85.839,85.839,0,1,0,85.839,85.839A85.839,85.839,0,0,0,857.92,82.729Z" transform="translate(30.943 -96.99)" fill="#ccc"/>
      <rect id="Rectangle_67" data-name="Rectangle 67" width="20.122" height="21.181" transform="translate(876.154 -34.328)" fill="#ccc"/>
      <rect id="Rectangle_68" data-name="Rectangle 68" width="21.181" height="20.122" transform="matrix(0.515, -0.857, 0.857, 0.515, 921.255, -7.592)" fill="#ccc"/>
      <rect id="Rectangle_69" data-name="Rectangle 69" width="21.181" height="20.122" transform="matrix(0.875, -0.485, 0.485, 0.875, 956.498, 19.211)" fill="#ccc"/>
      <rect id="Rectangle_70" data-name="Rectangle 70" width="20.122" height="21.181" transform="matrix(0.53, -0.848, 0.848, 0.53, 956.792, 122.407)" fill="#ccc"/>
      <rect id="Rectangle_71" data-name="Rectangle 71" width="20.122" height="21.181" transform="matrix(0.485, -0.875, 0.875, 0.485, 792.947, 26.541)" fill="#ccc"/>
      <rect id="Rectangle_72" data-name="Rectangle 72" width="21.181" height="20.122" transform="matrix(0.848, -0.53, 0.53, 0.848, 792.311, 116.569)" fill="#ccc"/>
      <rect id="Rectangle_73" data-name="Rectangle 73" width="20.122" height="21.181" transform="matrix(0.857, -0.515, 0.515, 0.857, 828.318, -15.384)" fill="#ccc"/>
      <rect id="Rectangle_74" data-name="Rectangle 74" width="20.122" height="21.181" transform="translate(876.154 156.303)" fill="#ccc"/>
      <rect id="Rectangle_75" data-name="Rectangle 75" width="20.122" height="21.181" transform="matrix(0.857, -0.515, 0.515, 0.857, 921.256, 150.746)" fill="#ccc"/>
      <rect id="Rectangle_76" data-name="Rectangle 76" width="21.181" height="20.122" transform="matrix(0.515, -0.857, 0.857, 0.515, 828.318, 158.537)" fill="#ccc"/>
      <rect id="Rectangle_77" data-name="Rectangle 77" width="24.358" height="18.004" transform="translate(780.839 63.106)" fill="#ccc"/>
      <rect id="Rectangle_78" data-name="Rectangle 78" width="24.358" height="18.004" transform="translate(996.887 81.11) rotate(180)" fill="#ccc"/>
      <path id="Tracé_228" data-name="Tracé 228" d="M538.041,94.433q1.212,0,2.432.042a68.834,68.834,0,1,1-2.345,137.647c-.808-.011-1.618-.025-2.431-.053a68.834,68.834,0,1,1,2.345-137.647m0-16.989v0a85.833,85.833,0,1,0-2.939,171.64c1,.022,2.02.039,3.021.039a85.833,85.833,0,1,0,2.935-171.64c-1-.022-2.019-.039-3.017-.039Z" transform="translate(30.943 -96.99)" fill="#ccc"/>
      <rect id="Rectangle_79" data-name="Rectangle 79" width="21.181" height="20.122" transform="translate(559.264 -18.833) rotate(-88.012)" fill="#ccc"/>
      <rect id="Rectangle_80" data-name="Rectangle 80" width="21.181" height="20.122" transform="translate(604.146 -11.713) rotate(-57.012)" fill="#ccc"/>
      <rect id="Rectangle_81" data-name="Rectangle 81" width="21.181" height="20.122" transform="translate(638.436 16.296) rotate(-27.012)" fill="#ccc"/>
      <rect id="Rectangle_82" data-name="Rectangle 82" width="20.122" height="21.181" transform="translate(635.149 119.44) rotate(-56.012)" fill="#ccc"/>
      <rect id="Rectangle_83" data-name="Rectangle 83" width="20.122" height="21.181" transform="translate(474.731 17.947) rotate(-59.012)" fill="#ccc"/>
      <rect id="Rectangle_84" data-name="Rectangle 84" width="21.181" height="20.122" transform="matrix(0.866, -0.5, 0.5, 0.866, 470.97, 107.895)" fill="#ccc"/>
      <rect id="Rectangle_85" data-name="Rectangle 85" width="20.122" height="21.181" transform="translate(511.535 -22.727) rotate(-29.012)" fill="#ccc"/>
      <rect id="Rectangle_86" data-name="Rectangle 86" width="21.181" height="20.122" transform="translate(552.65 171.682) rotate(-88.012)" fill="#ccc"/>
      <rect id="Rectangle_87" data-name="Rectangle 87" width="20.122" height="21.181" transform="translate(598.652 146.527) rotate(-29.012)" fill="#ccc"/>
      <rect id="Rectangle_88" data-name="Rectangle 88" width="21.181" height="20.122" transform="translate(505.501 151.093) rotate(-57.012)" fill="#ccc"/>
      <rect id="Rectangle_89" data-name="Rectangle 89" width="24.358" height="18.004" transform="translate(461.365 54.066) rotate(1.988)" fill="#ccc"/>
      <rect id="Rectangle_90" data-name="Rectangle 90" width="24.358" height="18.004" transform="translate(676.654 79.559) rotate(-178.012)" fill="#ccc"/>
    </g>
    <g id="Groupe_68" data-name="Groupe 68" transform="translate(138 309)">
      <path id="Tracé_889" data-name="Tracé 889" d="M1047.15,681.033h-894.3a1.191,1.191,0,0,1,0-2.381h894.294a1.191,1.191,0,1,1,0,2.381Z" transform="translate(-151.662 -218.864)" fill="#3f3d56"/>
      <circle id="Ellipse_228" data-name="Ellipse 228" cx="6.467" cy="6.467" r="6.467" transform="translate(273.886 44.513)" fill="#f2f2f2"/>
      <circle id="Ellipse_229" data-name="Ellipse 229" cx="6.467" cy="6.467" r="6.467" transform="translate(248.113 44.513)" fill="#f2f2f2"/>
      <circle id="Ellipse_230" data-name="Ellipse 230" cx="6.467" cy="6.467" r="6.467" transform="translate(222.34 44.513)" fill="#f2f2f2"/>
      <circle id="Ellipse_231" data-name="Ellipse 231" cx="6.467" cy="6.467" r="6.467" transform="translate(196.566 44.513)" fill="#f2f2f2"/>
      <circle id="Ellipse_232" data-name="Ellipse 232" cx="6.467" cy="6.467" r="6.467" transform="translate(273.886 71.513)" fill="#f2f2f2"/>
      <circle id="Ellipse_233" data-name="Ellipse 233" cx="6.467" cy="6.467" r="6.467" transform="translate(248.113 71.513)" fill="#f2f2f2"/>
      <circle id="Ellipse_234" data-name="Ellipse 234" cx="6.467" cy="6.467" r="6.467" transform="translate(222.34 71.513)" fill="#f2f2f2"/>
      <circle id="Ellipse_235" data-name="Ellipse 235" cx="6.467" cy="6.467" r="6.467" transform="translate(196.566 71.513)" fill="#f2f2f2"/>
      <circle id="Ellipse_236" data-name="Ellipse 236" cx="6.467" cy="6.467" r="6.467" transform="translate(273.886 98.513)" fill="#f2f2f2"/>
      <circle id="Ellipse_237" data-name="Ellipse 237" cx="6.467" cy="6.467" r="6.467" transform="translate(248.113 98.513)" fill="#f2f2f2"/>
      <circle id="Ellipse_238" data-name="Ellipse 238" cx="6.467" cy="6.467" r="6.467" transform="translate(222.34 98.513)" fill="#f2f2f2"/>
      <circle id="Ellipse_239" data-name="Ellipse 239" cx="6.467" cy="6.467" r="6.467" transform="translate(196.566 98.513)" fill="#f2f2f2"/>
      <circle id="Ellipse_240" data-name="Ellipse 240" cx="6.467" cy="6.467" r="6.467" transform="translate(273.886 125.513)" fill="#f2f2f2"/>
      <circle id="Ellipse_241" data-name="Ellipse 241" cx="6.467" cy="6.467" r="6.467" transform="translate(248.113 125.513)" fill="#f2f2f2"/>
      <circle id="Ellipse_242" data-name="Ellipse 242" cx="6.467" cy="6.467" r="6.467" transform="translate(222.34 125.513)" fill="#f2f2f2"/>
      <circle id="Ellipse_243" data-name="Ellipse 243" cx="6.467" cy="6.467" r="6.467" transform="translate(196.566 125.513)" fill="#f2f2f2"/>
      <circle id="Ellipse_244" data-name="Ellipse 244" cx="6.467" cy="6.467" r="6.467" transform="translate(273.886 152.513)" fill="#f2f2f2"/>
      <circle id="Ellipse_245" data-name="Ellipse 245" cx="6.467" cy="6.467" r="6.467" transform="translate(248.113 152.513)" fill="#f2f2f2"/>
      <circle id="Ellipse_246" data-name="Ellipse 246" cx="6.467" cy="6.467" r="6.467" transform="translate(222.34 152.513)" fill="#f2f2f2"/>
      <circle id="Ellipse_247" data-name="Ellipse 247" cx="6.467" cy="6.467" r="6.467" transform="translate(196.566 152.513)" fill="#f2f2f2"/>
      <circle id="Ellipse_248" data-name="Ellipse 248" cx="6.467" cy="6.467" r="6.467" transform="translate(273.886 179.513)" fill="#f2f2f2"/>
      <circle id="Ellipse_249" data-name="Ellipse 249" cx="6.467" cy="6.467" r="6.467" transform="translate(248.113 179.513)" fill="#f2f2f2"/>
      <circle id="Ellipse_250" data-name="Ellipse 250" cx="6.467" cy="6.467" r="6.467" transform="translate(222.34 179.513)" fill="#f2f2f2"/>
      <circle id="Ellipse_251" data-name="Ellipse 251" cx="6.467" cy="6.467" r="6.467" transform="translate(196.566 179.513)" fill="#f2f2f2"/>
      <path id="Tracé_890" data-name="Tracé 890" d="M375.19,581.264v2a12.511,12.511,0,0,0,12.5,12.5h90a12.5,12.5,0,0,0,12.5-12.5v-2a12.41,12.41,0,0,0-2.9-8,12.859,12.859,0,0,0-2.11-2s-49.48-1.12-49.48-2.5H387.69a12.517,12.517,0,0,0-12.5,12.5Z" transform="translate(-151.662 -218.864)" fill="#ccc"/>
      <rect id="Rectangle_195" data-name="Rectangle 195" width="13" height="84" transform="translate(275.252 376.403)" fill="#ccc"/>
      <path id="Tracé_891" data-name="Tracé 891" d="M476.914,678.811c0,1.4-19.7.543-44,.543s-44,.861-44-.543,19.7-12.543,44-12.543S476.914,677.406,476.914,678.811Z" transform="translate(-151.662 -218.864)" fill="#ccc"/>
      <path id="Tracé_892" data-name="Tracé 892" d="M459.041,579.568a10.743,10.743,0,0,0-3.807-16.027l-27.553-93.885L406.7,479.932l33.681,89.055a10.8,10.8,0,0,0,18.66,10.581Z" transform="translate(-151.662 -218.864)" fill="#a0616a"/>
      <path id="Tracé_893" data-name="Tracé 893" d="M433.923,485.335l-23.483,6.357a4.817,4.817,0,0,1-6.042-4.086l-2.838-24.087a13.377,13.377,0,1,1,25.846-6.915l9.674,22.156a4.817,4.817,0,0,1-3.156,6.576Z" transform="translate(-151.662 -218.864)" fill="#6c63ff"/>
      <path id="Tracé_894" data-name="Tracé 894" d="M313.516,450.1h12.26l5.833-31.8h-18.1Z" fill="#a0616a"/>
      <path id="Tracé_895" data-name="Tracé 895" d="M462.051,664.962H486.2a15.386,15.386,0,0,1,15.387,15.387v.5h-39.53Z" transform="translate(-151.662 -218.864)" fill="#2f2e41"/>
      <path id="Tracé_896" data-name="Tracé 896" d="M479.409,651.914q-.214,0-.43-.021l-16.967-1.235a4.5,4.5,0,0,1-3.809-6.029l22.707-51.015a3.5,3.5,0,0,0-.2-2.8,3.45,3.45,0,0,0-2.211-1.76c-10.677-2.791-38.072-10.223-61.786-18.918-10.16-3.726-16.559-9.109-19.019-16-3.243-9.087,1.555-17.374,1.76-17.722l.161-.272,22.315,2.028,24.191,2.058,53.013,28.428a20.086,20.086,0,0,1,8.819,25.784l-24.441,54.808a4.5,4.5,0,0,1-4.106,2.667Z" transform="translate(-151.662 -218.864)" fill="#2f2e41"/>
      <circle id="Ellipse_252" data-name="Ellipse 252" cx="24.561" cy="24.561" r="24.561" transform="translate(249.589 169.255)" fill="#a0616a"/>
      <path id="Tracé_897" data-name="Tracé 897" d="M306.516,449.1h12.26l5.833-31.8h-18.1Z" fill="#a0616a"/>
      <path id="Tracé_898" data-name="Tracé 898" d="M455.051,663.962H479.2a15.386,15.386,0,0,1,15.387,15.387v.5h-39.53Z" transform="translate(-151.662 -218.864)" fill="#2f2e41"/>
      <path id="Tracé_899" data-name="Tracé 899" d="M472.409,654.914q-.214,0-.43-.021l-16.967-1.235a4.5,4.5,0,0,1-3.809-6.029l22.707-51.015a3.5,3.5,0,0,0-.2-2.8,3.451,3.451,0,0,0-2.211-1.76c-10.677-2.791-38.072-10.223-61.786-18.918-10.16-3.726-16.559-9.109-19.019-16-3.243-9.087,1.555-17.374,1.76-17.722l.161-.272,22.315,2.028,24.191,2.058,53.013,28.428a20.086,20.086,0,0,1,8.819,25.784l-24.441,54.808a4.5,4.5,0,0,1-4.106,2.667Z" transform="translate(-151.662 -218.864)" fill="#2f2e41"/>
      <path id="Tracé_900" data-name="Tracé 900" d="M433.387,451.168l-26-9s-16.322,12.54-8.481,43.649a77.012,77.012,0,0,1-3.4,48.32,49.782,49.782,0,0,1-2.619,5.531s29,35,56,9l-10.5-50.5S454.887,464.668,433.387,451.168Z" transform="translate(-151.662 -218.864)" fill="#2f2e41"/>
      <path id="Tracé_901" data-name="Tracé 901" d="M428.862,438.076c-3.5-5.232-6.254-12.487-2.406-17.466,3.8-4.914,11.292-4.19,17.111-6.365,8.1-3.029,12.8-12.549,11.338-21.076s-8.31-15.594-16.464-18.486-17.348-1.951-25.333,1.379c-9.829,4.1-18.261,12.03-21.8,22.076s-1.646,22.108,5.689,29.83c7.864,8.278,20.206,10.485,31.623,10.351" transform="translate(-151.662 -218.864)" fill="#2f2e41"/>
      <path id="Tracé_902" data-name="Tracé 902" d="M406.015,393.444c-4.4,3.586-11.125,1.993-15.854-1.154s-8.565-7.628-13.681-10.1c-9.019-4.35-19.924-1.458-28.7,3.36s-16.559,11.475-25.831,15.256-21.1,3.968-28.125-3.172a25.732,25.732,0,0,0,37.71,30.371c10.159-6.188,15.771-19.164,27.166-22.579,6.306-1.89,13.076-.368,19.449,1.281s13.018,3.43,19.449,2.027,12.447-7.183,11.629-13.715Z" transform="translate(-151.662 -218.864)" fill="#2f2e41"/>
      <path id="Tracé_903" data-name="Tracé 903" d="M485.969,624.871a167.506,167.506,0,0,1,0-50.975,4.3,4.3,0,0,1,4.237-3.606h39.873a4.247,4.247,0,0,1,3.355,1.626,4.319,4.319,0,0,1,.807,3.7,102.327,102.327,0,0,0,0,47.525,4.318,4.318,0,0,1-.807,3.7,4.246,4.246,0,0,1-3.355,1.626H490.206a4.3,4.3,0,0,1-4.237-3.606Z" transform="translate(-151.662 -218.864)" fill="#6c63ff"/>
      <path id="Tracé_904" data-name="Tracé 904" d="M517.808,594.966H496.885a3,3,0,0,1-3-3v-1.172a3,3,0,0,1,3-3h20.924a3,3,0,0,1,3,3v1.172a3,3,0,0,1-3,3Z" transform="translate(-151.662 -218.864)" fill="#fff"/>
      <path id="Tracé_905" data-name="Tracé 905" d="M517.808,607.311H496.885a3,3,0,0,1-3-3v-1.172a3,3,0,0,1,3-3h20.924a3,3,0,0,1,3,3v1.172a3,3,0,0,1-3,3Z" transform="translate(-151.662 -218.864)" fill="#fff"/>
      <path id="Tracé_906" data-name="Tracé 906" d="M496.454,575.068a10.743,10.743,0,0,0-7.69-14.567l-50.136-84.024L420.88,491.669l54.862,77.816a10.8,10.8,0,0,0,20.712,5.584Z" transform="translate(-151.662 -218.864)" fill="#a0616a"/>
      <path id="Tracé_907" data-name="Tracé 907" d="M448.59,490.1l-21.15,12.022a4.817,4.817,0,0,1-6.871-2.446L411.8,477.06a13.377,13.377,0,1,1,23.3-13.153L450,482.943a4.817,4.817,0,0,1-1.413,7.156Z" transform="translate(-151.662 -218.864)" fill="#2f2e41"/>
      <path id="Tracé_908" data-name="Tracé 908" d="M673.63,519.614h-406a6.5,6.5,0,0,0,0,13h11.5v141.5a6.5,6.5,0,1,0,13,0V545.1L365,677.182a6.5,6.5,0,1,0,11.258-6.5L300.083,532.614H648.13v.084L572,670.682a6.5,6.5,0,1,0,11.258,6.5L648.13,559.6v114.51a6.5,6.5,0,1,0,13,0V536.041l1.891-3.427H673.63a6.5,6.5,0,1,0,0-13Z" transform="translate(-151.662 -218.864)" fill="#3f3d56"/>
      <rect id="Rectangle_196" data-name="Rectangle 196" width="86" height="7" rx="3.5" transform="translate(271.467 296.75)" fill="#ccc"/>
      <path id="Tracé_909" data-name="Tracé 909" d="M558.63,522.614h-89a6.507,6.507,0,0,1-6.5-6.5v-49a6.507,6.507,0,0,1,6.5-6.5h89a6.507,6.507,0,0,1,6.5,6.5v49A6.507,6.507,0,0,1,558.63,522.614Z" transform="translate(-151.662 -218.864)" fill="#ccc"/>
      <circle id="Ellipse_253" data-name="Ellipse 253" cx="6" cy="6" r="6" transform="translate(356.467 266.75)" fill="#fff"/>
      <path id="Tracé_910" data-name="Tracé 910" d="M626.55,401.886v-175.5a7.53,7.53,0,0,1,7.521-7.521H772.8a7.53,7.53,0,0,1,7.521,7.521v175.5a7.53,7.53,0,0,1-7.521,7.521H634.072A7.53,7.53,0,0,1,626.55,401.886Zm7.521-181.35a5.857,5.857,0,0,0-5.85,5.85v175.5a5.857,5.857,0,0,0,5.85,5.85H772.8a5.857,5.857,0,0,0,5.85-5.85v-175.5a5.857,5.857,0,0,0-5.85-5.85Z" transform="translate(-151.662 -218.864)" fill="#e6e6e6"/>
      <path id="Tracé_911" data-name="Tracé 911" d="M711.215,299.462V263.426a3.765,3.765,0,0,1,3.761-3.761h30.537a3.765,3.765,0,0,1,3.761,3.761v36.036a3.765,3.765,0,0,1-3.761,3.761H714.976a3.765,3.765,0,0,1-3.761-3.76Z" transform="translate(-151.662 -218.864)" fill="#6c63ff"/>
      <path id="Tracé_912" data-name="Tracé 912" d="M651.88,316.176V280.14a3.765,3.765,0,0,1,3.761-3.761h30.537a3.765,3.765,0,0,1,3.761,3.761v36.036a3.765,3.765,0,0,1-3.761,3.761H655.641A3.765,3.765,0,0,1,651.88,316.176Z" transform="translate(-151.662 -218.864)" fill="#ccc"/>
      <path id="Tracé_913" data-name="Tracé 913" d="M699.515,367.155V331.119a3.765,3.765,0,0,1,3.761-3.761h30.537a3.765,3.765,0,0,1,3.761,3.761v36.036a3.765,3.765,0,0,1-3.761,3.761H703.276a3.765,3.765,0,0,1-3.761-3.76Z" transform="translate(-151.662 -218.864)" fill="#ff6584"/>
      <circle id="Ellipse_254" data-name="Ellipse 254" cx="6.467" cy="6.467" r="6.467" transform="translate(774.274 5.353)" fill="#f2f2f2"/>
      <circle id="Ellipse_255" data-name="Ellipse 255" cx="6.467" cy="6.467" r="6.467" transform="translate(774.274 31.127)" fill="#f2f2f2"/>
      <circle id="Ellipse_256" data-name="Ellipse 256" cx="6.467" cy="6.467" r="6.467" transform="translate(774.274 56.9)" fill="#f2f2f2"/>
      <circle id="Ellipse_257" data-name="Ellipse 257" cx="6.467" cy="6.467" r="6.467" transform="translate(774.274 82.673)" fill="#f2f2f2"/>
      <circle id="Ellipse_258" data-name="Ellipse 258" cx="6.467" cy="6.467" r="6.467" transform="translate(747.274 5.353)" fill="#f2f2f2"/>
      <circle id="Ellipse_259" data-name="Ellipse 259" cx="6.467" cy="6.467" r="6.467" transform="translate(747.274 31.127)" fill="#f2f2f2"/>
      <circle id="Ellipse_260" data-name="Ellipse 260" cx="6.467" cy="6.467" r="6.467" transform="translate(747.274 56.9)" fill="#f2f2f2"/>
      <circle id="Ellipse_261" data-name="Ellipse 261" cx="6.467" cy="6.467" r="6.467" transform="translate(747.274 82.673)" fill="#f2f2f2"/>
      <circle id="Ellipse_262" data-name="Ellipse 262" cx="6.467" cy="6.467" r="6.467" transform="translate(720.274 5.353)" fill="#f2f2f2"/>
      <circle id="Ellipse_263" data-name="Ellipse 263" cx="6.467" cy="6.467" r="6.467" transform="translate(720.274 31.127)" fill="#f2f2f2"/>
      <circle id="Ellipse_264" data-name="Ellipse 264" cx="6.467" cy="6.467" r="6.467" transform="translate(720.274 56.9)" fill="#f2f2f2"/>
      <circle id="Ellipse_265" data-name="Ellipse 265" cx="6.467" cy="6.467" r="6.467" transform="translate(720.274 82.673)" fill="#f2f2f2"/>
      <circle id="Ellipse_266" data-name="Ellipse 266" cx="6.467" cy="6.467" r="6.467" transform="translate(693.274 5.353)" fill="#f2f2f2"/>
      <circle id="Ellipse_267" data-name="Ellipse 267" cx="6.467" cy="6.467" r="6.467" transform="translate(693.274 31.127)" fill="#f2f2f2"/>
      <circle id="Ellipse_268" data-name="Ellipse 268" cx="6.467" cy="6.467" r="6.467" transform="translate(693.274 56.9)" fill="#f2f2f2"/>
      <circle id="Ellipse_269" data-name="Ellipse 269" cx="6.467" cy="6.467" r="6.467" transform="translate(693.274 82.673)" fill="#f2f2f2"/>
      <circle id="Ellipse_270" data-name="Ellipse 270" cx="6.467" cy="6.467" r="6.467" transform="translate(666.274 5.353)" fill="#f2f2f2"/>
      <circle id="Ellipse_271" data-name="Ellipse 271" cx="6.467" cy="6.467" r="6.467" transform="translate(666.274 31.127)" fill="#f2f2f2"/>
      <circle id="Ellipse_272" data-name="Ellipse 272" cx="6.467" cy="6.467" r="6.467" transform="translate(666.274 56.9)" fill="#f2f2f2"/>
      <circle id="Ellipse_273" data-name="Ellipse 273" cx="6.467" cy="6.467" r="6.467" transform="translate(666.274 82.673)" fill="#f2f2f2"/>
      <circle id="Ellipse_274" data-name="Ellipse 274" cx="6.467" cy="6.467" r="6.467" transform="translate(639.274 5.353)" fill="#f2f2f2"/>
      <circle id="Ellipse_275" data-name="Ellipse 275" cx="6.467" cy="6.467" r="6.467" transform="translate(639.274 31.127)" fill="#f2f2f2"/>
      <circle id="Ellipse_276" data-name="Ellipse 276" cx="6.467" cy="6.467" r="6.467" transform="translate(639.274 56.9)" fill="#f2f2f2"/>
      <circle id="Ellipse_277" data-name="Ellipse 277" cx="6.467" cy="6.467" r="6.467" transform="translate(639.274 82.673)" fill="#f2f2f2"/>
      <path id="Tracé_914" data-name="Tracé 914" d="M823.457,460.117a11,11,0,0,1,7.768-14.464,10.589,10.589,0,0,1,1.451-.236l24.3-42.6-6.137-10.543,15.275-11.785L877.8,396.723a11.148,11.148,0,0,1-.26,13.309l-33.365,42.714a10.512,10.512,0,0,1,.31,1.035,11,11,0,0,1-9.359,13.489,10.7,10.7,0,0,1-1.347.084,11.036,11.036,0,0,1-10.326-7.236Z" transform="translate(-151.662 -218.864)" fill="#ffb8b8"/>
      <path id="Tracé_915" data-name="Tracé 915" d="M624.38,450.888H612.12L606.288,403.6h18.094Z" fill="#ffb8b8"/>
      <path id="Tracé_916" data-name="Tracé 916" d="M603.363,447.384h23.644v14.887H588.476A14.887,14.887,0,0,1,603.363,447.384Z" fill="#2f2e41"/>
      <path id="Tracé_917" data-name="Tracé 917" d="M725.38,450.888H713.12L707.288,403.6h18.094Z" fill="#ffb8b8"/>
      <path id="Tracé_918" data-name="Tracé 918" d="M704.363,447.384h23.644v14.887H689.476A14.887,14.887,0,0,1,704.363,447.384Z" fill="#2f2e41"/>
      <path id="Tracé_919" data-name="Tracé 919" d="M869.518,382.793l-27.525,10.459-6.72-18.667a11.168,11.168,0,0,1,5-13.5h0a11.168,11.168,0,0,1,14.263,2.784Z" transform="translate(-151.662 -218.864)" fill="#6c63ff"/>
      <path id="Tracé_920" data-name="Tracé 920" d="M777.1,631.453l-23.084-5.265a4.987,4.987,0,0,1-3.812-5.619c9.263-58.709,18.174-93.091,41.14-136.752.321-.814,3.907-17.338,6.247-28.285a4.972,4.972,0,0,1,4.214-5.024l43.044-6.625a5.569,5.569,0,0,1,2.021-.3l.43.082-.005.423c-.005.438-.441.5-.6.53l-.572.088a6.683,6.683,0,0,1,1.775,1.207c18.86,22.684,28.667,97.04,41.123,179.185a4.484,4.484,0,0,1-1.3,3.647,4.933,4.933,0,0,1-3.538,1.6l-27.5.67a4.982,4.982,0,0,1-5.035-4.218l-18.524-107.05a3.974,3.974,0,0,0-7.495-1.156c-14.944,30.435-28.881,56.755-42.606,109.266a4.953,4.953,0,0,1-4.792,3.726,5.027,5.027,0,0,1-1.121-.126Z" transform="translate(-151.662 -218.864)" fill="#2f2e41"/>
      <path id="Tracé_921" data-name="Tracé 921" d="M799.508,456.753a5,5,0,0,1-2.083-3.549c-3.525-32.91-1.07-58.664,7.506-78.735A24.992,24.992,0,0,1,821.5,360.29l22.25-1.123.115.056a26.005,26.005,0,0,1,14.219,27.588c-7.156,18.863-13.148,38.5-8.578,54.346a5.123,5.123,0,0,1-.484,3.983,4.884,4.884,0,0,1-3.116,2.309L803.525,457.53a4.964,4.964,0,0,1-4.017-.777Z" transform="translate(-151.662 -218.864)" fill="#6c63ff"/>
      <path id="Tracé_922" data-name="Tracé 922" d="M789.93,409.526,747.256,375.86a10.517,10.517,0,0,1-1.036.306,11.027,11.027,0,0,1-8.818-1.692,10.913,10.913,0,0,1-4.627-7.733,11,11,0,0,1,21.635-3.8,10.573,10.573,0,0,1,.229,1.452L797.121,388.9l10.572-6.086L819.4,398.145l-16.414,11.7a10.942,10.942,0,0,1-13.06-.318Z" transform="translate(-151.662 -218.864)" fill="#ffb8b8"/>
      <path id="Tracé_923" data-name="Tracé 923" d="M824.611,402.92l-24.349-16.557,11.443-16.207a11.168,11.168,0,0,1,13.929-3.64h0a11.168,11.168,0,0,1,5.894,13.283Z" transform="translate(-151.662 -218.864)" fill="#6c63ff"/>
      <circle id="Ellipse_278" data-name="Ellipse 278" cx="24.561" cy="24.561" r="24.561" transform="translate(660.098 82.87)" fill="#ffb8b8"/>
      <path id="Tracé_924" data-name="Tracé 924" d="M827.316,322.637c-6.313,4.32-14.6,8.762-21.049,4.161-4.234-3.021-5.567-8.615-3.851-13.525,3.087-8.829,11.569-12.715,19.68-15.695,10.544-3.873,22.026-6.954,32.911-4.181s20.506,13.313,18.541,24.373c-1.58,8.894-9.97,16.295-8.779,25.25,1.2,9.012,11.334,13.756,20.281,15.367s18.96,2.128,25.391,8.555c8.2,8.2,6.155,22.853-1.564,31.51s-19.367,12.58-30.654,15.248c-14.955,3.534-31.129,5.392-45.332-.474s-25.256-21.654-21.141-36.46c1.738-6.254,5.832-11.539,9.789-16.685s7.963-10.526,9.472-16.839c1.258-5.261.327-11.369-3.162-15.315a4.437,4.437,0,0,1-.594-5.186Z" transform="translate(-151.662 -218.864)" fill="#2f2e41"/>
    </g>
  </g>
</svg>
