<svg xmlns="http://www.w3.org/2000/svg" xmlns:xlink="http://www.w3.org/1999/xlink" width="1920" height="1080" viewBox="0 0 1920 1080"><defs><linearGradient id="a" x1="0.5" y1="1" x2="0.5" gradientUnits="objectBoundingBox"><stop offset="0" stop-color="gray" stop-opacity="0.251"/><stop offset="0.535" stop-color="gray" stop-opacity="0.122"/><stop offset="1" stop-color="gray" stop-opacity="0.102"/></linearGradient><clipPath id="e"><rect width="1920" height="1080"/></clipPath></defs><g id="d" clip-path="url(#e)"><g transform="translate(803 193.002)"><g transform="translate(265 -40)" opacity="0.5"><circle cx="75.526" cy="75.526" r="75.526" transform="translate(228.483 30.665)" fill="url(#a)"/></g><circle cx="73.934" cy="73.934" r="73.934" transform="translate(495.222 -8.226)" fill="#f5f5f5"/><path d="M578.885,169.984c0,24.593-17.671,36.7-40.613,36.7s-42.469-12.1-42.469-36.7,18.6-44.53,41.541-44.53S578.885,145.391,578.885,169.984Z" transform="translate(30.943 -96.99)" fill="#333"/><path d="M538.272,236.924a73.588,73.588,0,0,0,40.64-12.162c-2.724-14.888-13.092-15.737-13.092-15.737H508.655s-9.783.8-12.839,14.5A73.593,73.593,0,0,0,538.272,236.924Z" transform="translate(30.943 -96.99)" fill="#6c63ff"/><path d="M291.923,133.874h22.866V152.8a10.8,10.8,0,0,1-10.8,10.8h-1.275a10.8,10.8,0,0,1-10.8-10.8v-18.93Z" transform="translate(265 -40)" opacity="0.1"/><path d="M293.982,133.027h18.747a2.06,2.06,0,0,1,2.06,2.06v16.871a10.8,10.8,0,0,1-10.8,10.8h-1.275a10.8,10.8,0,0,1-10.8-10.8v-16.87a2.06,2.06,0,0,1,2.06-2.06Z" transform="translate(265 -40)" fill="#fda57d"/><path d="M526.022,199.5a32.909,32.909,0,0,0,22.866.063v-2.809H526.022Z" transform="translate(30.943 -96.99)" opacity="0.1"/><circle cx="32.775" cy="32.775" r="32.775" transform="translate(535.666 38.489)" fill="#fda57d"/><path d="M499.721,170.4s20.41-2.474,35.872-22.265c0,0,20.41,22.471,34.635,20,0,0,8.246-8.659,0-17.317s-14.637-19.585-25.564-18.142-24.327,2.062-30.1,7.216S499.721,170.4,499.721,170.4Z" transform="translate(30.943 -96.99)" opacity="0.1"/><path d="M499.721,169.984s20.41-2.474,35.872-22.265c0,0,20.41,22.471,34.635,20,0,0,8.246-8.659,0-17.317s-14.637-19.585-25.564-18.142-24.327,2.062-30.1,7.216S499.721,169.984,499.721,169.984Z" transform="translate(30.943 -96.99)" fill="#333"/><ellipse cx="3.049" cy="5.717" rx="3.049" ry="5.717" transform="translate(532.604 65.516)" fill="#fda57d"/><ellipse cx="3.049" cy="5.717" rx="3.049" ry="5.717" transform="translate(598.162 65.516)" fill="#fda57d"/><g transform="translate(265 -40)" opacity="0.5"><circle cx="75.526" cy="75.526" r="75.526" transform="translate(548.337 36.052)" fill="url(#a)"/></g><circle cx="73.934" cy="73.934" r="73.934" transform="translate(815.076 -2.838)" fill="#f5f5f5"/><path d="M858.126,242.311a73.588,73.588,0,0,0,40.64-12.162c-2.724-14.888-13.091-15.737-13.091-15.737H828.509s-9.783.8-12.839,14.5a73.594,73.594,0,0,0,42.456,13.4Z" transform="translate(30.943 -96.99)" fill="#6c63ff"/><circle cx="35.686" cy="35.686" r="35.686" transform="translate(852.608 33.852)" fill="#72351c"/><path d="M611.777,139.261h22.866v18.93a10.8,10.8,0,0,1-10.8,10.8h-1.275a10.8,10.8,0,0,1-10.8-10.8Z" transform="translate(265 -40)" opacity="0.1"/><path d="M613.836,138.414h18.747a2.06,2.06,0,0,1,2.06,2.06v16.871a10.8,10.8,0,0,1-10.8,10.8h-1.275a10.8,10.8,0,0,1-10.8-10.8v-16.87a2.06,2.06,0,0,1,2.06-2.06Z" transform="translate(265 -40)" fill="#fda57d"/><path d="M845.875,204.885a32.909,32.909,0,0,0,22.866.063v-2.809H845.875Z" transform="translate(30.943 -96.99)" opacity="0.1"/><circle cx="32.775" cy="32.775" r="32.775" transform="translate(855.519 43.876)" fill="#fda57d"/><path d="M834.005,143.829s13.813,28.038,52.776,11.751l-9.071-14.225-16.08-5.772Z" transform="translate(30.943 -96.99)" opacity="0.1"/><path d="M834.005,143.417s13.813,28.038,52.776,11.751l-9.071-14.225-16.08-5.772Z" transform="translate(30.943 -96.99)" fill="#72351c"/><path d="M833.883,141.522a18.933,18.933,0,0,1,4.693-7.633c6.448-6.373,17.015-7.718,22.436-14.984a4.243,4.243,0,0,1-1.943,5.984c5.187-.034,11.213-.488,14.148-4.765a9.714,9.714,0,0,1-1.638,10.258c4.6.209,9.515,3.333,9.813,7.932.2,3.064-1.723,5.964-4.24,7.721a23.572,23.572,0,0,1-8.561,3.225C859.838,151.19,828.172,159.277,833.883,141.522Z" transform="translate(30.943 -96.99)" fill="#72351c"/><path d="M890.125,173.928h-.869l-16.9,15.049c-16.286-7.628-28.244,0-28.244,0l-17.73-14.431-1.788.225a32.772,32.772,0,1,0,65.539-.843ZM857.3,194.75c-6.376,0-11.545-1.292-11.545-2.886s5.169-2.886,11.545-2.886,11.545,1.292,11.545,2.886-5.169,2.886-11.545,2.886Z" transform="translate(30.943 -96.99)" fill="#72351c"/><ellipse cx="3.049" cy="5.717" rx="3.049" ry="5.717" transform="translate(852.458 70.903)" fill="#fda57d"/><ellipse cx="3.049" cy="5.717" rx="3.049" ry="5.717" transform="translate(918.016 70.903)" fill="#fda57d"/><g transform="translate(265 -40)" opacity="0.5"><circle cx="75.526" cy="75.526" r="75.526" transform="translate(388.419 159.962)" fill="url(#a)"/></g><circle cx="73.934" cy="73.934" r="73.934" transform="translate(655.011 121.142)" fill="#f5f5f5"/><path d="M669.147,292.723s-8.384,41.3-12.957,39.009c0,0,44.123,38.11,83.08,0,0,0-6.86-29.1-16.768-39.009Z" transform="translate(30.943 -96.99)" fill="#333"/><path d="M698.208,366.22a73.588,73.588,0,0,0,40.64-12.162c-2.724-14.888-13.091-15.737-13.091-15.737H668.591s-9.783.8-12.839,14.5a73.593,73.593,0,0,0,42.456,13.4Z" transform="translate(30.943 -96.99)" fill="#6c63ff"/><circle cx="32.775" cy="32.775" r="32.775" transform="translate(695.602 160.672)" fill="#333"/><path d="M451.859,263.171h22.866V282.1a10.8,10.8,0,0,1-10.8,10.8h-1.275a10.8,10.8,0,0,1-10.8-10.8v-18.93Z" transform="translate(265 -40)" opacity="0.1"/><path d="M453.918,262.324h18.747a2.06,2.06,0,0,1,2.06,2.06v16.871a10.8,10.8,0,0,1-10.8,10.8h-1.275a10.8,10.8,0,0,1-10.8-10.8V264.383a2.06,2.06,0,0,1,2.06-2.06Z" transform="translate(265 -40)" fill="#be7c5e"/><path d="M685.958,328.794a32.909,32.909,0,0,0,22.866.063v-2.809H685.958Z" transform="translate(30.943 -96.99)" opacity="0.1"/><circle cx="32.775" cy="32.775" r="32.775" transform="translate(695.602 167.786)" fill="#be7c5e"/><path d="M666.1,285.1h62.5s-5.335-25.237-28.964-23.628S666.1,285.1,666.1,285.1Z" transform="translate(30.943 -96.99)" fill="#333"/><ellipse cx="3.049" cy="5.717" rx="3.049" ry="5.717" transform="translate(693.23 193.447)" fill="#be7c5e"/><ellipse cx="3.049" cy="5.717" rx="3.049" ry="5.717" transform="translate(757.256 193.447)" fill="#be7c5e"/><path d="M666.1,285.948h62.5s-5.335-25.237-28.964-23.628S666.1,285.948,666.1,285.948Z" transform="translate(30.943 -96.99)" opacity="0.1"/><path d="M698,223.639a68.839,68.839,0,1,1-68.839,68.839A68.839,68.839,0,0,1,698,223.639m0-17a85.839,85.839,0,1,0,85.839,85.839A85.839,85.839,0,0,0,698,206.639Z" transform="translate(30.943 -96.99)" fill="#ccc"/><rect width="20.122" height="21.181" transform="translate(716.237 89.582)" fill="#ccc"/><rect width="21.181" height="20.122" transform="matrix(0.515, -0.857, 0.857, 0.515, 761.338, 116.318)" fill="#ccc"/><rect width="21.181" height="20.122" transform="matrix(0.875, -0.485, 0.485, 0.875, 796.581, 143.121)" fill="#ccc"/><rect width="20.122" height="21.181" transform="matrix(0.53, -0.848, 0.848, 0.53, 796.875, 246.318)" fill="#ccc"/><rect width="20.122" height="21.181" transform="matrix(0.485, -0.875, 0.875, 0.485, 633.03, 150.451)" fill="#ccc"/><rect width="21.181" height="20.122" transform="matrix(0.848, -0.53, 0.53, 0.848, 632.393, 240.48)" fill="#ccc"/><rect width="20.122" height="21.181" transform="matrix(0.857, -0.515, 0.515, 0.857, 668.4, 108.527)" fill="#ccc"/><rect width="20.122" height="21.181" transform="translate(716.237 280.213)" fill="#ccc"/><rect width="20.122" height="21.181" transform="matrix(0.857, -0.515, 0.515, 0.857, 761.338, 274.657)" fill="#ccc"/><rect width="21.181" height="20.122" transform="matrix(0.515, -0.857, 0.857, 0.515, 668.401, 282.448)" fill="#ccc"/><rect width="24.358" height="18.004" transform="translate(620.922 187.015)" fill="#ccc"/><rect width="24.358" height="18.004" transform="translate(836.97 205.019) rotate(180)" fill="#ccc"/><path d="M857.92,99.729a68.839,68.839,0,1,1-68.839,68.839A68.839,68.839,0,0,1,857.92,99.729m0-17a85.839,85.839,0,1,0,85.839,85.839A85.839,85.839,0,0,0,857.92,82.729Z" transform="translate(30.943 -96.99)" fill="#ccc"/><rect width="20.122" height="21.181" transform="translate(876.154 -34.328)" fill="#ccc"/><rect width="21.181" height="20.122" transform="matrix(0.515, -0.857, 0.857, 0.515, 921.255, -7.592)" fill="#ccc"/><rect width="21.181" height="20.122" transform="matrix(0.875, -0.485, 0.485, 0.875, 956.498, 19.211)" fill="#ccc"/><rect width="20.122" height="21.181" transform="matrix(0.53, -0.848, 0.848, 0.53, 956.792, 122.407)" fill="#ccc"/><rect width="20.122" height="21.181" transform="matrix(0.485, -0.875, 0.875, 0.485, 792.947, 26.541)" fill="#ccc"/><rect width="21.181" height="20.122" transform="matrix(0.848, -0.53, 0.53, 0.848, 792.311, 116.569)" fill="#ccc"/><rect width="20.122" height="21.181" transform="matrix(0.857, -0.515, 0.515, 0.857, 828.318, -15.384)" fill="#ccc"/><rect width="20.122" height="21.181" transform="translate(876.154 156.303)" fill="#ccc"/><rect width="20.122" height="21.181" transform="matrix(0.857, -0.515, 0.515, 0.857, 921.256, 150.746)" fill="#ccc"/><rect width="21.181" height="20.122" transform="matrix(0.515, -0.857, 0.857, 0.515, 828.318, 158.537)" fill="#ccc"/><rect width="24.358" height="18.004" transform="translate(780.839 63.106)" fill="#ccc"/><rect width="24.358" height="18.004" transform="translate(996.887 81.11) rotate(180)" fill="#ccc"/><path d="M538.041,94.433q1.212,0,2.432.042a68.834,68.834,0,1,1-2.345,137.647c-.808-.011-1.618-.025-2.431-.053a68.834,68.834,0,1,1,2.345-137.647m0-16.989v0a85.833,85.833,0,1,0-2.939,171.64c1,.022,2.02.039,3.021.039a85.833,85.833,0,1,0,2.935-171.64c-1-.022-2.019-.039-3.017-.039Z" transform="translate(30.943 -96.99)" fill="#ccc"/><rect width="21.181" height="20.122" transform="translate(559.264 -18.833) rotate(-88.012)" fill="#ccc"/><rect width="21.181" height="20.122" transform="translate(604.146 -11.713) rotate(-57.012)" fill="#ccc"/><rect width="21.181" height="20.122" transform="translate(638.436 16.296) rotate(-27.012)" fill="#ccc"/><rect width="20.122" height="21.181" transform="translate(635.149 119.44) rotate(-56.012)" fill="#ccc"/><rect width="20.122" height="21.181" transform="translate(474.731 17.947) rotate(-59.012)" fill="#ccc"/><rect width="21.181" height="20.122" transform="matrix(0.866, -0.5, 0.5, 0.866, 470.97, 107.895)" fill="#ccc"/><rect width="20.122" height="21.181" transform="translate(511.535 -22.727) rotate(-29.012)" fill="#ccc"/><rect width="21.181" height="20.122" transform="translate(552.65 171.682) rotate(-88.012)" fill="#ccc"/><rect width="20.122" height="21.181" transform="translate(598.652 146.527) rotate(-29.012)" fill="#ccc"/><rect width="21.181" height="20.122" transform="translate(505.501 151.093) rotate(-57.012)" fill="#ccc"/><rect width="24.358" height="18.004" transform="translate(461.365 54.066) rotate(1.988)" fill="#ccc"/><rect width="24.358" height="18.004" transform="translate(676.654 79.559) rotate(-178.012)" fill="#ccc"/></g><g transform="translate(172 153)"><line x2="144" transform="translate(389.957 255.282)" fill="none" stroke="#3f3d56" stroke-miterlimit="10" stroke-width="2"/><ellipse cx="39.5" cy="12.4" rx="39.5" ry="12.4" transform="matrix(0.357, -0.934, 0.934, 0.357, 181.137, 442.251)" fill="#2f2e41"/><path d="M1153.38,543.014c15.666,116.589-5.666,233.3-114.169,278.753S805.9,816.1,760.456,707.6s61.785-173.424,114.169-278.753C981,214.952,1104.73,180.95,1153.38,543.014Z" transform="translate(-42.043 -33.718)" fill="#f2f2f2"/><ellipse cx="170" cy="23.127" rx="170" ry="23.127" transform="translate(746 771.309)" fill="#3f3d56"/><rect width="24" height="43" transform="translate(811.177 758.708) rotate(-105.453)" fill="#2f2e41"/><ellipse cx="7.5" cy="20" rx="7.5" ry="20" transform="translate(789.759 726.237) rotate(-15.453)" fill="#2f2e41"/><ellipse cx="39.5" cy="12.4" rx="39.5" ry="12.4" transform="translate(905.723 691.825) rotate(-82.281)" fill="#2f2e41"/><circle cx="79" cy="79" r="79" transform="translate(836.585 649.299)" fill="#2f2e41"/><rect width="24" height="43" transform="translate(811.177 744.708) rotate(-105.453)" fill="#2f2e41"/><ellipse cx="7.5" cy="20" rx="7.5" ry="20" transform="translate(789.759 712.237) rotate(-15.453)" fill="#2f2e41"/><circle cx="27" cy="27" r="27" transform="translate(909.329 656.043)" fill="#fff"/><circle cx="9" cy="9" r="9" transform="translate(935.963 662.116)" fill="#3f3d56"/><path d="M1048.86,816.306c29.234-1.463,51.625-28.808,50.01-61.076s-26.623-57.241-55.858-55.778-33.822,24.412-32.207,56.681S1019.62,817.769,1048.86,816.306Z" transform="translate(-42.043 -33.718)" fill="#6c63ff"/><path d="M925.341,728.592a18,18,0,1,1-2.9-35.883c9.909-.8,12.611,7.065,13.413,16.973S935.25,727.79,925.341,728.592Z" transform="translate(-42.043 -33.718)" fill="#fff"/><path d="M49.464,361.025H491.957l68.6,33.422L669.866,447.7l71.468-133.812h202.24" fill="none" stroke="#3f3d56" stroke-miterlimit="10" stroke-width="2"/><circle cx="13.685" cy="13.685" r="13.685" transform="translate(209.126 361.34)" fill="#6c63ff"/><circle cx="13.685" cy="13.685" r="13.685" transform="translate(336.856 347.34)" fill="#6c63ff"/><circle cx="13.685" cy="13.685" r="13.685" transform="translate(546.699 380.793)" fill="#6c63ff"/><circle cx="13.685" cy="13.685" r="13.685" transform="translate(841.694 300.202)" fill="#6c63ff"/><circle cx="13.685" cy="13.685" r="13.685" transform="translate(698.758 353.423)" fill="#6c63ff"/><circle cx="14.756" cy="14.756" r="14.756" transform="translate(412.82 566.685)" fill="none" stroke="#3f3d56" stroke-miterlimit="10" stroke-width="2"/><ellipse cx="170" cy="23.127" rx="170" ry="23.127" transform="translate(0 786.309)" fill="#3f3d56"/><circle cx="79" cy="79" r="79" transform="translate(81.805 617.436)" fill="#2f2e41"/><rect width="24" height="43" transform="translate(124.805 758.436)" fill="#2f2e41"/><rect width="24" height="43" transform="translate(172.805 758.436)" fill="#2f2e41"/><ellipse cx="20" cy="7.5" rx="20" ry="7.5" transform="translate(124.805 794.436)" fill="#2f2e41"/><ellipse cx="20" cy="7.5" rx="20" ry="7.5" transform="translate(172.805 793.436)" fill="#2f2e41"/><circle cx="27" cy="27" r="27" transform="translate(135.805 649.436)" fill="#fff"/><circle cx="9" cy="9" r="9" transform="translate(153.805 667.436)" fill="#3f3d56"/><path d="M126.215,656.687c-6.379-28.568,14.012-57.434,45.544-64.475s62.265,10.41,68.644,38.978-14.519,39.1-46.051,46.145S132.594,685.254,126.215,656.687Z" transform="translate(-42.043 -33.718)" fill="#6c63ff"/><circle cx="79" cy="79" r="79" transform="translate(54.805 390.436)" fill="#2f2e41"/><rect width="24" height="43" transform="translate(97.805 531.436)" fill="#2f2e41"/><rect width="24" height="43" transform="translate(145.805 531.436)" fill="#2f2e41"/><ellipse cx="20" cy="7.5" rx="20" ry="7.5" transform="translate(97.805 567.436)" fill="#2f2e41"/><ellipse cx="20" cy="7.5" rx="20" ry="7.5" transform="translate(145.805 566.436)" fill="#2f2e41"/><circle cx="27" cy="27" r="27" transform="translate(108.805 422.436)" fill="#fff"/><circle cx="9" cy="9" r="9" transform="translate(126.805 440.436)" fill="#3f3d56"/><path d="M99.215,429.687c-6.379-28.568,14.012-57.434,45.544-64.475s62.265,10.41,68.644,38.978-14.519,39.1-46.051,46.145S105.594,458.254,99.215,429.687Z" transform="translate(-42.043 -33.718)" fill="#6c63ff"/><ellipse cx="12.4" cy="39.5" rx="12.4" ry="39.5" transform="translate(3.822 427.057) rotate(-64.626)" fill="#2f2e41"/><path d="M137.043,531.655c0,7.732,19.909,23,42,23s42.8-21.768,42.8-29.5-20.713,1.5-42.8,1.5S137.043,523.923,137.043,531.655Z" transform="translate(-42.043 -33.718)" fill="#fff"/><rect width="126.129" height="64.161" transform="translate(835.474 564.71)" fill="#6c63ff"/><rect width="126.129" height="64.161" transform="translate(825.603 575.129)" fill="none" stroke="#3f3d56" stroke-miterlimit="10" stroke-width="2"/><rect width="36" height="36" transform="translate(226.603 199)" fill="#ff6584"/><rect width="36" height="36" transform="translate(217.603 187)" fill="none" stroke="#3f3d56" stroke-miterlimit="10" stroke-width="2"/><circle cx="79" cy="79" r="79" transform="translate(827.052 110.47)" fill="#2f2e41"/><rect width="24" height="43" transform="translate(960.178 286.373) rotate(169.739)" fill="#2f2e41"/><rect width="24" height="43" transform="translate(912.946 294.924) rotate(169.739)" fill="#2f2e41"/><ellipse cx="20" cy="7.5" rx="20" ry="7.5" transform="matrix(0.763, -0.646, 0.646, 0.763, 876.914, 309.589)" fill="#2f2e41"/><ellipse cx="20" cy="7.5" rx="20" ry="7.5" transform="matrix(0.763, -0.646, 0.646, 0.763, 923.163, 301.217)" fill="#2f2e41"/><circle cx="27" cy="27" r="27" transform="translate(873.521 143.146)" fill="#fff"/><circle cx="9" cy="9" r="9" transform="translate(880.424 151.468)" fill="#3f3d56"/><path d="M1010.42,137.245c1.188-29.247-24.019-54.019-56.3-55.331s-59.415,21.335-60.6,50.582,21.252,35.892,53.534,37.2S1009.23,166.492,1010.42,137.245Z" transform="translate(-42.043 -33.718)" fill="#6c63ff"/><ellipse cx="12.4" cy="39.5" rx="12.4" ry="39.5" transform="matrix(0.223, -0.975, 0.975, 0.223, 791.833, 178.34)" fill="#2f2e41"/><ellipse cx="12.4" cy="39.5" rx="12.4" ry="39.5" transform="matrix(0.223, -0.975, 0.975, 0.223, 946.905, 204.133)" fill="#2f2e41"/><path d="M969.793,254.321a18,18,0,1,1-35.424,6.413c-1.771-9.782,5.792-13.244,15.575-15.015S968.022,244.539,969.793,254.321Z" transform="translate(-42.043 -33.718)" fill="#fff"/><line x2="91" y2="70" transform="translate(712.603 99)" fill="none" stroke="#3f3d56" stroke-miterlimit="10" stroke-width="2"/><circle cx="68" cy="68" r="68" transform="translate(601.603)" fill="#ff6584"/><ellipse cx="39.5" cy="12.4" rx="39.5" ry="12.4" transform="translate(876.071 710.595) rotate(-82.281)" fill="#2f2e41"/><circle cx="13.685" cy="13.685" r="13.685" transform="translate(55.126 772.34)" fill="#6c63ff"/><rect width="36" height="36" transform="translate(256.603 770)" fill="#ff6584"/><circle cx="13.685" cy="13.685" r="13.685" transform="translate(243.126 780.34)" fill="#6c63ff"/><circle cx="13.685" cy="13.685" r="13.685" transform="translate(448.272 241.34)" fill="#6c63ff"/><circle cx="6.535" cy="6.535" r="6.535" transform="translate(721.186 672.717)" fill="#ff6584"/><line y1="74.412" transform="translate(759.739 713.313)" fill="#3f3d56" stroke="#3f3d56" stroke-miterlimit="10" stroke-width="2"/><circle cx="10.523" cy="10.523" r="10.523" transform="translate(749.216 702.79)" fill="#3f3d56"/><path d="M801.782,792.893s-1.5-32.332-32.32-28.574" transform="translate(-42.043 -33.718)" fill="#3f3d56"/></g></g></svg>