<?xml version="1.0" encoding="UTF-8" standalone="no"?>
<svg width="24" height="24" viewBox="0 0 24 24" version="1.1" xmlns="http://www.w3.org/2000/svg">
  <style>
    #bg {
      fill: white
    }

    #fg {
      fill: #9E9E9E
    }

    @media screen and (prefers-color-scheme: dark) {
      #bg {
        fill: #121212
      }

      #fg {
        fill: #FAFAFA
      }
    }
  </style>
  <rect id="bg" width="24" height="24" x="0" y="0" />
  <path id="fg"
    d="M 7,3 C 4.790861,3 3,4.790861 3,7 3.0044532,8.8601756 4.290654,10.471772 6.1035156,10.888672 6.0359977,11.248992 6,11.620083 6,12 c 0,3.313705 6,8 6,8 0,0 6,-4.686295 6,-8 0,-0.379917 -0.036,-0.751008 -0.103516,-1.111328 C 19.709346,10.471772 20.995547,8.8601758 21,7 21,4.790861 19.209139,3 17,3 15.139824,3.0044532 13.528228,4.290654 13.111328,6.1035156 12.751008,6.0359977 12.379917,6 12,6 11.623525,6 11.255697,6.0352347 10.898438,6.1015625 10.479935,4.2859223 8.8632482,2.9997007 7,3 Z m 8.435547,15.226562 c -1.455827,1.491927 -2.820313,2.5625 -2.820313,2.5625 L 12,21.269531 11.384766,20.789062 c 0,0 -1.364853,-1.069146 -2.8203129,-2.560546 C 5.1981646,18.691944 3.0016279,19.785972 3,21 v 3 h 18 v -3 c 7.45e-4,-1.21474 -2.196192,-2.309739 -5.564453,-2.773438 z" />
</svg>
