<svg xmlns="http://www.w3.org/2000/svg" xmlns:xlink="http://www.w3.org/1999/xlink" width="1920" height="1080" viewBox="0 0 1920 1080">
  <defs>
    <linearGradient id="linear-gradient" x1="11.47" y1="33.141" x2="11.47" y2="32.127" gradientUnits="objectBoundingBox">
      <stop offset="0" stop-color="gray" stop-opacity="0.251"/>
      <stop offset="0.54" stop-color="gray" stop-opacity="0.122"/>
      <stop offset="1" stop-color="gray" stop-opacity="0.102"/>
    </linearGradient>
    <linearGradient id="linear-gradient-2" x1="11.544" y1="33.584" x2="11.544" y2="32.57" xlink:href="#linear-gradient"/>
    <linearGradient id="linear-gradient-3" x1="7.8" y1="22.569" x2="7.8" y2="21.562" xlink:href="#linear-gradient"/>
    <linearGradient id="linear-gradient-4" x1="10.897" y1="33.438" x2="10.897" y2="32.452" xlink:href="#linear-gradient"/>
    <linearGradient id="linear-gradient-5" x1="11.176" y1="33.465" x2="11.176" y2="32.452" xlink:href="#linear-gradient"/>
    <linearGradient id="linear-gradient-6" x1="7.509" y1="22.781" x2="7.509" y2="21.774" xlink:href="#linear-gradient"/>
    <linearGradient id="linear-gradient-7" x1="6.632" y1="23.498" x2="6.632" y2="22.491" xlink:href="#linear-gradient"/>
    <linearGradient id="linear-gradient-8" x1="6.008" y1="26.1" x2="6.008" y2="25.093" xlink:href="#linear-gradient"/>
    <linearGradient id="linear-gradient-9" x1="11.623" y1="33.309" x2="11.623" y2="32.322" xlink:href="#linear-gradient"/>
    <linearGradient id="linear-gradient-10" x1="12.431" y1="29.02" x2="12.431" y2="28.034" xlink:href="#linear-gradient"/>
    <linearGradient id="linear-gradient-11" x1="11.313" y1="29.417" x2="11.313" y2="28.431" xlink:href="#linear-gradient"/>
    <linearGradient id="linear-gradient-12" x1="10.236" y1="27.427" x2="10.236" y2="26.441" xlink:href="#linear-gradient"/>
    <linearGradient id="linear-gradient-13" x1="11.03" y1="35.188" x2="11.03" y2="34.202" xlink:href="#linear-gradient"/>
    <linearGradient id="linear-gradient-14" x1="7.653" y1="23.243" x2="7.653" y2="22.23" xlink:href="#linear-gradient"/>
    <linearGradient id="linear-gradient-15" x1="3.07" y1="11.566" x2="3.07" y2="10.532" xlink:href="#linear-gradient"/>
    <linearGradient id="linear-gradient-16" x1="1.664" y1="6.158" x2="1.664" y2="5.134" xlink:href="#linear-gradient"/>
    <linearGradient id="linear-gradient-17" x1="3.627" y1="10.765" x2="3.627" y2="9.763" xlink:href="#linear-gradient"/>
    <linearGradient id="linear-gradient-18" x1="3.611" y1="10.786" x2="3.611" y2="9.783" xlink:href="#linear-gradient"/>
    <linearGradient id="linear-gradient-19" x1="7.529" y1="22.952" x2="7.529" y2="21.939" xlink:href="#linear-gradient"/>
    <linearGradient id="linear-gradient-20" x1="7.548" y1="23.5" x2="7.548" y2="22.486" xlink:href="#linear-gradient"/>
    <clipPath id="clip-DefaultNews">
      <rect width="1920" height="1080"/>
    </clipPath>
  </defs>
  <g id="DefaultNews" clip-path="url(#clip-DefaultNews)">
    <rect width="1920" height="1080" fill="#fff"/>
    <g id="Groupe_51" data-name="Groupe 51" transform="translate(561 413.042)">
      <path id="Tracé_665" data-name="Tracé 665" d="M849.5,746.62h-485l.219-51.422c.553-130.115,104.408-237.329,234.506-239.542q2.108-.036,4.223-.036h0A245.335,245.335,0,0,1,689.2,471.026c92.054,34.283,153.841,121.384,157.951,219.528Z" transform="translate(-200.5 -116.462)" fill="#6c63ff"/>
      <rect id="Rectangle_177" data-name="Rectangle 177" width="1920" height="2" transform="translate(-561 630.158)" fill="#2f2e41"/>
      <path id="Tracé_666" data-name="Tracé 666" d="M398.287,400.165l21.37,15.543L441.028,598.33H491.54L474.055,390.451l-69.94-27.2Z" fill="#2f2e41"/>
      <path id="Tracé_667" data-name="Tracé 667" d="M509.418,458.344s-5.828,66.055,17.485,68,112.682-19.428,112.682-19.428l42.741,151.537,64.112-33.027s-38.856-170.965-62.169-180.679S583.244,415.6,583.244,415.6L526.9,425.316Z" transform="translate(-200.5 -116.462)" fill="#2f2e41"/>
      <path id="Tracé_668" data-name="Tracé 668" d="M649.3,710.906s-11.657,44.684-3.886,48.57a140.53,140.53,0,0,1,13.6,7.771v-7.771s9.714,9.714,9.714,17.485,52.455,9.714,52.455,0-1.943-21.371-11.657-27.2-21.371-38.856-21.371-38.856Z" transform="translate(-200.5 -116.462)" fill="#2f2e41"/>
      <path id="Tracé_669" data-name="Tracé 669" d="M505.14,514.79l3.885,36.913,13.6,23.313L555.652,538.1,530.4,497.3Z" fill="#2f2e41"/>
      <path id="Tracé_670" data-name="Tracé 670" d="M736.724,668.165s7.154-24.46,14.262-21.944,34.307,27.772,34.307,27.772l19.428,11.657s38.856,3.886,27.2,15.542-54.4,27.2-73.826,19.428-23.313-9.714-23.313-9.714l-5.828,3.886-23.313-5.828,3.886-40.8S715.354,685.65,736.724,668.165Z" transform="translate(-200.5 -116.462)" fill="#2f2e41"/>
      <circle id="Ellipse_190" data-name="Ellipse 190" cx="44.684" cy="44.684" r="44.684" transform="translate(330.289 9.665)" fill="#9f616a"/>
      <path id="Tracé_671" data-name="Tracé 671" d="M547.3,197.039s3.886,40.8-7.771,40.8,1.942,50.513,33.027,50.513S615.3,228.124,615.3,228.124s-21.371-7.771-17.485-33.027S547.3,197.039,547.3,197.039Z" transform="translate(-200.5 -116.462)" fill="#9f616a"/>
      <path id="Tracé_672" data-name="Tracé 672" d="M544.207,234.725l-16.332,7L483.55,260.476a9,9,0,0,0-5.437,9.294l16.734,148.746s-17.485,36.913,9.714,38.856l3.886,13.6,31.085-36.913L656.1,430.173l1.943-188.45-53.335-21.076S597.452,260.755,544.207,234.725Z" transform="translate(-200.5 -116.462)" fill="#3f3d56"/>
      <path id="Tracé_673" data-name="Tracé 673" d="M489.991,266.008l-7.179-2.051a5.919,5.919,0,0,0-7.471,4.759L456.288,388.223a41.5,41.5,0,0,0,4.055,25.917c5.887,11.146,18.113,21.254,43.247,9.233l17.485-126.281Z" transform="translate(-200.5 -116.462)" fill="#3f3d56"/>
      <path id="Tracé_674" data-name="Tracé 674" d="M635.7,238.809l23.313,3.886,64.112,89.368,5.828,15.542,36.913-11.657s-1.943,17.485,17.485,15.542c0,0-23.313,64.112-71.883,44.684s-64.112-77.712-64.112-77.712Z" transform="translate(-200.5 -116.462)" fill="#3f3d56"/>
      <path id="Tracé_675" data-name="Tracé 675" d="M462.4,161.2l-87.426-34.971-3.885,11.657,40.8,34.97Z" fill="#ccc"/>
      <path id="Tracé_676" data-name="Tracé 676" d="M548.57,173.66c1.65-.441,1.893-2.632,1.948-4.339.3-9.142,5.8-18.524,14.553-21.185a24.466,24.466,0,0,1,10.313-.568,39.062,39.062,0,0,1,13.967,4.66c2.279,1.281,4.515,2.825,7.1,3.216,1.707.259,9.1,2.408,10.8,2.711,3.738.665,7.212,4.01,10.8,2.765,3.432-1.191,4.191-5.634,4.274-9.265.189-8.273-6.092-19.724-11.623-25.878-4.2-4.671-10.519-6.827-16.7-7.948a111.167,111.167,0,0,0-21.838-1.329c-9.889.176-20.051.94-28.968,5.218s-16.407,12.794-16.834,22.675c-.089,2.058.123,4.125-.05,6.178-.422,5.008-3.082,9.532-4.329,14.4a26.35,26.35,0,0,0,3.68,21.057c3.309,4.87,16.543,9.291,16.351,15.176,2.392-2.478-3.249-4.972-.857-7.45a5.893,5.893,0,0,0,1.752-7.2l-2.54-9.907c-.465-1.814-.922-3.778-.22-5.513C542.875,164.407,545.818,174.4,548.57,173.66Z" transform="translate(-200.5 -116.462)" fill="#2f2e41"/>
      <path id="Tracé_677" data-name="Tracé 677" d="M371.088,137.889,334.175,281.655l143.766,50.513,83.54-69.941,52.455-157.365-85.483,62.169Z" fill="#f2f2f2"/>
      <rect id="Rectangle_178" data-name="Rectangle 178" width="1.942" height="144.669" transform="matrix(0.255, -0.967, 0.967, 0.255, 377.637, 155.342)" fill="#e6e6e6"/>
      <rect id="Rectangle_179" data-name="Rectangle 179" width="1.942" height="144.669" transform="matrix(0.255, -0.967, 0.967, 0.255, 373.751, 165.055)" fill="#e6e6e6"/>
      <rect id="Rectangle_180" data-name="Rectangle 180" width="1.942" height="144.669" transform="matrix(0.255, -0.967, 0.967, 0.255, 371.809, 174.769)" fill="#e6e6e6"/>
      <rect id="Rectangle_181" data-name="Rectangle 181" width="1.942" height="144.669" transform="matrix(0.255, -0.967, 0.967, 0.255, 369.866, 184.483)" fill="#e6e6e6"/>
      <rect id="Rectangle_182" data-name="Rectangle 182" width="1.942" height="144.669" transform="matrix(0.255, -0.967, 0.967, 0.255, 367.923, 194.196)" fill="#e6e6e6"/>
      <rect id="Rectangle_183" data-name="Rectangle 183" width="1.942" height="144.669" transform="matrix(0.255, -0.967, 0.967, 0.255, 365.98, 203.91)" fill="#e6e6e6"/>
      <rect id="Rectangle_184" data-name="Rectangle 184" width="1.942" height="144.669" transform="matrix(0.255, -0.967, 0.967, 0.255, 364.037, 213.624)" fill="#e6e6e6"/>
      <rect id="Rectangle_185" data-name="Rectangle 185" width="1.942" height="144.669" transform="matrix(0.255, -0.967, 0.967, 0.255, 362.094, 223.338)" fill="#e6e6e6"/>
      <rect id="Rectangle_186" data-name="Rectangle 186" width="1.942" height="144.669" transform="matrix(0.255, -0.967, 0.967, 0.255, 360.151, 233.053)" fill="#e6e6e6"/>
      <path id="Tracé_678" data-name="Tracé 678" d="M512.35,360.1s43.695-26.1,63.123-8.614-56.341,42.741-56.341,42.741Z" transform="translate(-200.5 -116.462)" fill="#9f616a"/>
      <path id="Tracé_679" data-name="Tracé 679" d="M464.734,372.861l56.341-21.371s-9.714,36.913,9.714,38.856l-27.2,33.028S449.192,423.374,464.734,372.861Z" transform="translate(-200.5 -116.462)" fill="#3f3d56"/>
      <path id="Tracé_680" data-name="Tracé 680" d="M412.494,255.6l74.761,25.2-17.693,38.566-74.761-25.2Z" fill="#e6e6e6"/>
      <path id="Tracé_681" data-name="Tracé 681" d="M544.967,173.831l56.341-42.742-15.542,52.456-58.284,42.741Z" fill="#ccc"/>
      <rect id="Rectangle_187" data-name="Rectangle 187" width="70.718" height="1.943" transform="matrix(0.797, -0.604, 0.604, 0.797, 517.184, 244.937)" fill="#e6e6e6"/>
      <rect id="Rectangle_188" data-name="Rectangle 188" width="70.718" height="1.943" transform="matrix(0.797, -0.604, 0.604, 0.797, 513.298, 266.307)" fill="#e6e6e6"/>
      <path id="Tracé_682" data-name="Tracé 682" d="M777.523,353.433s48.57-29.142,17.485-40.8-31.085,33.027-31.085,33.027S761.981,355.376,777.523,353.433Z" transform="translate(-200.5 -116.462)" fill="#9f616a"/>
      <path id="Tracé_683" data-name="Tracé 683" d="M292.4,171.888l-1.943,75.769,30.113-8.594-24.285.822Z" opacity="0.1"/>
      <path id="Tracé_684" data-name="Tracé 684" d="M280.909,712.354c6.073,22.45,26.875,36.354,26.875,36.354s10.955-22.495,4.882-44.945-26.875-36.354-26.875-36.354S274.835,689.9,280.909,712.354Z" transform="translate(-200.5 -116.462)" fill="#8985a8"/>
      <path id="Tracé_685" data-name="Tracé 685" d="M289.833,707.53c16.665,16.223,18.7,41.16,18.7,41.16s-24.984-1.364-41.648-17.587-18.7-41.16-18.7-41.16S273.168,691.307,289.833,707.53Z" transform="translate(-200.5 -116.462)" fill="#3f3d56"/>
      <rect id="Rectangle_189" data-name="Rectangle 189" width="30" height="30" transform="translate(626 379.158)" fill="#f2f2f2"/>
      <rect id="Rectangle_190" data-name="Rectangle 190" width="30" height="30" transform="translate(506 39.158)" fill="#f2f2f2"/>
      <circle id="Ellipse_191" data-name="Ellipse 191" cx="15" cy="15" r="15" transform="translate(144 313.158)" fill="#f2f2f2"/>
    </g>
    <g id="Groupe_62" data-name="Groupe 62" transform="translate(65.353 28.927)">
      <path id="Tracé_700" data-name="Tracé 700" d="M165.037,40.476l1.268-.642L166,39.8l.1-.068-.186.051L131.03,35.27l.744,11.544,1.1,10.243,2.147-1.1,1.994,4.53Z" transform="translate(90.44 24.344)" fill="url(#linear-gradient)"/>
      <path id="Tracé_701" data-name="Tracé 701" d="M132.16,44.593l1.014,9.381,31.185-15.8-27.077.592Z" transform="translate(91.22 26.346)" fill="#6c63ff"/>
      <path id="Tracé_702" data-name="Tracé 702" d="M132.16,44.593l1.014,9.381,31.185-15.8-27.077.592Z" transform="translate(91.22 26.346)" opacity="0.2"/>
      <path id="Tracé_703" data-name="Tracé 703" d="M131.75,35.72l32.892,4.141-32.2,6.423Z" transform="translate(90.937 24.655)" fill="#6c63ff"/>
      <path id="Tracé_704" data-name="Tracé 704" d="M136.807,57.125,163.952,38.11,132.48,47.474Z" transform="translate(91.441 26.304)" fill="#6c63ff"/>
      <path id="Tracé_705" data-name="Tracé 705" d="M265.114,11.886l1.268-.642-.3-.051.1-.068-.186.068L231.09,6.68l.761,11.544,1.1,10.243,2.147-1.1,1.994,4.53Z" transform="translate(159.503 4.611)" fill="url(#linear-gradient-2)"/>
      <path id="Tracé_706" data-name="Tracé 706" d="M232.23,16l1.014,9.381,31.185-15.8-27.077.592Z" transform="translate(160.29 6.612)" fill="#6c63ff"/>
      <path id="Tracé_707" data-name="Tracé 707" d="M232.23,16l1.014,9.381,31.185-15.8-27.077.592Z" transform="translate(160.29 6.612)" opacity="0.2"/>
      <path id="Tracé_708" data-name="Tracé 708" d="M231.82,7.13l32.892,4.141-32.2,6.423Z" transform="translate(160.007 4.921)" fill="#6c63ff"/>
      <path id="Tracé_709" data-name="Tracé 709" d="M236.877,28.535,264.022,9.52,232.55,18.867Z" transform="translate(160.511 6.571)" fill="#6c63ff"/>
      <path id="Tracé_710" data-name="Tracé 710" d="M448.023,1.42l1.741-1.3-.456.017L449.426,0l-.253.135L395.44,2.349l4.124,17.206,4.293,15.127,2.958-2.214,4.158,6.3Z" transform="translate(272.942)" fill="url(#linear-gradient-3)"/>
      <path id="Tracé_711" data-name="Tracé 711" d="M398.89,18.541l3.938,13.86L445.726.54,405.093,8.433Z" transform="translate(275.323 0.373)" fill="#6c63ff"/>
      <path id="Tracé_712" data-name="Tracé 712" d="M398.89,18.541l3.938,13.86L445.726.54,405.093,8.433Z" transform="translate(275.323 0.373)" opacity="0.2"/>
      <path id="Tracé_713" data-name="Tracé 713" d="M396.66,2.8,447.265.54l-46.836,18Z" transform="translate(273.784 0.373)" fill="#6c63ff"/>
      <path id="Tracé_714" data-name="Tracé 714" d="M408.809,36.144,444.794.48,399.8,22.706Z" transform="translate(275.951 0.331)" fill="#6c63ff"/>
      <path id="Tracé_715" data-name="Tracé 715" d="M356.537,63.821l1.386-.321-.287-.1.118-.051h-.2L324.778,50.57l-2.045,11.392-1.4,10.192,2.349-.541.828,4.868Z" transform="translate(221.789 34.905)" fill="url(#linear-gradient-4)"/>
      <path id="Tracé_716" data-name="Tracé 716" d="M323.385,59.158l-1.285,9.33,34.075-7.809-26.418-5.95Z" transform="translate(222.321 37.776)" fill="#6c63ff"/>
      <path id="Tracé_717" data-name="Tracé 717" d="M323.385,59.158l-1.285,9.33,34.075-7.809-26.418-5.95Z" transform="translate(222.321 37.776)" opacity="0.2"/>
      <path id="Tracé_718" data-name="Tracé 718" d="M324.736,51.18,355.65,63.13l-32.79-1.521Z" transform="translate(222.845 35.326)" fill="#6c63ff"/>
      <path id="Tracé_719" data-name="Tracé 719" d="M324.636,70.076,355.567,58.16l-32.807,1.5Z" transform="translate(222.776 40.143)" fill="#6c63ff"/>
      <g id="Groupe_53" data-name="Groupe 53" transform="translate(351.566 213.881)" opacity="0.5">
        <path id="Tracé_720" data-name="Tracé 720" d="M242.024,131.763l1.251-.659-.287-.034.085-.068-.186.051L208,126.54l.761,11.561,1.1,10.226,2.147-1.1,1.978,4.53Z" transform="translate(-208 -126.54)" fill="url(#linear-gradient-5)"/>
        <path id="Tracé_721" data-name="Tracé 721" d="M209.14,135.88l1.014,9.364,31.185-15.8-27.077.592Z" transform="translate(-207.213 -124.538)" fill="#6c63ff"/>
        <path id="Tracé_722" data-name="Tracé 722" d="M209.14,135.88l1.014,9.364,31.185-15.8-27.077.592Z" transform="translate(-207.213 -124.538)" opacity="0.2"/>
        <path id="Tracé_723" data-name="Tracé 723" d="M208.73,126.99l32.892,4.141-32.2,6.44Z" transform="translate(-207.496 -126.229)" fill="#6c63ff"/>
        <path id="Tracé_724" data-name="Tracé 724" d="M213.787,148.4l27.145-19.015-31.472,9.364Z" transform="translate(-206.992 -124.58)" fill="#6c63ff"/>
      </g>
      <g id="Groupe_54" data-name="Groupe 54" transform="translate(711.144 63.197)" opacity="0.2">
        <path id="Tracé_725" data-name="Tracé 725" d="M473.306,38.81l1.741-1.318-.456.017.135-.118-.27.135-53.715,2.2,4.124,17.206,4.276,15.144,2.958-2.214,4.175,6.3Z" transform="translate(-420.74 -37.39)" fill="url(#linear-gradient-6)"/>
        <path id="Tracé_726" data-name="Tracé 726" d="M424.18,55.931l3.938,13.843,42.9-31.844-40.633,7.893Z" transform="translate(-418.366 -37.017)" fill="#6c63ff"/>
        <path id="Tracé_727" data-name="Tracé 727" d="M424.18,55.931l3.938,13.843,42.9-31.844-40.633,7.893Z" transform="translate(-418.366 -37.017)" opacity="0.2"/>
        <path id="Tracé_728" data-name="Tracé 728" d="M421.95,40.195l50.605-2.265-46.836,18Z" transform="translate(-419.905 -37.017)" fill="#6c63ff"/>
        <path id="Tracé_729" data-name="Tracé 729" d="M434.1,73.534,470.084,37.87,425.09,60.1Z" transform="translate(-417.738 -37.059)" fill="#6c63ff"/>
      </g>
      <g id="Groupe_55" data-name="Groupe 55" transform="translate(854.255 250.914)" opacity="0.3">
        <path id="Tracé_730" data-name="Tracé 730" d="M557.993,149.87l1.724-1.3-.456.017.135-.135-.27.135L505.41,150.8l4.124,17.206,4.293,15.144,2.941-2.231,4.175,6.321Z" transform="translate(-505.41 -148.45)" fill="url(#linear-gradient-7)"/>
        <path id="Tracé_731" data-name="Tracé 731" d="M508.85,166.991l3.938,13.86L555.7,148.99l-40.65,7.893Z" transform="translate(-503.036 -148.077)" fill="#6c63ff"/>
        <path id="Tracé_732" data-name="Tracé 732" d="M508.85,166.991l3.938,13.86L555.7,148.99l-40.65,7.893Z" transform="translate(-503.036 -148.077)" opacity="0.2"/>
        <path id="Tracé_733" data-name="Tracé 733" d="M506.62,151.255l50.622-2.265-46.853,18Z" transform="translate(-504.575 -148.077)" fill="#6c63ff"/>
        <path id="Tracé_734" data-name="Tracé 734" d="M518.769,184.587l35.985-35.647L509.76,171.15Z" transform="translate(-502.408 -148.112)" fill="#6c63ff"/>
      </g>
      <g id="Groupe_56" data-name="Groupe 56" transform="translate(1296.62 343.859)" opacity="0.3">
        <path id="Tracé_735" data-name="Tracé 735" d="M819.7,204.86l1.741-1.318-.456.017.135-.118-.271.118-53.715,2.214,4.124,17.206,4.276,15.144,2.958-2.214,4.158,6.3Z" transform="translate(-767.13 -203.44)" fill="url(#linear-gradient-8)"/>
        <path id="Tracé_736" data-name="Tracé 736" d="M770.57,221.988l3.938,13.843,42.9-31.861-40.633,7.893Z" transform="translate(-764.756 -203.074)" fill="#6c63ff"/>
        <path id="Tracé_737" data-name="Tracé 737" d="M770.57,221.988l3.938,13.843,42.9-31.861-40.633,7.893Z" transform="translate(-764.756 -203.074)" opacity="0.2"/>
        <path id="Tracé_738" data-name="Tracé 738" d="M768.34,206.252l50.605-2.282-46.836,18.018Z" transform="translate(-766.295 -203.074)" fill="#6c63ff"/>
        <path id="Tracé_739" data-name="Tracé 739" d="M780.489,239.584l35.985-35.664L771.48,226.13Z" transform="translate(-764.128 -203.109)" fill="#6c63ff"/>
      </g>
      <g id="Groupe_57" data-name="Groupe 57" transform="translate(548.697 236.023)" opacity="0.5">
        <path id="Tracé_740" data-name="Tracé 740" d="M359.837,152.908l1.386-.338-.287-.1.118-.051-.2.017L328.078,139.64l-2.045,11.392-1.4,10.209,2.333-.558.845,4.868Z" transform="translate(-324.63 -139.64)" fill="url(#linear-gradient-9)"/>
        <path id="Tracé_741" data-name="Tracé 741" d="M326.685,148.228l-1.285,9.33,34.075-7.809-26.418-5.95Z" transform="translate(-324.099 -136.769)" fill="#6c63ff"/>
        <path id="Tracé_742" data-name="Tracé 742" d="M326.685,148.228l-1.285,9.33,34.075-7.809-26.418-5.95Z" transform="translate(-324.099 -136.769)" opacity="0.2"/>
        <path id="Tracé_743" data-name="Tracé 743" d="M328.036,140.25,358.95,152.2l-32.79-1.521Z" transform="translate(-323.574 -139.219)" fill="#6c63ff"/>
        <path id="Tracé_744" data-name="Tracé 744" d="M327.936,159.156l30.931-11.916-32.807,1.487Z" transform="translate(-323.643 -134.394)" fill="#6c63ff"/>
      </g>
      <g id="Groupe_58" data-name="Groupe 58" transform="translate(1156.467 457.205)" opacity="0.5">
        <path id="Tracé_745" data-name="Tracé 745" d="M719.417,283.751l1.386-.321-.27-.118.1-.034h-.2L687.675,270.5l-2.062,11.392-1.4,10.192,2.349-.558.845,4.885Z" transform="translate(-684.21 -270.5)" fill="url(#linear-gradient-10)"/>
        <path id="Tracé_746" data-name="Tracé 746" d="M686.258,279.088l-1.268,9.33,34.075-7.809-26.435-5.95Z" transform="translate(-683.672 -267.629)" fill="#6c63ff"/>
        <path id="Tracé_747" data-name="Tracé 747" d="M686.258,279.088l-1.268,9.33,34.075-7.809-26.435-5.95Z" transform="translate(-683.672 -267.629)" opacity="0.2"/>
        <path id="Tracé_748" data-name="Tracé 748" d="M687.616,271.11l30.931,11.95-32.807-1.521Z" transform="translate(-683.154 -270.079)" fill="#6c63ff"/>
        <path id="Tracé_749" data-name="Tracé 749" d="M687.509,290.006,718.44,278.09l-32.79,1.5Z" transform="translate(-683.216 -265.261)" fill="#6c63ff"/>
      </g>
      <g id="Groupe_59" data-name="Groupe 59" transform="translate(1119.299 223.008)" opacity="0.5">
        <path id="Tracé_750" data-name="Tracé 750" d="M697.427,145.208l1.386-.338-.287-.1.118-.051-.2.017L665.668,131.94l-2.045,11.392-1.4,10.209,2.349-.558.845,4.868Z" transform="translate(-662.22 -131.94)" fill="url(#linear-gradient-11)"/>
        <path id="Tracé_751" data-name="Tracé 751" d="M664.275,140.528l-1.285,9.33,34.092-7.809-26.435-5.95Z" transform="translate(-661.689 -129.069)" fill="#6c63ff"/>
        <path id="Tracé_752" data-name="Tracé 752" d="M664.275,140.528l-1.285,9.33,34.092-7.809-26.435-5.95Z" transform="translate(-661.689 -129.069)" opacity="0.2"/>
        <path id="Tracé_753" data-name="Tracé 753" d="M665.626,132.56l30.931,11.933-32.807-1.521Z" transform="translate(-661.164 -131.512)" fill="#6c63ff"/>
        <path id="Tracé_754" data-name="Tracé 754" d="M665.526,151.456l30.931-11.916-32.807,1.487Z" transform="translate(-661.233 -126.694)" fill="#6c63ff"/>
      </g>
      <g id="Groupe_60" data-name="Groupe 60" transform="translate(1427.832 27.855)" opacity="0.2">
        <path id="Tracé_755" data-name="Tracé 755" d="M879.967,29.731l1.386-.321-.27-.1.1-.051-.2.017L848.208,16.48l-2.045,11.392-1.4,10.209,2.349-.558.845,4.868Z" transform="translate(-844.76 -16.48)" fill="url(#linear-gradient-12)"/>
        <path id="Tracé_756" data-name="Tracé 756" d="M846.815,25.068,845.53,34.4l34.092-7.809-26.435-5.95Z" transform="translate(-844.229 -13.609)" fill="#6c63ff"/>
        <path id="Tracé_757" data-name="Tracé 757" d="M846.815,25.068,845.53,34.4l34.092-7.809-26.435-5.95Z" transform="translate(-844.229 -13.609)" opacity="0.2"/>
        <path id="Tracé_758" data-name="Tracé 758" d="M848.166,17.09,879.1,29.04,846.29,27.519Z" transform="translate(-843.704 -16.059)" fill="#6c63ff"/>
        <path id="Tracé_759" data-name="Tracé 759" d="M848.059,36,878.99,24.07l-32.79,1.5Z" transform="translate(-843.766 -11.241)" fill="#6c63ff"/>
      </g>
      <g id="Groupe_61" data-name="Groupe 61" transform="translate(286.611 91.052)" opacity="0.2">
        <path id="Tracé_760" data-name="Tracé 760" d="M204.794,67.121l1.386-.321-.287-.118.118-.034h-.2L173.035,53.87,170.99,65.262l-1.42,10.192,2.366-.558.828,4.885Z" transform="translate(-169.57 -53.87)" fill="url(#linear-gradient-13)"/>
        <path id="Tracé_761" data-name="Tracé 761" d="M171.635,62.458l-1.285,9.33,34.075-7.809-26.418-5.95Z" transform="translate(-169.032 -50.999)" fill="#6c63ff"/>
        <path id="Tracé_762" data-name="Tracé 762" d="M171.635,62.458l-1.285,9.33,34.075-7.809-26.418-5.95Z" transform="translate(-169.032 -50.999)" opacity="0.2"/>
        <path id="Tracé_763" data-name="Tracé 763" d="M172.986,54.48,203.9,66.43l-32.79-1.521Z" transform="translate(-168.507 -53.449)" fill="#6c63ff"/>
        <path id="Tracé_764" data-name="Tracé 764" d="M172.886,73.376,203.817,61.46l-32.807,1.5Z" transform="translate(-168.576 -48.631)" fill="#6c63ff"/>
      </g>
      <path id="Tracé_765" data-name="Tracé 765" d="M603.051,40.448l1.927-1-.456-.068.152-.1-.287.085-53.326-6.9,1.166,17.663L553.9,65.784l3.279-1.707,3.042,6.93Z" transform="translate(380.354 22.412)" fill="url(#linear-gradient-14)"/>
      <path id="Tracé_766" data-name="Tracé 766" d="M552.8,46.737l1.538,14.316L602,36.9l-41.377.913Z" transform="translate(381.555 25.469)" fill="#6c63ff"/>
      <path id="Tracé_767" data-name="Tracé 767" d="M552.8,46.737l1.538,14.316L602,36.9l-41.377.913Z" transform="translate(381.555 25.469)" opacity="0.2"/>
      <path id="Tracé_768" data-name="Tracé 768" d="M552.17,33.16l50.267,6.321-49.2,9.837Z" transform="translate(381.12 22.888)" fill="#6c63ff"/>
      <path id="Tracé_769" data-name="Tracé 769" d="M559.9,65.882,601.394,36.81l-48.1,14.3Z" transform="translate(381.893 25.407)" fill="#6c63ff"/>
      <path id="Tracé_770" data-name="Tracé 770" d="M706.837,230.054l4.969.3-.828-.642.423-.034-.676-.169L614.043,153.47,595.62,189.506l-15.06,32.723,8.434.507-2.13,17.173Z" transform="translate(400.715 105.928)" fill="url(#linear-gradient-15)"/>
      <path id="Tracé_771" data-name="Tracé 771" d="M597.382,179.04,583.64,208.974l121.966,8.434L623.225,170.69Z" transform="translate(402.841 117.814)" fill="#6c63ff"/>
      <path id="Tracé_772" data-name="Tracé 772" d="M597.382,179.04,583.64,208.974l121.966,8.434L623.225,170.69Z" transform="translate(402.841 117.814)" opacity="0.2"/>
      <path id="Tracé_773" data-name="Tracé 773" d="M608.622,156.13l91.373,71.327L591.77,189.089Z" transform="translate(408.453 107.764)" fill="#6c63ff"/>
      <path id="Tracé_774" data-name="Tracé 774" d="M587.17,218l115.611-8.485L591.5,181.22Z" transform="translate(405.278 125.082)" fill="#6c63ff"/>
      <path id="Tracé_775" data-name="Tracé 775" d="M1003.553,431.959l10.4.338-1.758-1.3.845-.1-1.4-.3L805.02,277.98l-36.171,76.4L739.49,423.61l17.612.558-3.347,35.951Z" transform="translate(510.413 191.868)" fill="url(#linear-gradient-16)"/>
      <path id="Tracé_776" data-name="Tracé 776" d="M772.667,332.583,745.86,395.932l255.122,9.888L826.061,313.5Z" transform="translate(514.809 216.385)" fill="#6c63ff"/>
      <path id="Tracé_777" data-name="Tracé 777" d="M772.667,332.583,745.86,395.932l255.122,9.888L826.061,313.5Z" transform="translate(514.809 216.385)" opacity="0.2"/>
      <path id="Tracé_778" data-name="Tracé 778" d="M794.8,283.45,990.035,426.561,761.72,353.324Z" transform="translate(525.756 195.644)" fill="#6c63ff"/>
      <path id="Tracé_779" data-name="Tracé 779" d="M753.85,413.613l240.755-25.032L760.56,336.59Z" transform="translate(520.324 232.322)" fill="#6c63ff"/>
      <path id="Tracé_780" data-name="Tracé 780" d="M839.192,35.145l4.53-2.062-1.031-.186.355-.22-.676.169L721.35,10.84l.575,40.481L723.9,87.272l7.69-3.482,6.152,16.175Z" transform="translate(497.892 7.482)" fill="url(#linear-gradient-17)"/>
      <path id="Tracé_781" data-name="Tracé 781" d="M724.12,42.4l1.842,32.892L837.72,25.7,743.051,22.93Z" transform="translate(499.804 15.827)" fill="#6c63ff"/>
      <path id="Tracé_782" data-name="Tracé 782" d="M724.12,42.4l1.842,32.892L837.72,25.7,743.051,22.93Z" transform="translate(499.804 15.827)" opacity="0.2"/>
      <path id="Tracé_783" data-name="Tracé 783" d="M723.81,12.55,837.934,32.866l-113.6,16.7Z" transform="translate(499.59 8.662)" fill="#6c63ff"/>
      <path id="Tracé_784" data-name="Tracé 784" d="M738.3,85.925,836.519,24.35,724.93,51.394Z" transform="translate(500.363 16.807)" fill="#6c63ff"/>
      <path id="Tracé_785" data-name="Tracé 785" d="M915.055,115.415l4.547-2.045-1.031-.186.338-.237-.659.169L797.23,91.11l.575,40.481,1.978,35.951,7.691-3.465,6.152,16.159Z" transform="translate(550.266 62.886)" fill="url(#linear-gradient-18)"/>
      <path id="Tracé_786" data-name="Tracé 786" d="M800,122.681l1.825,32.892,111.757-49.591-94.669-2.772Z" transform="translate(552.178 71.238)" fill="#6c63ff"/>
      <path id="Tracé_787" data-name="Tracé 787" d="M800,122.681l1.825,32.892,111.757-49.591-94.669-2.772Z" transform="translate(552.178 71.238)" opacity="0.2"/>
      <path id="Tracé_788" data-name="Tracé 788" d="M799.68,92.83,913.8,113.146l-113.583,16.7Z" transform="translate(551.957 64.073)" fill="#6c63ff"/>
      <path id="Tracé_789" data-name="Tracé 789" d="M814.18,166.188l98.2-61.558L800.81,131.657Z" transform="translate(552.737 72.218)" fill="#6c63ff"/>
      <path id="Tracé_790" data-name="Tracé 790" d="M503.774,103.981l1.944-1-.456-.051.135-.1-.287.085-53.31-6.9,1.166,17.646,1.656,15.651,3.279-1.69,3.042,6.93Z" transform="translate(311.842 66.275)" fill="url(#linear-gradient-19)"/>
      <path id="Tracé_791" data-name="Tracé 791" d="M453.54,110.287l1.538,14.3,47.664-24.136-41.377.913Z" transform="translate(313.043 69.333)" fill="#6c63ff"/>
      <path id="Tracé_792" data-name="Tracé 792" d="M453.54,110.287l1.538,14.3,47.664-24.136-41.377.913Z" transform="translate(313.043 69.333)" opacity="0.2"/>
      <path id="Tracé_793" data-name="Tracé 793" d="M452.91,96.71l50.267,6.321-49.2,9.837Z" transform="translate(312.609 66.751)" fill="#6c63ff"/>
      <path id="Tracé_794" data-name="Tracé 794" d="M460.629,129.432l41.495-29.072-48.1,14.3Z" transform="translate(313.375 69.271)" fill="#6c63ff"/>
      <path id="Tracé_795" data-name="Tracé 795" d="M694.014,89.7l1.927-1-.439-.068.135-.1-.287.085-53.31-6.9,1.149,17.663,1.673,15.651,3.279-1.69,3.042,6.913Z" transform="translate(443.15 56.405)" fill="url(#linear-gradient-20)"/>
      <path id="Tracé_796" data-name="Tracé 796" d="M643.78,95.987l1.538,14.316L692.982,86.15l-41.377.913Z" transform="translate(444.351 59.463)" fill="#6c63ff"/>
      <path id="Tracé_797" data-name="Tracé 797" d="M643.78,95.987l1.538,14.316L692.982,86.15l-41.377.913Z" transform="translate(444.351 59.463)" opacity="0.2"/>
      <path id="Tracé_798" data-name="Tracé 798" d="M643.15,82.42l50.267,6.3-49.2,9.837Z" transform="translate(443.917 56.888)" fill="#6c63ff"/>
      <path id="Tracé_799" data-name="Tracé 799" d="M650.869,115.132,692.364,86.06l-48.1,14.316Z" transform="translate(444.683 59.401)" fill="#6c63ff"/>
    </g>
    <circle id="Ellipse_192" data-name="Ellipse 192" cx="91.013" cy="91.013" r="91.013" transform="translate(215.913 862.393)" fill="#6c63ff"/>
    <path id="Tracé_801" data-name="Tracé 801" d="M295.962,674.266c7.844,29,34.713,46.956,34.713,46.956s14.15-29.055,6.306-58.052-34.713-46.956-34.713-46.956S288.118,645.269,295.962,674.266Z" transform="translate(-28.773 147.058)" fill="#3f3d56"/>
    <path id="Tracé_802" data-name="Tracé 802" d="M315.824,661.954c21.525,20.954,24.154,53.164,24.154,53.164s-32.27-1.762-53.795-22.716-24.154-53.164-24.154-53.164S294.3,641,315.824,661.954Z" transform="translate(-37.108 153.138)" fill="#6c63ff"/>
    <path id="Tracé_803" data-name="Tracé 803" d="M334.08,661.827c-14.457,26.332-7.552,57.9-7.552,57.9s30.344-11.121,44.8-37.453,7.552-57.9,7.552-57.9S348.537,635.5,334.08,661.827Z" transform="translate(-20.512 149.213)" fill="#3f3d56"/>
    <path id="Tracé_804" data-name="Tracé 804" d="M351.027,667.987c.978,30.024-19.465,55.054-19.465,55.054s-22.028-23.647-23.006-53.671,19.465-55.054,19.465-55.054S350.048,637.963,351.027,667.987Z" transform="translate(-24.831 146.557)" fill="#6c63ff"/>
    <circle id="Ellipse_193" data-name="Ellipse 193" cx="46.771" cy="46.771" r="46.771" transform="translate(256.364 896.522)" fill="#f2f2f2"/>
    <circle id="Ellipse_194" data-name="Ellipse 194" cx="15.169" cy="15.169" r="15.169" transform="translate(303.134 905.371)" fill="#3f3d56"/>
    <path id="Tracé_805" data-name="Tracé 805" d="M226.077,898.237l-2.247-1.16c29.177-56.408,13.575-129.662-4.65-181.182a555.292,555.292,0,0,0-47.122-99.45l2.137-1.35a558.134,558.134,0,0,1,47.367,99.956C239.956,767.041,255.667,841.026,226.077,898.237Z" transform="translate(-60.867 146.762)" fill="#2f2e41"/>
    <rect id="Rectangle_192" data-name="Rectangle 192" width="91.241" height="2.527" transform="translate(170.442 852.061) rotate(-79.645)" fill="#2f2e41"/>
    <rect id="Rectangle_193" data-name="Rectangle 193" width="2.529" height="124.323" transform="matrix(0.732, -0.681, 0.681, 0.732, 75.941, 840.499)" fill="#2f2e41"/>
    <rect id="Rectangle_194" data-name="Rectangle 194" width="73.327" height="2.529" transform="matrix(0.586, -0.81, 0.81, 0.586, 187.088, 998.182)" fill="#2f2e41"/>
    <circle id="Ellipse_195" data-name="Ellipse 195" cx="12.641" cy="12.641" r="12.641" transform="translate(181.783 713.233)" fill="#6c63ff"/>
    <circle id="Ellipse_196" data-name="Ellipse 196" cx="12.641" cy="12.641" r="12.641" transform="translate(44 810.566)" fill="#3f3d56"/>
    <circle id="Ellipse_197" data-name="Ellipse 197" cx="12.641" cy="12.641" r="12.641" transform="translate(99.619 823.207)" fill="#3f3d56"/>
    <circle id="Ellipse_198" data-name="Ellipse 198" cx="12.641" cy="12.641" r="12.641" transform="translate(74.338 872.505)" fill="#6c63ff"/>
    <circle id="Ellipse_199" data-name="Ellipse 199" cx="12.641" cy="12.641" r="12.641" transform="translate(232.346 904.107)" fill="#3f3d56"/>
    <circle id="Ellipse_200" data-name="Ellipse 200" cx="12.641" cy="12.641" r="12.641" transform="translate(190.632 918.012)" fill="#3f3d56"/>
    <circle id="Ellipse_201" data-name="Ellipse 201" cx="12.641" cy="12.641" r="12.641" transform="translate(219.706 958.462)" fill="#3f3d56"/>
    <circle id="Ellipse_202" data-name="Ellipse 202" cx="12.641" cy="12.641" r="12.641" transform="translate(86.978 728.401)" fill="#3f3d56"/>
  </g>
</svg>
