<svg xmlns="http://www.w3.org/2000/svg" xmlns:xlink="http://www.w3.org/1999/xlink" width="375" height="667" viewBox="0 0 375 667"><defs><clipPath id="b"><rect width="375" height="667"/></clipPath></defs><g id="a" clip-path="url(#b)"><g transform="translate(21.465 229.903)"><path d="M363.435,370.107c-3.317,7.977-10.258,15.183-17.708,22.006q-9.824,9-21.016,17.393-3.1,2.33-6.3,4.6l-1.482,1.046q-1.972,1.395-4.01,2.764l-.163.111q-1.978,1.346-3.99,2.665a109.353,109.353,0,0,1-14.157,8.117c-1.747.81-3.55,1.564-5.417,2.24q-1.515.551-3.093,1.031c-1.724.524-3.495.981-5.344,1.357-.309.064-.62.125-.932.183-1.893.355-3.809.615-5.746.792a88.356,88.356,0,0,1-21.537-.938c-3.553-.556-7.051-1.273-10.435-2.088-.416-.1-.83-.2-1.247-.291-11.524-2.883-22.344-6.8-33.95-9.55q-6-1.424-12.232-2.417-3.041-.483-6.116-.874c-4.826-.6-9.713-1-14.62-1.206a89.406,89.406,0,0,0-19.746.99q-1.258.23-2.484.518-1.555.364-3.052.83a54.328,54.328,0,0,0-7.832,3.224c-.5.245-.99.492-1.482.743h0c-1.544.786-3.067,1.59-4.613,2.371a58.23,58.23,0,0,1-8.662,3.676,45.869,45.869,0,0,1-4.974,1.27,73.3,73.3,0,0,1-13.933,1.267c-2.292,0-4.587-.05-6.856-.169h-.07c-.775-.041-1.552-.087-2.33-.146-3.542-.242-7.071-.615-10.549-1.124-11.915-1.747-23.215-5.05-32.3-10.089C42.7,413.572,34.86,403.376,36.037,393.188c.845-7.339,6.09-14.154,11.067-20.827,9.259-12.424,17.932-25.131,22.5-38.526,3.7-10.872,4.806-22.367,13.324-32.139A44.659,44.659,0,0,1,93.2,293.213a65.644,65.644,0,0,1,9.518-4.811,82.256,82.256,0,0,1,11.472-3.742,91.286,91.286,0,0,1,10.287-1.934c1.881-.245,3.786-.434,5.7-.562q2.213-.154,4.447-.2h.23q1.366-.026,2.732,0a127.283,127.283,0,0,1,19.8,1.861c4.095.684,8.155,1.523,12.13,2.446q3.559.824,7.054,1.727c.711.184,1.421.37,2.123.559,16.578,4.441,31.163,10.575,47.135,15.608.082.026.16.052.242.073h0a98.4,98.4,0,0,0,9.972,2.5q3.709.743,7.572,1.3c3.938.583,7.96,1.043,12.011,1.439l.894.087c5.944.582,11.941,1.016,17.766,1.523,2.068.181,4.118.367,6.139.583q1.922.192,3.809.408c.9.1,1.809.21,2.714.32s1.864.227,2.8.347c.606.076,1.209.154,1.814.239,3.67.486,7.331,1.031,10.951,1.654,2.2.379,4.392.786,6.556,1.226q2.35.478,4.66,1.008,1.712.387,3.4.815a104.94,104.94,0,0,1,25.006,9.355C361.236,337.561,369.781,354.852,363.435,370.107Z" transform="translate(-33.996 -227.539)" fill="#6c63ff" opacity="0.1"/><circle cx="6.3" cy="6.3" r="6.3" transform="translate(66.217 13.729)" fill="#6c63ff" opacity="0.1"/><circle cx="6.3" cy="6.3" r="6.3" transform="translate(194.979 0)" fill="#6c63ff" opacity="0.1"/><circle cx="6.3" cy="6.3" r="6.3" transform="translate(271.328 14.108)" fill="#6c63ff" opacity="0.1"/><ellipse cx="10.558" cy="10.558" rx="10.558" ry="10.558" transform="translate(0 24.712)" fill="#6c63ff" opacity="0.1"/><ellipse cx="10.558" cy="10.558" rx="10.558" ry="10.558" transform="translate(10.121 76.845)" fill="#6c63ff" opacity="0.1"/><ellipse cx="10.558" cy="10.558" rx="10.558" ry="10.558" transform="translate(293.477 57.655)" fill="#6c63ff" opacity="0.1"/><path d="M355.057,312.316a11.359,11.359,0,0,1-.154,2.65c-.583,2.706-3.046,4.564-5.432,5.973s-5.006,2.743-6.425,5.123a8.722,8.722,0,0,0,.842,9.425,13.894,13.894,0,0,0,8.461,4.951,19.589,19.589,0,0,0,16.985-4.634,18.522,18.522,0,0,0,5.624-16.6c-2.429.341-4.593-1.8-5.379-4.127s-.623-4.843-.929-7.281a2.5,2.5,0,0,0-.361-1.165,2.617,2.617,0,0,0-1.506-.818c-2.808-.772-7.532-2.461-10.441-1.814C353.72,304.6,355.013,310.115,355.057,312.316Z" transform="translate(-251.855 -242.607)" fill="#be6f72"/><path d="M355.057,312.316a11.359,11.359,0,0,1-.154,2.65c-.583,2.706-3.046,4.564-5.432,5.973s-5.006,2.743-6.425,5.123a8.722,8.722,0,0,0,.842,9.425,13.894,13.894,0,0,0,8.461,4.951,19.589,19.589,0,0,0,16.985-4.634,18.522,18.522,0,0,0,5.624-16.6c-2.429.341-4.593-1.8-5.379-4.127s-.623-4.843-.929-7.281a2.5,2.5,0,0,0-.361-1.165,2.617,2.617,0,0,0-1.506-.818c-2.808-.772-7.532-2.461-10.441-1.814C353.72,304.6,355.013,310.115,355.057,312.316Z" transform="translate(-251.855 -242.607)" opacity="0.1"/><path d="M341.6,746.567a58.236,58.236,0,0,1-8.662,3.675,45.867,45.867,0,0,1-4.974,1.27,31.31,31.31,0,0,1,.364-6.7,35.661,35.661,0,0,0,.649-3.824,10.03,10.03,0,0,0-1.15-5.37c3.244-.443,6.326-1.165,9.585-.952l.207.015a3.634,3.634,0,0,1,1.136.213,3.067,3.067,0,0,1,1.232,1.083,7.484,7.484,0,0,1,.463.714,11.358,11.358,0,0,1,1.343,5.315,35.356,35.356,0,0,1-.192,4.561Z" transform="translate(-241.794 -547.922)" fill="#be6f72"/><path d="M406.362,749.2q-1.555.364-3.052.83a54.346,54.346,0,0,0-7.832,3.224,11.557,11.557,0,0,1-.239-2.411,13.468,13.468,0,0,1,10.3-2.117,1.36,1.36,0,0,1,.652.262A.874.874,0,0,1,406.362,749.2Z" transform="translate(-289.57 -557.729)" fill="#be6f72"/><path d="M348.18,615.946a22.364,22.364,0,0,1-1.165,5.606c-.731,1.922-1.919,3.786-1.768,5.839.067.891.37,1.858.414,2.741q-1.258.23-2.484.518-1.555.364-3.052.83a54.356,54.356,0,0,0-7.832,3.224c-.5.245-.99.492-1.482.743h0c-.2-.026-.4-.058-.609-.1a5.96,5.96,0,0,1-3.812-2.083,3.345,3.345,0,0,1-.44-.874c-.475-1.418.02-3.186-.967-4.31l-.047.041-.035.023a9.787,9.787,0,0,1-1.771,1.276h0a11.868,11.868,0,0,1-9.611.926,10.518,10.518,0,0,1-1.8-.81c-1.334-.76-2.621-2.039-2.516-3.565.058-.85.545-1.666.414-2.508a5.245,5.245,0,0,0-.789-1.637c-1.948-3.495.376-7.989-.848-11.787-.029-.09-.061-.181-.093-.268-.09-.248-.192-.486-.291-.725-.25-.556-.53-1.1-.751-1.675a9.755,9.755,0,0,1-.437-1.477,18.484,18.484,0,0,1-.291-4.433,46.367,46.367,0,0,1,1.7-11.685c.178-.67.376-1.616.638-2.648h0a20.269,20.269,0,0,1,1.031-3.18c.582-1.34,1.375-2.408,2.458-2.662,1.631-.382,4.124.425,5.778.623l6.538.781,13.074,1.564c2.257.271,4.628.583,6.489,1.852.122.085.242.172.361.265a7.379,7.379,0,0,1,1.311,1.334c.134.172.262.352.384.536a12.116,12.116,0,0,1,1.078,2.056c1.622,3.9,1.66,8.245,1.672,12.465A127.38,127.38,0,0,1,348.18,615.946Z" transform="translate(-226.382 -439.173)" fill="#3f3d56"/><path d="M358.1,691.967c-.393-1.514-1.223-3.708-1.345-4.3a54.623,54.623,0,0,1-.891-6.064c-.323-3.629-.906-8.737.376-12.189,1.2.641,2.26,2.455,2.816,3.693,2.015,4.488-.253,10,1.64,14.539a2.394,2.394,0,0,1,.259.874,2.114,2.114,0,0,1-.4,1.072l-.638,1.06Z" transform="translate(-261.37 -501.697)" opacity="0.1"/><path d="M486.645,202.7c2.144-3.495,5.079-6.932,4.9-11.018a21.834,21.834,0,0,0-.909-4.307,27.481,27.481,0,0,1-.2-12.608,14.239,14.239,0,0,1,10.3,2.307A5.878,5.878,0,0,1,503,179.635a7.4,7.4,0,0,1,.253,3.172c-.16,2.449-.379,5.062-1.887,6.99-.469.6-1.046,1.113-1.5,1.721a11.144,11.144,0,0,0-1.439,2.979l-4.951,13.47c-2.5,6.789-5.207,13.889-10.712,18.587-.134.114-4.077-5.487-4.4-6.049-1.319-2.3-.743-3.276.853-5.2C482.363,211.488,484.073,206.889,486.645,202.7Z" transform="translate(-347.966 -150.991)" fill="#be6f72"/><path d="M267.6,665.33a22.376,22.376,0,0,1-.253,3c-.052.367-.114.731-.186,1.1-.993,5.184-3.466,10.115-5.2,15.165a88.12,88.12,0,0,0-4.077,19.071c-2.292,0-4.587-.05-6.856-.169h-.07c-.775-.041-1.552-.087-2.33-.146.7-6.174-.582-12.652.673-18.832.507-2.487,1.372-4.9,1.893-7.377a20.886,20.886,0,0,0,.364-2.208,5.922,5.922,0,0,1,.428-2.071,1.531,1.531,0,0,1,.1-.178,4.99,4.99,0,0,1,1.025-1.165,25.581,25.581,0,0,1,12.541-5.979C266.314,665.449,266.958,665.374,267.6,665.33Z" transform="translate(-185.66 -498.806)" fill="#fbbebe"/><path d="M267.6,665.33a22.376,22.376,0,0,1-.253,3c-.052.367-.114.731-.186,1.1-.993,5.184-3.466,10.115-5.2,15.165a88.12,88.12,0,0,0-4.077,19.071c-2.292,0-4.587-.05-6.856-.169h-.07c-.775-.041-1.552-.087-2.33-.146.7-6.174-.582-12.652.673-18.832.507-2.487,1.372-4.9,1.893-7.377a20.886,20.886,0,0,0,.364-2.208,5.922,5.922,0,0,1,.428-2.071,1.531,1.531,0,0,1,.1-.178,4.99,4.99,0,0,1,1.025-1.165,25.581,25.581,0,0,1,12.541-5.979C266.314,665.449,266.958,665.374,267.6,665.33Z" transform="translate(-185.66 -498.806)" opacity="0.1"/><path d="M214.184,686.129a45.635,45.635,0,0,1-.4,4.837c-.778,6.556-.923,13.4-1.456,20.052-.775-.041-1.552-.087-2.33-.146-3.542-.242-7.071-.614-10.549-1.124q.4-2.248.81-4.5a24.347,24.347,0,0,0,.568-5.557,32.527,32.527,0,0,0-.938-5.2c-.8-3.7-1.249-7.689-2.569-11.178a14.561,14.561,0,0,0-3.221-5.242c5.458-2.144,10.7-2.266,16.566-2.039a2.1,2.1,0,0,1,1.188.291,2.01,2.01,0,0,1,.6.9,22.591,22.591,0,0,1,1.64,6.646A21.8,21.8,0,0,1,214.184,686.129Z" transform="translate(-147.012 -506.333)" fill="#fbbebe"/><ellipse cx="11.358" cy="11.358" rx="11.358" ry="11.358" transform="translate(99.777 45.489)" fill="#be6f72"/><path d="M345.751,364.3c1.456-2.484,2.732-5.586,5.534-6.276a8.6,8.6,0,0,1,4.768.67,2.33,2.33,0,0,1,1.165.676,2.289,2.289,0,0,1,.352,1.206,78.946,78.946,0,0,1-.05,15.436c-.37,3.632-.993,7.246-1.1,10.9-.154,5.059.679,10.118.4,15.171a69.739,69.739,0,0,1-1.879,11.335l-3.495,15.669a2.671,2.671,0,0,1-.562,1.325,2.621,2.621,0,0,1-1.031.582,38.374,38.374,0,0,1-31.055-2.432,9.421,9.421,0,0,1-3.341-2.677,7.843,7.843,0,0,1-.894-5.906c.379-2.01,1.2-3.906,1.747-5.877a45.229,45.229,0,0,0,1.244-9.419,74.624,74.624,0,0,0,.067-12.523c-.306-2.863-.944-5.682-1.424-8.522a94,94,0,0,1-1.229-12.94c-.073-2.589.047-5.464,1.838-7.331a8.443,8.443,0,0,1,3.224-1.9,9.528,9.528,0,0,1,6.221-.5c2.01.67,3.629,2.778,3.154,4.843-.218.958-.839,1.8-.99,2.77a3.992,3.992,0,0,0,1.456,3.454C335.12,376.773,343.132,368.793,345.751,364.3Z" transform="translate(-232.253 -280.902)" fill="#e3e8f4"/><path d="M401.818,314a8.589,8.589,0,0,1,4.977-.291c1.051.25,2.187.693,3.157.224.352-.169.644-.446,1-.6.961-.422,2.208.1,3.058-.518a3.01,3.01,0,0,0,.891-1.733,15.538,15.538,0,0,1,5.135-7.782c-.306,2.234-.527,4.776.949,6.483a6.473,6.473,0,0,0,2.572,1.64,7.692,7.692,0,0,0,4.325.609,3.75,3.75,0,0,0,3.032-2.851c-.049,2.193-2.138,3.725-2.723,5.842-.221.792-.2,1.634-.355,2.444-.393,2.068-1.87,3.728-3.16,5.394a38.375,38.375,0,0,0-7.631,18.412,8.881,8.881,0,0,1-.5,2.33,14.651,14.651,0,0,1-.967,1.666c-2.135,3.606-1.477,8.155-.751,12.273a175.967,175.967,0,0,0,4.1,19.059,6.618,6.618,0,0,0,1.471,2.979c-.253,2.543-2.819,3.7-5.126,4.8a25.146,25.146,0,0,0-6.233,4.22,4.911,4.911,0,0,0-1.561,2.17c-.227.818-.064,1.718-.355,2.513s-1.456,1.366-1.969.7c-.641-2.4.454-4.9.4-7.386-.035-1.675-.582-3.3-.661-4.977a15.929,15.929,0,0,1,1.078-5.557c1.654-5.012,3.652-9.978,4.226-15.223s-.5-10.974-4.22-14.717c-4.418-4.462-6.87-10.511-11.606-14.609-.751-.65-1.6-1.456-1.477-2.441a2.718,2.718,0,0,1,.556-1.182c1.625-2.295,3.786-4.168,5.534-6.364S402.135,316.8,401.818,314Z" transform="translate(-287.904 -242.215)" fill="#3f3d56"/><path d="M323.148,354.622a8.511,8.511,0,0,1-.83.944,2.738,2.738,0,0,1-1.308.4,42.279,42.279,0,0,1-5.175.463,15.973,15.973,0,0,0-4.369.271,7.8,7.8,0,0,0-4.494,3.874,19.213,19.213,0,0,0-1.817,5.787,77.4,77.4,0,0,0-1.325,13.365,35.151,35.151,0,0,0,6.364-6.605c1.4-1.9,2.665-3.993,4.66-5.26.917-.582,1.948-.967,2.872-1.535a16.468,16.468,0,0,0,4.54-4.951c.944-1.372,3.673-4.051,3.888-5.694A1.677,1.677,0,0,0,323.148,354.622Z" transform="translate(-224.784 -278.136)" fill="#3f3d56"/><path d="M372.736,238.357a9.21,9.21,0,0,1,1.031.719c1.978,1.38,4.625,1.124,7.016.81a5.266,5.266,0,0,0,2.117-.583,3.31,3.31,0,0,0,1.386-3.09,6.152,6.152,0,0,0-1.424-3.2,11.524,11.524,0,0,0-7.966-4.345,5.126,5.126,0,0,0-2.385.253,19.21,19.21,0,0,0-2.516,1.718c-2.56,1.573-6.5.874-8.155,3.384-1.209,1.852-.347,4.369-.917,6.5-.425,1.59-1.651,3.038-1.415,4.66a7.517,7.517,0,0,0,1.115,2.417,10.683,10.683,0,0,1,1.337,5.892c1.121.792,2.685-.44,3-1.774s-.047-2.755.218-4.1c.469-2.362,2.554-4.095,3.495-6.262C369.346,239.8,370.446,237.177,372.736,238.357Z" transform="translate(-264.224 -189.285)" fill="#3f3d56"/><path d="M279.971,328.331a2.2,2.2,0,0,0,.151,1.564c.583.874,1.916.559,2.965.69a4.039,4.039,0,0,1,3.157,3.373,11.087,11.087,0,0,1-.475,4.875q-1.4,5.426-3.343,10.7c-3.477-.411-7.138-1.747-8.985-4.715-1.678-2.7-1.506-6.139-2.572-9.133a22.828,22.828,0,0,0-3.419-5.743c2.135.268,3.661-2.173,3.786-4.322s-.55-4.331-.09-6.431c.108-.5,8.522,1.072,9.34,1.64C282.851,322.465,280.343,326.053,279.971,328.331Z" transform="translate(-198.999 -253.406)" fill="#fbbebe"/><path d="M279.971,328.331a2.2,2.2,0,0,0,.151,1.564c.583.874,1.916.559,2.965.69a4.039,4.039,0,0,1,3.157,3.373,11.087,11.087,0,0,1-.475,4.875q-1.4,5.426-3.343,10.7c-3.477-.411-7.138-1.747-8.985-4.715-1.678-2.7-1.506-6.139-2.572-9.133a22.828,22.828,0,0,0-3.419-5.743c2.135.268,3.661-2.173,3.786-4.322s-.55-4.331-.09-6.431c.108-.5,8.522,1.072,9.34,1.64C282.851,322.465,280.343,326.053,279.971,328.331Z" transform="translate(-198.999 -253.406)" opacity="0.1"/><ellipse cx="11.358" cy="11.358" rx="11.358" ry="11.358" transform="translate(67.74 48.693)" fill="#fbbebe"/><path d="M223.94,274.443c.414-.647-.291-1.549.032-2.246.192-.419.679-.6,1.054-.874a3.929,3.929,0,0,0,1.1-1.424,16.554,16.554,0,0,0,1.514-11.053c-.268-1.258-.507-2.93.644-3.495a2.088,2.088,0,0,1,1.016-.175c2.074.067,4.077,1.456,6.09.964a3.5,3.5,0,0,0,2.563-3.049c.131-1.881-1.279-3.495-2.665-4.762-2.5-2.295-6.3-2.8-9.69-2.86l-6.305-.1c-2.018-.035-4.281.029-5.685,1.477-2.021,2.082-1,5.49-1.3,8.376a8.737,8.737,0,0,1-3.2,5.869c-1.308,1.043-3.108,2.039-3.084,3.7a6.024,6.024,0,0,0,.411,1.663,8.025,8.025,0,0,1-1.206,6.495,17.319,17.319,0,0,1-4.913,4.66,13.7,13.7,0,0,0-2.831,2.272,6.7,6.7,0,0,0-1.477,3.766,4.951,4.951,0,0,0,.617,3.038c1.232,1.969,4.188,2.257,6.212,1.115a10.11,10.11,0,0,0,4.077-5.475c.489-1.29.987-2.767,2.24-3.346,1.584-.737,3.437.428,4.468,1.841s1.666,3.137,2.985,4.284a5.332,5.332,0,0,0,7.334-.606,8.244,8.244,0,0,0,1.456-5.583A8.134,8.134,0,0,0,223.94,274.443Z" transform="translate(-148.339 -201.148)" fill="#3f3d56"/><path d="M188.032,355.873a4.18,4.18,0,0,1-3.614-1.249,14.353,14.353,0,0,1-2.289-3.236,56.969,56.969,0,0,0-5.869-8.137c-1.911-2.2-4.57-4.444-7.406-3.763a7.027,7.027,0,0,0-2.586,1.383,18.855,18.855,0,0,0-7.039,16.828c.221,1.855.725,3.67.935,5.534a35.472,35.472,0,0,1,.122,4.622c-.079,4.695-.239,9.661-2.77,13.616-3.923,6.116-6.023,13.421-8.9,20.1a68.592,68.592,0,0,0-3.4,11.271q-.813,3.4-1.622,6.8l-3.524,14.824a9.889,9.889,0,0,0-.344,4.66c.582,2.283,2.729,3.879,4.992,4.529a26.119,26.119,0,0,0,7.01.559,39.243,39.243,0,0,1,13.249,2.164,14.208,14.208,0,0,0,3.693,1.083,8.593,8.593,0,0,0,3.766-.7c3.282-1.27,6.1-3.495,9.119-5.292a36.036,36.036,0,0,1,5.941-2.875,6.517,6.517,0,0,0,2.863-1.6,5.174,5.174,0,0,0,.958-2.286c.984-4.59.323-9.346,0-14.029s-3.122-9.631-.807-13.715a10.987,10.987,0,0,0,1.261-2.531c.315-1.194.05-2.478.315-3.684a19.05,19.05,0,0,1,.984-2.545,13.42,13.42,0,0,0,.629-4.744,52.059,52.059,0,0,0-1.107-10.485c-.917-4.369,2.117-8.688,3.856-12.815a20.353,20.353,0,0,0,1.765-4.453,13.729,13.729,0,0,0-.291-4.31,37.716,37.716,0,0,1-.408-6.7,22.538,22.538,0,0,0-.213-6.011c-.481-1.954-1.852-3.85-3.824-4.252a1.561,1.561,0,0,0-1.316.207,1.7,1.7,0,0,0-.463.816c-.641,1.963-.516,4.077-.874,6.116S190.042,355.442,188.032,355.873Z" transform="translate(-108.354 -267.774)" fill="#f86d70"/><path d="M197.693,434.5c.119-.807-.256-1.879-1.072-1.849-.751.029-1.086.97-1.083,1.724s.1,1.619-.428,2.149c-.472.469-1.252.454-1.8.836a1.48,1.48,0,0,0-.62,1.215c0,.4.183.792.2,1.2s-.259.874-.661.848a1.826,1.826,0,0,0,.265,2.213c.21.2.483.379.553.664a1.6,1.6,0,0,1-.047.6,1.563,1.563,0,0,0,1.238,1.785.981.981,0,0,0,.052,1.456,2.278,2.278,0,0,0,1.564.448,9.506,9.506,0,0,0,3.673-.76,2.19,2.19,0,0,0,1.014-.7.874.874,0,0,0-.084-1.13,1.712,1.712,0,0,0,1.613-.291c.515-.612-.038-1.517-.583-2.109a1.165,1.165,0,0,0,.542-2.074c-.186-.137-.44-.256-.466-.486s.169-.379.25-.583c.186-.457-.239-.923-.649-1.2-.973-.647-2.406-.635-3.271-1.287S197.568,435.372,197.693,434.5Z" transform="translate(-145.499 -333.891)" fill="#be6f72"/><path d="M784.87,294.469a8.889,8.889,0,0,1,.376,3.582c-.076,1.474-.446,3.2-1.814,3.766-.891.358-1.992.087-2.784.629-.961.652-.914,2.056-.766,3.2.411,3.154.874,6.425,2.592,9.093a19.312,19.312,0,0,0,3.44,3.76c2.525,2.278,5.295,4.5,8.612,5.263a3.6,3.6,0,0,0,1.66.07,3.437,3.437,0,0,0,1.436-.874c1.922-1.765,2.912-4.284,4.194-6.568a24.4,24.4,0,0,0,2.5-5,8.737,8.737,0,0,0-2.674-8.816c-.568-.486-1.2-.894-1.747-1.4a8.964,8.964,0,0,1-2.621-5.088,22.264,22.264,0,0,1-.125-5.825,31.691,31.691,0,0,0-8.647.7,16.835,16.835,0,0,0-4.188.973C783.021,292.617,784.518,293.494,784.87,294.469Z" transform="translate(-562.13 -232.927)" fill="#fbbebe"/><path d="M784.87,294.469a8.889,8.889,0,0,1,.376,3.582c-.076,1.474-.446,3.2-1.814,3.766-.891.358-1.992.087-2.784.629-.961.652-.914,2.056-.766,3.2.411,3.154.874,6.425,2.592,9.093a19.312,19.312,0,0,0,3.44,3.76c2.525,2.278,5.295,4.5,8.612,5.263a3.6,3.6,0,0,0,1.66.07,3.437,3.437,0,0,0,1.436-.874c1.922-1.765,2.912-4.284,4.194-6.568a24.4,24.4,0,0,0,2.5-5,8.737,8.737,0,0,0-2.674-8.816c-.568-.486-1.2-.894-1.747-1.4a8.964,8.964,0,0,1-2.621-5.088,22.264,22.264,0,0,1-.125-5.825,31.691,31.691,0,0,0-8.647.7,16.835,16.835,0,0,0-4.188.973C783.021,292.617,784.518,293.494,784.87,294.469Z" transform="translate(-562.13 -232.927)" opacity="0.1"/><path d="M617.611,198.4c-4.73-1.622-6.99-7.96-11.941-8.67-.781-.114-1.581-.07-2.347-.25-2.851-.676-4.077-3.973-4.9-6.783a109.875,109.875,0,0,0-11.562-26.844c-2.176-3.495-5.615-6.367-7.185-10.194a7.91,7.91,0,0,0-1.194-2.56c-.649-.69-2.039-.789-2.391.09a2.04,2.04,0,0,0-.064.964l.341,3.626-5.924-.533a3.46,3.46,0,0,0-1.64.117,2.781,2.781,0,0,0-1.29,1.343c-2,3.766.131,8.7,3.667,11.082,4.13,2.781,10.027,3.2,12.771,7.354,1.631,2.47,1.663,5.647,2.738,8.405.512,1.319,1.261,2.531,1.858,3.809a78.673,78.673,0,0,1,2.6,7.628,67.243,67.243,0,0,0,5,10.38,26.742,26.742,0,0,0,5.126,7.229,25.211,25.211,0,0,0,4.881,3.2c4.211,2.3,9.177,4.514,13.639,2.749A29.872,29.872,0,0,0,617.611,198.4Z" transform="translate(-411.122 -128.285)" fill="#fbbebe"/><path d="M754.5,733.647c-.358,3.8-2.665,7.243-3.2,10.9-3.553-.556-7.051-1.273-10.435-2.088-.416-.1-.83-.2-1.247-.291,1.916-5.242.248-11.114.754-16.7.049-.536.119-1.072.213-1.6,4.389-1.5,8.353-3.495,12.954-2.912.09.932.184,1.867.274,2.8q.277,2.793.547,5.58A22.623,22.623,0,0,1,754.5,733.647Z" transform="translate(-533.645 -538.159)" fill="#fbbebe"/><path d="M857.5,742.911c-1.724.524-3.495.982-5.344,1.357-.309.064-.62.125-.932.183-1.893.355-3.809.615-5.746.792-.2-4.048-2.912-7.77-3.308-11.926a17.514,17.514,0,0,1,.032-3.1c.035-.408.076-.815.114-1.223l.821-8.379a12.91,12.91,0,0,1,1.972-.1c3.786.09,7.232,1.73,10.983,3.008a26.173,26.173,0,0,1,.291,5.347c-.143,4.549-.874,9.154.815,13.327C857.294,742.437,857.4,742.673,857.5,742.911Z" transform="translate(-606.297 -537.917)" fill="#fbbebe"/><path d="M717.315,577.516c.51,3.973-1.52,7.776-2.4,11.682a41.343,41.343,0,0,0-.74,7.893l-.46,15.876a14.157,14.157,0,0,0,.4,4.727c.973,3.052,3.97,5.114,7.089,5.848s6.381.361,9.559-.058a9.958,9.958,0,0,0,4.474-1.348c1.774-1.238,2.548-3.443,3.218-5.5l1.89-5.8c2.176,4.9,1.255,10.255,2.56,15.453a2.993,2.993,0,0,0,.582,1.319,3.266,3.266,0,0,0,2.28.766c5.708.4,11.5.8,17.111-.291a7.441,7.441,0,0,0,4.22-1.922c1.241-1.348,1.456-3.332,1.442-5.164-.079-6.294-2.353-12.366-2.86-18.64-.218-2.688-.111-5.391-.207-8.088a54.169,54.169,0,0,0-.568-6.058,8.139,8.139,0,0,0-.746-2.65c-.874-1.631-2.688-2.516-4.406-3.2C746.4,576.931,731.714,576.983,717.315,577.516Z" transform="translate(-515.274 -436.403)" fill="#f86d70"/><ellipse cx="12.523" cy="12.523" rx="12.523" ry="12.523" transform="translate(214.236 37.917)" fill="#fbbebe"/><path d="M753.162,325.916c-.929,2.039-2.391,4.077-4.567,4.6A6.249,6.249,0,0,1,743,328.593a22.235,22.235,0,0,1-3.46-5.085,9.535,9.535,0,0,0-2.837-3.442c-1.724-1.118-3.949-1.089-5.982-.76a27.434,27.434,0,0,1-6.116.783c-2.572-.172-5.193-1.456-7.619-.6.786,3.518.5,7.386.414,10.992a4.952,4.952,0,0,1-.233,1.643,5.308,5.308,0,0,1-.848,1.363l-2.33,3a14.543,14.543,0,0,1,5.534,7.307,18.377,18.377,0,0,1,.323,5.295c-.055,5.216,1.078,10.412.719,15.616-.419,6.1-2.854,11.857-4.109,17.836a46.693,46.693,0,0,0-.6,15.611,146.979,146.979,0,0,0,40.3,7.587c2.438.134,5.07.154,7.071-1.247a7.692,7.692,0,0,0,2.912-5.17,22.958,22.958,0,0,0-.122-6.075q-.9-8.2-1.8-16.4a39.037,39.037,0,0,1,.658-16.254l2.912-14a28.805,28.805,0,0,1,1.66-5.848c.676-1.514,1.611-2.912,2.356-4.386a19.374,19.374,0,0,0,1.817-5.612,3.719,3.719,0,0,0-.023-1.718,3.977,3.977,0,0,0-2.152-2,62.526,62.526,0,0,0-17.23-6.043C753.815,322.71,753.893,324.317,753.162,325.916Z" transform="translate(-515.487 -253.417)" fill="#e3e8f4"/><path d="M800.248,237.309c1.456-2.79,4.179-4.747,5.761-7.473a11.047,11.047,0,0,0,.355-10.194,36.886,36.886,0,0,1-1.747-3.367c-.486-1.351-.533-2.84-1.1-4.162a7.7,7.7,0,0,0-4.264-3.868,22.844,22.844,0,0,0-5.746-1.284l-6.617-.891a7.28,7.28,0,0,0-2.883,0,2.445,2.445,0,0,0-1.876,1.983c-.09,1.145.915,2.211.682,3.335-.084.4-.318.8-.184,1.182a1.2,1.2,0,0,0,.583.582c1.57.874,3.445.952,5.146,1.523s3.408,2,3.236,3.786c-.093.958-.711,1.954-.291,2.813.4.8,1.456.941,2.3,1.188a6.159,6.159,0,0,1,4.238,6.553c-.122.874-.437,1.71-.5,2.586-.213,3.07.271,3.946,2.778,5.732Z" transform="translate(-563.782 -173.197)" fill="#3f3d56"/><path d="M880.677,336.95a4.249,4.249,0,0,1-.312,1.7c-.909,1.937-3.69,1.814-5.534,2.912-2.295,1.369-2.8,4.424-3.011,7.086a31.867,31.867,0,0,0,.215,9.029,12.141,12.141,0,0,0,4.584,7.572c3.02,2.1,7.127,2.173,10.575.894a23.628,23.628,0,0,0,8.828-6.454,28.132,28.132,0,0,0,5.767-8.673,2.763,2.763,0,0,0,.242-1.782c-.271-.874-1.223-1.27-2-1.747a8.816,8.816,0,0,1-3.641-5.009,21.754,21.754,0,0,1-.751-6.265c-.023-2.193-.029-4.59-1.427-6.282s-3.821-2.167-6.029-2.149c-1.806,0-6.8.172-8.035,1.747C879.139,330.837,880.75,335.074,880.677,336.95Z" transform="translate(-627.199 -259.564)" fill="#be6f72"/><path d="M880.677,336.95a4.249,4.249,0,0,1-.312,1.7c-.909,1.937-3.69,1.814-5.534,2.912-2.295,1.369-2.8,4.424-3.011,7.086a31.867,31.867,0,0,0,.215,9.029,12.141,12.141,0,0,0,4.584,7.572c3.02,2.1,7.127,2.173,10.575.894a23.628,23.628,0,0,0,8.828-6.454,28.132,28.132,0,0,0,5.767-8.673,2.763,2.763,0,0,0,.242-1.782c-.271-.874-1.223-1.27-2-1.747a8.816,8.816,0,0,1-3.641-5.009,21.754,21.754,0,0,1-.751-6.265c-.023-2.193-.029-4.59-1.427-6.282s-3.821-2.167-6.029-2.149c-1.806,0-6.8.172-8.035,1.747C879.139,330.837,880.75,335.074,880.677,336.95Z" transform="translate(-627.199 -259.564)" opacity="0.1"/><path d="M845.485,575.872a2.49,2.49,0,0,0,.606,1.188,2.406,2.406,0,0,0,.982.463c9.559,2.8,19.77,1.686,29.666.542a56.557,56.557,0,0,1-3.093-12.62c-.312-3.568.038-7.281-1.226-10.627-.373-.99-22.1,3.568-24.243,3.938-1.1.189-2.362.125-3.14,1-.938,1.054-1.016,3.565-1.115,4.878A32.056,32.056,0,0,0,845.485,575.872Z" transform="translate(-607.536 -420.38)" fill="#be6f72"/><path d="M873.283,717.951c-1.747.81-3.55,1.564-5.417,2.24q-1.514.551-3.093,1.031c-1.724.524-3.495.981-5.344,1.357q-1.581-4.01-3.166-8.024c-.778-1.969-1.555-3.946-2.2-5.959a37.327,37.327,0,0,1-1.113-4.191,29.9,29.9,0,0,1,.722-14.5c4.037.76,7.983,1.255,11.958,1.832,2.123.291,4.252.635,6.407,1.04q.253,2.106.46,4.212.315,3.25.516,6.5Q873.455,710.716,873.283,717.951Z" transform="translate(-613.57 -516.227)" fill="#be6f72"/><path d="M873.283,717.951c-1.747.81-3.55,1.564-5.417,2.24q-1.514.551-3.093,1.031c-1.724.524-3.495.981-5.344,1.357q-1.581-4.01-3.166-8.024c-.778-1.969-1.555-3.946-2.2-5.959a37.327,37.327,0,0,1-1.113-4.191,29.9,29.9,0,0,1,.722-14.5c4.037.76,7.983,1.255,11.958,1.832,2.123.291,4.252.635,6.407,1.04q.253,2.106.46,4.212.315,3.25.516,6.5Q873.455,710.716,873.283,717.951Z" transform="translate(-613.57 -516.227)" opacity="0.1"/><path d="M928.057,721.859a18.867,18.867,0,0,1-.9,5.036c-.032.116-.061.23-.09.347a4.8,4.8,0,0,1-2.572-1.928,5.508,5.508,0,0,1-.69-1.616q-1.977,1.346-3.99,2.665a109.375,109.375,0,0,1-14.157,8.117c-1.747.81-3.55,1.564-5.417,2.24q-.582-2.039-1.107-4.1a38,38,0,0,1-.9-4.308,21.877,21.877,0,0,1,.967-9.8h0l.131-.379a21.424,21.424,0,0,1,1.908-4.016c.725-1.165,2.161-.97,3.626-.583.664.172,1.337.379,1.948.507,3.807.8,7.759-.026,11.65.192a13.925,13.925,0,0,1,5.344,1.36,7.338,7.338,0,0,1,3.973,4.369,6.517,6.517,0,0,1,.192.874A7.739,7.739,0,0,1,928.057,721.859Z" transform="translate(-645.947 -532.754)" fill="#be6f72"/><path d="M661.905,220.305a135.4,135.4,0,0,0-19.842-15.378,54.5,54.5,0,0,1-5.242-3.737c-1.747-1.456-3.271-3.166-5.126-4.476a8.554,8.554,0,0,0-6.378-1.779c-2.228.431-4.208,2.563-3.882,4.794.291,1.963,2.056,3.309,3.687,4.436a79.131,79.131,0,0,0,9.547,5.95,29.921,29.921,0,0,1,3.387,1.806,25.407,25.407,0,0,1,5.2,5.455A75.849,75.849,0,0,0,664.8,235.723c.1.058,3.544-7.377,3.4-8.341C667.881,225.166,663.489,221.843,661.905,220.305Z" transform="translate(-449.862 -165.333)" fill="#be6f72"/><path d="M870.6,605.426c-4.642.291-9.1,1.858-13.636,2.857s-9.474,1.386-13.688-.582l2.563,17.5a8.12,8.12,0,0,1,.079,2.927,11,11,0,0,0-.658,2.711c.067,1.479,1.456,2.519,2.764,3.2a24.713,24.713,0,0,0,12.349,2.846c-.318,1.281-.714,2.548-1.034,3.83,2.141,2.3,5.641,2.452,8.7,3.18,2.33.55,4.514,1.506,6.8,2.179a29.017,29.017,0,0,0,8.507,1.185,8.843,8.843,0,0,0,5.51-1.5c1.855-1.494,2.432-4.034,2.834-6.381a14.519,14.519,0,0,0,.291-3.961,15.7,15.7,0,0,0-1.322-4.369l-3.99-9.684c-.725-1.747-1.456-3.521-2.33-5.207C881.482,610.7,876.747,605.044,870.6,605.426Z" transform="translate(-607.122 -456.335)" fill="#3f3d56"/><path d="M806.754,328.1a4.369,4.369,0,0,1,4.573-2.787,8.489,8.489,0,0,1,3.2,1.424l5.563,3.472a24.257,24.257,0,0,1,2.647,1.823c3.836,3.18,5.315,8.408,5.737,13.374s0,10.016.987,14.9c-2.347,1.945-4.951,3.591-7.3,5.534a18.341,18.341,0,0,0-3.4,3.346c-.74,1.028-1.267,2.2-2.039,3.2a7.706,7.706,0,0,1-5.106,2.837,5.535,5.535,0,0,1,2.33,3.606c.344,1.43.437,2.912.818,4.342.524,1.943,1.611,3.716,1.969,5.7a35.842,35.842,0,0,1,.23,4.153c.454,7.173,6.084,13.444,5.72,20.62a31.269,31.269,0,0,1-7.473-3.929c-1.037-.743-2.039-1.547-3.02-2.347l-7.418-6.014a61.651,61.651,0,0,1-10.121-9.547c-1.8-2.3-3.268-4.835-5.073-7.124a15.507,15.507,0,0,0-6.786-5.33c-.4.609-1.124,1.031-1.529,1.64a1.217,1.217,0,0,0-.169.315,1.378,1.378,0,0,0,.1.8,16.736,16.736,0,0,1,.582,3.608l.183,2.19a7.451,7.451,0,0,1,0,1.747,4.6,4.6,0,0,1-3.885,3.617,1.69,1.69,0,0,1-.818-.026,1.751,1.751,0,0,1-.967-1.249c-.737-2.487.393-5.111.483-7.7a18.5,18.5,0,0,0-.067-1.969l-.175-2.583c-1.692-.352-2.665-2.17-3.113-3.839-1.212-4.506-2.432-9.168-1.73-13.782a11.51,11.51,0,0,0,.291-3.722c-.291-1.651-1.48-2.991-2.106-4.546-2.039-5.071,2.292-10.575,1.89-16.018-.169-2.286-1.619-4.273-2.493-6.393a18.054,18.054,0,0,0-1.748-3.527,19.52,19.52,0,0,0-3.262-3.317A124.575,124.575,0,0,1,754.013,314.5a7.573,7.573,0,0,1-4.412-2.021,4.059,4.059,0,0,1-1.421-2.746A2.145,2.145,0,0,1,750,307.513a6.885,6.885,0,0,1,1.8.408c1.887.414,3.786-.976,4.628-2.72a12.743,12.743,0,0,0,.827-5.685,5.452,5.452,0,0,1,5.047,1.768,31.985,31.985,0,0,1,3.175,4.806A7.447,7.447,0,0,0,767.055,308c1.4,1.113,3.419,1.322,4.642,2.621.62.664.964,1.544,1.532,2.254,1.6,2,4.517,2.245,6.7,3.562s3.7,3.722,6.116,4.5c.874.291,1.826.329,2.691.652a6.027,6.027,0,0,1,3.495,4.977,18.045,18.045,0,0,1-.673,6.326l-1.121,4.867c-.248,1.078-.437,2.374.358,3.143a3.239,3.239,0,0,0,1.29.649c2.039.664,4.31,1.316,6.227.376a7.364,7.364,0,0,0,2.266-1.98C803.419,336.6,805.309,332.216,806.754,328.1Z" transform="translate(-539.719 -239.473)" fill="#6c63ff"/><path d="M997.9,672.6a8.653,8.653,0,0,1-4.272,6.506,6.116,6.116,0,0,1-4.628.32,4.8,4.8,0,0,1-2.572-1.928,5.509,5.509,0,0,1-.69-1.616.5.5,0,0,0-.02-.09,12.813,12.813,0,0,1-.271-3.137,40.931,40.931,0,0,1,.291-4.89,26.491,26.491,0,0,1,.8-4.042c.542-1.89,1.322-3.71,2.039-5.534.373-.961.731-1.925,1.025-2.913h0c.178-.582.329-1.182.451-1.788l.044-.218c.023-.122.044-.245.064-.367a17.44,17.44,0,0,1,1.124-4.878c1.747-3.521,5.149-2.621,5.668.626a5.724,5.724,0,0,1,.067.76c.079,4.109-1.552,8.126-.807,12.25a28.525,28.525,0,0,0,.792,2.977c.262.9.5,1.812.679,2.735A15.542,15.542,0,0,1,997.9,672.6Z" transform="translate(-707.879 -484.943)" fill="#be6f72"/><path d="M993.583,521.365a32.652,32.652,0,0,0,.338,5.039c.789,3.9,3.786,7.357,3.454,11.324a3.057,3.057,0,0,1-1.284,2.484c-.845.478-2.243.44-2.519,1.4-.079.268-.038.559-.125.824a1.439,1.439,0,0,1-1.456.792,16.01,16.01,0,0,0-1.768-.157c-2.111.178-2.886,3-4.768,3.973a3.6,3.6,0,0,1-3.958-.673,4.93,4.93,0,0,1-1.421-3.891,28.9,28.9,0,0,1,.582-3.172,22,22,0,0,0-.015-5.737,34.688,34.688,0,0,0-1.436-8.286c-.434-1.252-1.011-2.449-1.386-3.719a21.63,21.63,0,0,1-.714-5.56c-.114-3.94.157-8.155,2.51-11.324,1.768-2.377,4.3-4.307,6.3-6.506,1.252-1.378,1.613-1.809,3-.641,1.139.958,2.33,2.28,2.458,3.579.349,3.329,0,6.6.623,9.993A76.721,76.721,0,0,1,993.583,521.365Z" transform="translate(-701.959 -379.401)" fill="#6c63ff"/><ellipse cx="14.853" cy="14.853" rx="14.853" ry="14.853" transform="translate(246.564 48.111)" fill="#be6f72"/><path d="M911.3,285.1a1.661,1.661,0,0,1,2.473-.792l3.911,1.634a12.768,12.768,0,0,0,1.817-5.755,29.675,29.675,0,0,1,.221-3.745c.355-1.823,1.436-3.457,1.686-5.3a16.284,16.284,0,0,0-.376-4.462c-.664-4.578.049-9.25-.332-13.86s-2.231-9.55-6.343-11.667a38.539,38.539,0,0,0-3.632-1.392c-2.7-1.028-5.12-2.674-7.788-3.786s-5.8-1.622-8.388-.344-4.092,4.875-2.411,7.223a8.811,8.811,0,0,0,2.138,1.876c1.576,1.127,3.183,2.519,3.547,4.424.652,3.428-2.912,6.116-3.917,9.468a8.05,8.05,0,0,0-.1,4.016c.434,1.986,1.494,3.862,1.456,5.895-.029,2.228-1.363,4.246-1.614,6.463-.09.813-.035,1.637-.137,2.446a12.62,12.62,0,0,1-.941,3.1c-2.33,5.825-4.692,11.711-8.155,16.947a22.446,22.446,0,0,0,10.668-2.493,17.631,17.631,0,0,1-2.671,6.273,20.212,20.212,0,0,0,8.347-2.912,27.121,27.121,0,0,1-2.65,6.294c.1-.169,1.931-.582,2.269-.775a3.954,3.954,0,0,0,1.6-1.71c.99-1.771,1.608-3.906,2.525-5.746A83.685,83.685,0,0,1,911.3,285.1Z" transform="translate(-636.281 -193.719)" fill="#3f3d56"/><g transform="translate(105.88 68.018)"><path d="M486.274,264.765l-.1.7-.589,4.31-.964,7.057-.241,1.767a.563.563,0,0,1-.558.487H477.4a.563.563,0,0,1-.558-.485l-.246-1.768-.98-7.057-.6-4.313-.1-.694a.563.563,0,0,1,.557-.641h10.239a.563.563,0,0,1,.558.639Z" transform="translate(-473.584 -262.256)" fill="#6c63ff"/><path d="M504.542,235.646v.423a.563.563,0,0,1-.563.563h-8.916a.563.563,0,0,1-.563-.563v-.422A52.875,52.875,0,0,0,504.542,235.646Z" transform="translate(-492.492 -234.762)" opacity="0.1"/><path d="M486.248,264.49h0a.564.564,0,0,0-.057-.11h0l-.021-.03-.008-.01a.57.57,0,0,0-.072-.075l-.018-.015-.021-.016-.027-.018L486,264.2l-.035-.019-.017-.008-.035-.014-.014-.005-.051-.014-.013,0-.043-.007-.016,0a.55.55,0,0,0-.056,0H475.483a.565.565,0,0,0-.557.64l.016.117.08.577h0l.6,4.313h0l.786,5.661.44,3.165a.563.563,0,0,0,.558.486h.305a.564.564,0,0,1-.032-.122l-.3-2.132h7.25l.964-7.057H476.4l-.589-4.244a59.5,59.5,0,0,0,10.373-.066l.1-.7A.559.559,0,0,0,486.248,264.49Z" transform="translate(-473.59 -262.256)" opacity="0.1"/><path d="M450,239a59.593,59.593,0,0,1-12.932,0,.563.563,0,0,1-.563-.563v-.744a.563.563,0,0,1,.563-.563,52.987,52.987,0,0,0,12.932,0,.563.563,0,0,1,.563.563v.744A.563.563,0,0,1,450,239Z" transform="translate(-436.5 -236.191)" fill="#2f2e41"/><path d="M486.532,441.17h-8.656a.326.326,0,0,1-.322-.275L476.618,435a.327.327,0,0,1,.322-.378H487.53a.326.326,0,0,1,.322.381l-1,5.892A.327.327,0,0,1,486.532,441.17Z" transform="translate(-475.225 -426.852)" fill="#2f2e41"/><path d="M.935,0H9.107a.935.935,0,1,1,0,1.87H.935A.935.935,0,0,1,.935,0Z" transform="translate(2.008 0)" fill="#2f2e41"/></g><g transform="translate(142.715 112.766)" opacity="0.2"><path d="M566.224,739.638a5.527,5.527,0,0,1-.108.935q-3.041-.483-6.116-.874v-.25a4.916,4.916,0,0,1,.728-2.47,2.709,2.709,0,0,1,4.931.151,4.913,4.913,0,0,1,.565,2.508Z" transform="translate(-549.061 -661.281)" fill="#3f3d56"/><ellipse cx="4.08" cy="3.116" rx="4.08" ry="3.116" transform="translate(10.968 77.266) rotate(-88.19)" fill="#3f3d56"/><ellipse cx="4.08" cy="3.116" rx="4.08" ry="3.116" transform="translate(11.127 72.28) rotate(-88.19)" fill="#3f3d56"/><ellipse cx="4.08" cy="3.116" rx="4.08" ry="3.116" transform="translate(11.283 67.294) rotate(-88.19)" fill="#3f3d56"/><ellipse cx="4.08" cy="3.116" rx="4.08" ry="3.116" transform="translate(11.442 62.307) rotate(-88.19)" fill="#3f3d56"/><path d="M526.526,504.572a14.447,14.447,0,0,1-1.107-1.747l8.231-1.086-8.86-.213a14.965,14.965,0,0,1,.09-11.836l11.685,6.538-10.7-8.4A14.935,14.935,0,1,1,549.989,505.3a14.79,14.79,0,0,1,1.616,2.776l-10.8,5.184,11.455-3.445a14.953,14.953,0,0,1-2.86,13.953,14.935,14.935,0,1,1-23.463-.74,14.935,14.935,0,0,1,.583-18.459Z" transform="translate(-522.44 -480.747)" fill="#6c63ff"/><path d="M552.893,596.54a14.854,14.854,0,0,1-3.495,9.128,14.935,14.935,0,1,1-23.463-.74C524.022,602.327,552.945,594.866,552.893,596.54Z" transform="translate(-522.44 -562.645)" opacity="0.1"/></g><path d="M227.025,342.529c-3.131,1.29-4.369,5.3-3.635,8.606s2.944,6.055,5.1,8.673l6.04,7.368c1.669,2.039,3.495,4.185,6.04,4.9,3.722,1.04,7.444-1.331,10.662-3.474A160.621,160.621,0,0,1,281.86,352.65a10.3,10.3,0,0,0,2.994-1.549,5.52,5.52,0,0,0,1.3-6.407,6.415,6.415,0,0,0-5.67-3.512,7.662,7.662,0,0,0-6.035,3.1c-.673.894-1.165,1.916-1.814,2.825-1.643,2.283-4.206,3.7-6.713,4.972a171.442,171.442,0,0,1-18.64,8.155c-1.165.425-2.479.83-3.577.268a4.343,4.343,0,0,1-1.535-1.643,40.792,40.792,0,0,1-4.4-9.372c-.8-2.476-1.439-5.173-3.349-6.932a6.67,6.67,0,0,0-9.643,1.165s-2.379,3.48-.923,4.937S227.025,342.529,227.025,342.529Z" transform="translate(-167.626 -268.935)" fill="#fbbebe"/><g transform="translate(139.574 21.646) rotate(-13)"><path d="M11.36.766l-.1.837-.589,5.164-.964,8.456L9.471,17.34a.608.608,0,0,1-.558.583H2.484a.608.608,0,0,1-.558-.582l-.246-2.119L.7,6.767.1,1.6.005.768A.769.769,0,0,1,.138.232.529.529,0,0,1,.563,0H10.8a.529.529,0,0,1,.424.231A.769.769,0,0,1,11.36.766Z" transform="translate(1.33 1.87)" fill="#6c63ff"/><rect width="10.042" height="1.87" rx="0.935" transform="translate(2.008 0)" fill="#2f2e41"/><path d="M10.042,0V.423a.563.563,0,0,1-.563.563H.563A.563.563,0,0,1,0,.423V0A52.875,52.875,0,0,0,10.042,0Z" transform="translate(2.008 0.884)" opacity="0.1"/><path d="M11.327.436h0A.732.732,0,0,0,11.27.3h0L11.249.266,11.241.255a.644.644,0,0,0-.072-.09L11.152.147,11.131.128,11.1.106,11.082.09,11.046.067l-.017-.01L10.994.041,10.98.035a.493.493,0,0,0-.051-.017l-.013,0L10.874.006l-.016,0A.474.474,0,0,0,10.8,0H.563A.531.531,0,0,0,.139.232.771.771,0,0,0,.005.767l.016.14L.1,1.6h0L.7,6.767h0l.786,6.783.44,3.792a.608.608,0,0,0,.558.582h.305a.783.783,0,0,1-.032-.146l-.3-2.554h7.25l.964-8.456H1.481L.892,1.682A49.7,49.7,0,0,0,11.264,1.6l.1-.837A.794.794,0,0,0,11.327.436Z" transform="translate(1.33 1.87)" opacity="0.1"/><path d="M13.5,1.87a59.592,59.592,0,0,1-12.932,0A.563.563,0,0,1,0,1.307V.563A.563.563,0,0,1,.563,0,52.986,52.986,0,0,0,13.5,0a.563.563,0,0,1,.563.563v.744A.563.563,0,0,1,13.5,1.87Z" transform="translate(0 0.935)" fill="#2f2e41"/><path d="M9.918,6.544H1.262a.326.326,0,0,1-.322-.275L0,.378A.326.326,0,0,1,.326,0H10.915a.326.326,0,0,1,.322.381l-1,5.892A.326.326,0,0,1,9.918,6.544Z" transform="translate(1.389 8.476)" fill="#2f2e41"/></g><g transform="translate(155.021 12.697) rotate(-1)"><path d="M11.36.766l-.1.837-.589,5.164-.964,8.456L9.471,17.34a.608.608,0,0,1-.558.583H2.484a.608.608,0,0,1-.558-.582l-.246-2.119L.7,6.767.1,1.6.005.768A.769.769,0,0,1,.138.232.529.529,0,0,1,.563,0H10.8a.529.529,0,0,1,.424.231A.769.769,0,0,1,11.36.766Z" transform="translate(1.33 1.87)" fill="#6c63ff"/><rect width="10.042" height="1.87" rx="0.935" transform="translate(2.008 0)" fill="#2f2e41"/><path d="M10.042,0V.423a.563.563,0,0,1-.563.563H.563A.563.563,0,0,1,0,.423V0A52.876,52.876,0,0,0,10.042,0Z" transform="translate(2.008 0.884)" opacity="0.1"/><path d="M11.327.436h0A.732.732,0,0,0,11.27.3h0L11.249.266,11.241.255a.644.644,0,0,0-.072-.09L11.152.147,11.131.128,11.1.106,11.082.09,11.046.067l-.017-.01L10.994.041,10.98.035a.49.49,0,0,0-.051-.017l-.013,0L10.874.006l-.016,0A.474.474,0,0,0,10.8,0H.563A.531.531,0,0,0,.139.232.771.771,0,0,0,.005.767l.016.14L.1,1.6h0L.7,6.767h0l.786,6.783.44,3.792a.608.608,0,0,0,.558.582h.305a.783.783,0,0,1-.032-.146l-.3-2.554h7.25l.964-8.456H1.481L.892,1.682A49.7,49.7,0,0,0,11.264,1.6l.1-.837A.794.794,0,0,0,11.327.436Z" transform="translate(1.33 1.87)" opacity="0.1"/><path d="M13.5,1.87a59.592,59.592,0,0,1-12.932,0A.563.563,0,0,1,0,1.307V.563A.563.563,0,0,1,.563,0,52.986,52.986,0,0,0,13.5,0a.563.563,0,0,1,.563.563v.744A.563.563,0,0,1,13.5,1.87Z" transform="translate(0 0.935)" fill="#2f2e41"/><path d="M9.918,6.544H1.262a.326.326,0,0,1-.322-.275L0,.378A.326.326,0,0,1,.326,0H10.915a.326.326,0,0,1,.322.381l-1,5.892A.326.326,0,0,1,9.918,6.544Z" transform="translate(1.389 8.476)" fill="#2f2e41"/></g><g transform="translate(171.761 23.103) rotate(-1)"><path d="M11.36.766l-.1.837-.589,5.164-.964,8.456L9.471,17.34a.608.608,0,0,1-.558.583H2.484a.608.608,0,0,1-.558-.582l-.246-2.119L.7,6.767.1,1.6.005.768A.769.769,0,0,1,.138.232.529.529,0,0,1,.563,0H10.8a.529.529,0,0,1,.424.231A.769.769,0,0,1,11.36.766Z" transform="translate(1.33 1.87)" fill="#6c63ff"/><rect width="10.042" height="1.87" rx="0.935" transform="translate(2.008 0)" fill="#2f2e41"/><path d="M10.042,0V.423a.563.563,0,0,1-.563.563H.563A.563.563,0,0,1,0,.423V0A52.876,52.876,0,0,0,10.042,0Z" transform="translate(2.008 0.884)" opacity="0.1"/><path d="M11.327.436h0A.732.732,0,0,0,11.27.3h0L11.249.266,11.241.255a.644.644,0,0,0-.072-.09L11.152.147,11.131.128,11.1.106,11.082.09,11.046.067l-.017-.01L10.994.041,10.98.035a.49.49,0,0,0-.051-.017l-.013,0L10.874.006l-.016,0A.474.474,0,0,0,10.8,0H.563A.531.531,0,0,0,.139.232.771.771,0,0,0,.005.767l.016.14L.1,1.6h0L.7,6.767h0l.786,6.783.44,3.792a.608.608,0,0,0,.558.582h.305a.783.783,0,0,1-.032-.146l-.3-2.554h7.25l.964-8.456H1.481L.892,1.682A49.7,49.7,0,0,0,11.264,1.6l.1-.837A.794.794,0,0,0,11.327.436Z" transform="translate(1.33 1.87)" opacity="0.1"/><path d="M13.5,1.87a59.592,59.592,0,0,1-12.932,0A.563.563,0,0,1,0,1.307V.563A.563.563,0,0,1,.563,0,52.986,52.986,0,0,0,13.5,0a.563.563,0,0,1,.563.563v.744A.563.563,0,0,1,13.5,1.87Z" transform="translate(0 0.935)" fill="#2f2e41"/><path d="M9.918,6.544H1.262a.326.326,0,0,1-.322-.275L0,.378A.326.326,0,0,1,.326,0H10.915a.326.326,0,0,1,.322.381l-1,5.892A.326.326,0,0,1,9.918,6.544Z" transform="translate(1.389 8.476)" fill="#2f2e41"/></g></g><path d="M317.9,216.638a16.377,16.377,0,0,1-12.292,0c1.243-2.122-.615-3.784-1.569-5.926L320,210.237C318.777,212.1,316.977,214.3,317.9,216.638Z" transform="translate(-177.649 79.997)" fill="#fff"/><path d="M0,0H4.283V.292H0Z" transform="matrix(0.537, -0.844, 0.844, 0.537, 141.559, 290.843)" fill="#fff"/><g transform="translate(21.465 229.903)"><path d="M363.435,370.107c-3.317,7.977-10.258,15.183-17.708,22.006q-9.824,9-21.016,17.393-3.1,2.33-6.3,4.6l-1.482,1.046q-1.972,1.395-4.01,2.764l-.163.111q-1.978,1.346-3.99,2.665a109.353,109.353,0,0,1-14.157,8.117c-1.747.81-3.55,1.564-5.417,2.24q-1.515.551-3.093,1.031c-1.724.524-3.495.981-5.344,1.357-.309.064-.62.125-.932.183-1.893.355-3.809.615-5.746.792a88.356,88.356,0,0,1-21.537-.938c-3.553-.556-7.051-1.273-10.435-2.088-.416-.1-.83-.2-1.247-.291-11.524-2.883-22.344-6.8-33.95-9.55q-6-1.424-12.232-2.417-3.041-.483-6.116-.874c-4.826-.6-9.713-1-14.62-1.206a89.406,89.406,0,0,0-19.746.99q-1.258.23-2.484.518-1.555.364-3.052.83a54.328,54.328,0,0,0-7.832,3.224c-.5.245-.99.492-1.482.743h0c-1.544.786-3.067,1.59-4.613,2.371a58.23,58.23,0,0,1-8.662,3.676,45.869,45.869,0,0,1-4.974,1.27,73.3,73.3,0,0,1-13.933,1.267c-2.292,0-4.587-.05-6.856-.169h-.07c-.775-.041-1.552-.087-2.33-.146-3.542-.242-7.071-.615-10.549-1.124-11.915-1.747-23.215-5.05-32.3-10.089C42.7,413.572,34.86,403.376,36.037,393.188c.845-7.339,6.09-14.154,11.067-20.827,9.259-12.424,17.932-25.131,22.5-38.526,3.7-10.872,4.806-22.367,13.324-32.139A44.659,44.659,0,0,1,93.2,293.213a65.644,65.644,0,0,1,9.518-4.811,82.256,82.256,0,0,1,11.472-3.742,91.286,91.286,0,0,1,10.287-1.934c1.881-.245,3.786-.434,5.7-.562q2.213-.154,4.447-.2h.23q1.366-.026,2.732,0a127.283,127.283,0,0,1,19.8,1.861c4.095.684,8.155,1.523,12.13,2.446q3.559.824,7.054,1.727c.711.184,1.421.37,2.123.559,16.578,4.441,31.163,10.575,47.135,15.608.082.026.16.052.242.073h0a98.4,98.4,0,0,0,9.972,2.5q3.709.743,7.572,1.3c3.938.583,7.96,1.043,12.011,1.439l.894.087c5.944.582,11.941,1.016,17.766,1.523,2.068.181,4.118.367,6.139.583q1.922.192,3.809.408c.9.1,1.809.21,2.714.32s1.864.227,2.8.347c.606.076,1.209.154,1.814.239,3.67.486,7.331,1.031,10.951,1.654,2.2.379,4.392.786,6.556,1.226q2.35.478,4.66,1.008,1.712.387,3.4.815a104.94,104.94,0,0,1,25.006,9.355C361.236,337.561,369.781,354.852,363.435,370.107Z" transform="translate(-33.996 -227.539)" fill="#6c63ff" opacity="0.1"/><circle cx="6.3" cy="6.3" r="6.3" transform="translate(66.217 13.729)" fill="#6c63ff" opacity="0.1"/><circle cx="6.3" cy="6.3" r="6.3" transform="translate(194.979 0)" fill="#6c63ff" opacity="0.1"/><circle cx="6.3" cy="6.3" r="6.3" transform="translate(271.328 14.108)" fill="#6c63ff" opacity="0.1"/><ellipse cx="10.558" cy="10.558" rx="10.558" ry="10.558" transform="translate(0 24.712)" fill="#6c63ff" opacity="0.1"/><ellipse cx="10.558" cy="10.558" rx="10.558" ry="10.558" transform="translate(10.121 76.845)" fill="#6c63ff" opacity="0.1"/><ellipse cx="10.558" cy="10.558" rx="10.558" ry="10.558" transform="translate(293.477 57.655)" fill="#6c63ff" opacity="0.1"/><path d="M355.057,312.316a11.359,11.359,0,0,1-.154,2.65c-.583,2.706-3.046,4.564-5.432,5.973s-5.006,2.743-6.425,5.123a8.722,8.722,0,0,0,.842,9.425,13.894,13.894,0,0,0,8.461,4.951,19.589,19.589,0,0,0,16.985-4.634,18.522,18.522,0,0,0,5.624-16.6c-2.429.341-4.593-1.8-5.379-4.127s-.623-4.843-.929-7.281a2.5,2.5,0,0,0-.361-1.165,2.617,2.617,0,0,0-1.506-.818c-2.808-.772-7.532-2.461-10.441-1.814C353.72,304.6,355.013,310.115,355.057,312.316Z" transform="translate(-251.855 -242.607)" fill="#be6f72"/><path d="M355.057,312.316a11.359,11.359,0,0,1-.154,2.65c-.583,2.706-3.046,4.564-5.432,5.973s-5.006,2.743-6.425,5.123a8.722,8.722,0,0,0,.842,9.425,13.894,13.894,0,0,0,8.461,4.951,19.589,19.589,0,0,0,16.985-4.634,18.522,18.522,0,0,0,5.624-16.6c-2.429.341-4.593-1.8-5.379-4.127s-.623-4.843-.929-7.281a2.5,2.5,0,0,0-.361-1.165,2.617,2.617,0,0,0-1.506-.818c-2.808-.772-7.532-2.461-10.441-1.814C353.72,304.6,355.013,310.115,355.057,312.316Z" transform="translate(-251.855 -242.607)" opacity="0.1"/><path d="M341.6,746.567a58.236,58.236,0,0,1-8.662,3.675,45.867,45.867,0,0,1-4.974,1.27,31.31,31.31,0,0,1,.364-6.7,35.661,35.661,0,0,0,.649-3.824,10.03,10.03,0,0,0-1.15-5.37c3.244-.443,6.326-1.165,9.585-.952l.207.015a3.634,3.634,0,0,1,1.136.213,3.067,3.067,0,0,1,1.232,1.083,7.484,7.484,0,0,1,.463.714,11.358,11.358,0,0,1,1.343,5.315,35.356,35.356,0,0,1-.192,4.561Z" transform="translate(-241.794 -547.922)" fill="#be6f72"/><path d="M406.362,749.2q-1.555.364-3.052.83a54.346,54.346,0,0,0-7.832,3.224,11.557,11.557,0,0,1-.239-2.411,13.468,13.468,0,0,1,10.3-2.117,1.36,1.36,0,0,1,.652.262A.874.874,0,0,1,406.362,749.2Z" transform="translate(-289.57 -557.729)" fill="#be6f72"/><path d="M348.18,615.946a22.364,22.364,0,0,1-1.165,5.606c-.731,1.922-1.919,3.786-1.768,5.839.067.891.37,1.858.414,2.741q-1.258.23-2.484.518-1.555.364-3.052.83a54.356,54.356,0,0,0-7.832,3.224c-.5.245-.99.492-1.482.743h0c-.2-.026-.4-.058-.609-.1a5.96,5.96,0,0,1-3.812-2.083,3.345,3.345,0,0,1-.44-.874c-.475-1.418.02-3.186-.967-4.31l-.047.041-.035.023a9.787,9.787,0,0,1-1.771,1.276h0a11.868,11.868,0,0,1-9.611.926,10.518,10.518,0,0,1-1.8-.81c-1.334-.76-2.621-2.039-2.516-3.565.058-.85.545-1.666.414-2.508a5.245,5.245,0,0,0-.789-1.637c-1.948-3.495.376-7.989-.848-11.787-.029-.09-.061-.181-.093-.268-.09-.248-.192-.486-.291-.725-.25-.556-.53-1.1-.751-1.675a9.755,9.755,0,0,1-.437-1.477,18.484,18.484,0,0,1-.291-4.433,46.367,46.367,0,0,1,1.7-11.685c.178-.67.376-1.616.638-2.648h0a20.269,20.269,0,0,1,1.031-3.18c.582-1.34,1.375-2.408,2.458-2.662,1.631-.382,4.124.425,5.778.623l6.538.781,13.074,1.564c2.257.271,4.628.583,6.489,1.852.122.085.242.172.361.265a7.379,7.379,0,0,1,1.311,1.334c.134.172.262.352.384.536a12.116,12.116,0,0,1,1.078,2.056c1.622,3.9,1.66,8.245,1.672,12.465A127.38,127.38,0,0,1,348.18,615.946Z" transform="translate(-226.382 -439.173)" fill="#3f3d56"/><path d="M358.1,691.967c-.393-1.514-1.223-3.708-1.345-4.3a54.623,54.623,0,0,1-.891-6.064c-.323-3.629-.906-8.737.376-12.189,1.2.641,2.26,2.455,2.816,3.693,2.015,4.488-.253,10,1.64,14.539a2.394,2.394,0,0,1,.259.874,2.114,2.114,0,0,1-.4,1.072l-.638,1.06Z" transform="translate(-261.37 -501.697)" opacity="0.1"/><path d="M486.645,202.7c2.144-3.495,5.079-6.932,4.9-11.018a21.834,21.834,0,0,0-.909-4.307,27.481,27.481,0,0,1-.2-12.608,14.239,14.239,0,0,1,10.3,2.307A5.878,5.878,0,0,1,503,179.635a7.4,7.4,0,0,1,.253,3.172c-.16,2.449-.379,5.062-1.887,6.99-.469.6-1.046,1.113-1.5,1.721a11.144,11.144,0,0,0-1.439,2.979l-4.951,13.47c-2.5,6.789-5.207,13.889-10.712,18.587-.134.114-4.077-5.487-4.4-6.049-1.319-2.3-.743-3.276.853-5.2C482.363,211.488,484.073,206.889,486.645,202.7Z" transform="translate(-347.966 -150.991)" fill="#be6f72"/><path d="M267.6,665.33a22.376,22.376,0,0,1-.253,3c-.052.367-.114.731-.186,1.1-.993,5.184-3.466,10.115-5.2,15.165a88.12,88.12,0,0,0-4.077,19.071c-2.292,0-4.587-.05-6.856-.169h-.07c-.775-.041-1.552-.087-2.33-.146.7-6.174-.582-12.652.673-18.832.507-2.487,1.372-4.9,1.893-7.377a20.886,20.886,0,0,0,.364-2.208,5.922,5.922,0,0,1,.428-2.071,1.531,1.531,0,0,1,.1-.178,4.99,4.99,0,0,1,1.025-1.165,25.581,25.581,0,0,1,12.541-5.979C266.314,665.449,266.958,665.374,267.6,665.33Z" transform="translate(-185.66 -498.806)" fill="#fbbebe"/><path d="M267.6,665.33a22.376,22.376,0,0,1-.253,3c-.052.367-.114.731-.186,1.1-.993,5.184-3.466,10.115-5.2,15.165a88.12,88.12,0,0,0-4.077,19.071c-2.292,0-4.587-.05-6.856-.169h-.07c-.775-.041-1.552-.087-2.33-.146.7-6.174-.582-12.652.673-18.832.507-2.487,1.372-4.9,1.893-7.377a20.886,20.886,0,0,0,.364-2.208,5.922,5.922,0,0,1,.428-2.071,1.531,1.531,0,0,1,.1-.178,4.99,4.99,0,0,1,1.025-1.165,25.581,25.581,0,0,1,12.541-5.979C266.314,665.449,266.958,665.374,267.6,665.33Z" transform="translate(-185.66 -498.806)" opacity="0.1"/><path d="M214.184,686.129a45.635,45.635,0,0,1-.4,4.837c-.778,6.556-.923,13.4-1.456,20.052-.775-.041-1.552-.087-2.33-.146-3.542-.242-7.071-.614-10.549-1.124q.4-2.248.81-4.5a24.347,24.347,0,0,0,.568-5.557,32.527,32.527,0,0,0-.938-5.2c-.8-3.7-1.249-7.689-2.569-11.178a14.561,14.561,0,0,0-3.221-5.242c5.458-2.144,10.7-2.266,16.566-2.039a2.1,2.1,0,0,1,1.188.291,2.01,2.01,0,0,1,.6.9,22.591,22.591,0,0,1,1.64,6.646A21.8,21.8,0,0,1,214.184,686.129Z" transform="translate(-147.012 -506.333)" fill="#fbbebe"/><ellipse cx="11.358" cy="11.358" rx="11.358" ry="11.358" transform="translate(99.777 45.489)" fill="#be6f72"/><path d="M345.751,364.3c1.456-2.484,2.732-5.586,5.534-6.276a8.6,8.6,0,0,1,4.768.67,2.33,2.33,0,0,1,1.165.676,2.289,2.289,0,0,1,.352,1.206,78.946,78.946,0,0,1-.05,15.436c-.37,3.632-.993,7.246-1.1,10.9-.154,5.059.679,10.118.4,15.171a69.739,69.739,0,0,1-1.879,11.335l-3.495,15.669a2.671,2.671,0,0,1-.562,1.325,2.621,2.621,0,0,1-1.031.582,38.374,38.374,0,0,1-31.055-2.432,9.421,9.421,0,0,1-3.341-2.677,7.843,7.843,0,0,1-.894-5.906c.379-2.01,1.2-3.906,1.747-5.877a45.229,45.229,0,0,0,1.244-9.419,74.624,74.624,0,0,0,.067-12.523c-.306-2.863-.944-5.682-1.424-8.522a94,94,0,0,1-1.229-12.94c-.073-2.589.047-5.464,1.838-7.331a8.443,8.443,0,0,1,3.224-1.9,9.528,9.528,0,0,1,6.221-.5c2.01.67,3.629,2.778,3.154,4.843-.218.958-.839,1.8-.99,2.77a3.992,3.992,0,0,0,1.456,3.454C335.12,376.773,343.132,368.793,345.751,364.3Z" transform="translate(-232.253 -280.902)" fill="#e3e8f4"/><path d="M401.818,314a8.589,8.589,0,0,1,4.977-.291c1.051.25,2.187.693,3.157.224.352-.169.644-.446,1-.6.961-.422,2.208.1,3.058-.518a3.01,3.01,0,0,0,.891-1.733,15.538,15.538,0,0,1,5.135-7.782c-.306,2.234-.527,4.776.949,6.483a6.473,6.473,0,0,0,2.572,1.64,7.692,7.692,0,0,0,4.325.609,3.75,3.75,0,0,0,3.032-2.851c-.049,2.193-2.138,3.725-2.723,5.842-.221.792-.2,1.634-.355,2.444-.393,2.068-1.87,3.728-3.16,5.394a38.375,38.375,0,0,0-7.631,18.412,8.881,8.881,0,0,1-.5,2.33,14.651,14.651,0,0,1-.967,1.666c-2.135,3.606-1.477,8.155-.751,12.273a175.967,175.967,0,0,0,4.1,19.059,6.618,6.618,0,0,0,1.471,2.979c-.253,2.543-2.819,3.7-5.126,4.8a25.146,25.146,0,0,0-6.233,4.22,4.911,4.911,0,0,0-1.561,2.17c-.227.818-.064,1.718-.355,2.513s-1.456,1.366-1.969.7c-.641-2.4.454-4.9.4-7.386-.035-1.675-.582-3.3-.661-4.977a15.929,15.929,0,0,1,1.078-5.557c1.654-5.012,3.652-9.978,4.226-15.223s-.5-10.974-4.22-14.717c-4.418-4.462-6.87-10.511-11.606-14.609-.751-.65-1.6-1.456-1.477-2.441a2.718,2.718,0,0,1,.556-1.182c1.625-2.295,3.786-4.168,5.534-6.364S402.135,316.8,401.818,314Z" transform="translate(-287.904 -242.215)" fill="#3f3d56"/><path d="M323.148,354.622a8.511,8.511,0,0,1-.83.944,2.738,2.738,0,0,1-1.308.4,42.279,42.279,0,0,1-5.175.463,15.973,15.973,0,0,0-4.369.271,7.8,7.8,0,0,0-4.494,3.874,19.213,19.213,0,0,0-1.817,5.787,77.4,77.4,0,0,0-1.325,13.365,35.151,35.151,0,0,0,6.364-6.605c1.4-1.9,2.665-3.993,4.66-5.26.917-.582,1.948-.967,2.872-1.535a16.468,16.468,0,0,0,4.54-4.951c.944-1.372,3.673-4.051,3.888-5.694A1.677,1.677,0,0,0,323.148,354.622Z" transform="translate(-224.784 -278.136)" fill="#3f3d56"/><path d="M372.736,238.357a9.21,9.21,0,0,1,1.031.719c1.978,1.38,4.625,1.124,7.016.81a5.266,5.266,0,0,0,2.117-.583,3.31,3.31,0,0,0,1.386-3.09,6.152,6.152,0,0,0-1.424-3.2,11.524,11.524,0,0,0-7.966-4.345,5.126,5.126,0,0,0-2.385.253,19.21,19.21,0,0,0-2.516,1.718c-2.56,1.573-6.5.874-8.155,3.384-1.209,1.852-.347,4.369-.917,6.5-.425,1.59-1.651,3.038-1.415,4.66a7.517,7.517,0,0,0,1.115,2.417,10.683,10.683,0,0,1,1.337,5.892c1.121.792,2.685-.44,3-1.774s-.047-2.755.218-4.1c.469-2.362,2.554-4.095,3.495-6.262C369.346,239.8,370.446,237.177,372.736,238.357Z" transform="translate(-264.224 -189.285)" fill="#3f3d56"/><path d="M279.971,328.331a2.2,2.2,0,0,0,.151,1.564c.583.874,1.916.559,2.965.69a4.039,4.039,0,0,1,3.157,3.373,11.087,11.087,0,0,1-.475,4.875q-1.4,5.426-3.343,10.7c-3.477-.411-7.138-1.747-8.985-4.715-1.678-2.7-1.506-6.139-2.572-9.133a22.828,22.828,0,0,0-3.419-5.743c2.135.268,3.661-2.173,3.786-4.322s-.55-4.331-.09-6.431c.108-.5,8.522,1.072,9.34,1.64C282.851,322.465,280.343,326.053,279.971,328.331Z" transform="translate(-198.999 -253.406)" fill="#fbbebe"/><path d="M279.971,328.331a2.2,2.2,0,0,0,.151,1.564c.583.874,1.916.559,2.965.69a4.039,4.039,0,0,1,3.157,3.373,11.087,11.087,0,0,1-.475,4.875q-1.4,5.426-3.343,10.7c-3.477-.411-7.138-1.747-8.985-4.715-1.678-2.7-1.506-6.139-2.572-9.133a22.828,22.828,0,0,0-3.419-5.743c2.135.268,3.661-2.173,3.786-4.322s-.55-4.331-.09-6.431c.108-.5,8.522,1.072,9.34,1.64C282.851,322.465,280.343,326.053,279.971,328.331Z" transform="translate(-198.999 -253.406)" opacity="0.1"/><ellipse cx="11.358" cy="11.358" rx="11.358" ry="11.358" transform="translate(67.74 48.693)" fill="#fbbebe"/><path d="M223.94,274.443c.414-.647-.291-1.549.032-2.246.192-.419.679-.6,1.054-.874a3.929,3.929,0,0,0,1.1-1.424,16.554,16.554,0,0,0,1.514-11.053c-.268-1.258-.507-2.93.644-3.495a2.088,2.088,0,0,1,1.016-.175c2.074.067,4.077,1.456,6.09.964a3.5,3.5,0,0,0,2.563-3.049c.131-1.881-1.279-3.495-2.665-4.762-2.5-2.295-6.3-2.8-9.69-2.86l-6.305-.1c-2.018-.035-4.281.029-5.685,1.477-2.021,2.082-1,5.49-1.3,8.376a8.737,8.737,0,0,1-3.2,5.869c-1.308,1.043-3.108,2.039-3.084,3.7a6.024,6.024,0,0,0,.411,1.663,8.025,8.025,0,0,1-1.206,6.495,17.319,17.319,0,0,1-4.913,4.66,13.7,13.7,0,0,0-2.831,2.272,6.7,6.7,0,0,0-1.477,3.766,4.951,4.951,0,0,0,.617,3.038c1.232,1.969,4.188,2.257,6.212,1.115a10.11,10.11,0,0,0,4.077-5.475c.489-1.29.987-2.767,2.24-3.346,1.584-.737,3.437.428,4.468,1.841s1.666,3.137,2.985,4.284a5.332,5.332,0,0,0,7.334-.606,8.244,8.244,0,0,0,1.456-5.583A8.134,8.134,0,0,0,223.94,274.443Z" transform="translate(-148.339 -201.148)" fill="#3f3d56"/><path d="M188.032,355.873a4.18,4.18,0,0,1-3.614-1.249,14.353,14.353,0,0,1-2.289-3.236,56.969,56.969,0,0,0-5.869-8.137c-1.911-2.2-4.57-4.444-7.406-3.763a7.027,7.027,0,0,0-2.586,1.383,18.855,18.855,0,0,0-7.039,16.828c.221,1.855.725,3.67.935,5.534a35.472,35.472,0,0,1,.122,4.622c-.079,4.695-.239,9.661-2.77,13.616-3.923,6.116-6.023,13.421-8.9,20.1a68.592,68.592,0,0,0-3.4,11.271q-.813,3.4-1.622,6.8l-3.524,14.824a9.889,9.889,0,0,0-.344,4.66c.582,2.283,2.729,3.879,4.992,4.529a26.119,26.119,0,0,0,7.01.559,39.243,39.243,0,0,1,13.249,2.164,14.208,14.208,0,0,0,3.693,1.083,8.593,8.593,0,0,0,3.766-.7c3.282-1.27,6.1-3.495,9.119-5.292a36.036,36.036,0,0,1,5.941-2.875,6.517,6.517,0,0,0,2.863-1.6,5.174,5.174,0,0,0,.958-2.286c.984-4.59.323-9.346,0-14.029s-3.122-9.631-.807-13.715a10.987,10.987,0,0,0,1.261-2.531c.315-1.194.05-2.478.315-3.684a19.05,19.05,0,0,1,.984-2.545,13.42,13.42,0,0,0,.629-4.744,52.059,52.059,0,0,0-1.107-10.485c-.917-4.369,2.117-8.688,3.856-12.815a20.353,20.353,0,0,0,1.765-4.453,13.729,13.729,0,0,0-.291-4.31,37.716,37.716,0,0,1-.408-6.7,22.538,22.538,0,0,0-.213-6.011c-.481-1.954-1.852-3.85-3.824-4.252a1.561,1.561,0,0,0-1.316.207,1.7,1.7,0,0,0-.463.816c-.641,1.963-.516,4.077-.874,6.116S190.042,355.442,188.032,355.873Z" transform="translate(-108.354 -267.774)" fill="#f86d70"/><path d="M197.693,434.5c.119-.807-.256-1.879-1.072-1.849-.751.029-1.086.97-1.083,1.724s.1,1.619-.428,2.149c-.472.469-1.252.454-1.8.836a1.48,1.48,0,0,0-.62,1.215c0,.4.183.792.2,1.2s-.259.874-.661.848a1.826,1.826,0,0,0,.265,2.213c.21.2.483.379.553.664a1.6,1.6,0,0,1-.047.6,1.563,1.563,0,0,0,1.238,1.785.981.981,0,0,0,.052,1.456,2.278,2.278,0,0,0,1.564.448,9.506,9.506,0,0,0,3.673-.76,2.19,2.19,0,0,0,1.014-.7.874.874,0,0,0-.084-1.13,1.712,1.712,0,0,0,1.613-.291c.515-.612-.038-1.517-.583-2.109a1.165,1.165,0,0,0,.542-2.074c-.186-.137-.44-.256-.466-.486s.169-.379.25-.583c.186-.457-.239-.923-.649-1.2-.973-.647-2.406-.635-3.271-1.287S197.568,435.372,197.693,434.5Z" transform="translate(-145.499 -333.891)" fill="#be6f72"/><path d="M784.87,294.469a8.889,8.889,0,0,1,.376,3.582c-.076,1.474-.446,3.2-1.814,3.766-.891.358-1.992.087-2.784.629-.961.652-.914,2.056-.766,3.2.411,3.154.874,6.425,2.592,9.093a19.312,19.312,0,0,0,3.44,3.76c2.525,2.278,5.295,4.5,8.612,5.263a3.6,3.6,0,0,0,1.66.07,3.437,3.437,0,0,0,1.436-.874c1.922-1.765,2.912-4.284,4.194-6.568a24.4,24.4,0,0,0,2.5-5,8.737,8.737,0,0,0-2.674-8.816c-.568-.486-1.2-.894-1.747-1.4a8.964,8.964,0,0,1-2.621-5.088,22.264,22.264,0,0,1-.125-5.825,31.691,31.691,0,0,0-8.647.7,16.835,16.835,0,0,0-4.188.973C783.021,292.617,784.518,293.494,784.87,294.469Z" transform="translate(-562.13 -232.927)" fill="#fbbebe"/><path d="M784.87,294.469a8.889,8.889,0,0,1,.376,3.582c-.076,1.474-.446,3.2-1.814,3.766-.891.358-1.992.087-2.784.629-.961.652-.914,2.056-.766,3.2.411,3.154.874,6.425,2.592,9.093a19.312,19.312,0,0,0,3.44,3.76c2.525,2.278,5.295,4.5,8.612,5.263a3.6,3.6,0,0,0,1.66.07,3.437,3.437,0,0,0,1.436-.874c1.922-1.765,2.912-4.284,4.194-6.568a24.4,24.4,0,0,0,2.5-5,8.737,8.737,0,0,0-2.674-8.816c-.568-.486-1.2-.894-1.747-1.4a8.964,8.964,0,0,1-2.621-5.088,22.264,22.264,0,0,1-.125-5.825,31.691,31.691,0,0,0-8.647.7,16.835,16.835,0,0,0-4.188.973C783.021,292.617,784.518,293.494,784.87,294.469Z" transform="translate(-562.13 -232.927)" opacity="0.1"/><path d="M617.611,198.4c-4.73-1.622-6.99-7.96-11.941-8.67-.781-.114-1.581-.07-2.347-.25-2.851-.676-4.077-3.973-4.9-6.783a109.875,109.875,0,0,0-11.562-26.844c-2.176-3.495-5.615-6.367-7.185-10.194a7.91,7.91,0,0,0-1.194-2.56c-.649-.69-2.039-.789-2.391.09a2.04,2.04,0,0,0-.064.964l.341,3.626-5.924-.533a3.46,3.46,0,0,0-1.64.117,2.781,2.781,0,0,0-1.29,1.343c-2,3.766.131,8.7,3.667,11.082,4.13,2.781,10.027,3.2,12.771,7.354,1.631,2.47,1.663,5.647,2.738,8.405.512,1.319,1.261,2.531,1.858,3.809a78.673,78.673,0,0,1,2.6,7.628,67.243,67.243,0,0,0,5,10.38,26.742,26.742,0,0,0,5.126,7.229,25.211,25.211,0,0,0,4.881,3.2c4.211,2.3,9.177,4.514,13.639,2.749A29.872,29.872,0,0,0,617.611,198.4Z" transform="translate(-411.122 -128.285)" fill="#fbbebe"/><path d="M754.5,733.647c-.358,3.8-2.665,7.243-3.2,10.9-3.553-.556-7.051-1.273-10.435-2.088-.416-.1-.83-.2-1.247-.291,1.916-5.242.248-11.114.754-16.7.049-.536.119-1.072.213-1.6,4.389-1.5,8.353-3.495,12.954-2.912.09.932.184,1.867.274,2.8q.277,2.793.547,5.58A22.623,22.623,0,0,1,754.5,733.647Z" transform="translate(-533.645 -538.159)" fill="#fbbebe"/><path d="M857.5,742.911c-1.724.524-3.495.982-5.344,1.357-.309.064-.62.125-.932.183-1.893.355-3.809.615-5.746.792-.2-4.048-2.912-7.77-3.308-11.926a17.514,17.514,0,0,1,.032-3.1c.035-.408.076-.815.114-1.223l.821-8.379a12.91,12.91,0,0,1,1.972-.1c3.786.09,7.232,1.73,10.983,3.008a26.173,26.173,0,0,1,.291,5.347c-.143,4.549-.874,9.154.815,13.327C857.294,742.437,857.4,742.673,857.5,742.911Z" transform="translate(-606.297 -537.917)" fill="#fbbebe"/><path d="M717.315,577.516c.51,3.973-1.52,7.776-2.4,11.682a41.343,41.343,0,0,0-.74,7.893l-.46,15.876a14.157,14.157,0,0,0,.4,4.727c.973,3.052,3.97,5.114,7.089,5.848s6.381.361,9.559-.058a9.958,9.958,0,0,0,4.474-1.348c1.774-1.238,2.548-3.443,3.218-5.5l1.89-5.8c2.176,4.9,1.255,10.255,2.56,15.453a2.993,2.993,0,0,0,.582,1.319,3.266,3.266,0,0,0,2.28.766c5.708.4,11.5.8,17.111-.291a7.441,7.441,0,0,0,4.22-1.922c1.241-1.348,1.456-3.332,1.442-5.164-.079-6.294-2.353-12.366-2.86-18.64-.218-2.688-.111-5.391-.207-8.088a54.169,54.169,0,0,0-.568-6.058,8.139,8.139,0,0,0-.746-2.65c-.874-1.631-2.688-2.516-4.406-3.2C746.4,576.931,731.714,576.983,717.315,577.516Z" transform="translate(-515.274 -436.403)" fill="#f86d70"/><ellipse cx="12.523" cy="12.523" rx="12.523" ry="12.523" transform="translate(214.236 37.917)" fill="#fbbebe"/><path d="M753.162,325.916c-.929,2.039-2.391,4.077-4.567,4.6A6.249,6.249,0,0,1,743,328.593a22.235,22.235,0,0,1-3.46-5.085,9.535,9.535,0,0,0-2.837-3.442c-1.724-1.118-3.949-1.089-5.982-.76a27.434,27.434,0,0,1-6.116.783c-2.572-.172-5.193-1.456-7.619-.6.786,3.518.5,7.386.414,10.992a4.952,4.952,0,0,1-.233,1.643,5.308,5.308,0,0,1-.848,1.363l-2.33,3a14.543,14.543,0,0,1,5.534,7.307,18.377,18.377,0,0,1,.323,5.295c-.055,5.216,1.078,10.412.719,15.616-.419,6.1-2.854,11.857-4.109,17.836a46.693,46.693,0,0,0-.6,15.611,146.979,146.979,0,0,0,40.3,7.587c2.438.134,5.07.154,7.071-1.247a7.692,7.692,0,0,0,2.912-5.17,22.958,22.958,0,0,0-.122-6.075q-.9-8.2-1.8-16.4a39.037,39.037,0,0,1,.658-16.254l2.912-14a28.805,28.805,0,0,1,1.66-5.848c.676-1.514,1.611-2.912,2.356-4.386a19.374,19.374,0,0,0,1.817-5.612,3.719,3.719,0,0,0-.023-1.718,3.977,3.977,0,0,0-2.152-2,62.526,62.526,0,0,0-17.23-6.043C753.815,322.71,753.893,324.317,753.162,325.916Z" transform="translate(-515.487 -253.417)" fill="#e3e8f4"/><path d="M800.248,237.309c1.456-2.79,4.179-4.747,5.761-7.473a11.047,11.047,0,0,0,.355-10.194,36.886,36.886,0,0,1-1.747-3.367c-.486-1.351-.533-2.84-1.1-4.162a7.7,7.7,0,0,0-4.264-3.868,22.844,22.844,0,0,0-5.746-1.284l-6.617-.891a7.28,7.28,0,0,0-2.883,0,2.445,2.445,0,0,0-1.876,1.983c-.09,1.145.915,2.211.682,3.335-.084.4-.318.8-.184,1.182a1.2,1.2,0,0,0,.583.582c1.57.874,3.445.952,5.146,1.523s3.408,2,3.236,3.786c-.093.958-.711,1.954-.291,2.813.4.8,1.456.941,2.3,1.188a6.159,6.159,0,0,1,4.238,6.553c-.122.874-.437,1.71-.5,2.586-.213,3.07.271,3.946,2.778,5.732Z" transform="translate(-563.782 -173.197)" fill="#3f3d56"/><path d="M880.677,336.95a4.249,4.249,0,0,1-.312,1.7c-.909,1.937-3.69,1.814-5.534,2.912-2.295,1.369-2.8,4.424-3.011,7.086a31.867,31.867,0,0,0,.215,9.029,12.141,12.141,0,0,0,4.584,7.572c3.02,2.1,7.127,2.173,10.575.894a23.628,23.628,0,0,0,8.828-6.454,28.132,28.132,0,0,0,5.767-8.673,2.763,2.763,0,0,0,.242-1.782c-.271-.874-1.223-1.27-2-1.747a8.816,8.816,0,0,1-3.641-5.009,21.754,21.754,0,0,1-.751-6.265c-.023-2.193-.029-4.59-1.427-6.282s-3.821-2.167-6.029-2.149c-1.806,0-6.8.172-8.035,1.747C879.139,330.837,880.75,335.074,880.677,336.95Z" transform="translate(-627.199 -259.564)" fill="#be6f72"/><path d="M880.677,336.95a4.249,4.249,0,0,1-.312,1.7c-.909,1.937-3.69,1.814-5.534,2.912-2.295,1.369-2.8,4.424-3.011,7.086a31.867,31.867,0,0,0,.215,9.029,12.141,12.141,0,0,0,4.584,7.572c3.02,2.1,7.127,2.173,10.575.894a23.628,23.628,0,0,0,8.828-6.454,28.132,28.132,0,0,0,5.767-8.673,2.763,2.763,0,0,0,.242-1.782c-.271-.874-1.223-1.27-2-1.747a8.816,8.816,0,0,1-3.641-5.009,21.754,21.754,0,0,1-.751-6.265c-.023-2.193-.029-4.59-1.427-6.282s-3.821-2.167-6.029-2.149c-1.806,0-6.8.172-8.035,1.747C879.139,330.837,880.75,335.074,880.677,336.95Z" transform="translate(-627.199 -259.564)" opacity="0.1"/><path d="M845.485,575.872a2.49,2.49,0,0,0,.606,1.188,2.406,2.406,0,0,0,.982.463c9.559,2.8,19.77,1.686,29.666.542a56.557,56.557,0,0,1-3.093-12.62c-.312-3.568.038-7.281-1.226-10.627-.373-.99-22.1,3.568-24.243,3.938-1.1.189-2.362.125-3.14,1-.938,1.054-1.016,3.565-1.115,4.878A32.056,32.056,0,0,0,845.485,575.872Z" transform="translate(-607.536 -420.38)" fill="#be6f72"/><path d="M873.283,717.951c-1.747.81-3.55,1.564-5.417,2.24q-1.514.551-3.093,1.031c-1.724.524-3.495.981-5.344,1.357q-1.581-4.01-3.166-8.024c-.778-1.969-1.555-3.946-2.2-5.959a37.327,37.327,0,0,1-1.113-4.191,29.9,29.9,0,0,1,.722-14.5c4.037.76,7.983,1.255,11.958,1.832,2.123.291,4.252.635,6.407,1.04q.253,2.106.46,4.212.315,3.25.516,6.5Q873.455,710.716,873.283,717.951Z" transform="translate(-613.57 -516.227)" fill="#be6f72"/><path d="M873.283,717.951c-1.747.81-3.55,1.564-5.417,2.24q-1.514.551-3.093,1.031c-1.724.524-3.495.981-5.344,1.357q-1.581-4.01-3.166-8.024c-.778-1.969-1.555-3.946-2.2-5.959a37.327,37.327,0,0,1-1.113-4.191,29.9,29.9,0,0,1,.722-14.5c4.037.76,7.983,1.255,11.958,1.832,2.123.291,4.252.635,6.407,1.04q.253,2.106.46,4.212.315,3.25.516,6.5Q873.455,710.716,873.283,717.951Z" transform="translate(-613.57 -516.227)" opacity="0.1"/><path d="M928.057,721.859a18.867,18.867,0,0,1-.9,5.036c-.032.116-.061.23-.09.347a4.8,4.8,0,0,1-2.572-1.928,5.508,5.508,0,0,1-.69-1.616q-1.977,1.346-3.99,2.665a109.375,109.375,0,0,1-14.157,8.117c-1.747.81-3.55,1.564-5.417,2.24q-.582-2.039-1.107-4.1a38,38,0,0,1-.9-4.308,21.877,21.877,0,0,1,.967-9.8h0l.131-.379a21.424,21.424,0,0,1,1.908-4.016c.725-1.165,2.161-.97,3.626-.583.664.172,1.337.379,1.948.507,3.807.8,7.759-.026,11.65.192a13.925,13.925,0,0,1,5.344,1.36,7.338,7.338,0,0,1,3.973,4.369,6.517,6.517,0,0,1,.192.874A7.739,7.739,0,0,1,928.057,721.859Z" transform="translate(-645.947 -532.754)" fill="#be6f72"/><path d="M661.905,220.305a135.4,135.4,0,0,0-19.842-15.378,54.5,54.5,0,0,1-5.242-3.737c-1.747-1.456-3.271-3.166-5.126-4.476a8.554,8.554,0,0,0-6.378-1.779c-2.228.431-4.208,2.563-3.882,4.794.291,1.963,2.056,3.309,3.687,4.436a79.131,79.131,0,0,0,9.547,5.95,29.921,29.921,0,0,1,3.387,1.806,25.407,25.407,0,0,1,5.2,5.455A75.849,75.849,0,0,0,664.8,235.723c.1.058,3.544-7.377,3.4-8.341C667.881,225.166,663.489,221.843,661.905,220.305Z" transform="translate(-449.862 -165.333)" fill="#be6f72"/><path d="M870.6,605.426c-4.642.291-9.1,1.858-13.636,2.857s-9.474,1.386-13.688-.582l2.563,17.5a8.12,8.12,0,0,1,.079,2.927,11,11,0,0,0-.658,2.711c.067,1.479,1.456,2.519,2.764,3.2a24.713,24.713,0,0,0,12.349,2.846c-.318,1.281-.714,2.548-1.034,3.83,2.141,2.3,5.641,2.452,8.7,3.18,2.33.55,4.514,1.506,6.8,2.179a29.017,29.017,0,0,0,8.507,1.185,8.843,8.843,0,0,0,5.51-1.5c1.855-1.494,2.432-4.034,2.834-6.381a14.519,14.519,0,0,0,.291-3.961,15.7,15.7,0,0,0-1.322-4.369l-3.99-9.684c-.725-1.747-1.456-3.521-2.33-5.207C881.482,610.7,876.747,605.044,870.6,605.426Z" transform="translate(-607.122 -456.335)" fill="#3f3d56"/><path d="M806.754,328.1a4.369,4.369,0,0,1,4.573-2.787,8.489,8.489,0,0,1,3.2,1.424l5.563,3.472a24.257,24.257,0,0,1,2.647,1.823c3.836,3.18,5.315,8.408,5.737,13.374s0,10.016.987,14.9c-2.347,1.945-4.951,3.591-7.3,5.534a18.341,18.341,0,0,0-3.4,3.346c-.74,1.028-1.267,2.2-2.039,3.2a7.706,7.706,0,0,1-5.106,2.837,5.535,5.535,0,0,1,2.33,3.606c.344,1.43.437,2.912.818,4.342.524,1.943,1.611,3.716,1.969,5.7a35.842,35.842,0,0,1,.23,4.153c.454,7.173,6.084,13.444,5.72,20.62a31.269,31.269,0,0,1-7.473-3.929c-1.037-.743-2.039-1.547-3.02-2.347l-7.418-6.014a61.651,61.651,0,0,1-10.121-9.547c-1.8-2.3-3.268-4.835-5.073-7.124a15.507,15.507,0,0,0-6.786-5.33c-.4.609-1.124,1.031-1.529,1.64a1.217,1.217,0,0,0-.169.315,1.378,1.378,0,0,0,.1.8,16.736,16.736,0,0,1,.582,3.608l.183,2.19a7.451,7.451,0,0,1,0,1.747,4.6,4.6,0,0,1-3.885,3.617,1.69,1.69,0,0,1-.818-.026,1.751,1.751,0,0,1-.967-1.249c-.737-2.487.393-5.111.483-7.7a18.5,18.5,0,0,0-.067-1.969l-.175-2.583c-1.692-.352-2.665-2.17-3.113-3.839-1.212-4.506-2.432-9.168-1.73-13.782a11.51,11.51,0,0,0,.291-3.722c-.291-1.651-1.48-2.991-2.106-4.546-2.039-5.071,2.292-10.575,1.89-16.018-.169-2.286-1.619-4.273-2.493-6.393a18.054,18.054,0,0,0-1.748-3.527,19.52,19.52,0,0,0-3.262-3.317A124.575,124.575,0,0,1,754.013,314.5a7.573,7.573,0,0,1-4.412-2.021,4.059,4.059,0,0,1-1.421-2.746A2.145,2.145,0,0,1,750,307.513a6.885,6.885,0,0,1,1.8.408c1.887.414,3.786-.976,4.628-2.72a12.743,12.743,0,0,0,.827-5.685,5.452,5.452,0,0,1,5.047,1.768,31.985,31.985,0,0,1,3.175,4.806A7.447,7.447,0,0,0,767.055,308c1.4,1.113,3.419,1.322,4.642,2.621.62.664.964,1.544,1.532,2.254,1.6,2,4.517,2.245,6.7,3.562s3.7,3.722,6.116,4.5c.874.291,1.826.329,2.691.652a6.027,6.027,0,0,1,3.495,4.977,18.045,18.045,0,0,1-.673,6.326l-1.121,4.867c-.248,1.078-.437,2.374.358,3.143a3.239,3.239,0,0,0,1.29.649c2.039.664,4.31,1.316,6.227.376a7.364,7.364,0,0,0,2.266-1.98C803.419,336.6,805.309,332.216,806.754,328.1Z" transform="translate(-539.719 -239.473)" fill="#6c63ff"/><path d="M997.9,672.6a8.653,8.653,0,0,1-4.272,6.506,6.116,6.116,0,0,1-4.628.32,4.8,4.8,0,0,1-2.572-1.928,5.509,5.509,0,0,1-.69-1.616.5.5,0,0,0-.02-.09,12.813,12.813,0,0,1-.271-3.137,40.931,40.931,0,0,1,.291-4.89,26.491,26.491,0,0,1,.8-4.042c.542-1.89,1.322-3.71,2.039-5.534.373-.961.731-1.925,1.025-2.913h0c.178-.582.329-1.182.451-1.788l.044-.218c.023-.122.044-.245.064-.367a17.44,17.44,0,0,1,1.124-4.878c1.747-3.521,5.149-2.621,5.668.626a5.724,5.724,0,0,1,.067.76c.079,4.109-1.552,8.126-.807,12.25a28.525,28.525,0,0,0,.792,2.977c.262.9.5,1.812.679,2.735A15.542,15.542,0,0,1,997.9,672.6Z" transform="translate(-707.879 -484.943)" fill="#be6f72"/><path d="M993.583,521.365a32.652,32.652,0,0,0,.338,5.039c.789,3.9,3.786,7.357,3.454,11.324a3.057,3.057,0,0,1-1.284,2.484c-.845.478-2.243.44-2.519,1.4-.079.268-.038.559-.125.824a1.439,1.439,0,0,1-1.456.792,16.01,16.01,0,0,0-1.768-.157c-2.111.178-2.886,3-4.768,3.973a3.6,3.6,0,0,1-3.958-.673,4.93,4.93,0,0,1-1.421-3.891,28.9,28.9,0,0,1,.582-3.172,22,22,0,0,0-.015-5.737,34.688,34.688,0,0,0-1.436-8.286c-.434-1.252-1.011-2.449-1.386-3.719a21.63,21.63,0,0,1-.714-5.56c-.114-3.94.157-8.155,2.51-11.324,1.768-2.377,4.3-4.307,6.3-6.506,1.252-1.378,1.613-1.809,3-.641,1.139.958,2.33,2.28,2.458,3.579.349,3.329,0,6.6.623,9.993A76.721,76.721,0,0,1,993.583,521.365Z" transform="translate(-701.959 -379.401)" fill="#6c63ff"/><ellipse cx="14.853" cy="14.853" rx="14.853" ry="14.853" transform="translate(246.564 48.111)" fill="#be6f72"/><path d="M911.3,285.1a1.661,1.661,0,0,1,2.473-.792l3.911,1.634a12.768,12.768,0,0,0,1.817-5.755,29.675,29.675,0,0,1,.221-3.745c.355-1.823,1.436-3.457,1.686-5.3a16.284,16.284,0,0,0-.376-4.462c-.664-4.578.049-9.25-.332-13.86s-2.231-9.55-6.343-11.667a38.539,38.539,0,0,0-3.632-1.392c-2.7-1.028-5.12-2.674-7.788-3.786s-5.8-1.622-8.388-.344-4.092,4.875-2.411,7.223a8.811,8.811,0,0,0,2.138,1.876c1.576,1.127,3.183,2.519,3.547,4.424.652,3.428-2.912,6.116-3.917,9.468a8.05,8.05,0,0,0-.1,4.016c.434,1.986,1.494,3.862,1.456,5.895-.029,2.228-1.363,4.246-1.614,6.463-.09.813-.035,1.637-.137,2.446a12.62,12.62,0,0,1-.941,3.1c-2.33,5.825-4.692,11.711-8.155,16.947a22.446,22.446,0,0,0,10.668-2.493,17.631,17.631,0,0,1-2.671,6.273,20.212,20.212,0,0,0,8.347-2.912,27.121,27.121,0,0,1-2.65,6.294c.1-.169,1.931-.582,2.269-.775a3.954,3.954,0,0,0,1.6-1.71c.99-1.771,1.608-3.906,2.525-5.746A83.685,83.685,0,0,1,911.3,285.1Z" transform="translate(-636.281 -193.719)" fill="#3f3d56"/><g transform="translate(105.88 68.018)"><path d="M486.274,264.765l-.1.7-.589,4.31-.964,7.057-.241,1.767a.563.563,0,0,1-.558.487H477.4a.563.563,0,0,1-.558-.485l-.246-1.768-.98-7.057-.6-4.313-.1-.694a.563.563,0,0,1,.557-.641h10.239a.563.563,0,0,1,.558.639Z" transform="translate(-473.584 -262.256)" fill="#6c63ff"/><path d="M504.542,235.646v.423a.563.563,0,0,1-.563.563h-8.916a.563.563,0,0,1-.563-.563v-.422A52.875,52.875,0,0,0,504.542,235.646Z" transform="translate(-492.492 -234.762)" opacity="0.1"/><path d="M486.248,264.49h0a.564.564,0,0,0-.057-.11h0l-.021-.03-.008-.01a.57.57,0,0,0-.072-.075l-.018-.015-.021-.016-.027-.018L486,264.2l-.035-.019-.017-.008-.035-.014-.014-.005-.051-.014-.013,0-.043-.007-.016,0a.55.55,0,0,0-.056,0H475.483a.565.565,0,0,0-.557.64l.016.117.08.577h0l.6,4.313h0l.786,5.661.44,3.165a.563.563,0,0,0,.558.486h.305a.564.564,0,0,1-.032-.122l-.3-2.132h7.25l.964-7.057H476.4l-.589-4.244a59.5,59.5,0,0,0,10.373-.066l.1-.7A.559.559,0,0,0,486.248,264.49Z" transform="translate(-473.59 -262.256)" opacity="0.1"/><path d="M450,239a59.593,59.593,0,0,1-12.932,0,.563.563,0,0,1-.563-.563v-.744a.563.563,0,0,1,.563-.563,52.987,52.987,0,0,0,12.932,0,.563.563,0,0,1,.563.563v.744A.563.563,0,0,1,450,239Z" transform="translate(-436.5 -236.191)" fill="#2f2e41"/><path d="M486.532,441.17h-8.656a.326.326,0,0,1-.322-.275L476.618,435a.327.327,0,0,1,.322-.378H487.53a.326.326,0,0,1,.322.381l-1,5.892A.327.327,0,0,1,486.532,441.17Z" transform="translate(-475.225 -426.852)" fill="#2f2e41"/><path d="M.935,0H9.107a.935.935,0,1,1,0,1.87H.935A.935.935,0,0,1,.935,0Z" transform="translate(2.008 0)" fill="#2f2e41"/></g><g transform="translate(142.715 112.766)" opacity="0.2"><path d="M566.224,739.638a5.527,5.527,0,0,1-.108.935q-3.041-.483-6.116-.874v-.25a4.916,4.916,0,0,1,.728-2.47,2.709,2.709,0,0,1,4.931.151,4.913,4.913,0,0,1,.565,2.508Z" transform="translate(-549.061 -661.281)" fill="#3f3d56"/><ellipse cx="4.08" cy="3.116" rx="4.08" ry="3.116" transform="translate(10.968 77.266) rotate(-88.19)" fill="#3f3d56"/><ellipse cx="4.08" cy="3.116" rx="4.08" ry="3.116" transform="translate(11.127 72.28) rotate(-88.19)" fill="#3f3d56"/><ellipse cx="4.08" cy="3.116" rx="4.08" ry="3.116" transform="translate(11.283 67.294) rotate(-88.19)" fill="#3f3d56"/><ellipse cx="4.08" cy="3.116" rx="4.08" ry="3.116" transform="translate(11.442 62.307) rotate(-88.19)" fill="#3f3d56"/><path d="M526.526,504.572a14.447,14.447,0,0,1-1.107-1.747l8.231-1.086-8.86-.213a14.965,14.965,0,0,1,.09-11.836l11.685,6.538-10.7-8.4A14.935,14.935,0,1,1,549.989,505.3a14.79,14.79,0,0,1,1.616,2.776l-10.8,5.184,11.455-3.445a14.953,14.953,0,0,1-2.86,13.953,14.935,14.935,0,1,1-23.463-.74,14.935,14.935,0,0,1,.583-18.459Z" transform="translate(-522.44 -480.747)" fill="#6c63ff"/><path d="M552.893,596.54a14.854,14.854,0,0,1-3.495,9.128,14.935,14.935,0,1,1-23.463-.74C524.022,602.327,552.945,594.866,552.893,596.54Z" transform="translate(-522.44 -562.645)" opacity="0.1"/></g><path d="M227.025,342.529c-3.131,1.29-4.369,5.3-3.635,8.606s2.944,6.055,5.1,8.673l6.04,7.368c1.669,2.039,3.495,4.185,6.04,4.9,3.722,1.04,7.444-1.331,10.662-3.474A160.621,160.621,0,0,1,281.86,352.65a10.3,10.3,0,0,0,2.994-1.549,5.52,5.52,0,0,0,1.3-6.407,6.415,6.415,0,0,0-5.67-3.512,7.662,7.662,0,0,0-6.035,3.1c-.673.894-1.165,1.916-1.814,2.825-1.643,2.283-4.206,3.7-6.713,4.972a171.442,171.442,0,0,1-18.64,8.155c-1.165.425-2.479.83-3.577.268a4.343,4.343,0,0,1-1.535-1.643,40.792,40.792,0,0,1-4.4-9.372c-.8-2.476-1.439-5.173-3.349-6.932a6.67,6.67,0,0,0-9.643,1.165s-2.379,3.48-.923,4.937S227.025,342.529,227.025,342.529Z" transform="translate(-167.626 -268.935)" fill="#fbbebe"/><g transform="translate(139.574 21.646) rotate(-13)"><path d="M11.36.766l-.1.837-.589,5.164-.964,8.456L9.471,17.34a.608.608,0,0,1-.558.583H2.484a.608.608,0,0,1-.558-.582l-.246-2.119L.7,6.767.1,1.6.005.768A.769.769,0,0,1,.138.232.529.529,0,0,1,.563,0H10.8a.529.529,0,0,1,.424.231A.769.769,0,0,1,11.36.766Z" transform="translate(1.33 1.87)" fill="#6c63ff"/><rect width="10.042" height="1.87" rx="0.935" transform="translate(2.008 0)" fill="#2f2e41"/><path d="M10.042,0V.423a.563.563,0,0,1-.563.563H.563A.563.563,0,0,1,0,.423V0A52.875,52.875,0,0,0,10.042,0Z" transform="translate(2.008 0.884)" opacity="0.1"/><path d="M11.327.436h0A.732.732,0,0,0,11.27.3h0L11.249.266,11.241.255a.644.644,0,0,0-.072-.09L11.152.147,11.131.128,11.1.106,11.082.09,11.046.067l-.017-.01L10.994.041,10.98.035a.493.493,0,0,0-.051-.017l-.013,0L10.874.006l-.016,0A.474.474,0,0,0,10.8,0H.563A.531.531,0,0,0,.139.232.771.771,0,0,0,.005.767l.016.14L.1,1.6h0L.7,6.767h0l.786,6.783.44,3.792a.608.608,0,0,0,.558.582h.305a.783.783,0,0,1-.032-.146l-.3-2.554h7.25l.964-8.456H1.481L.892,1.682A49.7,49.7,0,0,0,11.264,1.6l.1-.837A.794.794,0,0,0,11.327.436Z" transform="translate(1.33 1.87)" opacity="0.1"/><path d="M13.5,1.87a59.592,59.592,0,0,1-12.932,0A.563.563,0,0,1,0,1.307V.563A.563.563,0,0,1,.563,0,52.986,52.986,0,0,0,13.5,0a.563.563,0,0,1,.563.563v.744A.563.563,0,0,1,13.5,1.87Z" transform="translate(0 0.935)" fill="#2f2e41"/><path d="M9.918,6.544H1.262a.326.326,0,0,1-.322-.275L0,.378A.326.326,0,0,1,.326,0H10.915a.326.326,0,0,1,.322.381l-1,5.892A.326.326,0,0,1,9.918,6.544Z" transform="translate(1.389 8.476)" fill="#2f2e41"/></g><g transform="translate(155.021 12.697) rotate(-1)"><path d="M11.36.766l-.1.837-.589,5.164-.964,8.456L9.471,17.34a.608.608,0,0,1-.558.583H2.484a.608.608,0,0,1-.558-.582l-.246-2.119L.7,6.767.1,1.6.005.768A.769.769,0,0,1,.138.232.529.529,0,0,1,.563,0H10.8a.529.529,0,0,1,.424.231A.769.769,0,0,1,11.36.766Z" transform="translate(1.33 1.87)" fill="#6c63ff"/><rect width="10.042" height="1.87" rx="0.935" transform="translate(2.008 0)" fill="#2f2e41"/><path d="M10.042,0V.423a.563.563,0,0,1-.563.563H.563A.563.563,0,0,1,0,.423V0A52.876,52.876,0,0,0,10.042,0Z" transform="translate(2.008 0.884)" opacity="0.1"/><path d="M11.327.436h0A.732.732,0,0,0,11.27.3h0L11.249.266,11.241.255a.644.644,0,0,0-.072-.09L11.152.147,11.131.128,11.1.106,11.082.09,11.046.067l-.017-.01L10.994.041,10.98.035a.49.49,0,0,0-.051-.017l-.013,0L10.874.006l-.016,0A.474.474,0,0,0,10.8,0H.563A.531.531,0,0,0,.139.232.771.771,0,0,0,.005.767l.016.14L.1,1.6h0L.7,6.767h0l.786,6.783.44,3.792a.608.608,0,0,0,.558.582h.305a.783.783,0,0,1-.032-.146l-.3-2.554h7.25l.964-8.456H1.481L.892,1.682A49.7,49.7,0,0,0,11.264,1.6l.1-.837A.794.794,0,0,0,11.327.436Z" transform="translate(1.33 1.87)" opacity="0.1"/><path d="M13.5,1.87a59.592,59.592,0,0,1-12.932,0A.563.563,0,0,1,0,1.307V.563A.563.563,0,0,1,.563,0,52.986,52.986,0,0,0,13.5,0a.563.563,0,0,1,.563.563v.744A.563.563,0,0,1,13.5,1.87Z" transform="translate(0 0.935)" fill="#2f2e41"/><path d="M9.918,6.544H1.262a.326.326,0,0,1-.322-.275L0,.378A.326.326,0,0,1,.326,0H10.915a.326.326,0,0,1,.322.381l-1,5.892A.326.326,0,0,1,9.918,6.544Z" transform="translate(1.389 8.476)" fill="#2f2e41"/></g><g transform="translate(171.761 23.103) rotate(-1)"><path d="M11.36.766l-.1.837-.589,5.164-.964,8.456L9.471,17.34a.608.608,0,0,1-.558.583H2.484a.608.608,0,0,1-.558-.582l-.246-2.119L.7,6.767.1,1.6.005.768A.769.769,0,0,1,.138.232.529.529,0,0,1,.563,0H10.8a.529.529,0,0,1,.424.231A.769.769,0,0,1,11.36.766Z" transform="translate(1.33 1.87)" fill="#6c63ff"/><rect width="10.042" height="1.87" rx="0.935" transform="translate(2.008 0)" fill="#2f2e41"/><path d="M10.042,0V.423a.563.563,0,0,1-.563.563H.563A.563.563,0,0,1,0,.423V0A52.876,52.876,0,0,0,10.042,0Z" transform="translate(2.008 0.884)" opacity="0.1"/><path d="M11.327.436h0A.732.732,0,0,0,11.27.3h0L11.249.266,11.241.255a.644.644,0,0,0-.072-.09L11.152.147,11.131.128,11.1.106,11.082.09,11.046.067l-.017-.01L10.994.041,10.98.035a.49.49,0,0,0-.051-.017l-.013,0L10.874.006l-.016,0A.474.474,0,0,0,10.8,0H.563A.531.531,0,0,0,.139.232.771.771,0,0,0,.005.767l.016.14L.1,1.6h0L.7,6.767h0l.786,6.783.44,3.792a.608.608,0,0,0,.558.582h.305a.783.783,0,0,1-.032-.146l-.3-2.554h7.25l.964-8.456H1.481L.892,1.682A49.7,49.7,0,0,0,11.264,1.6l.1-.837A.794.794,0,0,0,11.327.436Z" transform="translate(1.33 1.87)" opacity="0.1"/><path d="M13.5,1.87a59.592,59.592,0,0,1-12.932,0A.563.563,0,0,1,0,1.307V.563A.563.563,0,0,1,.563,0,52.986,52.986,0,0,0,13.5,0a.563.563,0,0,1,.563.563v.744A.563.563,0,0,1,13.5,1.87Z" transform="translate(0 0.935)" fill="#2f2e41"/><path d="M9.918,6.544H1.262a.326.326,0,0,1-.322-.275L0,.378A.326.326,0,0,1,.326,0H10.915a.326.326,0,0,1,.322.381l-1,5.892A.326.326,0,0,1,9.918,6.544Z" transform="translate(1.389 8.476)" fill="#2f2e41"/></g></g><path d="M317.9,216.638a16.377,16.377,0,0,1-12.292,0c1.243-2.122-.615-3.784-1.569-5.926L320,210.237C318.777,212.1,316.977,214.3,317.9,216.638Z" transform="translate(-177.649 79.997)" fill="#fff"/><path d="M0,0H4.283V.292H0Z" transform="matrix(0.537, -0.844, 0.844, 0.537, 141.559, 290.843)" fill="#fff"/><rect width="0.292" height="6.051" transform="translate(122.638 287.758) rotate(-50.195)" fill="#fff"/><rect width="0.292" height="7.9" transform="translate(122.228 291.215) rotate(-47)" fill="#fff"/><path d="M314.974,215.851c-.294.367-5.274,4.891-9.574,3.069,1.251-2.475-.4-5.718-1.356-8.216l13.307-.649A15.241,15.241,0,0,1,314.974,215.851Z" transform="translate(-204.794 81.939)" fill="#fff"/><rect width="0.292" height="6.051" transform="translate(96.398 297.258) rotate(-50.195)" fill="#fff"/><path d="M0,0,.274,0l.031,2.6L0,2.884Z" transform="translate(96.755 293.367) rotate(-99)" fill="#fff"/><rect width="0.292" height="6.051" transform="translate(122.638 287.758) rotate(-50.195)" fill="#fff"/><rect width="0.292" height="7.9" transform="translate(122.228 291.215) rotate(-47)" fill="#fff"/><path d="M314.974,215.851c-.294.367-5.274,4.891-9.574,3.069,1.251-2.475-.4-5.718-1.356-8.216l13.307-.649A15.241,15.241,0,0,1,314.974,215.851Z" transform="translate(-204.794 81.939)" fill="#fff"/><rect width="0.292" height="6.051" transform="translate(96.398 297.258) rotate(-50.195)" fill="#fff"/><path d="M0,0,.274,0l.031,2.6L0,2.884Z" transform="translate(96.755 293.367) rotate(-99)" fill="#fff"/><path d="M306.887,220.6c.352.668,6.307,8.9,11.448,5.583-1.5-4.5.473-10.4,1.621-14.949l-15.911-1.181C303.983,211.506,305.723,218.74,306.887,220.6Z" transform="translate(-37.367 81.108)" fill="#fff"/><path d="M.01,8H.359L.349,0H0Z" transform="matrix(-0.64, -0.768, 0.768, -0.64, 280.44, 307.435)" fill="#fff"/><path d="M0,4.545l.328,0L.367.44,0,0Z" transform="translate(281.273 292.745) rotate(-93)" fill="#fff"/><path d="M306.887,220.6c.352.668,6.307,8.9,11.448,5.583-1.5-4.5.473-10.4,1.621-14.949l-15.911-1.181C303.983,211.506,305.723,218.74,306.887,220.6Z" transform="translate(-37.367 81.108)" fill="#fff"/><path d="M.01,8H.359L.349,0H0Z" transform="matrix(-0.64, -0.768, 0.768, -0.64, 280.44, 307.435)" fill="#fff"/><path d="M0,4.545l.328,0L.367.44,0,0Z" transform="translate(281.273 292.745) rotate(-93)" fill="#fff"/><path d="M306.887,217c.352.44,6.307,5.864,11.448,3.679-1.5-2.967.473-6.856,1.621-9.851l-15.911-.778C303.983,211.011,305.723,215.778,306.887,217Z" transform="translate(-68.584 71.946)" fill="#fff"/><path d="M.01,8H.359L.349,0H0Z" transform="matrix(-0.64, -0.768, 0.768, -0.64, 249.223, 292.957)" fill="#fff"/><path d="M0,4.545l.328,0L.367.44,0,0Z" transform="translate(250.948 283.107) rotate(-81)" fill="#fff"/><path d="M306.887,217c.352.44,6.307,5.864,11.448,3.679-1.5-2.967.473-6.856,1.621-9.851l-15.911-.778C303.983,211.011,305.723,215.778,306.887,217Z" transform="translate(-68.584 71.946)" fill="#fff"/><path d="M.01,8H.359L.349,0H0Z" transform="matrix(-0.64, -0.768, 0.768, -0.64, 249.223, 292.957)" fill="#fff"/><path d="M0,4.545l.328,0L.367.44,0,0Z" transform="translate(250.948 283.107) rotate(-81)" fill="#fff"/></g></svg>