<svg xmlns="http://www.w3.org/2000/svg" xmlns:xlink="http://www.w3.org/1999/xlink" width="1920" height="1080" viewBox="0 0 1920 1080"><defs><linearGradient id="a" x1="0.509" y1="0.997" x2="0.509" y2="-0.003" gradientUnits="objectBoundingBox"><stop offset="0" stop-color="gray" stop-opacity="0.251"/><stop offset="0.54" stop-color="gray" stop-opacity="0.122"/><stop offset="1" stop-color="gray" stop-opacity="0.102"/></linearGradient><linearGradient id="b" x1="0.813" y1="0.841" x2="0.813" y2="-0.159" xlink:href="#a"/><linearGradient id="c" x1="1.78" y1="0.849" x2="1.78" y2="-0.151" xlink:href="#a"/><linearGradient id="d" x1="0.5" y1="1" x2="0.5" y2="0" xlink:href="#a"/><linearGradient id="f" x1="0.5" y1="0.999" x2="0.5" y2="-0.001" xlink:href="#a"/><clipPath id="h"><rect width="1920" height="1080"/></clipPath></defs><g id="g" clip-path="url(#h)"><g transform="translate(550 150)"><rect width="437.02" height="603.82" transform="matrix(0.978, -0.21, 0.21, 0.978, 69.121, 135.49)" fill="#e0e0e0"/><g opacity="0.5"><rect width="422.25" height="583.41" transform="matrix(0.978, -0.21, 0.21, 0.978, 78.489, 143.922)" fill="url(#a)"/></g><rect width="411.5" height="570.52" transform="matrix(0.978, -0.21, 0.21, 0.978, 84.64, 146.994)" fill="#fafafa"/><rect width="204.14" height="49.45" transform="matrix(0.978, -0.21, 0.21, 0.978, 181.351, 100.947)" fill="url(#b)"/><path d="M460.93,91.9c-15.41,3.31-25.16,18.78-21.77,34.55s18.62,25.89,34,22.58,25.16-18.78,21.77-34.55S476.34,88.59,460.93,91.9ZM470.6,137a16.86,16.86,0,1,1,12.56-20,16.66,16.66,0,0,1-12.56,20Z" transform="translate(-189.92 -59.59)" fill="url(#c)"/><rect width="199.84" height="47.27" transform="matrix(0.978, -0.21, 0.21, 0.978, 183.008, 98.422)" fill="#6c63ff"/><path d="M460.93,91.9a27.93,27.93,0,1,0,33.17,21.45A27.93,27.93,0,0,0,460.93,91.9Zm9.24,43.1a16.12,16.12,0,1,1,12.38-19.14A16.12,16.12,0,0,1,470.17,135Z" transform="translate(-189.92 -59.59)" fill="#6c63ff"/><rect width="437.02" height="603.82" transform="translate(257.89 116.91)" fill="#e0e0e0"/><g opacity="0.5"><rect width="422.25" height="583.41" transform="translate(265.28 127.12)" fill="url(#d)"/></g><rect width="411.5" height="570.52" transform="translate(270.65 131.42)" fill="#fff"/><rect width="204.14" height="49.45" transform="translate(374.87 106.68)" fill="url(#d)"/><path d="M666.86,118c-15.76,0-28.54,13.08-28.54,29.22s12.78,29.22,28.54,29.22,28.54-13.08,28.54-29.22S682.62,118,666.86,118Zm0,46.08a16.86,16.86,0,1,1,16.46-16.86A16.66,16.66,0,0,1,666.86,164Z" transform="translate(-189.92 -59.59)" fill="url(#f)"/><rect width="199.84" height="47.27" transform="translate(377.02 104.56)" fill="#6c63ff"/><path d="M666.86,118a27.93,27.93,0,1,0,27.93,27.93A27.93,27.93,0,0,0,666.86,118Zm0,44.05a16.155,16.155,0,1,0,0-.05Z" transform="translate(-189.92 -59.59)" fill="#6c63ff"/><g opacity="0.5"><rect width="3.76" height="21.33" transform="translate(15.27 737.05)" fill="#47e6b1"/><rect width="3.76" height="21.33" transform="translate(27.82 745.84) rotate(90)" fill="#47e6b1"/></g><g opacity="0.5"><rect width="3.76" height="21.33" transform="translate(451.49)" fill="#47e6b1"/><rect width="3.76" height="21.33" transform="translate(464.04 8.78) rotate(90)" fill="#47e6b1"/></g><path d="M961,832.15a4.61,4.61,0,0,1-2.57-5.57,2.22,2.22,0,0,0,.1-.51h0a2.31,2.31,0,0,0-4.15-1.53h0a2.222,2.222,0,0,0-.26.45,4.61,4.61,0,0,1-5.57,2.57,2.217,2.217,0,0,0-.51-.1h0a2.31,2.31,0,0,0-1.53,4.15h0a2.221,2.221,0,0,0,.45.26,4.61,4.61,0,0,1,2.57,5.57,2.221,2.221,0,0,0-.1.51h0a2.31,2.31,0,0,0,4.15,1.53h0a2.219,2.219,0,0,0,.26-.45,4.61,4.61,0,0,1,5.57-2.57,2.225,2.225,0,0,0,.51.1h0a2.31,2.31,0,0,0,1.53-4.15h0a2.222,2.222,0,0,0-.45-.26Z" transform="translate(-189.92 -59.59)" fill="#4d8af0" opacity="0.5"/><path d="M326.59,627.09a4.61,4.61,0,0,1-2.57-5.57,2.219,2.219,0,0,0,.1-.51h0a2.31,2.31,0,0,0-4.15-1.53h0a2.224,2.224,0,0,0-.26.45,4.61,4.61,0,0,1-5.57,2.57,2.217,2.217,0,0,0-.51-.1h0a2.31,2.31,0,0,0-1.53,4.15h0a2.217,2.217,0,0,0,.45.26,4.61,4.61,0,0,1,2.57,5.57,2.219,2.219,0,0,0-.1.51h0a2.31,2.31,0,0,0,4.15,1.53h0a2.224,2.224,0,0,0,.26-.45A4.61,4.61,0,0,1,325,631.4a2.218,2.218,0,0,0,.51.1h0a2.31,2.31,0,0,0,1.53-4.15h0a2.221,2.221,0,0,0-.45-.26Z" transform="translate(-189.92 -59.59)" fill="#fdd835" opacity="0.5"/><path d="M855,127.77a4.61,4.61,0,0,1-2.57-5.57,2.218,2.218,0,0,0,.1-.51h0a2.31,2.31,0,0,0-4.15-1.53h0a2.224,2.224,0,0,0-.26.45,4.61,4.61,0,0,1-5.57,2.57,2.22,2.22,0,0,0-.51-.1h0a2.31,2.31,0,0,0-1.53,4.15h0a2.22,2.22,0,0,0,.45.26,4.61,4.61,0,0,1,2.57,5.57,2.221,2.221,0,0,0-.1.51h0a2.31,2.31,0,0,0,4.15,1.53h0a2.219,2.219,0,0,0,.26-.45,4.61,4.61,0,0,1,5.57-2.57,2.22,2.22,0,0,0,.51.1h0a2.31,2.31,0,0,0,1.53-4.15h0a2.22,2.22,0,0,0-.45-.26Z" transform="translate(-189.92 -59.59)" fill="#fdd835" opacity="0.5"/><circle cx="7.53" cy="7.53" r="7.53" transform="translate(805.11 306.94)" fill="#f55f44" opacity="0.5"/><circle cx="7.53" cy="7.53" r="7.53" transform="translate(223.2 739.12)" fill="#f55f44" opacity="0.5"/><circle cx="7.53" cy="7.53" r="7.53" transform="translate(727.78 469.7)" fill="#f55f44" opacity="0.5"/><circle cx="7.53" cy="7.53" r="7.53" transform="translate(79.61 88.82)" fill="#4d8af0" opacity="0.5"/><circle cx="7.53" cy="7.53" r="7.53" transform="translate(0 294.23)" fill="#47e6b1" opacity="0.5"/></g></g></svg>