<svg xmlns="http://www.w3.org/2000/svg" xmlns:xlink="http://www.w3.org/1999/xlink" width="1920" height="1080" viewBox="0 0 1920 1080">
  <defs>
    <clipPath id="clip-NotFound">
      <rect width="1920" height="1080"/>
    </clipPath>
  </defs>
  <g id="NotFound" clip-path="url(#clip-NotFound)">
    <g id="Groupe_46" data-name="Groupe 46" transform="translate(423.999 248)">
      <path id="Tracé_615" data-name="Tracé 615" d="M583.48,324.894c-85.944,0-147.651,55.139-147.651,183.8,0,145.813,61.707,184.411,147.651,184.411S734.807,650.83,734.807,508.692C734.807,356.753,669.424,324.894,583.48,324.894Zm.565,319.808c-59.527,0-90.626-34.923-90.626-135.916,0-89.112,32.372-136.1,91.9-136.1s91.9,30.868,91.9,136.1c0,98.448-33.646,135.917-93.172,135.917Z" transform="translate(-63.054 -157.885)" fill="#2a2e43"/>
      <path id="Tracé_616" data-name="Tracé 616" d="M384.365,591.4H348.831V486.762a20.956,20.956,0,0,0-20.956-20.956h-8.326a20.956,20.956,0,0,0-20.956,20.956V591.4H198.363a11.963,11.963,0,0,1-10.578-17.552l106.082-200.78a20.956,20.956,0,0,0-9.58-28.739l-6.262-2.957a20.956,20.956,0,0,0-27.429,9.07L121.214,592.475a28.416,28.416,0,0,0-3.356,13.4h0a28.416,28.416,0,0,0,28.416,28.416H298.593v66.167a25.119,25.119,0,0,0,25.119,25.119h0a25.119,25.119,0,0,0,25.119-25.119V634.287h35.534a21.443,21.443,0,0,0,21.443-21.443h0A21.443,21.443,0,0,0,384.365,591.4Z" transform="translate(-63.054 -157.885)" fill="#2a2e43"/>
      <path id="Tracé_617" data-name="Tracé 617" d="M797.3,591.4h35.534V486.762a20.956,20.956,0,0,1,20.954-20.956h8.326a20.956,20.956,0,0,1,20.956,20.956V591.4H983.3a11.963,11.963,0,0,0,10.578-17.552L887.8,373.069a20.956,20.956,0,0,1,9.58-28.739l6.262-2.957a20.956,20.956,0,0,1,27.429,9.07l129.382,242.032a28.416,28.416,0,0,1,3.356,13.4h0a28.416,28.416,0,0,1-28.416,28.416H883.071v66.167a25.119,25.119,0,0,1-25.119,25.119h0a25.119,25.119,0,0,1-25.119-25.119V634.287H797.3a21.443,21.443,0,0,1-21.443-21.443h0A21.443,21.443,0,0,1,797.3,591.4Z" transform="translate(-58.529 -157.885)" fill="#2a2e43"/>
      <path id="Tracé_618" data-name="Tracé 618" d="M394.168,579.148H358.634V474.509a20.956,20.956,0,0,0-20.956-20.956h-8.326A20.956,20.956,0,0,0,308.4,474.509V579.148H208.165A11.963,11.963,0,0,1,197.587,561.6L303.67,360.816a20.956,20.956,0,0,0-9.58-28.739l-6.262-2.957a20.956,20.956,0,0,0-27.429,9.07L131.017,580.222a28.416,28.416,0,0,0-3.356,13.4h0a28.416,28.416,0,0,0,28.416,28.416H308.395V688.2a25.119,25.119,0,0,0,25.119,25.119h0A25.119,25.119,0,0,0,358.633,688.2V622.034h35.534a21.443,21.443,0,0,0,21.443-21.443h0a21.443,21.443,0,0,0-21.442-21.443Z" transform="translate(-63.054 -157.885)" fill="none" stroke="#3f3d56" stroke-miterlimit="10" stroke-width="1"/>
      <path id="Tracé_619" data-name="Tracé 619" d="M815.679,579.148h35.534V474.509a20.956,20.956,0,0,1,20.956-20.956h8.325a20.956,20.956,0,0,1,20.956,20.956V579.148h100.23a11.963,11.963,0,0,0,10.578-17.552L906.175,360.816a20.956,20.956,0,0,1,9.58-28.739l6.262-2.957a20.956,20.956,0,0,1,27.429,9.07l129.382,242.032a28.415,28.415,0,0,1,3.356,13.4h0a28.416,28.416,0,0,1-28.416,28.416H901.45V688.2a25.119,25.119,0,0,1-25.119,25.119h0A25.119,25.119,0,0,1,851.212,688.2V622.034H815.677a21.443,21.443,0,0,1-21.443-21.443h0a21.443,21.443,0,0,1,21.444-21.443Z" transform="translate(-95.288 -157.885)" fill="none" stroke="#3f3d56" stroke-miterlimit="10" stroke-width="1"/>
      <path id="Tracé_620" data-name="Tracé 620" d="M603.085,313.866c-85.944,0-147.651,55.139-147.651,183.8,0,145.813,61.707,184.411,147.651,184.411S754.412,639.8,754.412,497.664C754.412,345.725,689.029,313.866,603.085,313.866Zm.565,319.808c-59.527,0-90.626-34.923-90.626-135.916,0-89.112,32.372-136.1,91.9-136.1s91.9,30.868,91.9,136.1c0,98.448-33.645,135.917-93.172,135.917Z" transform="translate(-63.054 -157.885)" fill="none" stroke="#3f3d56" stroke-miterlimit="10" stroke-width="1"/>
      <path id="Tracé_636" data-name="Tracé 636" d="M1069.92,577.434a20.813,20.813,0,1,0,2.772-39.915l.521,10.712-5.068-9.18a20.734,20.734,0,0,0-10.684,11.723,20.411,20.411,0,0,0-1.2,5.63,20.809,20.809,0,0,0,13.656,21.031Z" transform="translate(-63.054 -157.885)" fill="#57b894"/>
      <path id="Tracé_637" data-name="Tracé 637" d="M1095,701.678c-1.789-9.11,5.963-17.187,13.621-22.437s16.6-10.408,19.218-19.317c3.755-12.8-7.43-24.53-16.136-34.642a125.3,125.3,0,0,1-16.524-24.557c-1.811-3.532-3.476-7.225-3.952-11.166-.686-5.675,1.137-11.323,2.974-16.737q9.179-27.052,19.628-53.65" transform="translate(-63.054 -157.885)" fill="none" stroke="#3f3d56" stroke-miterlimit="10" stroke-width="1"/>
      <path id="Tracé_638" data-name="Tracé 638" d="M1070.77,574.676a20.813,20.813,0,1,0,2.772-39.915l.521,10.712-5.068-9.18a20.734,20.734,0,0,0-10.684,11.723,20.406,20.406,0,0,0-1.2,5.63A20.809,20.809,0,0,0,1070.77,574.676Z" transform="translate(-63.054 -157.885)" fill="none" stroke="#3f3d56" stroke-miterlimit="10" stroke-width="1"/>
      <path id="Tracé_639" data-name="Tracé 639" d="M1092.45,515.473a20.788,20.788,0,0,1,14.98-13.2l1.714,10.184,3.177-10.7a20.81,20.81,0,1,1-19.871,13.709Z" transform="translate(-63.054 -157.885)" fill="#57b894"/>
      <path id="Tracé_640" data-name="Tracé 640" d="M1093.59,511.8a20.788,20.788,0,0,1,14.98-13.2l1.714,10.184,3.177-10.7a20.81,20.81,0,1,1-19.871,13.71Z" transform="translate(-63.054 -157.885)" fill="none" stroke="#3f3d56" stroke-miterlimit="10" stroke-width="1"/>
      <path id="Tracé_641" data-name="Tracé 641" d="M1108.04,625.489a20.81,20.81,0,0,0,18.419-37.023l-2.441,8.219-1.731-10.3a.362.362,0,0,0-.053-.02,20.811,20.811,0,0,0-14.194,39.127Z" transform="translate(-63.054 -157.885)" fill="#57b894"/>
      <path id="Tracé_642" data-name="Tracé 642" d="M1109.04,621.764a20.81,20.81,0,0,0,18.419-37.023l-2.441,8.219-1.731-10.3a.366.366,0,0,0-.053-.02,20.811,20.811,0,1,0-14.194,39.127Z" transform="translate(-63.054 -157.885)" fill="none" stroke="#3f3d56" stroke-miterlimit="10" stroke-width="1"/>
      <path id="Tracé_643" data-name="Tracé 643" d="M1086.38,660.051a20.8,20.8,0,1,0,4.011-16.3l9.273,13.956-12.67-7.408A20.617,20.617,0,0,0,1086.38,660.051Z" transform="translate(-63.054 -157.885)" fill="#57b894"/>
      <path id="Tracé_644" data-name="Tracé 644" d="M1087.23,657.294a20.8,20.8,0,1,0,4.011-16.3l9.273,13.956-12.67-7.408A20.617,20.617,0,0,0,1087.23,657.294Z" transform="translate(-63.054 -157.885)" fill="none" stroke="#3f3d56" stroke-miterlimit="10" stroke-width="1"/>
      <path id="Tracé_645" data-name="Tracé 645" d="M72.062,628.133a13.674,13.674,0,1,0,1.821-26.225l.342,7.038-3.33-6.032a13.622,13.622,0,0,0-7.019,7.7,13.408,13.408,0,0,0-.787,3.7,13.672,13.672,0,0,0,8.972,13.818Z" transform="translate(-63.054 -157.885)" fill="#57b894"/>
      <path id="Tracé_646" data-name="Tracé 646" d="M88.538,709.763c-1.175-5.986,3.918-11.292,8.949-14.741s10.91-6.838,12.626-12.692c2.467-8.412-4.882-16.117-10.6-22.76a82.321,82.321,0,0,1-10.856-16.134,22.21,22.21,0,0,1-2.6-7.336c-.451-3.729.747-7.439,1.954-11q6.031-17.773,12.9-35.249" transform="translate(-63.054 -157.885)" fill="none" stroke="#3f3d56" stroke-miterlimit="10" stroke-width="1"/>
      <path id="Tracé_647" data-name="Tracé 647" d="M72.625,626.321A13.674,13.674,0,1,0,74.446,600.1l.342,7.038-3.33-6.031a13.622,13.622,0,0,0-7.019,7.7,13.409,13.409,0,0,0-.787,3.7,13.672,13.672,0,0,0,8.973,13.817Z" transform="translate(-63.054 -157.885)" fill="none" stroke="#3f3d56" stroke-miterlimit="10" stroke-width="1"/>
      <path id="Tracé_648" data-name="Tracé 648" d="M86.866,587.423a13.658,13.658,0,0,1,9.842-8.671l1.126,6.691,2.087-7.027a13.673,13.673,0,1,1-13.055,9.007Z" transform="translate(-63.054 -157.885)" fill="#57b894"/>
      <path id="Tracé_649" data-name="Tracé 649" d="M87.617,585.007a13.658,13.658,0,0,1,9.842-8.671l1.126,6.691L100.673,576a13.673,13.673,0,1,1-13.055,9.007Z" transform="translate(-63.054 -157.885)" fill="none" stroke="#3f3d56" stroke-miterlimit="10" stroke-width="1"/>
      <path id="Tracé_650" data-name="Tracé 650" d="M97.112,659.706a13.673,13.673,0,0,0,12.1-24.325l-1.6,5.4-1.137-6.77a.236.236,0,0,0-.035-.013,13.673,13.673,0,1,0-9.326,25.707Z" transform="translate(-63.054 -157.885)" fill="#57b894"/>
      <path id="Tracé_651" data-name="Tracé 651" d="M97.762,657.259a13.673,13.673,0,0,0,12.1-24.325l-1.6,5.4-1.137-6.77a.235.235,0,0,0-.035-.013,13.673,13.673,0,1,0-9.326,25.707Z" transform="translate(-63.054 -157.885)" fill="none" stroke="#3f3d56" stroke-miterlimit="10" stroke-width="1"/>
      <path id="Tracé_652" data-name="Tracé 652" d="M82.876,682.414a13.667,13.667,0,1,0,2.635-10.708l6.092,9.17-8.324-4.867a13.545,13.545,0,0,0-.4,6.4Z" transform="translate(-63.054 -157.885)" fill="#57b894"/>
      <path id="Tracé_653" data-name="Tracé 653" d="M83.439,680.6a13.667,13.667,0,1,0,2.635-10.708l6.092,9.17L83.842,674.2A13.545,13.545,0,0,0,83.439,680.6Z" transform="translate(-63.054 -157.885)" fill="none" stroke="#3f3d56" stroke-miterlimit="10" stroke-width="1"/>
      <ellipse id="Ellipse_181" data-name="Ellipse 181" cx="17" cy="22" rx="17" ry="22" transform="translate(463.946 297.116)" fill="#2f2e41"/>
      <ellipse id="Ellipse_182" data-name="Ellipse 182" cx="17" cy="22" rx="17" ry="22" transform="translate(556.446 297.616)" fill="#2f2e41"/>
      <path id="Tracé_654" data-name="Tracé 654" d="M623.5,542.5c0,9.94-13.88,18-31,18s-31-8.06-31-18c0-8.61,10.41-15.81,24.32-17.57a50.109,50.109,0,0,1,6.68-.43,50.7,50.7,0,0,1,11.13,1.2C615.25,528.29,623.5,534.84,623.5,542.5Z" transform="translate(-63.054 -157.885)" fill="#2f2e41"/>
      <ellipse id="Ellipse_183" data-name="Ellipse 183" cx="17" cy="22" rx="17" ry="22" transform="translate(467.946 292.116)" fill="none" stroke="#3f3d56" stroke-miterlimit="10" stroke-width="1"/>
      <ellipse id="Ellipse_184" data-name="Ellipse 184" cx="17" cy="22" rx="17" ry="22" transform="translate(560.446 292.616)" fill="none" stroke="#3f3d56" stroke-miterlimit="10" stroke-width="1"/>
      <ellipse id="Ellipse_185" data-name="Ellipse 185" cx="31" cy="18" rx="31" ry="18" transform="translate(502.446 361.616)" fill="none" stroke="#3f3d56" stroke-miterlimit="10" stroke-width="1"/>
      <path id="Tracé_655" data-name="Tracé 655" d="M604,527.2a4.936,4.936,0,0,1-1.32,3.392A4.339,4.339,0,0,1,599.5,532h-10a4.664,4.664,0,0,1-4.5-4.8,4.9,4.9,0,0,1,.82-2.741A47.035,47.035,0,0,1,592.5,524a47.667,47.667,0,0,1,11.13,1.28A5.067,5.067,0,0,1,604,527.2Z" transform="translate(-63.054 -157.885)" fill="#fff"/>
      <circle id="Ellipse_186" data-name="Ellipse 186" cx="5" cy="5" r="5" transform="translate(479.946 303.116)" fill="#fff"/>
      <circle id="Ellipse_187" data-name="Ellipse 187" cx="5" cy="5" r="5" transform="translate(572.946 303.116)" fill="#fff"/>
      <circle id="Ellipse_188" data-name="Ellipse 188" cx="5" cy="5" r="5" transform="translate(577.946 350.116)" fill="#6c63ff" opacity="0.3"/>
      <circle id="Ellipse_189" data-name="Ellipse 189" cx="5" cy="5" r="5" transform="translate(455.946 350.116)" fill="#6c63ff" opacity="0.3"/>
    </g>
  </g>
</svg>
