<?xml version="1.0" encoding="UTF-8" standalone="no"?>
<svg width="1920" height="1080" viewBox="0 0 1920 1080" version="1.1" xmlns="http://www.w3.org/2000/svg">
  <style>
    #main {
      fill: #263238;
    }
    #face {
      fill: #212121;
    }
    #nenuphar {
      fill: #4DB6AC;
    }
    #borders {
      fill: none;
      stroke: #37474F;
    }
    #reflect {
      fill: #ffffff;
    }
    #kawaii {
      fill: #607D8B;
      opacity: 0.3;
    }

    @media (prefers-color-scheme: dark) {
      #main {
        fill: #CFD8DC;
      }
      #nenuphar {
        fill: #4DB6AC;
      }
      #face {
        fill: #78909C;
      }
      #borders {
        stroke: #ECEFF1;
      }
      #reflect {
        fill: #ffffff;
      }
      #kawaii {
        fill: #6c63ff;
      }
    }

    /*
    #main { fill: #2a2e43; }
    #nenuphar { fill: #57b894; }
    #face { fill: #2f2e41; }
    #borders {stroke: #3f3d56; }
    #reflect { fill: #ffffff; }
    #kawaii { fill: #6c63ff; }
    */
  </style>
  <g id="main">
    <path d="m 944.425,415.009 c -85.944,0 -147.651,55.139 -147.651,183.8 0,145.813 61.707,184.411 147.651,184.411 85.944,0 151.327,-42.275 151.327,-184.413 0,-151.939 -65.383,-183.798 -151.327,-183.798 z m 0.565,319.808 c -59.527,0 -90.626,-34.923 -90.626,-135.916 0,-89.112 32.372,-136.1 91.9,-136.1 59.528,0 91.9,30.868 91.9,136.1 0,98.448 -33.646,135.917 -93.172,135.917 z" />
    <path d="M 745.31,681.515 H 709.776 V 576.877 A 20.956,20.956 0 0 0 688.82,555.921 h -8.326 a 20.956,20.956 0 0 0 -20.956,20.956 V 681.515 H 559.308 A 11.963,11.963 0 0 1 548.73,663.963 l 106.082,-200.78 a 20.956,20.956 0 0 0 -9.58,-28.739 l -6.262,-2.957 a 20.956,20.956 0 0 0 -27.429,9.07 L 482.159,682.59 a 28.416,28.416 0 0 0 -3.356,13.4 v 0 a 28.416,28.416 0 0 0 28.416,28.416 h 152.319 v 66.167 a 25.119,25.119 0 0 0 25.119,25.119 v 0 a 25.119,25.119 0 0 0 25.119,-25.119 v -66.171 h 35.534 a 21.443,21.443 0 0 0 21.443,-21.443 v 0 A 21.443,21.443 0 0 0 745.31,681.515 Z"/>
    <path d="m 1162.77,681.515 h 35.534 V 576.877 a 20.956,20.956 0 0 1 20.954,-20.956 h 8.326 a 20.956,20.956 0 0 1 20.956,20.956 v 104.638 h 100.23 a 11.963,11.963 0 0 0 10.578,-17.552 L 1253.27,463.184 a 20.956,20.956 0 0 1 9.58,-28.739 l 6.262,-2.957 a 20.956,20.956 0 0 1 27.429,9.07 l 129.382,242.032 a 28.416,28.416 0 0 1 3.356,13.4 v 0 a 28.416,28.416 0 0 1 -28.416,28.416 h -152.322 v 66.167 a 25.119,25.119 0 0 1 -25.119,25.119 v 0 a 25.119,25.119 0 0 1 -25.119,-25.119 v -66.171 h -35.533 a 21.443,21.443 0 0 1 -21.443,-21.443 v 0 a 21.443,21.443 0 0 1 21.443,-21.444 z"/>
  </g>
  <g id="nenuphar">
    <path d="m 1430.865,667.549 a 20.813,20.813 0 1 0 2.772,-39.915 l 0.521,10.712 -5.068,-9.18 a 20.734,20.734 0 0 0 -10.684,11.723 20.411,20.411 0 0 0 -1.2,5.63 20.809,20.809 0 0 0 13.656,21.031 z"/>
    <path d="m 1453.395,605.588 a 20.788,20.788 0 0 1 14.98,-13.2 l 1.714,10.184 3.177,-10.7 a 20.81,20.81 0 1 1 -19.871,13.709 z"/>
    <path d="m 1468.985,715.604 a 20.81,20.81 0 0 0 18.419,-37.023 l -2.441,8.219 -1.731,-10.3 a 0.362,0.362 0 0 0 -0.053,-0.02 20.811005,20.811005 0 0 0 -14.194,39.127 z"/>
    <path d="m 1447.325,750.166 a 20.8,20.8 0 1 0 4.011,-16.3 l 9.273,13.956 -12.67,-7.408 a 20.617,20.617 0 0 0 -0.614,9.752 z"/>
    <path d="m 433.007,718.248 a 13.674,13.674 0 1 0 1.821,-26.225 l 0.342,7.038 -3.33,-6.032 a 13.622,13.622 0 0 0 -7.019,7.7 13.408,13.408 0 0 0 -0.787,3.7 13.672,13.672 0 0 0 8.972,13.818 z"/>
    <path d="m 447.811,677.538 a 13.658,13.658 0 0 1 9.842,-8.671 l 1.126,6.691 2.087,-7.027 a 13.673,13.673 0 1 1 -13.055,9.007 z"/>
    <path d="m 458.057,749.821 a 13.673,13.673 0 0 0 12.1,-24.325 l -1.6,5.4 -1.137,-6.77 a 0.236,0.236 0 0 0 -0.035,-0.013 13.673187,13.673187 0 1 0 -9.326,25.707 z"/>
    <path d="m 443.821,772.529 a 13.667,13.667 0 1 0 2.635,-10.708 l 6.092,9.17 -8.324,-4.867 a 13.545,13.545 0 0 0 -0.4,6.4 z"/>
  </g>
  <g id="face">
    <ellipse cx="904.94501" cy="567.11603" rx="17" ry="22"/>
    <ellipse cx="997.44501" cy="567.61603" rx="17" ry="22"/>
    <path d="m 984.445,632.615 c 0,9.94 -13.88,18 -31,18 -17.12,0 -31,-8.06 -31,-18 0,-8.61 10.41,-15.81 24.32,-17.57 a 50.109,50.109 0 0 1 6.68,-0.43 50.7,50.7 0 0 1 11.13,1.2 c 11.62,2.59 19.87,9.14 19.87,16.8 z"/>
  </g>
  <g id="borders">
    <path d="M 755.113,669.263 H 719.579 V 564.624 a 20.956,20.956 0 0 0 -20.956,-20.956 h -8.326 a 20.956,20.956 0 0 0 -20.952,20.956 V 669.263 H 569.11 A 11.963,11.963 0 0 1 558.532,651.715 L 664.615,450.931 a 20.956,20.956 0 0 0 -9.58,-28.739 l -6.262,-2.957 a 20.956,20.956 0 0 0 -27.429,9.07 L 491.962,670.337 a 28.416,28.416 0 0 0 -3.356,13.4 v 0 a 28.416,28.416 0 0 0 28.416,28.416 H 669.34 v 66.162 a 25.119,25.119 0 0 0 25.119,25.119 v 0 a 25.119,25.119 0 0 0 25.119,-25.119 v -66.166 h 35.534 a 21.443,21.443 0 0 0 21.443,-21.443 v 0 a 21.443,21.443 0 0 0 -21.442,-21.443 z"/>
    <path d="m 1144.39,669.263 h 35.534 V 564.624 a 20.956,20.956 0 0 1 20.956,-20.956 h 8.325 a 20.956,20.956 0 0 1 20.956,20.956 v 104.639 h 100.23 a 11.963,11.963 0 0 0 10.578,-17.552 l -106.083,-200.78 a 20.956,20.956 0 0 1 9.58,-28.739 l 6.262,-2.957 a 20.956,20.956 0 0 1 27.429,9.07 l 129.382,242.032 a 28.415,28.415 0 0 1 3.356,13.4 v 0 a 28.416,28.416 0 0 1 -28.416,28.416 h -152.318 v 66.162 a 25.119,25.119 0 0 1 -25.119,25.119 v 0 a 25.119,25.119 0 0 1 -25.119,-25.119 v -66.166 h -35.535 a 21.443,21.443 0 0 1 -21.443,-21.443 v 0 a 21.443,21.443 0 0 1 21.444,-21.443 z" />
    <path d="m 964.03,403.981 c -85.944,0 -147.651,55.139 -147.651,183.8 0,145.813 61.707,184.411 147.651,184.411 85.944,0 151.327,-42.277 151.327,-184.413 0,-151.939 -65.383,-183.798 -151.327,-183.798 z m 0.565,319.808 c -59.527,0 -90.626,-34.923 -90.626,-135.916 0,-89.112 32.372,-136.1 91.9,-136.1 59.528,0 91.9,30.868 91.9,136.1 0,98.448 -33.645,135.917 -93.172,135.917 z" />
    <path d="m 1455.945,791.793 c -1.789,-9.11 5.963,-17.187 13.621,-22.437 7.658,-5.25 16.6,-10.408 19.218,-19.317 3.755,-12.8 -7.43,-24.53 -16.136,-34.642 a 125.3,125.3 0 0 1 -16.524,-24.557 c -1.811,-3.532 -3.476,-7.225 -3.952,-11.166 -0.686,-5.675 1.137,-11.323 2.974,-16.737 q 9.179,-27.052 19.628,-53.65" />
    <path d="m 1431.715,664.791 a 20.813,20.813 0 1 0 2.772,-39.915 l 0.521,10.712 -5.068,-9.18 a 20.734,20.734 0 0 0 -10.684,11.723 20.406,20.406 0 0 0 -1.2,5.63 20.809,20.809 0 0 0 13.659,21.03 z" />
    <path d="m 1454.535,601.915 a 20.788,20.788 0 0 1 14.98,-13.2 l 1.714,10.184 3.177,-10.7 a 20.81,20.81 0 1 1 -19.871,13.71 z" />
    <path d="m 1469.985,711.879 a 20.81,20.81 0 0 0 18.419,-37.023 l -2.441,8.219 -1.731,-10.3 a 0.366,0.366 0 0 0 -0.053,-0.02 20.811005,20.811005 0 1 0 -14.194,39.127 z" />
    <path d="m 1448.175,747.409 a 20.8,20.8 0 1 0 4.011,-16.3 l 9.273,13.956 -12.67,-7.408 a 20.617,20.617 0 0 0 -0.614,9.752 z" />
    <path d="m 449.483,799.878 c -1.175,-5.986 3.918,-11.292 8.949,-14.741 5.031,-3.449 10.91,-6.838 12.626,-12.692 2.467,-8.412 -4.882,-16.117 -10.6,-22.76 a 82.321,82.321 0 0 1 -10.856,-16.134 22.21,22.21 0 0 1 -2.6,-7.336 c -0.451,-3.729 0.747,-7.439 1.954,-11 q 6.031,-17.773 12.9,-35.249" />
    <path d="m 433.57,716.436 a 13.674,13.674 0 1 0 1.821,-26.221 l 0.342,7.038 -3.33,-6.031 a 13.622,13.622 0 0 0 -7.019,7.7 13.409,13.409 0 0 0 -0.787,3.7 13.672,13.672 0 0 0 8.973,13.817 z" />
    <path d="m 448.562,675.122 a 13.658,13.658 0 0 1 9.842,-8.671 l 1.126,6.691 2.088,-7.027 a 13.673,13.673 0 1 1 -13.055,9.007 z" />
    <path d="m 458.707,747.374 a 13.673,13.673 0 0 0 12.1,-24.325 l -1.6,5.4 -1.137,-6.77 a 0.235,0.235 0 0 0 -0.035,-0.013 13.673187,13.673187 0 1 0 -9.326,25.707 z" />
    <path d="m 444.384,770.715 a 13.667,13.667 0 1 0 2.635,-10.708 l 6.092,9.17 -8.324,-4.862 a 13.545,13.545 0 0 0 -0.403,6.4 z" />
    <ellipse cx="908.94501" cy="562.11603" rx="17" ry="22" />
    <ellipse cx="1001.445" cy="562.61603" rx="17" ry="22" />
    <ellipse cx="957.44501" cy="627.61603" rx="31" ry="18" />
  </g>
  <g id="reflect">
    <path d="m 964.945,617.315 a 4.936,4.936 0 0 1 -1.32,3.392 4.339,4.339 0 0 1 -3.18,1.408 h -10 a 4.664,4.664 0 0 1 -4.5,-4.8 4.9,4.9 0 0 1 0.82,-2.741 47.035,47.035 0 0 1 6.68,-0.459 47.667,47.667 0 0 1 11.13,1.28 5.067,5.067 0 0 1 0.37,1.92 z" />
    <circle cx="908.94501" cy="556.11603" r="5" />
    <circle cx="1001.945" cy="556.11603" r="5" />
  </g>
  <g id="kawaii">
    <circle cx="1006.945" cy="603.11603" r="5" />
    <circle cx="884.94501" cy="603.11603" r="5" />
  </g>
</svg>
