<svg xmlns="http://www.w3.org/2000/svg" xmlns:xlink="http://www.w3.org/1999/xlink" width="1920" height="1080" viewBox="0 0 1920 1080"><defs><clipPath id="b"><rect width="1920" height="1080"/></clipPath></defs><g id="a" clip-path="url(#b)"><g transform="translate(381 289)"><path d="M325.738,839.447c-156.349.721-283.606,3.829-283.606,3.829S192.976,550.444,324.908,659.337,608.32,840.666,608.32,840.666,482.087,838.727,325.738,839.447Z" transform="translate(-33.851 -54.663)" fill="#e6e6e6"/><path d="M684.717,798.4c-207.789.958-376.921,4.028-376.921,4.028s201.04-266.3,376.167-167.637,376.3,164.168,376.3,164.168S892.506,797.44,684.717,798.4Z" transform="translate(-33.851 -54.663)" fill="#e6e6e6"/><path d="M317.461,842.25c-156.349.721-283.61,3.087-283.61,3.087s151.24-206.911,283.024-130.224S600.039,842.727,600.039,842.727,473.809,841.529,317.461,842.25Z" transform="translate(-33.851 -54.663)" fill="#f2f2f2"/><path d="M271.463,410.381V404.82a4.45,4.45,0,0,1,6.015-4.168c18.3,6.856,77.2,24.072,160.823.8a8.731,8.731,0,0,1,11.094,8.393h0a8.2,8.2,0,0,1-4.971,7.551c-18.26,7.786-84.936,31.128-168.462-.529a6.95,6.95,0,0,1-4.5-6.489Z" transform="translate(-33.851 -54.663)" fill="#3f3d56"/><path d="M271.463,410.381V404.82a4.45,4.45,0,0,1,6.015-4.168c18.3,6.856,77.2,24.072,160.823.8a8.731,8.731,0,0,1,11.094,8.393h0a8.2,8.2,0,0,1-4.971,7.551c-18.26,7.786-84.936,31.128-168.462-.529a6.95,6.95,0,0,1-4.5-6.489Z" transform="translate(-33.851 -54.663)" opacity="0.2"/><path d="M271.463,400.931V410a3.2,3.2,0,0,0,4.373,2.986c16.576-6.492,79.178-26.415,168.988.451a3.56,3.56,0,0,0,4.572-3.415V403.5a8.721,8.721,0,0,0-5.329-8.038c-18.885-7.985-86-31.079-169.772,1.319A4.453,4.453,0,0,0,271.463,400.931Z" transform="translate(-33.851 -54.663)" fill="#3f3d56"/><path d="M207.685,595.4c7.5,7.3,8.417,18.526,8.417,18.526s-11.245-.614-18.746-7.916-8.417-18.526-8.417-18.526S200.184,588.094,207.685,595.4Z" transform="translate(-33.851 -54.663)" fill="#6c63ff"/><path d="M498.416,588.255c-7.853,6.921-19.115,6.977-19.115,6.977s1.471-11.165,9.325-18.086,19.115-6.977,19.115-6.977S506.269,581.334,498.416,588.255Z" transform="translate(-33.851 -54.663)" fill="#6c63ff"/><path d="M548.416,708.255c-7.853,6.921-19.115,6.977-19.115,6.977s1.471-11.165,9.325-18.086,19.115-6.977,19.115-6.977S556.269,701.334,548.416,708.255Z" transform="translate(-33.851 -54.663)" fill="#6c63ff"/><path d="M636.416,713.255c-7.853,6.921-19.115,6.977-19.115,6.977s1.471-11.165,9.325-18.086,19.115-6.977,19.115-6.977S644.269,706.334,636.416,713.255Z" transform="translate(-33.851 -54.663)" fill="#6c63ff"/><path d="M142.178,707.307c-9.341-4.726-13.57-15.163-13.57-15.163s10.914-2.776,20.255,1.95,13.57,15.163,13.57,15.163S151.519,712.032,142.178,707.307Z" transform="translate(-33.851 -54.663)" fill="#6c63ff"/><rect width="296.541" height="2" transform="matrix(0.084, -0.996, 0.996, 0.084, 237.042, 647.251)" fill="#2f2e41"/><rect width="2" height="300.806" transform="translate(382.843 352.031) rotate(-10.778)" fill="#2f2e41"/><rect width="272.675" height="2" transform="translate(278.086 647.312) rotate(-88.153)" fill="#2f2e41"/><rect width="2" height="272.446" transform="translate(362.461 375.754) rotate(-4.34)" fill="#2f2e41"/><ellipse cx="107" cy="18" rx="107" ry="18" transform="translate(232.079 629.342)" fill="#2f2e41"/><path d="M414.887,752.341,407.549,767.3s-13.264-1.693-7.9,15.8c0,0-1.411,13.264-4.233,16.086s2.258,21.448,12.417,16.086c5.715-3.016,6.072-6.479,5.291-8.931A22.129,22.129,0,0,1,412.436,795a51.641,51.641,0,0,1,6.12-16.13c6.491-10.442,12.7-20.6,12.7-20.6Z" transform="translate(-33.851 -54.663)" fill="#ffb8b8"/><path d="M396.543,660.34s-16.086-3.951-21.448-1.129-21.166,3.1-21.166,3.1-13.264,21.448-10.16,32.454,16.086,17.779,16.086,17.779l43.743.282,7.055-28.786s-3.387-19.755-6.209-20.884S396.543,660.34,396.543,660.34Z" transform="translate(-33.851 -54.663)" fill="#3f3d56"/><circle cx="23.988" cy="23.988" r="23.988" transform="translate(324.311 483.197)" fill="#2f2e41"/><path d="M367.193,582.449s2.822,11.853-1.411,13.264-7.9,7.055-7.9,7.055l6.209,10.442,21.166,5.362,6.491-6.209,4.8-13.264-4.8-3.387s-4.515,1.411-4.8-3.1a75.256,75.256,0,0,1,.282-10.16Z" transform="translate(-33.851 -54.663)" fill="#ffb8b8"/><path d="M367.193,582.449s2.822,11.853-1.411,13.264-7.9,7.055-7.9,7.055l6.209,10.442,21.166,5.362,6.491-6.209,4.8-13.264-4.8-3.387s-4.515,1.411-4.8-3.1a75.256,75.256,0,0,1,.282-10.16Z" transform="translate(-33.851 -54.663)" opacity="0.1"/><circle cx="17.215" cy="17.215" r="17.215" transform="translate(326.992 501.117)" fill="#ffb8b8"/><path d="M377.071,612.363,360.7,597.406s-7.338,6.209-8.184,6.209-11.853,3.387-12.135,4.8,9.6,16.368,9.6,16.368-2.258,11.006,0,15.8.564,25.4.564,25.4,14.957-5.362,22.859-2.822,31.043,0,31.043,0,3.387-21.73,1.975-24.552-1.693-18.908-1.693-18.908l12.135-13.264s-2.54-10.16-12.135-10.724-15.522-1.129-15.522-1.129Z" transform="translate(-33.851 -54.663)" fill="#6c63ff"/><path d="M357.88,681.788s-31.608-14.393-44.307-21.166-32.172-1.411-25.964,13.828,40.921,30.2,40.921,30.2,11.289,8.466,18.062,8.184,16.509-.141,16.509-.141Z" transform="translate(-33.851 -54.663)" fill="#3f3d56"/><path d="M406.7,683.763s56.725.564,53.056,21.73-25.4,56.443-29.35,57.289-18.344-5.362-18.344-7.338,13.828-38.381,13.828-38.381l-33.865-10.442Z" transform="translate(-33.851 -54.663)" fill="#3f3d56"/><path d="M417.427,620.548s3.387,32.454,1.693,37.534-7.62,18.908-15.24,25.681-18.344,40.921-24.27,24.552,9.6-25.4,9.6-25.4l15.559-21.891.146-35.625Z" transform="translate(-33.851 -54.663)" fill="#ffb8b8"/><path d="M353.929,688.561s27.939,9.877,31.043,8.466,9.877,3.669,9.877,3.669a24.328,24.328,0,0,1,18.344,3.387c9.031,5.926,11.006,12.7,9.031,12.982s-9.031-2.822-9.031-2.822-10.724-2.258-17.215-.282-14.951-2.189-14.951-2.189l-34.437-7.688Z" transform="translate(-33.851 -54.663)" fill="#ffb8b8"/><path d="M353.929,688.561s27.939,9.877,31.043,8.466,9.877,3.669,9.877,3.669a24.328,24.328,0,0,1,18.344,3.387c9.031,5.926,11.006,12.7,9.031,12.982s-9.031-2.822-9.031-2.822-10.724-2.258-17.215-.282-14.951-2.189-14.951-2.189l-34.437-7.688Z" transform="translate(-33.851 -54.663)" opacity="0.1"/><path d="M410.936,603.05l5.926,3.387s2.258,14.957,3.387,16.933-13.828,7.055-16.086,5.644-3.387-15.24-3.387-15.24Z" transform="translate(-33.851 -54.663)" fill="#6c63ff"/><path d="M315.69,665.984s17.215,7.338,22.013,8.466,20.3,14.338,20.3,14.338l-10.584,16.073s-10.848-1.343-16.775-2.472-41.2-24.552-35.277-28.5S315.69,665.984,315.69,665.984Z" transform="translate(-33.851 -54.663)" opacity="0.1"/><path d="M312.162,665.984s17.215,7.338,22.013,8.466,23.706,14.111,23.706,14.111l-9.313,18.062s-15.522-3.1-21.448-4.233-41.2-24.552-35.277-28.5S312.162,665.984,312.162,665.984Z" transform="translate(-33.851 -54.663)" fill="#3f3d56"/><circle cx="23.988" cy="23.988" r="23.988" transform="translate(328.968 466.969)" fill="#2f2e41"/><circle cx="11.288" cy="11.288" r="11.288" transform="translate(348.44 455.681)" fill="#2f2e41"/><rect width="14" height="26.833" rx="1.579" transform="translate(349.079 590.425)" fill="#2f2e41"/><circle cx="2.333" cy="2.333" r="2.333" transform="translate(353.746 593.926)" fill="#6c63ff"/><path d="M340.383,632.683s.282,34.994,4.515,39.228,31.031,2.094,31.031,2.094,16.918,2.738,24-7c8-11-21-2-21-2s-20.717,1.039-21.9.132c-3.669-2.822-4.515-33.865-4.515-33.865Z" transform="translate(-33.851 -54.663)" fill="#ffb8b8"/><path d="M344.052,608.13h-3.669s-3.951,4.233-3.669,13.264-3.387,14.675-1.129,15.522,13.519-3.635,13.392-2.382,5.8-1,5.8-1l-3.951-14.957Z" transform="translate(-33.851 -54.663)" fill="#6c63ff"/><path d="M637.847,440.034c-46.277.213-83.944.9-83.944.9s44.774-59.307,83.776-37.334,83.807,36.562,83.807,36.562S684.123,439.821,637.847,440.034Z" transform="translate(-33.851 -54.663)" fill="#f2f2f2"/><path d="M256.847,527.034c-46.277.213-83.944.9-83.944.9s44.774-59.307,83.776-37.334,83.807,36.562,83.807,36.562S303.123,526.821,256.847,527.034Z" transform="translate(-33.851 -54.663)" fill="#f2f2f2"/><path d="M837.847,586.034c-46.277.213-83.944.9-83.944.9s44.774-59.307,83.776-37.334,83.807,36.562,83.807,36.562S884.123,585.821,837.847,586.034Z" transform="translate(-33.851 -54.663)" fill="#f2f2f2"/><path d="M638.44,840.669c-156.349.721-283.61,3.031-283.61,3.031S506.1,643.327,637.872,717.564,921.018,841.09,921.018,841.09,794.788,839.948,638.44,840.669Z" transform="translate(-33.851 -54.663)" fill="#f2f2f2"/><path d="M883.57,838.918c-156.348.721-283.607,3.391-283.607,3.391S751.041,600.188,882.885,690.073,1166.149,839.7,1166.149,839.7,1039.92,838.2,883.57,838.918Z" transform="translate(-33.851 -54.663)" fill="#f2f2f2"/></g><g transform="translate(298.934 277.946)"><circle cx="47.904" cy="47.904" r="47.904" transform="translate(177.303 161.302)" fill="#f2f2f2"/><circle cx="47.904" cy="47.904" r="47.904" transform="translate(187.214 146.986)" fill="none" stroke="#3f3d56" stroke-miterlimit="10" stroke-width="2"/><path d="M355.888,238.874l-38.568-64.6a30.8,30.8,0,1,0-12.665,9.5Z" transform="translate(-187.394 -119.418)" fill="#3f3d56"/><circle cx="14.316" cy="14.316" r="14.316" transform="translate(91.407 21.445)" fill="#6c63ff"/><path d="M479.588,231.413l53.352-53.05a30.8,30.8,0,1,0-12.283-9.99Z" transform="translate(-187.394 -119.418)" fill="#3f3d56"/><circle cx="14.316" cy="14.316" r="14.316" transform="translate(343.9 16.526)" fill="#6c63ff"/><path d="M516.753,349.635l64.382,38.933a30.8,30.8,0,1,0,6.722-14.335Z" transform="translate(-187.394 -119.418)" fill="#3f3d56"/><circle cx="14.316" cy="14.316" r="14.316" transform="translate(409.757 260.328)" fill="#6c63ff"/><path d="M411.034,414.3l-22.2,71.888a30.8,30.8,0,1,0,15.536,3.054Z" transform="translate(-187.394 -119.418)" fill="#3f3d56"/><circle cx="14.316" cy="14.316" r="14.316" transform="translate(189.128 383.21)" fill="#6c63ff"/><path d="M322.718,327.36l-75.123-4.15a30.8,30.8,0,1,0,.8,15.813Z" transform="translate(-187.394 -119.418)" fill="#3f3d56"/><circle cx="14.316" cy="14.316" r="14.316" transform="translate(16.522 198.864)" fill="#6c63ff"/></g><g transform="translate(934 361.5)"><path d="M749.9,256.8q15.11,7.976,29.54,16.324" transform="translate(-180.557 -32.427)" fill="none" stroke="#2f2e41" stroke-miterlimit="10" stroke-width="1"/><path d="M562.441,223.849c43.939,9.5,91.91,25.9,140.236,49.05a670.767,670.767,0,0,1,100.1,58.751" transform="translate(-180.557 -32.427)" fill="none" stroke="#2f2e41" stroke-miterlimit="10" stroke-width="1"/><line x2="450.534" transform="translate(235.63 832.573)" fill="none" stroke="#3f3d56" stroke-miterlimit="10" stroke-width="1"/><path d="M521.327,216.817c13.2,1.623,26.95,3.969,41.115,7.032" transform="translate(-180.557 -32.427)" fill="none" stroke="#2f2e41" stroke-miterlimit="10" stroke-width="1"/><path d="M392.112,354.582c-24.394-35.7-32.774-69.428-20.241-95.594,13.862-28.941,50.969-43.745,101.268-44.835" transform="translate(-180.557 -32.427)" fill="none" stroke="#2f2e41" stroke-miterlimit="10" stroke-width="1"/><path d="M905.81,434.318c20.333,32.731,26.641,63.418,15.044,87.629-10.206,21.306-33.009,34.951-64.4,41.1" transform="translate(-180.557 -32.427)" fill="none" stroke="#2f2e41" stroke-miterlimit="10" stroke-width="1"/><path d="M802.78,331.65A498.1,498.1,0,0,1,860.4,379.406" transform="translate(-180.557 -32.427)" fill="none" stroke="#2f2e41" stroke-miterlimit="10" stroke-width="1"/><path d="M378.605,172.315c40.492-8.7,92.891-7.153,151.493,4.4" transform="translate(-180.557 -32.427)" fill="none" stroke="#2f2e41" stroke-miterlimit="10" stroke-width="1"/><path d="M967.943,434.314c18.128,26.48,29.276,52.1,32.19,75.44" transform="translate(-180.557 -32.427)" fill="none" stroke="#2f2e41" stroke-miterlimit="10" stroke-width="1"/><path d="M779.444,273.12q27.274,15.77,51.9,32.62" transform="translate(-180.557 -32.427)" fill="none" stroke="#2f2e41" stroke-miterlimit="10" stroke-width="1"/><path d="M753.894,561.595c-50.068-8.252-106.709-26.19-163.846-53.558-65.057-31.162-120.184-69.485-159.465-108.217" transform="translate(-180.557 -32.427)" fill="none" stroke="#2f2e41" stroke-miterlimit="10" stroke-width="1"/><path d="M550.893,524.893c-44.792-23.206-85.344-49.006-120.312-75.867" transform="translate(-180.557 -32.427)" fill="none" stroke="#2f2e41" stroke-miterlimit="10" stroke-width="1"/><circle cx="53.7" cy="53.7" r="53.7" transform="translate(0 22.378)" fill="#6c63ff"/><circle cx="53.7" cy="53.7" r="53.7" transform="translate(12.596 0.5)" fill="none" stroke="#2f2e41" stroke-miterlimit="10" stroke-width="1"/><circle cx="31.244" cy="31.244" r="31.244" transform="translate(769.07 238.8)" fill="#f2f2f2"/><circle cx="31.244" cy="31.244" r="31.244" transform="translate(776.399 226.071)" fill="none" stroke="#2f2e41" stroke-miterlimit="10" stroke-width="1"/><circle cx="44.913" cy="44.913" r="44.913" transform="translate(185.45 550.816)" fill="#f2f2f2"/><circle cx="44.913" cy="44.913" r="44.913" transform="translate(195.985 532.518)" fill="none" stroke="#2f2e41" stroke-miterlimit="10" stroke-width="1"/></g><g transform="translate(1287.446 515)"><ellipse cx="121" cy="114" rx="121" ry="114" transform="translate(62.62 46)" fill="#f1f1f1"/><path d="M201.5,416.219l100.1-29.844A152.879,152.879,0,0,0,368.12,401.5c78.3,0,142-58.318,142-130s-63.7-130-142-130-142,58.318-142,130c0,36.186,16.613,70.913,45.624,95.475Zm100.278-31.983-.374.111-88.661,26.434,62.29-43.668-1.007-.837c-29.173-24.226-45.9-58.771-45.9-94.776,0-70.58,62.8-128,140-128s140,57.42,140,128-62.8,128-140,128a150.822,150.822,0,0,1-65.991-15.092Z" transform="translate(-201.5 -116.5)" fill="#2f2e41"/><circle cx="11" cy="11" r="11" transform="translate(203.12 151.5)" fill="#6c63ff"/><circle cx="11" cy="11" r="11" transform="translate(171.12 151.5)" fill="#6c63ff"/><circle cx="11" cy="11" r="11" transform="translate(139.121 151.5)" fill="#6c63ff"/></g></g></svg>