<svg xmlns="http://www.w3.org/2000/svg" xmlns:xlink="http://www.w3.org/1999/xlink" width="1920" height="1080" viewBox="0 0 1920 1080">
  <defs>
    <clipPath id="clip-Partners">
      <rect width="1920" height="1080"/>
    </clipPath>
  </defs>
  <g id="Partners" clip-path="url(#clip-Partners)">
    <g id="Groupe_28" data-name="Groupe 28" transform="translate(761 108.5)">
      <path id="Tracé_297" data-name="Tracé 297" d="M749.9,256.8q15.11,7.976,29.54,16.324" transform="translate(-180.557 -32.427)" fill="none" stroke="#2f2e41" stroke-miterlimit="10" stroke-width="1"/>
      <path id="Tracé_298" data-name="Tracé 298" d="M562.441,223.849c43.939,9.5,91.91,25.9,140.236,49.05a670.767,670.767,0,0,1,100.1,58.751" transform="translate(-180.557 -32.427)" fill="none" stroke="#2f2e41" stroke-miterlimit="10" stroke-width="1"/>
      <line id="Ligne_5" data-name="Ligne 5" x2="450.534" transform="translate(235.63 832.573)" fill="none" stroke="#3f3d56" stroke-miterlimit="10" stroke-width="1"/>
      <path id="Tracé_299" data-name="Tracé 299" d="M521.327,216.817c13.2,1.623,26.95,3.969,41.115,7.032" transform="translate(-180.557 -32.427)" fill="none" stroke="#2f2e41" stroke-miterlimit="10" stroke-width="1"/>
      <path id="Tracé_300" data-name="Tracé 300" d="M392.112,354.582c-24.394-35.7-32.774-69.428-20.241-95.594,13.862-28.941,50.969-43.745,101.268-44.835" transform="translate(-180.557 -32.427)" fill="none" stroke="#2f2e41" stroke-miterlimit="10" stroke-width="1"/>
      <path id="Tracé_301" data-name="Tracé 301" d="M905.81,434.318c20.333,32.731,26.641,63.418,15.044,87.629-10.206,21.306-33.009,34.951-64.4,41.1" transform="translate(-180.557 -32.427)" fill="none" stroke="#2f2e41" stroke-miterlimit="10" stroke-width="1"/>
      <path id="Tracé_302" data-name="Tracé 302" d="M802.78,331.65A498.1,498.1,0,0,1,860.4,379.406" transform="translate(-180.557 -32.427)" fill="none" stroke="#2f2e41" stroke-miterlimit="10" stroke-width="1"/>
      <path id="Tracé_303" data-name="Tracé 303" d="M378.605,172.315c40.492-8.7,92.891-7.153,151.493,4.4" transform="translate(-180.557 -32.427)" fill="none" stroke="#2f2e41" stroke-miterlimit="10" stroke-width="1"/>
      <path id="Tracé_304" data-name="Tracé 304" d="M967.943,434.314c18.128,26.48,29.276,52.1,32.19,75.44" transform="translate(-180.557 -32.427)" fill="none" stroke="#2f2e41" stroke-miterlimit="10" stroke-width="1"/>
      <path id="Tracé_305" data-name="Tracé 305" d="M779.444,273.12q27.274,15.77,51.9,32.62" transform="translate(-180.557 -32.427)" fill="none" stroke="#2f2e41" stroke-miterlimit="10" stroke-width="1"/>
      <path id="Tracé_322" data-name="Tracé 322" d="M753.894,561.595c-50.068-8.252-106.709-26.19-163.846-53.558-65.057-31.162-120.184-69.485-159.465-108.217" transform="translate(-180.557 -32.427)" fill="none" stroke="#2f2e41" stroke-miterlimit="10" stroke-width="1"/>
      <path id="Tracé_323" data-name="Tracé 323" d="M550.893,524.893c-44.792-23.206-85.344-49.006-120.312-75.867" transform="translate(-180.557 -32.427)" fill="none" stroke="#2f2e41" stroke-miterlimit="10" stroke-width="1"/>
      <circle id="Ellipse_133" data-name="Ellipse 133" cx="53.7" cy="53.7" r="53.7" transform="translate(0 22.378)" fill="#6c63ff"/>
      <circle id="Ellipse_134" data-name="Ellipse 134" cx="53.7" cy="53.7" r="53.7" transform="translate(12.596 0.5)" fill="none" stroke="#2f2e41" stroke-miterlimit="10" stroke-width="1"/>
      <circle id="Ellipse_135" data-name="Ellipse 135" cx="31.244" cy="31.244" r="31.244" transform="translate(769.07 238.8)" fill="#f2f2f2"/>
      <circle id="Ellipse_136" data-name="Ellipse 136" cx="31.244" cy="31.244" r="31.244" transform="translate(776.399 226.071)" fill="none" stroke="#2f2e41" stroke-miterlimit="10" stroke-width="1"/>
      <circle id="Ellipse_137" data-name="Ellipse 137" cx="44.913" cy="44.913" r="44.913" transform="translate(185.45 550.816)" fill="#f2f2f2"/>
      <circle id="Ellipse_138" data-name="Ellipse 138" cx="44.913" cy="44.913" r="44.913" transform="translate(195.985 532.518)" fill="none" stroke="#2f2e41" stroke-miterlimit="10" stroke-width="1"/>
    </g>
    <g id="Groupe_29" data-name="Groupe 29" transform="translate(1114.446 262)">
      <ellipse id="Ellipse_139" data-name="Ellipse 139" cx="121" cy="114" rx="121" ry="114" transform="translate(62.62 46)" fill="#f1f1f1"/>
      <path id="Tracé_343" data-name="Tracé 343" d="M201.5,416.219l100.1-29.844A152.879,152.879,0,0,0,368.12,401.5c78.3,0,142-58.318,142-130s-63.7-130-142-130-142,58.318-142,130c0,36.186,16.613,70.913,45.624,95.475Zm100.278-31.983-.374.111-88.661,26.434,62.29-43.668-1.007-.837c-29.173-24.226-45.9-58.771-45.9-94.776,0-70.58,62.8-128,140-128s140,57.42,140,128-62.8,128-140,128a150.822,150.822,0,0,1-65.991-15.092Z" transform="translate(-201.5 -116.5)" fill="#2f2e41"/>
      <circle id="Ellipse_143" data-name="Ellipse 143" cx="11" cy="11" r="11" transform="translate(203.12 151.5)" fill="#6c63ff"/>
      <circle id="Ellipse_144" data-name="Ellipse 144" cx="11" cy="11" r="11" transform="translate(171.12 151.5)" fill="#6c63ff"/>
      <circle id="Ellipse_145" data-name="Ellipse 145" cx="11" cy="11" r="11" transform="translate(139.121 151.5)" fill="#6c63ff"/>
    </g>
    <g id="Groupe_69" data-name="Groupe 69" transform="translate(320 319)">
      <circle id="Ellipse_279" data-name="Ellipse 279" cx="14.92" cy="14.92" r="14.92" transform="translate(122.112 538.244)" fill="#6c63ff" opacity="0.4"/>
      <circle id="Ellipse_280" data-name="Ellipse 280" cx="10.466" cy="10.466" r="10.466" transform="translate(98.953 549.824)" fill="#6c63ff" opacity="0.4"/>
      <path id="Tracé_925" data-name="Tracé 925" d="M839.05,473.261a255.44,255.44,0,0,0-17.9-224.767L413.048,305l391.09-81.506A254.562,254.562,0,0,0,602.048,124c-140.833,0-255,114.167-255,255a256.957,256.957,0,0,0,2.365,34.736Z" transform="translate(-308.048 -124)" fill="#f2f2f2"/>
      <path id="Tracé_926" data-name="Tracé 926" d="M364.092,470.81C400.95,566.274,493.584,634,602.048,634c101.778,0,189.617-59.634,230.515-145.861Z" transform="translate(-308.048 -124)" fill="#f2f2f2"/>
      <circle id="Ellipse_281" data-name="Ellipse 281" cx="12" cy="12" r="12" transform="translate(94 100)" fill="#3f3d56"/>
      <circle id="Ellipse_282" data-name="Ellipse 282" cx="12" cy="12" r="12" transform="translate(526 240)" fill="#6c63ff"/>
      <rect id="Rectangle_197" data-name="Rectangle 197" width="20" height="20" transform="translate(105 339)" fill="#6c63ff"/>
      <path id="Tracé_927" data-name="Tracé 927" d="M576.048,317s33-14.379,48.5.81S583.048,328,576.048,317Z" transform="translate(-308.048 -124)" fill="#3f3d56"/>
      <path id="Tracé_928" data-name="Tracé 928" d="M633.03,248.8C621.94,230.067,600,229.193,600,229.193s-21.38-2.734-35.094,25.8c-12.783,26.6-30.426,52.284-2.84,58.511L567.048,298l3.086,16.663a107.923,107.923,0,0,0,11.8.2c29.542-.954,57.676.279,56.771-10.322C637.5,290.451,643.7,266.835,633.03,248.8Z" transform="translate(-308.048 -124)" fill="#2f2e41"/>
      <ellipse id="Ellipse_283" data-name="Ellipse 283" cx="56" cy="13" rx="56" ry="13" transform="translate(238.5 385)" fill="#3f3d56"/>
      <rect id="Rectangle_198" data-name="Rectangle 198" width="54.148" height="2" transform="translate(285.431 561.499) rotate(-4.229)" fill="#2f2e41"/>
      <rect id="Rectangle_199" data-name="Rectangle 199" width="2" height="22.825" transform="matrix(0.482, -0.876, 0.876, 0.482, 249.021, 552.374)" fill="#2f2e41"/>
      <rect id="Rectangle_200" data-name="Rectangle 200" width="18" height="2" transform="translate(288.5 543.5)" fill="#2f2e41"/>
      <path id="Tracé_929" data-name="Tracé 929" d="M241.5,650.568l-2-.136,15-232,2,.136Z" fill="#2f2e41"/>
      <path id="Tracé_930" data-name="Tracé 930" d="M315.5,650.549l-10-228,2-.1,10,228Z" fill="#2f2e41"/>
      <rect id="Rectangle_201" data-name="Rectangle 201" width="2" height="230.783" transform="matrix(0.997, -0.082, 0.082, 0.997, 333.509, 420.582)" fill="#2f2e41"/>
      <path id="Tracé_931" data-name="Tracé 931" d="M648.548,588.5s-14,26-23,26-8,17-6,21,7,13-1,26c-2.794,4.541-2.294,9.692-.461,14.473,5.138,13.4,25.124,9.337,24.486-5q-.011-.237-.026-.477c-1-16,7-41,15-47s15-22,15-22Z" transform="translate(-308.048 -124)" fill="#ffb8b8"/>
      <path id="Tracé_932" data-name="Tracé 932" d="M552.548,582.5s14,26,23,26,8,17,6,21-7,13,1,26c2.794,4.541,2.294,9.692.461,14.473-5.138,13.4-25.124,9.337-24.486-5q.011-.237.026-.477c1-16-7-41-15-47s-15-22-15-22Z" transform="translate(-308.048 -124)" fill="#ffb8b8"/>
      <path id="Tracé_933" data-name="Tracé 933" d="M563.548,454.5l-6,13s-88,29-80,63,47,87,53,85,38-8,39-25-23-47-23-47l33-30,48.02-1,40.98,31s-43,38-24,53,47,25,51,19,49-95,42-103-78-38-78-38l-19-27-74-4Z" transform="translate(-308.048 -124)" fill="#2f2e41"/>
      <path id="Tracé_934" data-name="Tracé 934" d="M581.548,289.5s5,33-5,37,20,21,20,21h17l11-23s-10-18-4-35S581.548,289.5,581.548,289.5Z" transform="translate(-308.048 -124)" fill="#ffb8b8"/>
      <path id="Tracé_935" data-name="Tracé 935" d="M581.548,289.5s5,33-5,37,20,21,20,21h17l11-23s-10-18-4-35S581.548,289.5,581.548,289.5Z" transform="translate(-308.048 -124)" opacity="0.1"/>
      <path id="Tracé_936" data-name="Tracé 936" d="M574.548,317.5s11,12,13,14,11,13,30-3,21,3,21,3v120s-16-7-29,0-40-2-40-2l-5-124Z" transform="translate(-308.048 -124)" fill="#d0cde1"/>
      <path id="Tracé_937" data-name="Tracé 937" d="M581.893,317.5s-9.345-4-17.345,0-36,24-34,33,28,72,10,102-21,38-21,38l44-23s34-21,31-34S581.893,317.5,581.893,317.5Z" transform="translate(-308.048 -124)" fill="#3f3d56"/>
      <path id="Tracé_938" data-name="Tracé 938" d="M621.56,317.5s20.988,2,21.988,4,31.5,10.5,29.5,19.5-29.5,89.5-17.5,104.5,32,36,25,38-19-3-31,0-40-22-37-49S612.571,324.5,621.56,317.5Z" transform="translate(-308.048 -124)" fill="#3f3d56"/>
      <path id="Tracé_939" data-name="Tracé 939" d="M571.548,508.5v10s-5,23,11,22,6-28,6-28l-1-9Z" transform="translate(-308.048 -124)" fill="#ffb8b8"/>
      <path id="Tracé_940" data-name="Tracé 940" d="M616.548,509.5s-11,23,0,25,19-13,19-17S616.548,509.5,616.548,509.5Z" transform="translate(-308.048 -124)" fill="#ffb8b8"/>
      <path id="Tracé_941" data-name="Tracé 941" d="M272.5,650.524l-2-.048,6-230,2,.048Z" fill="#2f2e41"/>
      <ellipse id="Ellipse_284" data-name="Ellipse 284" cx="2" cy="4" rx="2" ry="4" transform="translate(321 148)" fill="#ffb8b8"/>
      <ellipse id="Ellipse_285" data-name="Ellipse 285" cx="2" cy="4" rx="2" ry="4" transform="translate(262 148)" fill="#ffb8b8"/>
      <path id="Tracé_942" data-name="Tracé 942" d="M648.548,330.5s25,0,24,10-34,182-34,182-14-13-26-10Z" transform="translate(-308.048 -124)" fill="#3f3d56"/>
      <path id="Tracé_943" data-name="Tracé 943" d="M551.548,333.5s-25,5-25,20,36,159,41,159,24-3,24-8S551.548,333.5,551.548,333.5Z" transform="translate(-308.048 -124)" fill="#3f3d56"/>
      <path id="Tracé_944" data-name="Tracé 944" d="M557.048,363l22.5,87.991S569.048,374,557.048,363Z" transform="translate(-308.048 -124)" opacity="0.2"/>
      <path id="Tracé_945" data-name="Tracé 945" d="M644.565,350.636,621.809,465.68S629.082,357.272,644.565,350.636Z" transform="translate(-308.048 -124)" opacity="0.2"/>
      <circle id="Ellipse_286" data-name="Ellipse 286" cx="29" cy="29" r="29" transform="translate(264.5 123.5)" fill="#ffb8b8"/>
      <path id="Tracé_946" data-name="Tracé 946" d="M320.079,123,298.4,111.644l-29.933,4.645-6.193,27.353,15.416-.593L282,133v9.884l7.114-.274,4.128-16,2.581,17.031,25.289-.516Z" fill="#2f2e41"/>
      <rect id="Rectangle_202" data-name="Rectangle 202" width="546" height="2" transform="translate(10 650)" fill="#2f2e41"/>
      <path id="Tracé_947" data-name="Tracé 947" d="M772.631,774.02l-2-.039a463.831,463.831,0,0,1,7.1-66.287c8.648-46.881,23.029-77.67,42.743-91.512l1.148,1.637C775.57,650.152,772.654,772.784,772.631,774.02Z" transform="translate(-308.048 -124)" fill="#2f2e41"/>
      <path id="Tracé_948" data-name="Tracé 948" d="M797.631,773.541l-2-.039c.043-2.215,1.293-54.414,21.843-68.842l1.148,1.637C798.9,720.143,797.641,773.009,797.631,773.541Z" transform="translate(-308.048 -124)" fill="#2f2e41"/>
      <circle id="Ellipse_287" data-name="Ellipse 287" cx="10" cy="10" r="10" transform="translate(515 473)" fill="#6c63ff"/>
      <circle id="Ellipse_288" data-name="Ellipse 288" cx="10" cy="10" r="10" transform="translate(510 560)" fill="#6c63ff"/>
      <path id="Tracé_949" data-name="Tracé 949" d="M792.97,623.995c1.879,12-3.019,22.741-3.019,22.741s-7.945-8.726-9.825-20.73,3.019-22.741,3.019-22.741S791.09,611.991,792.97,623.995Z" transform="translate(-308.048 -124)" fill="#2f2e41"/>
      <path id="Tracé_950" data-name="Tracé 950" d="M825.657,653.148c-11.493,3.942-22.919.99-22.919.99s7.208-9.344,18.7-13.286,22.919-.99,22.919-.99S837.15,649.206,825.657,653.148Z" transform="translate(-308.048 -124)" fill="#2f2e41"/>
      <path id="Tracé_951" data-name="Tracé 951" d="M826.026,729.31a31.135,31.135,0,0,1-16.064.694A28.374,28.374,0,0,1,839.134,720a31.133,31.133,0,0,1-13.108,9.313Z" transform="translate(-308.048 -124)" fill="#2f2e41"/>
      <path id="Tracé_952" data-name="Tracé 952" d="M2,192H0V62H128v2H2Z" fill="#2f2e41"/>
      <path id="Tracé_953" data-name="Tracé 953" d="M583.9,192h-2V64h-126V62h128Z" fill="#2f2e41"/>
      <path id="Tracé_954" data-name="Tracé 954" d="M2,302H0V432H128v-2H2Z" fill="#2f2e41"/>
      <path id="Tracé_955" data-name="Tracé 955" d="M583.9,302h-2V430h-126v2h128Z" fill="#2f2e41"/>
      <rect id="Rectangle_203" data-name="Rectangle 203" width="140" height="2" transform="translate(36 123)" fill="#3f3d56"/>
      <rect id="Rectangle_204" data-name="Rectangle 204" width="2" height="18.5" transform="translate(74 105)" fill="#3f3d56"/>
      <rect id="Rectangle_205" data-name="Rectangle 205" width="2" height="18.5" transform="translate(135 105)" fill="#3f3d56"/>
      <rect id="Rectangle_206" data-name="Rectangle 206" width="140" height="2" transform="translate(414 264)" fill="#3f3d56"/>
      <rect id="Rectangle_207" data-name="Rectangle 207" width="2" height="18.5" transform="translate(452 246)" fill="#3f3d56"/>
      <rect id="Rectangle_208" data-name="Rectangle 208" width="2" height="18.5" transform="translate(513 246)" fill="#3f3d56"/>
      <rect id="Rectangle_209" data-name="Rectangle 209" width="140" height="2" transform="translate(45 358)" fill="#3f3d56"/>
      <rect id="Rectangle_210" data-name="Rectangle 210" width="2" height="18.5" transform="translate(83 340)" fill="#3f3d56"/>
      <rect id="Rectangle_211" data-name="Rectangle 211" width="2" height="18.5" transform="translate(144 340)" fill="#3f3d56"/>
    </g>
  </g>
</svg>
