<svg xmlns="http://www.w3.org/2000/svg" xmlns:xlink="http://www.w3.org/1999/xlink" width="1920" height="1080" viewBox="0 0 1920 1080"><defs><linearGradient id="a" x1="0.5" y1="1" x2="0.5" gradientUnits="objectBoundingBox"><stop offset="0" stop-color="gray" stop-opacity="0.251"/><stop offset="0.54" stop-color="gray" stop-opacity="0.122"/><stop offset="1" stop-color="gray" stop-opacity="0.102"/></linearGradient><clipPath id="c"><rect width="1920" height="1080"/></clipPath></defs><g id="b" clip-path="url(#c)"><g transform="translate(1202.773 152.215)"><path d="M889.447,220.378C902.993,240.142,900,265.744,900,265.744s-24.96-6.441-38.505-26.2-10.548-45.366-10.548-45.366S875.9,200.615,889.447,220.378Z" transform="translate(-534.556 -154.336)" fill="#2f2e41"/><path d="M907.835,210.116c1.585,23.908,19.78,42.167,19.78,42.167s15.625-20.5,14.04-44.41-19.78-42.167-19.78-42.167S906.25,186.209,907.835,210.116Z" transform="translate(-562.691 -140.3)" fill="#6c63ff"/><path d="M585.264,116.083l183.909,92.462a8.7,8.7,0,0,1,4.771,8.356L763.259,375.173a4.309,4.309,0,0,1-6.243,3.555l-188.1-96,9.657-162.789a4.625,4.625,0,0,1,6.694-3.858Z" transform="translate(-395.641 -115.59)" fill="#d0cde1"/><path d="M589.83,122.456l179.392,90.192a8.483,8.483,0,0,1,4.653,8.15L763.452,375.183a4.2,4.2,0,0,1-6.09,3.468L573.88,285.011,583.3,126.22a4.511,4.511,0,0,1,6.53-3.764Z" transform="translate(-398.09 -118.738)" fill="#3f3d56"/><path d="M606.789,146.13,769.4,227.886a7.689,7.689,0,0,1,4.218,7.388l-9.448,139.945a3.81,3.81,0,0,1-5.52,3.144L592.331,293.481l8.539-143.939a4.089,4.089,0,0,1,5.919-3.412Z" transform="translate(-407.188 -130.433)" fill="#fff"/><path d="M287.13,521.837l184.144,92.737a12.261,12.261,0,0,0,11.044-.014l136.224-69.152c1.6-1.6,1.374-3.965.863-5.742a12.792,12.792,0,0,0-1.007-2.482l-18.563-9.764L443.759,449.548l-9.325-4.95a17.266,17.266,0,0,0-16.038-.065L287.072,512.75a5.1,5.1,0,0,0,.058,9.087Z" transform="translate(-255.321 -276.817)" fill="#d0cde1"/><path d="M287.127,593.683,471.271,686.42a12.261,12.261,0,0,0,11.044-.014L618.54,617.254c1.6-1.6,1.374-3.964.863-5.742L483.586,682.107a11.847,11.847,0,0,1-10.747.092l-188.46-93.891A5.078,5.078,0,0,0,287.127,593.683Z" transform="translate(-255.318 -348.663)" opacity="0.1"/><path d="M534.2,623.536,474.568,593.4a8.38,8.38,0,0,0-7.728.088L432.246,611.97a2.475,2.475,0,0,0,.052,4.392l60.8,30.662a6.888,6.888,0,0,0,6.482-.149l34.733-19.568a2.131,2.131,0,0,0-.113-3.772Z" transform="translate(-327.612 -350.73)" opacity="0.1"/><path d="M666.612,551.589l-64.173,34.092a5.22,5.22,0,0,1-4.8.048L416.318,494.037a3.083,3.083,0,0,1,.024-5.515l62.667-31.017a6.8,6.8,0,0,1,6.072.022l181.5,91.45a1.471,1.471,0,0,1,.028,2.612Z" transform="translate(-319.57 -283.824)" opacity="0.1"/><rect width="0.72" height="65.963" transform="matrix(0.447, -0.894, 0.894, 0.447, 244.341, 98.388)" fill="#6c63ff"/><rect width="0.719" height="66.288" transform="translate(244.33 107.035) rotate(-62.909)" fill="#6c63ff"/><rect width="0.72" height="37.971" transform="matrix(0.455, -0.89, 0.89, 0.455, 255.135, 123.566)" fill="#6c63ff"/><path d="M344.955,426.516s-14.387-6.269-21.145.353S341.9,431.312,344.955,426.516Z" transform="translate(-274.221 -267.568)" fill="#3f3d56"/><path d="M314.933,362.132c4.835-8.17,14.4-8.551,14.4-8.551s9.321-1.192,15.3,11.25c5.573,11.6,13.265,22.8,1.238,25.51L343.7,383.58l-1.346,7.265a47.041,47.041,0,0,1-5.146.088c-12.88-.416-25.146.122-24.751-4.5C312.983,380.289,310.281,369.993,314.933,362.132Z" transform="translate(-269.043 -232.916)" fill="#2f2e41"/><path d="M294.12,662.62s6.1,11.336,10.028,11.336,3.488,7.412,2.616,9.156-3.052,5.668.436,11.336a6.955,6.955,0,0,1,.2,6.31c-2.24,5.84-10.954,4.071-10.676-2.178q0-.1.011-.208c.436-6.976-3.052-17.875-6.54-20.491s-6.54-9.592-6.54-9.592Z" transform="translate(-254.996 -385.303)" fill="#ffb8b8"/><path d="M373.3,657.46S367.2,668.8,363.276,668.8s-3.488,7.412-2.616,9.156,3.052,5.668-.436,11.336a6.955,6.955,0,0,0-.2,6.31c2.24,5.84,10.954,4.071,10.676-2.178q0-.1-.011-.208c-.436-6.976,3.052-17.875,6.54-20.491s6.54-9.591,6.54-9.591Z" transform="translate(-292.325 -382.759)" fill="#ffb8b8"/><path d="M303.3,542.714l2.616,5.668s38.367,12.644,34.879,27.467-20.491,37.931-23.107,37.059-16.567-3.488-17-10.9,10.028-20.491,10.028-20.491l-14.387-13.079L275.392,568l-17.867,13.515s18.747,16.568,10.464,23.107-20.491,10.9-22.235,8.284S224.391,571.489,227.443,568s34.007-16.567,34.007-16.567l8.284-11.772L302,537.919Z" transform="translate(-227.121 -323.819)" fill="#2f2e41"/><path d="M343.685,402.272s-2.18,14.388,2.18,16.131-8.72,9.156-8.72,9.156h-7.412l-4.8-10.028s4.36-7.848,1.744-15.259S343.685,402.272,343.685,402.272Z" transform="translate(-275.35 -255.314)" fill="#ffb8b8"/><path d="M343.685,402.272s-2.18,14.388,2.18,16.131-8.72,9.156-8.72,9.156h-7.412l-4.8-10.028s4.36-7.848,1.744-15.259S343.685,402.272,343.685,402.272Z" transform="translate(-275.35 -255.314)" opacity="0.1"/><path d="M340.8,429.557s-4.8,5.232-5.668,6.1-4.8,5.668-13.08-1.308-9.156,1.308-9.156,1.308v52.318s6.976-3.052,12.644,0,17.439-.872,17.439-.872l2.18-54.062Z" transform="translate(-269.413 -270.391)" fill="#d0cde1"/><path d="M356.176,428.8s4.074-1.744,7.562,0,15.7,10.464,14.823,14.387-12.208,31.391-4.36,44.47,9.156,16.567,9.156,16.567L364.174,494.2s-14.823-9.156-13.516-14.823S356.176,428.8,356.176,428.8Z" transform="translate(-287.991 -269.637)" fill="#3f3d56"/><path d="M301.88,429.557s-9.151.872-9.587,1.744-13.734,4.578-12.862,8.5,12.862,39.021,7.63,45.56-13.951,15.7-10.9,16.567,8.284-1.308,13.515,0,17.439-9.592,16.131-21.363S305.8,432.609,301.88,429.557Z" transform="translate(-250.989 -270.391)" fill="#3f3d56"/><path d="M362,591.7v4.36s2.18,10.028-4.8,9.592-2.616-12.208-2.616-12.208l.436-3.924Z" transform="translate(-289.306 -349.26)" fill="#ffb8b8"/><path d="M323.761,594.679s4.8,10.028,0,10.9-8.284-5.668-8.284-7.412S323.761,594.679,323.761,594.679Z" transform="translate(-270.685 -351.804)" fill="#ffb8b8"/><ellipse cx="0.872" cy="1.744" rx="0.872" ry="1.744" transform="translate(45.882 139.328)" fill="#ffb8b8"/><ellipse cx="0.872" cy="1.744" rx="0.872" ry="1.744" transform="translate(71.605 139.328)" fill="#ffb8b8"/><path d="M294.108,440.737s-10.9,0-10.464,4.36,14.824,79.35,14.824,79.35,6.1-5.668,11.336-4.36Z" transform="translate(-254.984 -275.903)" fill="#3f3d56"/><path d="M370.757,443.317s10.9,2.18,10.9,8.72-15.7,69.322-17.875,69.322-10.464-1.308-10.464-3.488S370.757,443.317,370.757,443.317Z" transform="translate(-289.342 -277.175)" fill="#3f3d56"/><path d="M373.447,468.687l-9.81,38.363S368.216,473.483,373.447,468.687Z" transform="translate(-294.431 -289.684)" opacity="0.2"/><path d="M307.723,458.054l9.921,50.157S314.473,460.947,307.723,458.054Z" transform="translate(-266.862 -284.441)" opacity="0.2"/><circle cx="12.644" cy="12.644" r="12.644" transform="translate(46.972 128.647)" fill="#ffb8b8"/><path d="M94.3,248.53l9.451-4.95L116.8,245.6l2.7,11.926-6.721-.258-1.878-4.382V257.2l-3.1-.119L106,250.1l-1.125,7.425-11.026-.225Z" transform="translate(-46.273 -120.102)" fill="#2f2e41"/><path d="M369.211,100.884,364,113.278l43.987,23.089L422.806,93" transform="translate(-179.47 -45.859)" fill="#f2f2f2"/><path d="M405.987,97.7l19.432-45.723L380.757,30,362,74.612Z" transform="translate(-178.484 -14.797)" fill="#6c63ff"/><rect width="0.72" height="37.971" transform="matrix(0.455, -0.89, 0.89, 0.455, 200.891, 33.328)" fill="#fff"/><rect width="0.72" height="37.971" transform="matrix(0.455, -0.89, 0.89, 0.455, 198.357, 39.412)" fill="#fff"/></g><g transform="translate(243.674)"><path d="M942.881,191.4c-61.438,52.153-141.128,48.779-210.962,21.639S597.937,137.605,529.9,103.266C472.856,74.48,413,55.577,352.411,47.168c-86.717-12.035-183.557,2.657-243.972,86.93-67.283,93.891-62.116,263.234,10.627,349.367,37.022,43.837,85.5,65.357,127.765,99.629s81.417,91.074,77.817,157.149c-3.334,61.106-42.083,108.091-82.188,137.542-30.991,22.755-69.156,47.609-72.889,94.754-3.613,45.6,28.481,81.351,59.127,101.675,99.975,66.3,223.17,65.662,322.8-1.674,35.521-24.031,68.146-55.992,105.408-74.7,97.836-49.15,205.648.319,309.249,18.425,87.674,15.316,177.593,7.373,263.021-23.22,51.3-18.372,102.8-46.494,138.844-98.779,26-37.726,42.19-85.482,57.386-132.64q24.31-75.413,46.746-151.915c8.967-30.619,17.8-61.823,20.125-94.568,4.2-59.353-13.5-118.028-37.594-168.108-57.214-118.931-153.575-202.553-257.933-223.794S981.989,143.49,901.05,234.272" transform="translate(-61.076 -43.494)" fill="#6c63ff" opacity="0.1"/><ellipse cx="301.518" cy="13.762" rx="301.518" ry="13.762" transform="translate(348.788 693.64)" fill="#6c63ff" opacity="0.1"/><path d="M610.576,668.393c-150.733,0-273.356-122.624-273.356-273.356S459.8,121.68,610.576,121.68,883.893,244.317,883.893,395.036,761.256,668.393,610.576,668.393Zm0-544.056c-149.271,0-270.7,121.441-270.7,270.7s121.388,270.7,270.7,270.7,270.7-121.441,270.7-270.7S759.794,124.337,610.576,124.337Z" transform="translate(29.608 -17.819)" fill="#fff"/><path d="M595.414,591.882c-116.9,0-212.024-95.113-212.024-212.011S478.516,167.86,595.414,167.86s212.011,95.113,212.011,212.011S712.313,591.882,595.414,591.882Zm0-421.366c-115.45,0-209.368,93.917-209.368,209.354s93.917,209.354,209.368,209.354,209.354-93.917,209.354-209.354S710.812,170.517,595.414,170.517Z" transform="translate(44.77 -2.654)" fill="#fff"/><path d="M579.123,509.706A146.123,146.123,0,1,1,725.246,363.583,146.123,146.123,0,0,1,579.123,509.706Zm0-289.589A143.466,143.466,0,1,0,722.589,363.583,143.466,143.466,0,0,0,579.123,220.117Z" transform="translate(61.061 13.634)" fill="#fff"/><ellipse cx="18.956" cy="6.27" rx="18.956" ry="6.27" transform="translate(1282.833 529.279)" fill="#6c63ff" opacity="0.1"/><path d="M593.472,807.486s-50.545-3.055-44.581,32.36c0,0-1.182,6.257,4.49,9.1,0,0,.093-2.657,5.181-1.727a23.264,23.264,0,0,0,5.486.266,11.464,11.464,0,0,0,6.722-2.776h0s14.2-5.872,19.727-29.092c0,0,4.091-5.061,3.985-6.363l-8.528,3.64s2.909,6.15.611,11.265c0,0-.266-11.039-1.913-10.773-.332,0-4.424,2.125-4.424,2.125s5.008,10.72,1.222,18.5c0,0,1.435-13.2-2.79-17.721l-6,3.494s5.858,11.079,1.886,20.112c0,0,1.023-13.855-3.148-19.248l-5.446,4.238s5.513,10.906,2.152,18.4c0,0-.438-16.127-3.334-17.269,0,0-4.756,4.184-5.473,5.911,0,0,3.759,7.97,1.421,12.1,0,0-1.435-10.747-2.657-10.787,0,0-4.742,7.12-5.234,11.956a25.878,25.878,0,0,1,4.078-12.686,14.227,14.227,0,0,0-7.253,3.759s.731-5.035,8.422-5.473c0,0,3.985-5.393,4.968-5.725,0,0-7.652-.638-12.288,1.421,0,0,4.078-4.756,13.7-2.657l5.314-4.384s-10.069-1.328-14.347.146c0,0,4.915-4.211,15.795-1.142l5.845-3.507s-8.581-1.846-13.7-1.182c0,0,5.393-2.909,15.409.253l4.185-1.886s-6.3-1.235-8.13-1.421-1.939-.7-1.939-.7a21.734,21.734,0,0,1,11.81,1.328S593.618,808.044,593.472,807.486Z" transform="translate(98.958 207.372)" fill="#6c63ff"/><ellipse cx="35.774" cy="6.044" rx="35.774" ry="6.044" transform="translate(621.839 1053.369)" fill="#6c63ff" opacity="0.1"/><path d="M891.579,774.886S841.1,771.844,847,807.259c0,0-1.182,6.257,4.49,9.1,0,0,.093-2.657,5.181-1.74a23.4,23.4,0,0,0,5.5.266,11.344,11.344,0,0,0,6.708-2.776h0s14.214-5.858,19.727-29.079c0,0,4.091-5.074,3.985-6.376l-8.581,3.72s2.909,6.15.624,11.265c0,0-.279-11.052-1.913-10.786-.332,0-4.437,2.125-4.437,2.125s5.008,10.72,1.235,18.518c0,0,1.435-13.2-2.8-17.734l-6,3.507s5.858,11.065,1.886,20.1c0,0,1.023-13.855-3.148-19.248l-5.433,4.211s5.5,10.919,2.139,18.411c0,0-.438-16.14-3.321-17.349,0,0-4.756,4.2-5.486,5.925,0,0,3.773,7.97,1.435,12.088,0,0-1.435-10.733-2.657-10.786,0,0-4.742,7.12-5.234,11.955a25.837,25.837,0,0,1,4.091-12.686,14.293,14.293,0,0,0-7.266,3.759s.744-5.021,8.435-5.473c0,0,3.985-5.393,4.968-5.725,0,0-7.652-.638-12.3,1.421,0,0,4.091-4.756,13.7-2.59l5.314-4.384s-10.083-1.328-14.347.146c0,0,4.915-4.2,15.795-1.142l5.845-3.494s-8.595-1.86-13.709-1.182c0,0,5.393-2.909,15.423.239l4.184-1.873s-6.3-1.235-8.143-1.435-1.939-.7-1.939-.7a21.774,21.774,0,0,1,11.823,1.328S891.739,775.444,891.579,774.886Z" transform="translate(196.857 196.667)" fill="#6c63ff"/><ellipse cx="35.774" cy="6.044" rx="35.774" ry="6.044" transform="translate(1017.846 1010.063)" fill="#6c63ff" opacity="0.1"/><ellipse cx="111.638" cy="18.319" rx="111.638" ry="18.319" transform="translate(746.203 1030.241)" fill="#6c63ff" opacity="0.1"/><g transform="translate(628.76 486.013)" opacity="0.1"><path d="M892.787,409.36H552.2a17.854,17.854,0,0,0-17.8,17.8v215.2a17.854,17.854,0,0,0,17.8,17.8H819.38s6.921,36.743-15.821,40.689c0,0,50.917,3.653,42.017-40.689h47.211a17.854,17.854,0,0,0,17.8-17.8V427.16a17.854,17.854,0,0,0-17.8-17.8Z" transform="translate(-534.4 -409.36)"/><g transform="translate(50.134 94.701)" opacity="0.2"><rect width="275.907" height="16.817" rx="5.67" transform="translate(0 37.58)"/><rect width="119.635" height="16.817" rx="5.67"/></g></g><path d="M890.613,407.13H549.96a17.854,17.854,0,0,0-17.8,17.8v215.2a17.853,17.853,0,0,0,17.8,17.8H817.14s6.921,36.743-15.821,40.7c0,0,50.931,3.653,42.03-40.7h47.264a17.853,17.853,0,0,0,17.8-17.8V424.93a17.854,17.854,0,0,0-17.8-17.8Z" transform="translate(93.624 75.92)" fill="#fff"/><g transform="translate(675.931 577.751)" opacity="0.2"><rect width="275.907" height="16.817" rx="5.67" transform="translate(0 37.58)" fill="#6c63ff"/><rect width="119.635" height="16.817" rx="5.67" fill="#6c63ff"/></g><path d="M824.882,968.4c-1.607-6.815-2.657-12.806-2.657-12.806s.372-7.426-2.962-13v-1.86h0V927a46.023,46.023,0,0,1,3.467-7.187c2.471-4.317,0-20.125,0-20.125s-9.166-22.291-6.934-36.424-18.823-62.793-18.823-62.793a61.755,61.755,0,0,1,1.979-13.9,10.748,10.748,0,0,0,.266-2.909,3.085,3.085,0,0,0,0-.359v.12c-.319-9.3-7.691-26.807-7.691-26.807l1-33.3s4.7-19.647-2.976-46.016c-2.657-9.192-4.4-16.565-5.486-22.237-.12-.651-.239-1.328-.345-1.86,15.808-2.4,27.9-4.41,27.9-4.41s-9.139-38.351-15.33-44.992-11.132-27.9-11.132-27.9-3.228-27.086,1.979-34.99,5.938-21.56,5.938-21.56,11.956-8.634,13.377-12.46,3.985-12.46,3.985-17.017-1.488-8.635-1-11.026-3.467-11.5-1.488-15.821a11.619,11.619,0,0,0,.8-4.158v-.12h0a58.745,58.745,0,0,0-1.049-11.238,31.882,31.882,0,0,0-11.756-6.283l-.266-1.036-.664-2.657c-.4-.266-.784-.491-1.169-.7v-.983l-.12-3.892,1.873-8.741c3.653-15.223-16.658-17.495-16.658-17.495a10.627,10.627,0,0,0-5.752-5.035c-4.091-1.435-.677,22.888,1.235,24.442,1.435,1.169,5.872,8.794,7.97,12.54h0l.345.624a7.445,7.445,0,0,0-.93.97l.771,5.314.12.81a22.13,22.13,0,0,0-3.241,5.526s3.72,4.078,2.976,8.635,1.129,10.229,1.222,10.534c-.213-.252-2.829-3.082-5.433-2.391s-9.91,2.883-9.91,2.883-5.446.956-4.942,2.152-3.719,6.469-3.719,6.469l-14.612-13.868c-.133-.412-.292-.824-.425-1.262A34.784,34.784,0,0,1,743.279,458a34.741,34.741,0,0,0,4.676-1.488,10.121,10.121,0,0,0,3.985-2.59c1.474-1.753,1.753-4.131,2.351-6.31,1.169-4.264,3.653-8.063,5.433-12.115a39.32,39.32,0,0,0,2.922-21.746,14.359,14.359,0,0,0-2.245-6.363c-2.391-3.294-6.722-4.623-9.883-7.253s-5.181-6.642-8.847-8.595c-3.321-1.78-7.373-1.568-11.119-.956a59.9,59.9,0,0,0-20.736,7.545c-2.139,1.262-4.477,2.723-6.934,2.285-2.1-.385-3.64-2.072-5.008-3.68a.244.244,0,0,1,.066-.2l-.159-.186a25.731,25.731,0,0,0-2.165,10.853,15.48,15.48,0,0,0,.066,1.754v1.116h0a2.659,2.659,0,0,1-.106.784,5.713,5.713,0,0,1-1.328,1.979,10.416,10.416,0,0,0-1.2,1.621,5.319,5.319,0,0,1,.2-.6,8.7,8.7,0,0,0-1.514,4.623,4.57,4.57,0,0,0,1.089,3.294,15.946,15.946,0,0,0,2.391,1.926A27.9,27.9,0,0,0,708.5,452.716c.173.412.345.837.5,1.262,1.873,4.928,3.281,10.627,2.657,15.941a5.8,5.8,0,0,1-.186,1.169c-.08.385-.359.4-.518.611h0s-24.163.239-29.862-4.915-14.36,12.58-14.36,12.58-8.661,1.674-10.388,0-11.889-.239-11.889-.239a21.852,21.852,0,0,0-15.037-5.5,44.687,44.687,0,0,0-11.079-6.164h0l-.266-.093h0a12.459,12.459,0,0,0-5.446-.691s-11.889-9.83-15.356-15.091-19.926-24.828-20.045-24.921v-.943l-.186-2.856a9.444,9.444,0,0,1-1.474.133c-.093-.279-.2-.611-.332-.983a55.218,55.218,0,0,0-3.507-8.063s0-3.587,1.049-4.49-.438-14.081-.438-14.081-10.707-25.04-20.3-6.35c0,0-18.133,12.1-2.909,26.183,0,0,6.071,2.936,6.921,5.314.571,1.514,2.657,5.739,3.985,8.542l.624,1.262-.173.146.226,2.351.093.9c-2.869,1.634-4.809,3.241-4.344,4.463a27.019,27.019,0,0,1,1.74,6.469s20.962,26.3,23.685,37.594c0,0,56.443,33.542,75.014,35.933l-3.215,16.778a134.167,134.167,0,0,0-.744,13.656c.239,3.6-2.232,19.926-2.232,19.926s-3.215,23.911-5.938,27.312-2.165,17.707-2.165,17.707a121.065,121.065,0,0,1-3.719,20.364c-2.657,9.113-.744,20.378-.744,20.378s-9.4,21.56,13.125,6.948c0,0,11.065-.691,23.8-1.129v1.328c0,1.634,0,3.414-.08,5.314-.173,12.354-.239,29.371.319,42.256,1,22.755,7.97,67.814,7.97,67.814v22.583a31.091,31.091,0,0,0-.651,6.469,42.177,42.177,0,0,0,6.1,22.662l1.74,15.091s4.065,9.95,4.144,15.941a9.217,9.217,0,0,1-.173,1.448,10.294,10.294,0,0,0-.2,2.311c-.226,6.854,3.906,23.247,3.906,23.247s.239,16.539,2.657,17.495c2.112.824-2.83,9.538-4.3,12.035a.882.882,0,0,0-.093-.478l-.305.5a11.582,11.582,0,0,0-.77,4.171,6.017,6.017,0,0,0,2.75,5.818c4.7,2.869,7.226,5.314,3.228,6.23a42.89,42.89,0,0,0-4.357.917l-.212-.558a2.657,2.657,0,0,0-1.621,2.9,12.06,12.06,0,0,0,1.474,5.606c3.985,8.874,6.642,12.221,6.642,12.221l1.913-.213a10.238,10.238,0,0,1-1.1,2.046,7.891,7.891,0,0,1-2.8,2.484,8.447,8.447,0,0,1-3.387,1.156,9.577,9.577,0,0,0-7.014,3.414c-2.471,3.2-3.985,7.545.863,11.371l17.708,6.111s30.447,3.985,28.839-2.883S735.6,964.12,735.6,964.12a26.992,26.992,0,0,0-2.471-12.115,16.236,16.236,0,0,0-1.076-1.78l1.076-.12s2.232-15.1,5.194-17.973c.691-.664.85-1.169.677-1.568.306-.823-.465-1.328-1.461-1.581l-.213.6a14.5,14.5,0,0,0-2.962-.332s-.983-7.9,2.232-10.773a3.055,3.055,0,0,0,.624-2.351,13.2,13.2,0,0,0-.332-3.228l-.12.186c-1.621-7.173-7.107-18.6-7.107-18.6s-.252-7.187,1.74-10.069-.252-39.055-.252-39.055.744-17.495-1.488-25.638,2.723-17.734,2.723-17.734v-.531l.066-.12s-.12-1.076-.292-2.75v.159c-.5-4.623-1.448-13.018-2.139-16.9-1-5.513.239-31.881.239-31.881l4.463-11.265,7.97,19.421L751.117,784s4.171,5.46,4.264,11a5.408,5.408,0,0,1,0,.81,15.607,15.607,0,0,0-.093,1.74,15.33,15.33,0,0,0,2.564,9.206s2.232,12.221,5.7,15.343,3.467,9.1,3.467,9.1,4.2,17.734,6.19,20.856c1.661,2.657,1.753,9.843,1.74,12.049h0v.651s.584,6.336.558,11.663v1.9a.574.574,0,0,1,0-.146,19.46,19.46,0,0,1-.518,4.317.448.448,0,0,1-.08.252l.08-.9a45.649,45.649,0,0,0-1.328,11.052c-.12,6.376.85,13.922,4.716,18.345,6.642,7.678,10.893,6.722,10.893,6.722s-3.215,9.578-7.187,11.491a2.246,2.246,0,0,0-.412.279,4.1,4.1,0,0,0-.106-.558,4.65,4.65,0,0,0-1.156,3.573c-.292,4.211,2.365,11.052,4.9,14.2a7.733,7.733,0,0,0,3.348,1.953l-.624.385a13.636,13.636,0,0,1-1.328.651,6.419,6.419,0,0,1-2.019.518,9.485,9.485,0,0,0-7.014,3.414c-2.471,3.188-3.985,7.532.864,11.358l17.707,6.111S826.489,975.239,824.882,968.4Z" transform="translate(97.2 67.702)" fill="url(#a)"/><path d="M672.65,840.313,655.514,834.2c-4.729-3.826-3.215-8.17-.837-11.371a9.165,9.165,0,0,1,6.788-3.414,7.968,7.968,0,0,0,3.281-1.156,7.691,7.691,0,0,0,2.657-2.484,12.525,12.525,0,0,0,1.953-6.642s18.823-5.513,23.911,0a14.159,14.159,0,0,1,2.285,3.334,27.9,27.9,0,0,1,2.391,12.115s.97,5.991,2.511,12.819S672.65,840.313,672.65,840.313Z" transform="translate(133.118 207.131)" fill="#2d293d"/><path d="M735.791,833.936l-17.136-6.111c-4.729-3.826-3.228-8.17-.837-11.358a9.073,9.073,0,0,1,6.788-3.414,6.017,6.017,0,0,0,1.953-.518,10.073,10.073,0,0,0,1.328-.651c4.782-2.657,4.663-9.1,4.663-9.1s18.81-5.513,23.911,0a12.834,12.834,0,0,1,1.793,2.444c3.241,5.579,2.883,13.018,2.883,13.018s.956,5.991,2.511,12.819S735.791,833.936,735.791,833.936Z" transform="translate(153.851 205.046)" fill="#2d293d"/><path d="M689.657,809.148a14.16,14.16,0,0,1,2.285,3.334h0l-28.2,3.268a12.525,12.525,0,0,0,1.953-6.642S684.516,803.635,689.657,809.148Z" transform="translate(136.834 207.132)" opacity="0.1"/><path d="M755.589,805.2v5.314c-4.37,7.226-25.585,5.646-31.748,2.019a10.08,10.08,0,0,0,1.328-.651c4.782-2.657,4.663-9.1,4.663-9.1s18.81-5.513,23.911,0A12.842,12.842,0,0,1,755.589,805.2Z" transform="translate(156.57 205.046)" opacity="0.1"/><path d="M785.687,856.144a48.847,48.847,0,0,0-3.361,7.187v18.93c-4.782,7.97-29.7,5.314-33.064.956s-6.947-15.569-3.109-17.482,6.948-11.5,6.948-11.5-4.078.956-10.547-6.708-4.556-24.682-3.347-28.76,0-17.734,0-17.734.239-9.578-1.687-12.7-5.991-20.842-5.991-20.842,0-5.991-3.348-9.113-5.513-15.33-5.513-15.33a15.742,15.742,0,0,1-2.431-10.3c.731-5.991-4.065-12.46-4.065-12.46l-8.143-25.877-7.678-19.408-4.277,11.251s-1.209,26.355-.239,31.881,2.391,20.125,2.391,20.125-4.8,9.591-2.657,17.734S697,781.635,697,781.635s2.152,36.185.239,39.055-1.674,10.069-1.674,10.069,9.817,21.081,6.642,23.911-2.165,10.787-2.165,10.787,6.642,0,3.839,2.869-4.9,18.013-4.9,18.013l-28.972,3.348s-2.657-3.348-6.5-12.221.717-7.97,4.583-8.86,1.408-3.361-3.135-6.23-1.926-9.3-1.926-9.3,6.948-11.743,4.556-12.713-2.657-17.482-2.657-17.482-4.8-19.66-3.6-24.921-3.839-17.973-3.839-17.973l-1.674-15.1a41.54,41.54,0,0,1-5.314-28.507V713.09s-6.642-45.046-7.665-67.814c-.611-14.612-.438-34.472-.239-46.892.12-6.961.239-11.57.239-11.57L746.393,576a85.527,85.527,0,0,0,1.873,15.37c1.049,5.685,2.657,13.045,5.314,22.251,7.426,26.355,2.869,46,2.869,46l-.956,33.316s9.113,22.277,7.187,29.955a63.765,63.765,0,0,0-1.913,13.9s20.364,48.646,18.212,62.78,6.642,36.424,6.642,36.424S788.078,851.827,785.687,856.144Z" transform="translate(129.833 131.376)" fill="#575988"/><path d="M705.71,693.948l31.523-4.2S719.379,707.962,705.71,693.948Z" transform="translate(150.617 168.73)" opacity="0.05"/><path d="M727.422,666.57s1.076,11.145-5.752,15.343C721.683,681.913,733.9,679.987,727.422,666.57Z" transform="translate(155.858 161.118)" opacity="0.1"/><path d="M733.741,639.88s-26.342,21.679-35.867,19.926S733.741,639.88,733.741,639.88Z" transform="translate(147.612 152.354)" opacity="0.1"/><path d="M681.406,700.58s-20.006,4.543-20.6,12.58S681.406,700.58,681.406,700.58Z" transform="translate(135.866 172.287)" opacity="0.1"/><path d="M684.979,775.8s-28.268,5.314-20.245,8.86,21.254,6.469,21.254,6.469S695.048,791.608,684.979,775.8Z" transform="translate(136.69 196.988)" opacity="0.05"/><g transform="translate(772.231 717.498)" opacity="0.05"><path d="M660.979,787.785a5.632,5.632,0,0,1-2.577-4.1l-.292.5s-2.657,6.469,1.913,9.3c.531.332,1.023.664,1.475.983.85-.159,1.753-.279,2.657-.492C667.98,793.045,665.535,790.654,660.979,787.785Z" transform="translate(-637.498 -517.922)"/><path d="M687.831,786.538c.784-.717.757-2.564.279-4.928a13.363,13.363,0,0,0-1.607,6.948A5.818,5.818,0,0,1,687.831,786.538Z" transform="translate(-627.925 -518.602)"/><path d="M684.7,695.58a32.225,32.225,0,0,0-1.913,8.807,34.7,34.7,0,0,1,2.192-6.057S684.876,697.254,684.7,695.58Z" transform="translate(-629.141 -546.853)"/><path d="M733.128,686.767a11.025,11.025,0,0,0,.266-2.657c-.359,1.78-.611,3.441-.784,4.9A12.9,12.9,0,0,1,733.128,686.767Z" transform="translate(-612.78 -550.62)"/><path d="M683.861,761.024a15.273,15.273,0,0,0,.717-5.314,18.052,18.052,0,0,0-1.328,6.722A6.479,6.479,0,0,1,683.861,761.024Z" transform="translate(-628.99 -527.107)"/><path d="M698.357,793.72a94.31,94.31,0,0,0-3.294,14.719L666.09,811.8s-2.657-3.361-6.5-12.221c-.332-.784-.6-1.474-.81-2.112-1.74.8-2.418,2.657-.146,7.864,3.839,8.86,6.483,12.221,6.483,12.221l29.012-3.361s2.152-15.091,5.021-17.973C700.549,794.809,699.645,794.092,698.357,793.72Z" transform="translate(-637.547 -514.625)"/><path d="M664.928,819.688s.239,16.538,2.657,17.495h0c1.209-2.736,2.019-5.313.943-5.765-2.4-.956-2.657-17.495-2.657-17.495s-4.782-19.647-3.587-24.921-3.839-17.973-3.839-17.973l-1.674-15.091a41.486,41.486,0,0,1-5.314-28.521V704.172s-6.642-45.046-7.665-67.748c-.611-14.612-.438-34.538-.239-46.892,0-2.245.066-4.238.106-5.911l-.824.08s-.133,4.61-.239,11.584c-.213,12.407-.385,32.306.239,46.879.956,22.769,7.665,67.814,7.665,67.814v23.247a41.487,41.487,0,0,0,5.314,28.521l1.687,15s5.035,12.7,3.839,17.973S664.928,819.688,664.928,819.688Z" transform="translate(-642.403 -583.62)"/><path d="M724.994,805.274a27.894,27.894,0,0,1-4.583-11.384c-2.962,2.657.438,13.032,3.626,17.136,3.348,4.3,28.268,6.948,33.064-.956V805.5C750.619,811.93,728.209,809.353,724.994,805.274Z" transform="translate(-617.16 -514.569)"/><path d="M751.831,782.133a46.5,46.5,0,0,0-3.361,7.187v3.334c.544-1.235,1.328-2.869,2.4-4.809a14.333,14.333,0,0,0,1.049-5.925A.812.812,0,0,0,751.831,782.133Z" transform="translate(-607.572 -518.5)"/><path d="M728.081,793.655a46.229,46.229,0,0,0,2.365-5.7s-4.078.956-10.547-6.642c-4.716-5.579-4.982-16.113-4.3-22.994-1.209,4.065-3.122,21.081,3.348,28.746C723.18,792.021,726.368,793.336,728.081,793.655Z" transform="translate(-618.773 -526.25)"/><path d="M725.739,777.5a128.066,128.066,0,0,1,.478,14.2,20.714,20.714,0,0,1,.492-2.232c1.209-4.065,0-17.721,0-17.721s.239-9.591-1.674-12.7-5.991-20.856-5.991-20.856,0-5.991-3.348-9.1-5.513-15.343-5.513-15.343a15.69,15.69,0,0,1-2.4-10.3c.717-5.991-4.065-12.46-4.065-12.46l-8.156-25.89L687.893,645.7l-4.317,11.265s0,1.421-.146,3.64l3.507-9.153L694.6,670.86l8.183,25.89s4.8,6.469,4.078,12.46a15.689,15.689,0,0,0,2.4,10.295s2.152,12.221,5.5,15.343,3.361,9.1,3.361,9.1,4.078,17.734,5.991,20.856S725.739,777.5,725.739,777.5Z" transform="translate(-628.931 -563.234)"/></g><path d="M736.25,418.581l-1.807,8.741.106,3.892.08,2.883-10,1.023-1.116-2.072h0c-2.072-3.746-6.363-11.371-7.758-12.54-1.847-1.554-5.141-25.877-1.182-24.442a10.468,10.468,0,0,1,5.566,5.048S739.784,403.424,736.25,418.581Z" transform="translate(152.914 72.267)" fill="#ffcdd3"/><path d="M731.959,425.721l-10,1.023-1.116-2.072h0a8.834,8.834,0,0,1,11.039-1.82Z" transform="translate(155.585 80.696)" opacity="0.1"/><path d="M734.624,430.234l-13.191,3.055-.266-1.966-.757-5.314s5.22-6.961,12.766-1.74l.651,2.657Z" transform="translate(155.444 80.911)" fill="#dce6f2"/><path d="M578.209,424.162l-14.068,7.545-1.328-2.657c-1.328-2.8-3.334-7.027-3.879-8.542-.837-2.325-6.708-5.314-6.708-5.314-14.732-14.081,2.816-26.183,2.816-26.183,9.3-18.69,19.647,6.35,19.647,6.35s1.435,13.191.425,14.081-1.023,4.49-1.023,4.49a54.542,54.542,0,0,1,3.4,8.063C577.983,423.339,578.209,424.162,578.209,424.162Z" transform="translate(98.28 67.695)" fill="#ffcdd3"/><path d="M574.136,414.31l-14.068,7.545L558.74,419.2c1.979-1.647,9.033-7.359,11.344-7.107a17.7,17.7,0,0,0,3.334.093C573.91,413.487,574.136,414.31,574.136,414.31Z" transform="translate(102.353 77.547)" opacity="0.1"/><path d="M575.452,418.365l-15.808,7.8-.319-3.4-.226-2.351s9.166-7.851,11.876-7.559a14.293,14.293,0,0,0,4.131,0l.173,2.843Z" transform="translate(102.471 77.797)" fill="#dce6f2"/><path d="M715.829,470s-68.97,7.784-56.071,3.6c8.967-2.922,12.527-8.621,13.284-14.958.6-5.314-.757-11.026-2.577-15.941a68.612,68.612,0,0,0-6.164-12.46s52.724-29,42.176-2.657a42.241,42.241,0,0,0-2.989,12.487,34.909,34.909,0,0,0,1.328,12.633A37.553,37.553,0,0,0,715.829,470Z" transform="translate(134.998 79.006)" fill="#ffcdd3"/><path d="M704.956,427.6a42.246,42.246,0,0,0-2.989,12.487c-4.968,4.171-10.415,3.892-17.4,3.892-5.314,0-11.318,1.328-15.622-1.328a68.6,68.6,0,0,0-6.164-12.46S715.5,401.22,704.956,427.6Z" transform="translate(136.519 79.001)" opacity="0.1"/><ellipse cx="28.521" cy="28.521" rx="28.521" ry="28.521" transform="translate(791.621 467.774)" fill="#ffcdd3"/><path d="M715.829,461.787s-68.97,7.784-56.071,3.6c8.967-2.923,12.527-8.621,13.284-14.958,3.427-3.719,10.322-6.4,14.758-7.824a20.6,20.6,0,0,1,12.5-.2,17.363,17.363,0,0,1,4.543,2.1,37.554,37.554,0,0,0,10.986,17.283Z" transform="translate(134.998 87.218)" opacity="0.1"/><path d="M734.437,429.2l-13.191,3.055-.266-1.966a11.65,11.65,0,0,1,12.66-4.331Z" transform="translate(155.631 81.951)" opacity="0.1"/><path d="M575.4,417.66l-15.808,7.8-.319-3.4a116.212,116.212,0,0,1,15.941-7.067Z" transform="translate(102.527 78.502)" opacity="0.1"/><path d="M748.214,591.4c-26.7,4.224-64.719,9.711-70.75,7.877-4.995-1.528-20.975-1.328-34.884-.89.12-6.961.239-11.57.239-11.57L746.341,576A85.511,85.511,0,0,0,748.214,591.4Z" transform="translate(129.885 131.376)" opacity="0.1"/><path d="M803.225,637.79s-87.94,15.1-97.384,12.221-57.891.239-57.891.239c-21.8,14.612-12.7-6.948-12.7-6.948s-1.913-11.265.717-20.364a124.046,124.046,0,0,0,3.667-20.364s-.478-14.386,2.152-17.734,5.752-27.325,5.752-27.325,2.4-16.286,2.165-19.926a136.246,136.246,0,0,1,.717-13.656l3.108-16.778c-17.973-2.391-72.61-35.946-72.61-35.946-2.657-11.251-22.995-37.62-22.995-37.62a27.365,27.365,0,0,0-1.687-6.469c-1.435-3.826,20.138-11.491,20.138-11.491s16.047,19.647,19.408,24.921,14.851,15.09,14.851,15.09a11.69,11.69,0,0,1,5.314.691l.279.08h0a42.963,42.963,0,0,1,10.733,6.164,20.8,20.8,0,0,1,14.612,5.513s9.83-1.435,11.5.239,10.069,0,10.069,0,8.382-17.734,13.9-12.58,28.893,4.915,28.893,4.915c3.122-4.145,10.707-7.12,15.449-8.648a20.7,20.7,0,0,1,12.5-.2,16.114,16.114,0,0,1,4.928,2.378L753,468.088s4.078-5.314,3.6-6.469,4.8-2.152,4.8-2.152,6.947-2.165,9.578-2.883,5.048,2.139,5.314,2.391c-.08-.306-1.886-6.111-1.182-10.534s-2.883-8.635-2.883-8.635c8.4-20.6,27.325-3.348,27.325-3.348s2.152,11.265.239,15.569,1.913,13.43,1.435,15.821.957,6.469.957,11.026-2.391,13.178-3.839,17-12.938,12.46-12.938,12.46-.717,13.669-5.752,21.573-2.059,34.99-2.059,34.99,4.8,21.135,10.826,27.9S803.225,637.79,803.225,637.79Z" transform="translate(101.508 78.712)" fill="#656691"/><path d="M648.612,467.812s-2.657-7.9-5.035-8.621a57.037,57.037,0,0,1-6.948-3.122l1.541-2.949s8.993,2.471,10.441,5.1S648.612,467.812,648.612,467.812Z" transform="translate(127.931 91.023)" opacity="0.1"/><path d="M614.782,452.547c-.478,2.391-21.812,4.556-21.812,4.556l10.787-10.813h0l.266.093h0a42.966,42.966,0,0,1,10.76,6.164Z" transform="translate(113.594 88.78)" opacity="0.1"/><circle cx="1.913" cy="1.913" r="1.913" transform="translate(664.746 506.536)" fill="#575988"/><circle cx="1.913" cy="1.913" r="1.913" transform="translate(667.204 510.375)" fill="#575988"/><circle cx="1.913" cy="1.913" r="1.913" transform="translate(669.608 513.909)" fill="#575988"/><circle cx="1.913" cy="1.913" r="1.913" transform="translate(672.119 517.748)" fill="#575988"/><ellipse cx="1.554" cy="1.554" rx="1.554" ry="1.554" transform="translate(898.357 517.894)" fill="#575988"/><ellipse cx="1.554" cy="1.554" rx="1.554" ry="1.554" transform="translate(898.596 521.428)" fill="#575988"/><ellipse cx="1.554" cy="1.554" rx="1.554" ry="1.554" transform="translate(898.809 524.961)" fill="#575988"/><path d="M645.74,513.06c-.226-.279,53.786,67.934,95.724,28.521C741.464,541.581,675.2,550.561,645.74,513.06Z" transform="translate(130.923 110.707)" opacity="0.1"/><path d="M622.38,539.76s32.32.877,35.694,10.175v9.684a6.177,6.177,0,0,1-6,0c-3.255-1.767-22.808-11.69-29.689-6.921Z" transform="translate(123.252 119.475)" opacity="0.1"/><path d="M622.83,539.76s30.912.837,34.14,9.711v9.206a5.925,5.925,0,0,1-5.752,0c-3.108-1.674-21.8-11.145-28.388-6.642Z" transform="translate(123.4 119.475)" fill="#656691"/><path d="M635.66,486.92a104.425,104.425,0,0,0,12.527,21.507,84.322,84.322,0,0,0,19.634,18.956S636.191,491.37,635.66,486.92Z" transform="translate(127.613 102.123)" opacity="0.1"/><path d="M627.7,458.65s5.393,23.273,19.288,31.191Z" transform="translate(124.999 92.839)" opacity="0.1"/><path d="M621.588,460.422c-.133-.425-4.782,18.411,17.92,28.839C639.561,489.261,629.864,485.98,621.588,460.422Z" transform="translate(122.835 93.419)" opacity="0.1"/><path d="M727.722,448.674c-.359,0,11.212,7.359,14.347,10.773C742.069,459.447,734.55,448.2,727.722,448.674Z" transform="translate(157.843 89.558)" opacity="0.1"/><path d="M678.521,452.468a6.072,6.072,0,0,0,2.232,3.852,6.151,6.151,0,0,0,2.657.6c8.7.531,17.747.917,25.784-2.431a9.751,9.751,0,0,0,3.985-2.59c1.435-1.754,1.7-4.131,2.285-6.31,1.116-4.264,3.52-8.063,5.314-12.115a40.635,40.635,0,0,0,2.816-21.746,14.415,14.415,0,0,0-2.165-6.363c-2.311-3.294-6.509-4.623-9.564-7.24s-5.008-6.642-8.568-8.608c-3.215-1.78-7.133-1.568-10.76-.956a56.778,56.778,0,0,0-20.218,7.545c-2.059,1.262-4.331,2.723-6.642,2.285-2.086-.4-3.6-2.152-4.942-3.786a26.569,26.569,0,0,0-2.125,12.42,5.522,5.522,0,0,1,0,1.873,5.78,5.78,0,0,1-1.328,1.979c-2.152,2.484-3.494,6.429-1.328,8.94.917,1.1,2.338,1.7,3.241,2.816,1.607,2.006,1.063,4.875,1.023,7.452a3.8,3.8,0,0,0,.638,2.524,3.68,3.68,0,0,0,3.52.837,9.762,9.762,0,0,1,3.746-.359,6.163,6.163,0,0,1,3.255,2.511C675.28,440.7,676.834,446.317,678.521,452.468Z" transform="translate(133.915 69.677)" fill="#2d293d"/><g transform="translate(788.68 464.001)" opacity="0.1"><path d="M714.117,443.8a9.645,9.645,0,0,1-3.985,2.657c-7.97,3.347-17.083,2.962-25.784,2.418a5.792,5.792,0,0,1-2.657-.6,6.03,6.03,0,0,1-2.232-3.852c-1.687-6.137-3.241-11.756-7.266-16.857a6.163,6.163,0,0,0-3.255-2.511,9.512,9.512,0,0,0-3.746.359,3.706,3.706,0,0,1-3.481-.837,3.826,3.826,0,0,1-.638-2.537c0-2.564.585-5.446-1.023-7.439-.9-1.129-2.311-1.714-3.241-2.816a5.632,5.632,0,0,1-.558-5.725c-1.514,2.418-2.179,5.526-.4,7.638.917,1.1,2.338,1.7,3.241,2.816,1.607,2.006,1.063,4.875,1.023,7.452a3.8,3.8,0,0,0,.638,2.524,3.68,3.68,0,0,0,3.52.837,9.764,9.764,0,0,1,3.746-.359,6.164,6.164,0,0,1,3.254,2.511c3.985,5.1,5.579,10.72,7.266,16.871a4.5,4.5,0,0,0,4.915,4.45c8.7.531,17.747.917,25.784-2.431a9.75,9.75,0,0,0,3.985-2.59,7.611,7.611,0,0,0,1.236-2.311,4.059,4.059,0,0,1-.345.332Z" transform="translate(-654.786 -388.432)"/><path d="M657.716,406.605a3.984,3.984,0,0,0,.877-1.435,5.543,5.543,0,0,0,0-1.873,26.431,26.431,0,0,1,1.328-10.322l-.16-.186a26.381,26.381,0,0,0-2.125,12.42A8.177,8.177,0,0,1,657.716,406.605Z" transform="translate(-653.873 -392.79)"/></g><path d="M668.84,449.728s35.627,4.716,38.829-.638" transform="translate(138.509 89.7)" opacity="0.1"/><path d="M721,438.47s19.78,0,24.137,7.452" transform="translate(155.638 86.212)" opacity="0.1"/><path d="M1043.427,425s2.471,3.228-1.142,8.116-6.642,9.02-5.393,12.062c0,0,5.46-9.073,9.9-9.206S1048.315,430.393,1043.427,425Z" transform="translate(259.279 81.789)" fill="#6c63ff"/><path d="M1043.389,425a4.376,4.376,0,0,1,.5,1.01c4.331,5.1,6.642,9.843,2.471,9.963-3.879.12-8.528,7.054-9.644,8.807a1.178,1.178,0,0,0,.133.4c.053.133,5.46-9.073,9.9-9.206S1048.277,430.393,1043.389,425Z" transform="translate(259.317 81.789)" opacity="0.1"/><path d="M1045.341,428.23c0,1.142-.12,2.072-.279,2.072s-.292-.93-.292-2.072.159-.6.319-.6S1045.341,427.1,1045.341,428.23Z" transform="translate(261.961 82.611)" fill="#ffd037"/><path d="M1046.87,429.273c-1,.545-1.873.877-1.939.731s.664-.691,1.674-1.235.6-.146.678,0S1047.88,428.729,1046.87,429.273Z" transform="translate(262.012 82.935)" fill="#ffd037"/><path d="M1033.276,425s-2.484,3.228,1.142,8.116,6.642,9.02,5.393,12.062c0,0-5.46-9.073-9.91-9.206S1028.387,430.393,1033.276,425Z" transform="translate(256.359 81.789)" fill="#6c63ff"/><path d="M1033.276,425a4.05,4.05,0,0,0-.518,1.01c-4.331,5.1-6.642,9.843-2.471,9.963,3.879.12,8.542,7.054,9.657,8.807a1.179,1.179,0,0,1-.133.4c-.053.133-5.46-9.073-9.91-9.206S1028.387,430.393,1033.276,425Z" transform="translate(256.359 81.789)" opacity="0.1"/><path d="M1028.43,428.229c0,1.142.133,2.072.292,2.072a4.2,4.2,0,0,0,.279-2.072c0-1.129-.159-.6-.319-.6S1028.43,427.1,1028.43,428.229Z" transform="translate(256.595 82.612)" fill="#ffd037"/><path d="M1027.391,429.273c1.01.545,1.873.877,1.953.731s-.677-.691-1.674-1.235-.611-.146-.691,0S1026.394,428.729,1027.391,429.273Z" transform="translate(256.053 82.935)" fill="#ffd037"/><path d="M1029,440.745s6.921-.213,9.006-1.7,10.627-3.255,11.172-.877,10.4,11.849,2.657,11.956-18.159-1.209-20.245-2.484S1029,440.745,1029,440.745Z" transform="translate(256.782 85.731)" fill="#a8a8a8"/><path d="M1051.928,448.335c-7.811,0-18.159-1.222-20.231-2.484-1.594-.97-2.219-4.437-2.431-6.031H1029s.438,5.593,2.524,6.854,12.42,2.551,20.245,2.484c2.258,0,3.029-.824,2.989-2.006C1054.465,447.87,1053.615,448.322,1051.928,448.335Z" transform="translate(256.782 86.656)" opacity="0.2"/></g><g transform="translate(266.257 284.276)"><rect width="107.119" height="155.554" rx="13.435" transform="translate(34.606 24.425) rotate(-12.753)" fill="#3f3d56"/><circle cx="3.09" cy="3.09" r="3.09" transform="translate(42.025 41.72)" fill="#fff"/><circle cx="3.09" cy="3.09" r="3.09" transform="translate(45.116 53.051)" fill="#fff"/><circle cx="3.09" cy="3.09" r="3.09" transform="translate(65.203 135.977)" fill="#fff"/><circle cx="3.09" cy="3.09" r="3.09" transform="translate(68.293 147.308)" fill="#fff"/><rect width="64.319" height="10.72" transform="translate(69.217 73.987) rotate(-12.753)" fill="#f5f5f5"/><rect width="107.119" height="155.554" transform="translate(110.725 78.779) rotate(-12.753)" fill="#6c63ff"/><rect width="107.119" height="155.554" transform="translate(220.9 53.844) rotate(-12.753)" fill="#3f3d56"/><rect width="64.319" height="10.72" transform="translate(133.085 90.984) rotate(-12.753)" fill="#f5f5f5"/><rect width="85.759" height="2.68" transform="translate(128.348 118.617) rotate(-12.753)" fill="#f5f5f5"/><rect width="85.759" height="2.68" transform="translate(129.728 124.716) rotate(-12.753)" fill="#f5f5f5"/><rect width="85.759" height="2.68" transform="translate(131.108 130.815) rotate(-12.753)" fill="#f5f5f5"/><rect width="41.093" height="2.68" transform="translate(132.489 136.914) rotate(-12.753)" fill="#f5f5f5"/><rect width="47.346" height="2.68" transform="translate(133.869 143.013) rotate(-12.753)" fill="#f5f5f5"/><rect width="85.759" height="2.68" transform="translate(135.25 149.112) rotate(-12.753)" fill="#f5f5f5"/><rect width="85.759" height="2.68" transform="translate(136.63 155.211) rotate(-12.753)" fill="#f5f5f5"/><rect width="79.506" height="2.68" transform="translate(138.01 161.31) rotate(-12.753)" fill="#f5f5f5"/><rect width="85.759" height="2.68" transform="translate(139.391 167.409) rotate(-12.753)" fill="#f5f5f5"/><rect width="44.666" height="2.68" transform="translate(140.771 173.508) rotate(-12.753)" fill="#f5f5f5"/><rect width="47.346" height="2.68" transform="translate(255.615 154.843) rotate(-12.753)" fill="#6c63ff" opacity="0.3"/><rect width="85.759" height="2.68" transform="translate(256.995 160.942) rotate(-12.753)" fill="#6c63ff" opacity="0.3"/><rect width="85.759" height="2.68" transform="translate(258.375 167.041) rotate(-12.753)" fill="#6c63ff" opacity="0.3"/><rect width="79.506" height="2.68" transform="translate(259.756 173.14) rotate(-12.753)" fill="#6c63ff" opacity="0.3"/><rect width="85.759" height="2.68" transform="translate(261.136 179.239) rotate(-12.753)" fill="#6c63ff" opacity="0.3"/><rect width="51.813" height="35.733" transform="translate(174.503 176.864) rotate(-12.753)" fill="#f5f5f5"/><rect width="51.813" height="35.733" transform="translate(234.318 60.745) rotate(-12.753)" fill="#6c63ff" opacity="0.3"/><rect width="51.813" height="35.733" transform="translate(283.78 97.178) rotate(-12.753)" fill="#6c63ff" opacity="0.3"/><g transform="translate(91.987 262.829)" opacity="0.5"><rect width="1.545" height="8.756" transform="translate(3.605)" fill="#47e6b1"/><rect width="1.545" height="8.756" transform="translate(8.756 3.606) rotate(90)" fill="#47e6b1"/></g><g transform="translate(260.412)" opacity="0.5"><rect width="1.545" height="8.756" transform="translate(3.605)" fill="#47e6b1"/><rect width="1.545" height="8.756" transform="translate(8.756 3.606) rotate(90)" fill="#47e6b1"/></g><g transform="translate(452.53 64.383)" opacity="0.5"><rect width="1.545" height="8.756" transform="translate(3.605)" fill="#47e6b1"/><rect width="1.545" height="8.756" transform="translate(8.756 3.606) rotate(90)" fill="#47e6b1"/></g><path d="M506.534,635.381a1.893,1.893,0,0,1-1.055-2.287.911.911,0,0,0,.041-.21h0a.949.949,0,0,0-1.705-.629h0a.909.909,0,0,0-.105.186,1.893,1.893,0,0,1-2.287,1.054.912.912,0,0,0-.21-.041h0a.949.949,0,0,0-.629,1.705h0a.908.908,0,0,0,.186.1,1.893,1.893,0,0,1,1.055,2.287.911.911,0,0,0-.041.21h0a.949.949,0,0,0,1.705.629h0a.918.918,0,0,0,.1-.186,1.893,1.893,0,0,1,2.287-1.055.912.912,0,0,0,.21.041h0a.949.949,0,0,0,.629-1.705h0A.91.91,0,0,0,506.534,635.381Z" transform="translate(-320.964 -373.424)" fill="#4d8af0" opacity="0.5"/><path d="M652.731,760.032a1.893,1.893,0,0,1-1.055-2.287.911.911,0,0,0,.041-.21h0a.949.949,0,0,0-1.705-.629h0a.915.915,0,0,0-.1.186,1.893,1.893,0,0,1-2.287,1.055.918.918,0,0,0-.21-.041h0a.949.949,0,0,0-.629,1.705h0a.907.907,0,0,0,.186.105,1.893,1.893,0,0,1,1.055,2.287.912.912,0,0,0-.041.21h0a.949.949,0,0,0,1.7.629h0a.908.908,0,0,0,.105-.186,1.893,1.893,0,0,1,2.287-1.055.916.916,0,0,0,.21.041h0a.949.949,0,0,0,.629-1.705h0a.915.915,0,0,0-.186-.105Z" transform="translate(-391.861 -433.872)" fill="#4d8af0" opacity="0.5"/><path d="M158.533,338.094a1.893,1.893,0,0,1-1.055-2.287.91.91,0,0,0,.041-.21h0a.949.949,0,0,0-1.705-.629h0a.912.912,0,0,0-.105.186,1.893,1.893,0,0,1-2.287,1.055.908.908,0,0,0-.21-.041h0a.949.949,0,0,0-.629,1.705h0a.914.914,0,0,0,.186.105,1.893,1.893,0,0,1,1.055,2.287.911.911,0,0,0-.041.21h0a.949.949,0,0,0,1.705.629h0a.91.91,0,0,0,.105-.186,1.893,1.893,0,0,1,2.287-1.055.911.911,0,0,0,.21.041h0a.949.949,0,0,0,.629-1.705h0A.912.912,0,0,0,158.533,338.094Z" transform="translate(-152.206 -229.259)" fill="#4d8af0" opacity="0.5"/><path d="M1023.732,490.031a1.893,1.893,0,0,1-1.055-2.287.906.906,0,0,0,.041-.21h0a.949.949,0,0,0-1.705-.629h0a.909.909,0,0,0-.1.186,1.893,1.893,0,0,1-2.287,1.055.9.9,0,0,0-.21-.041h0a.949.949,0,0,0-.629,1.705h0a.9.9,0,0,0,.186.1,1.893,1.893,0,0,1,1.055,2.287.913.913,0,0,0-.041.21h0a.949.949,0,0,0,1.705.629h0a.907.907,0,0,0,.105-.186,1.893,1.893,0,0,1,2.287-1.055.917.917,0,0,0,.21.041h0a.949.949,0,0,0,.629-1.705h0A.915.915,0,0,0,1023.732,490.031Z" transform="translate(-571.773 -302.938)" fill="#4d8af0" opacity="0.5"/><circle cx="3.09" cy="3.09" r="3.09" transform="translate(52.326 231.41)" fill="#f55f44" opacity="0.5"/><circle cx="3.09" cy="3.09" r="3.09" transform="translate(162.55)" fill="#4d8af0" opacity="0.5"/><circle cx="3.09" cy="3.09" r="3.09" transform="translate(235.791 232.776)" fill="#47e6b1" opacity="0.5"/><circle cx="3.09" cy="3.09" r="3.09" transform="translate(414.003 310.035)" fill="#f55f44" opacity="0.5"/><rect width="107.119" height="155.554" rx="13.435" transform="translate(260.203 89.836) rotate(-12.753)" fill="#6c63ff"/><circle cx="3.09" cy="3.09" r="3.09" transform="translate(267.623 107.133)" fill="#fff"/><circle cx="3.09" cy="3.09" r="3.09" transform="translate(270.713 118.464)" fill="#fff"/><circle cx="3.09" cy="3.09" r="3.09" transform="translate(290.8 201.389)" fill="#fff"/><circle cx="3.09" cy="3.09" r="3.09" transform="translate(293.891 212.721)" fill="#fff"/><rect width="64.319" height="10.72" transform="translate(294.814 139.399) rotate(-12.753)" fill="#f5f5f5"/></g></g></svg>