<svg xmlns="http://www.w3.org/2000/svg" xmlns:xlink="http://www.w3.org/1999/xlink" width="100" height="100" viewBox="0 0 100 100"><defs><filter id="a" x="-8.5" y="43.5" width="96.981" height="61.049" filterUnits="userSpaceOnUse"><feOffset dy="3" input="SourceAlpha"/><feGaussianBlur stdDeviation="3" result="b"/><feFlood flood-opacity="0.161"/><feComposite operator="in" in2="b"/><feComposite in="SourceGraphic"/></filter><clipPath id="d"><rect width="100" height="100"/></clipPath></defs><g id="c" clip-path="url(#d)"><rect width="100" height="100" fill="#fff"/><g transform="translate(9.397 4.282)"><rect width="79.658" height="42.893" transform="translate(5.777 7.725)" fill="#f2f2f2"/><rect width="7.528" height="9.244" transform="translate(77.908 41.374)" fill="#3f3d56"/><path d="M1000.518,561.02a2.384,2.384,0,1,1-4.767,0c0-1.8,2.384-4.079,2.384-4.079S1000.518,559.225,1000.518,561.02Z" transform="translate(-916.158 -514.535)" fill="#6c63ff"/><path d="M925.5,490.668l.024-1.5,1.016-1.859-1.012,1.623.011-.676.7-1.345-.7,1.166h0l.02-1.215.75-1.071-.747.88.012-2.228-.078,2.949.006-.122-.762-1.167.75,1.4-.071,1.357,0-.036-.879-1.228.876,1.355-.009.17,0,0v.014l-.18,3.443h.241l.029-1.778.874-1.352Z" transform="translate(-843.614 -442.035)" fill="#3f3d56"/><path d="M199.426,76.352a1.926,1.926,0,1,1,1.926-1.926A1.926,1.926,0,0,1,199.426,76.352Zm0-3.677a1.751,1.751,0,1,0,1.751,1.751A1.751,1.751,0,0,0,199.426,72.675Z" transform="translate(-187.783 -72.5)" fill="#3f3d56"/><circle cx="1.138" cy="1.138" r="1.138" transform="translate(0 10.154)" fill="#3f3d56"/><circle cx="1.138" cy="1.138" r="1.138" transform="translate(87.624 18.47)" fill="#3f3d56"/><rect width="58.124" height="0.525" transform="translate(16.588 16.479)" fill="#3f3d56"/><rect width="58.124" height="0.525" transform="translate(16.588 21.206)" fill="#3f3d56"/><rect width="58.124" height="0.525" transform="translate(16.588 25.933)" fill="#3f3d56"/><rect width="1.401" height="4.377" transform="translate(26.48 14.553)" fill="#6c63ff"/><rect width="1.401" height="4.377" transform="translate(42.412 19.28)" fill="#6c63ff"/><rect width="1.401" height="4.377" transform="translate(69.723 24.007)" fill="#6c63ff"/><rect width="20.659" height="0.525" transform="translate(16.588 36.787)" fill="#3f3d56"/><rect width="10.329" height="0.525" transform="translate(16.588 38.713)" fill="#3f3d56"/><path d="M191.739,466.489H188.5V463.25h3.151v.175h-2.976v2.889h2.889v-1.647h.175Z" transform="translate(-171.999 -422.699)" fill="#3f3d56"/><rect width="20.659" height="0.525" transform="translate(54.054 36.787)" fill="#3f3d56"/><rect width="6.653" height="0.525" transform="translate(54.054 38.713)" fill="#3f3d56"/><rect width="6.653" height="0.525" transform="translate(68.06 38.713)" fill="#3f3d56"/><path d="M706.239,538.989H703V535.75h3.239Zm-3.064-.175h2.889v-2.889h-2.889Z" transform="translate(-649.034 -495.199)" fill="#3f3d56"/><path d="M195.583,465.077l.956,1.079,2.089-2.048" transform="translate(-178.462 -423.482)" fill="none" stroke="#57b894" stroke-miterlimit="10" stroke-width="4"/></g><g transform="translate(1 49.96)"><g transform="matrix(1, 0, 0, 1, -1, -49.96)" filter="url(#a)"><path d="M105.98,168.386a12.4,12.4,0,0,1-.467,3.381,12.274,12.274,0,0,1-1.314,3.018,8.638,8.638,0,0,1-5.652,7.771,11.4,11.4,0,0,1-4.412.872H42.8a14.244,14.244,0,0,1-7.371-2,12.664,12.664,0,0,1-1.693-1.219,10.268,10.268,0,0,1-3.755-7.784,12.34,12.34,0,0,1,5.21-17.928,11.9,11.9,0,0,1,1.739-.622q.316-.086.638-.154a11.952,11.952,0,0,1,1.739-.239q.317-.02.637-.022h.117c.236,0,.47.008.7.022l.076-.13q.14-.234.288-.464.266-.419.558-.825.305-.429.637-.844l.057-.068q.188-.234.384-.464.613-.715,1.3-1.387c4.915-4.818,12.616-7.919,21.273-7.919a32.178,32.178,0,0,1,17.61,4.981,11.873,11.873,0,0,1,5.858-1.54,12.152,12.152,0,0,1,12.065,12.236,12.605,12.605,0,0,1-.068,1.28A12.27,12.27,0,0,1,105.98,168.386Z" transform="translate(-27 -91.38)" fill="#6c63ff" stroke="#707070" stroke-width="1" opacity="0.1"/></g><path d="M245.955,257.52v1.387h-1.3Q245.269,258.193,245.955,257.52Z" transform="translate(-229.892 -249.563)" fill="#6c63ff" opacity="0.2"/><rect width="1.739" height="1.739" transform="translate(16.701 7.605)" fill="#6c63ff" opacity="0.2"/><rect width="1.739" height="1.739" transform="translate(19.078 7.605)" fill="#6c63ff" opacity="0.2"/><rect width="1.739" height="1.739" transform="translate(21.454 7.605)" fill="#6c63ff" opacity="0.2"/><rect width="1.739" height="1.739" transform="translate(23.831 7.605)" fill="#6c63ff" opacity="0.2"/><rect width="1.739" height="1.739" transform="translate(26.208 7.605)" fill="#6c63ff" opacity="0.2"/><rect width="1.739" height="1.739" transform="translate(28.585 7.605)" fill="#6c63ff"/><rect width="1.739" height="1.739" transform="translate(30.961 7.605)" fill="#6c63ff" opacity="0.2"/><rect width="1.739" height="1.739" transform="translate(33.338 7.605)" fill="#6c63ff" opacity="0.2"/><rect width="1.739" height="1.739" transform="translate(35.714 7.605)" fill="#6c63ff" opacity="0.2"/><rect width="1.739" height="1.739" transform="translate(38.091 7.605)" fill="#6c63ff"/><rect width="1.739" height="1.739" transform="translate(40.468 7.605)" fill="#6c63ff" opacity="0.2"/><rect width="1.739" height="1.739" transform="translate(42.844 7.605)" fill="#6c63ff" opacity="0.2"/><rect width="1.739" height="1.739" transform="translate(45.221 7.605)" fill="#6c63ff" opacity="0.2"/><rect width="1.739" height="1.739" transform="translate(47.598 7.605)" fill="#6c63ff" opacity="0.2"/><rect width="1.739" height="1.739" transform="translate(49.974 7.605)" fill="#6c63ff" opacity="0.2"/><rect width="1.739" height="1.739" transform="translate(52.351 7.605)" fill="#6c63ff" opacity="0.2"/><rect width="1.739" height="1.739" transform="translate(54.727 7.605)" fill="#6c63ff"/><rect width="1.739" height="1.739" transform="translate(57.104 7.605)" fill="#6c63ff"/><rect width="1.739" height="1.739" transform="translate(59.481 7.605)" fill="#6c63ff" opacity="0.2"/><rect width="1.739" height="1.739" transform="translate(61.857 7.605)" fill="#6c63ff" opacity="0.2"/><rect width="1.739" height="1.739" transform="translate(64.234 7.605)" fill="#6c63ff"/><rect width="1.739" height="1.739" transform="translate(66.61 7.605)" fill="#6c63ff"/><path d="M221.178,298.08v.825h-.558Q220.886,298.483,221.178,298.08Z" transform="translate(-207.49 -287.358)" fill="#6c63ff"/><rect width="1.739" height="1.739" transform="translate(14.324 9.807)" fill="#6c63ff" opacity="0.2"/><rect width="1.739" height="1.739" transform="translate(16.701 9.807)" fill="#6c63ff"/><rect width="1.739" height="1.739" transform="translate(19.078 9.807)" fill="#6c63ff" opacity="0.2"/><rect width="1.739" height="1.739" transform="translate(21.454 9.807)" fill="#6c63ff" opacity="0.7"/><rect width="1.739" height="1.739" transform="translate(23.831 9.807)" fill="#6c63ff" opacity="0.2"/><rect width="1.739" height="1.739" transform="translate(26.208 9.807)" fill="#6c63ff" opacity="0.4"/><rect width="1.739" height="1.739" transform="translate(28.585 9.807)" fill="#6c63ff"/><rect width="1.739" height="1.739" transform="translate(30.961 9.807)" fill="#6c63ff" opacity="0.4"/><rect width="1.739" height="1.739" transform="translate(33.338 9.807)" fill="#6c63ff" opacity="0.2"/><rect width="1.739" height="1.739" transform="translate(35.714 9.807)" fill="#6c63ff" opacity="0.4"/><rect width="1.739" height="1.739" transform="translate(38.091 9.807)" fill="#6c63ff"/><rect width="1.739" height="1.739" transform="translate(40.468 9.807)" fill="#6c63ff" opacity="0.4"/><rect width="1.739" height="1.739" transform="translate(42.844 9.807)" fill="#6c63ff" opacity="0.4"/><rect width="1.739" height="1.739" transform="translate(45.221 9.807)" fill="#6c63ff" opacity="0.2"/><rect width="1.739" height="1.739" transform="translate(47.598 9.807)" fill="#6c63ff" opacity="0.4"/><rect width="1.739" height="1.739" transform="translate(49.974 9.807)" fill="#6c63ff" opacity="0.4"/><rect width="1.739" height="1.739" transform="translate(52.351 9.807)" fill="#6c63ff" opacity="0.2"/><rect width="1.739" height="1.739" transform="translate(54.727 9.807)" fill="#6c63ff" opacity="0.2"/><rect width="1.739" height="1.739" transform="translate(57.104 9.807)" fill="#6c63ff" opacity="0.4"/><rect width="1.739" height="1.739" transform="translate(59.481 9.807)" fill="#6c63ff" opacity="0.2"/><rect width="1.739" height="1.739" transform="translate(61.857 9.807)" fill="#6c63ff"/><rect width="1.739" height="1.739" transform="translate(64.234 9.807)" fill="#6c63ff"/><rect width="1.739" height="1.739" transform="translate(66.61 9.807)" fill="#6c63ff"/><path d="M135.289,324.67v1.215H133.55v-.594A11.9,11.9,0,0,1,135.289,324.67Z" transform="translate(-126.356 -312.136)" fill="#6c63ff" opacity="0.2"/><path d="M142.159,177.57v1.608H140.42v-1.369Z" transform="translate(-130.849 -165.429)" fill="#6c63ff" opacity="0.2"/><rect width="1.739" height="1.739" transform="translate(11.948 12.01)" fill="#6c63ff"/><rect width="1.739" height="1.739" transform="translate(14.324 12.01)" fill="#6c63ff" opacity="0.7"/><rect width="1.739" height="1.739" transform="translate(16.701 12.01)" fill="#6c63ff"/><rect width="1.739" height="1.739" transform="translate(19.078 12.01)" fill="#6c63ff" opacity="0.7"/><rect width="1.739" height="1.739" transform="translate(21.454 12.01)" fill="#6c63ff" opacity="0.7"/><rect width="1.739" height="1.739" transform="translate(23.831 12.01)" fill="#6c63ff" opacity="0.2"/><rect width="1.739" height="1.739" transform="translate(26.208 12.01)" fill="#6c63ff" opacity="0.4"/><rect width="1.739" height="1.739" transform="translate(28.585 12.01)" fill="#6c63ff" opacity="0.4"/><rect width="1.739" height="1.739" transform="translate(30.961 12.01)" fill="#6c63ff"/><rect width="1.739" height="1.739" transform="translate(33.338 12.01)" fill="#6c63ff" opacity="0.2"/><rect width="1.739" height="1.739" transform="translate(35.714 12.01)" fill="#6c63ff" opacity="0.4"/><rect width="1.739" height="1.739" transform="translate(38.091 12.01)" fill="#6c63ff"/><rect width="1.739" height="1.739" transform="translate(40.468 12.01)" fill="#6c63ff" opacity="0.2"/><rect width="1.739" height="1.739" transform="translate(42.844 12.01)" fill="#6c63ff" opacity="0.4"/><rect width="1.739" height="1.739" transform="translate(45.221 12.01)" fill="#6c63ff" opacity="0.2"/><rect width="1.739" height="1.739" transform="translate(47.598 12.01)" fill="#6c63ff"/><rect width="1.739" height="1.739" transform="translate(49.974 12.01)" fill="#6c63ff" opacity="0.2"/><rect width="1.739" height="1.739" transform="translate(52.351 12.01)" fill="#6c63ff" opacity="0.7"/><rect width="1.739" height="1.739" transform="translate(54.727 12.01)" fill="#6c63ff" opacity="0.7"/><rect width="1.739" height="1.739" transform="translate(57.104 12.01)" fill="#6c63ff" opacity="0.4"/><rect width="1.739" height="1.739" transform="translate(59.481 12.01)" fill="#6c63ff" opacity="0.2"/><rect width="1.739" height="1.739" transform="translate(61.857 12.01)" fill="#6c63ff"/><rect width="1.739" height="1.739" transform="translate(64.234 12.01)" fill="#6c63ff"/><rect width="1.739" height="1.739" transform="translate(66.61 12.01)" fill="#6c63ff"/><rect width="1.739" height="1.739" transform="translate(7.194 14.213)" fill="#6c63ff" opacity="0.2"/><rect width="1.739" height="1.739" transform="translate(9.571 14.213)" fill="#6c63ff" opacity="0.2"/><rect width="1.739" height="1.739" transform="translate(11.948 14.213)" fill="#6c63ff" opacity="0.2"/><rect width="1.739" height="1.739" transform="translate(14.324 14.213)" fill="#6c63ff" opacity="0.2"/><rect width="1.739" height="1.739" transform="translate(16.701 14.213)" fill="#6c63ff"/><rect width="1.739" height="1.739" transform="translate(19.078 14.213)" fill="#6c63ff" opacity="0.7"/><rect width="1.739" height="1.739" transform="translate(21.454 14.213)" fill="#6c63ff" opacity="0.7"/><rect width="1.739" height="1.739" transform="translate(23.831 14.213)" fill="#6c63ff" opacity="0.2"/><rect width="1.739" height="1.739" transform="translate(26.208 14.213)" fill="#6c63ff" opacity="0.2"/><rect width="1.739" height="1.739" transform="translate(28.585 14.213)" fill="#6c63ff" opacity="0.4"/><rect width="1.739" height="1.739" transform="translate(30.961 14.213)" fill="#6c63ff" opacity="0.4"/><rect width="1.739" height="1.739" transform="translate(33.338 14.213)" fill="#6c63ff"/><rect width="1.739" height="1.739" transform="translate(35.714 14.213)" fill="#6c63ff" opacity="0.2"/><rect width="1.739" height="1.739" transform="translate(38.091 14.213)" fill="#6c63ff" opacity="0.4"/><rect width="1.739" height="1.739" transform="translate(40.468 14.213)" fill="#6c63ff" opacity="0.4"/><rect width="1.739" height="1.739" transform="translate(42.844 14.213)" fill="#6c63ff" opacity="0.4"/><rect width="1.739" height="1.739" transform="translate(45.221 14.213)" fill="#6c63ff" opacity="0.4"/><rect width="1.739" height="1.739" transform="translate(47.598 14.213)" fill="#6c63ff" opacity="0.2"/><rect width="1.739" height="1.739" transform="translate(49.974 14.213)" fill="#6c63ff" opacity="0.2"/><rect width="1.739" height="1.739" transform="translate(52.351 14.213)" fill="#6c63ff" opacity="0.2"/><rect width="1.739" height="1.739" transform="translate(54.727 14.213)" fill="#6c63ff" opacity="0.2"/><rect width="1.739" height="1.739" transform="translate(57.104 14.213)" fill="#6c63ff" opacity="0.7"/><rect width="1.739" height="1.739" transform="translate(59.481 14.213)" fill="#6c63ff" opacity="0.7"/><rect width="1.739" height="1.739" transform="translate(61.857 14.213)" fill="#6c63ff" opacity="0.4"/><rect width="1.739" height="1.739" transform="translate(64.234 14.213)" fill="#6c63ff" opacity="0.2"/><rect width="1.739" height="1.739" transform="translate(66.61 14.213)" fill="#6c63ff"/><rect width="1.739" height="1.739" transform="translate(7.194 16.416)" fill="#6c63ff" opacity="0.2"/><rect width="1.739" height="1.739" transform="translate(9.571 16.416)" fill="#6c63ff" opacity="0.2"/><rect width="1.739" height="1.739" transform="translate(11.948 16.416)" fill="#6c63ff" opacity="0.4"/><rect width="1.739" height="1.739" transform="translate(14.324 16.416)" fill="#6c63ff" opacity="0.2"/><rect width="1.739" height="1.739" transform="translate(16.701 16.416)" fill="#6c63ff" opacity="0.2"/><rect width="1.739" height="1.739" transform="translate(19.078 16.416)" fill="#6c63ff" opacity="0.7"/><rect width="1.739" height="1.739" transform="translate(21.454 16.416)" fill="#6c63ff" opacity="0.7"/><rect width="1.739" height="1.739" transform="translate(23.831 16.416)" fill="#6c63ff" opacity="0.2"/><rect width="1.739" height="1.739" transform="translate(26.208 16.416)" fill="#6c63ff" opacity="0.2"/><rect width="1.739" height="1.739" transform="translate(28.585 16.416)" fill="#6c63ff" opacity="0.4"/><rect width="1.739" height="1.739" transform="translate(30.961 16.416)" fill="#6c63ff"/><rect width="1.739" height="1.739" transform="translate(33.338 16.416)" fill="#6c63ff" opacity="0.2"/><rect width="1.739" height="1.739" transform="translate(35.714 16.416)" fill="#6c63ff"/><rect width="1.739" height="1.739" transform="translate(38.091 16.416)" fill="#6c63ff"/><rect width="1.739" height="1.739" transform="translate(40.468 16.416)" fill="#6c63ff"/><rect width="1.739" height="1.739" transform="translate(42.844 16.416)" fill="#6c63ff" opacity="0.2"/><rect width="1.739" height="1.739" transform="translate(45.221 16.416)" fill="#6c63ff"/><rect width="1.739" height="1.739" transform="translate(47.598 16.416)" fill="#6c63ff" opacity="0.2"/><rect width="1.739" height="1.739" transform="translate(49.974 16.416)" fill="#6c63ff" opacity="0.2"/><rect width="1.739" height="1.739" transform="translate(52.351 16.416)" fill="#6c63ff" opacity="0.2"/><rect width="1.739" height="1.739" transform="translate(54.727 16.416)" fill="#6c63ff" opacity="0.2"/><rect width="1.739" height="1.739" transform="translate(57.104 16.416)" fill="#6c63ff" opacity="0.2"/><rect width="1.739" height="1.739" transform="translate(59.481 16.416)" fill="#6c63ff" opacity="0.7"/><rect width="1.739" height="1.739" transform="translate(61.857 16.416)" fill="#6c63ff" opacity="0.2"/><rect width="1.739" height="1.739" transform="translate(64.234 16.416)" fill="#6c63ff" opacity="0.2"/><rect width="1.739" height="1.739" transform="translate(66.61 16.416)" fill="#6c63ff"/><rect width="1.739" height="1.739" transform="translate(7.194 18.618)" fill="#6c63ff" opacity="0.2"/><rect width="1.739" height="1.739" transform="translate(9.571 18.618)" fill="#6c63ff" opacity="0.2"/><rect width="1.739" height="1.739" transform="translate(11.948 18.618)" fill="#6c63ff" opacity="0.2"/><rect width="1.739" height="1.739" transform="translate(14.324 18.618)" fill="#6c63ff" opacity="0.4"/><rect width="1.739" height="1.739" transform="translate(16.701 18.618)" fill="#6c63ff" opacity="0.2"/><rect width="1.739" height="1.739" transform="translate(19.078 18.618)" fill="#6c63ff" opacity="0.2"/><rect width="1.739" height="1.739" transform="translate(21.454 18.618)" fill="#6c63ff" opacity="0.7"/><rect width="1.739" height="1.739" transform="translate(23.831 18.618)" fill="#6c63ff" opacity="0.2"/><rect width="1.739" height="1.739" transform="translate(26.208 18.618)" fill="#6c63ff" opacity="0.2"/><rect width="1.739" height="1.739" transform="translate(28.585 18.618)" fill="#6c63ff" opacity="0.2"/><rect width="1.739" height="1.739" transform="translate(30.961 18.618)" fill="#6c63ff"/><rect width="1.739" height="1.739" transform="translate(33.338 18.618)" fill="#6c63ff" opacity="0.2"/><rect width="1.739" height="1.739" transform="translate(35.714 18.618)" fill="#6c63ff"/><rect width="1.739" height="1.739" transform="translate(38.091 18.618)" fill="#6c63ff"/><rect width="1.739" height="1.739" transform="translate(40.468 18.618)" fill="#6c63ff" opacity="0.2"/><rect width="1.739" height="1.739" transform="translate(42.844 18.618)" fill="#6c63ff" opacity="0.2"/><rect width="1.739" height="1.739" transform="translate(45.221 18.618)" fill="#6c63ff" opacity="0.2"/><rect width="1.739" height="1.739" transform="translate(47.598 18.618)" fill="#6c63ff" opacity="0.2"/><rect width="1.739" height="1.739" transform="translate(49.974 18.618)" fill="#6c63ff" opacity="0.2"/><rect width="1.739" height="1.739" transform="translate(52.351 18.618)" fill="#6c63ff" opacity="0.2"/><rect width="1.739" height="1.739" transform="translate(54.727 18.618)" fill="#6c63ff" opacity="0.2"/><rect width="1.739" height="1.739" transform="translate(57.104 18.618)" fill="#6c63ff" opacity="0.2"/><rect width="1.739" height="1.739" transform="translate(59.481 18.618)" fill="#6c63ff" opacity="0.2"/><rect width="1.739" height="1.739" transform="translate(61.857 18.618)" fill="#6c63ff" opacity="0.2"/><rect width="1.739" height="1.739" transform="translate(64.234 18.618)" fill="#6c63ff" opacity="0.4"/><rect width="1.739" height="1.739" transform="translate(66.61 18.618)" fill="#6c63ff"/><rect width="1.739" height="1.739" transform="translate(7.194 20.821)" fill="#6c63ff" opacity="0.7"/><rect width="1.739" height="1.739" transform="translate(9.571 20.821)" fill="#6c63ff" opacity="0.7"/><rect width="1.739" height="1.739" transform="translate(11.948 20.821)" fill="#6c63ff" opacity="0.7"/><rect width="1.739" height="1.739" transform="translate(14.324 20.821)" fill="#6c63ff" opacity="0.7"/><rect width="1.739" height="1.739" transform="translate(16.701 20.821)" fill="#6c63ff" opacity="0.7"/><rect width="1.739" height="1.739" transform="translate(19.078 20.821)" fill="#6c63ff" opacity="0.2"/><rect width="1.739" height="1.739" transform="translate(21.454 20.821)" fill="#6c63ff" opacity="0.2"/><rect width="1.739" height="1.739" transform="translate(23.831 20.821)" fill="#6c63ff" opacity="0.2"/><rect width="1.739" height="1.739" transform="translate(26.208 20.821)" fill="#6c63ff" opacity="0.2"/><rect width="1.739" height="1.739" transform="translate(28.585 20.821)" fill="#6c63ff" opacity="0.2"/><rect width="1.739" height="1.739" transform="translate(30.961 20.821)" fill="#6c63ff" opacity="0.2"/><rect width="1.739" height="1.739" transform="translate(33.338 20.821)" fill="#6c63ff"/><rect width="1.739" height="1.739" transform="translate(35.714 20.821)" fill="#6c63ff" opacity="0.2"/><rect width="1.739" height="1.739" transform="translate(38.091 20.821)" fill="#6c63ff" opacity="0.2"/><rect width="1.739" height="1.739" transform="translate(40.468 20.821)" fill="#6c63ff" opacity="0.2"/><rect width="1.739" height="1.739" transform="translate(42.844 20.821)" fill="#6c63ff"/><rect width="1.739" height="1.739" transform="translate(45.221 20.821)" fill="#6c63ff" opacity="0.2"/><rect width="1.739" height="1.739" transform="translate(47.598 20.821)" fill="#6c63ff" opacity="0.2"/><rect width="1.739" height="1.739" transform="translate(49.974 20.821)" fill="#6c63ff" opacity="0.2"/><rect width="1.739" height="1.739" transform="translate(52.351 20.821)" fill="#6c63ff" opacity="0.2"/><rect width="1.739" height="1.739" transform="translate(54.727 20.821)" fill="#6c63ff" opacity="0.2"/><rect width="1.739" height="1.739" transform="translate(57.104 20.821)" fill="#6c63ff" opacity="0.2"/><rect width="1.739" height="1.739" transform="translate(59.481 20.821)" fill="#6c63ff" opacity="0.2"/><rect width="1.739" height="1.739" transform="translate(61.857 20.821)" fill="#6c63ff" opacity="0.2"/><rect width="1.739" height="1.739" transform="translate(64.234 20.821)" fill="#6c63ff" opacity="0.2"/><rect width="1.739" height="1.739" transform="translate(66.61 20.821)" fill="#6c63ff"/><circle cx="2.377" cy="2.377" r="2.377" transform="translate(47.691 22.465)" fill="#767d9f"/><path d="M759.878,435.99q.356,1.553.6,3.129a1.822,1.822,0,0,1-.019.937,3.236,3.236,0,0,1-.439.654.831.831,0,0,0-.174.738.856.856,0,0,0,.617.451,4.188,4.188,0,0,0,2.245-.16,3.632,3.632,0,0,0,.941-.39,3.522,3.522,0,0,0,.8-.75,17.538,17.538,0,0,0,2.416-4.378,2.667,2.667,0,0,1-2.257-.909,1.181,1.181,0,0,1-.314-1.141,9.117,9.117,0,0,1-1.448.426,5.148,5.148,0,0,0-.852.419q-.489.283-.973.577A2,2,0,0,1,759.878,435.99Z" transform="translate(-709.933 -414.172)" fill="#ae6e79"/><path d="M693.595,457.06a5.111,5.111,0,0,1-1.732,2.072,2.519,2.519,0,0,1-2.59.136,7.4,7.4,0,0,1-1-.886,1.661,1.661,0,0,0-1.2-.515,2,2,0,0,0-1.211.8,9.467,9.467,0,0,0-1.342,1.808,8.52,8.52,0,0,0-.813,4.21c.03,1.445.239,2.883.244,4.328a30.314,30.314,0,0,1-.6,5.292c2.8-.345,5.607.409,8.414.695a51.58,51.58,0,0,0,5.414.176,1.639,1.639,0,0,0,.92-.184,1.241,1.241,0,0,0,.381-.453,4.332,4.332,0,0,0,.419-1.5,30.451,30.451,0,0,0,.187-3.959,73.326,73.326,0,0,0-.383-9.6,9.048,9.048,0,0,0-.528-2.3,3.607,3.607,0,0,0-1.474-1.8c-.44-.252-1.459-.691-1.977-.437C694.142,455.226,693.873,456.517,693.595,457.06Z" transform="translate(-638.679 -433.457)" fill="#767d9f"/><path d="M828.552,458.444c-.106-1.977-.536-4.086.38-5.841.225-.431-.582-.969-.333-1.386a6.276,6.276,0,0,0,.686-1.631,1.231,1.231,0,0,0,.044-.6c-.091-.361-.447-.575-.75-.795-.334-.243-.506-.982-.613-1.382s.857.082,1.245-.061a2.7,2.7,0,0,1,1.76.127,2.937,2.937,0,0,0,.945.128,12.458,12.458,0,0,0,1.86-.044,4.627,4.627,0,0,1,.832-.072,2.456,2.456,0,0,1,1.746,1.1,16.955,16.955,0,0,1,1.031,1.864c.287.518.629,1.007.874,1.547a9.513,9.513,0,0,1,.489,1.5l.35,1.308a1.743,1.743,0,0,1,.086.58,1.646,1.646,0,0,1-.2.59,11.2,11.2,0,0,1-1.273,1.942,11.7,11.7,0,0,0-2.065,2.795,7.053,7.053,0,0,0-.352,1.314,48.268,48.268,0,0,0-.743,5.4,11.873,11.873,0,0,0-2.489-.832,12.113,12.113,0,0,0-1.3-.2,7.863,7.863,0,0,1-1.235-.068c-.607-.172-.673-1.2-.765-1.735a15.841,15.841,0,0,1-.182-2.59C828.574,460.4,828.6,459.424,828.552,458.444Z" transform="translate(-773.429 -425.795)" fill="#4c4981"/><path d="M560.773,552.96A23.517,23.517,0,0,0,562,557.774l-.047.042c-.055.047-.112.091-.172.136a2.3,2.3,0,0,0-.409.31.546.546,0,0,0-.1.167.373.373,0,0,0,0,.3,2.416,2.416,0,0,1-1.068.086,1.4,1.4,0,0,0-.871.173,1.555,1.555,0,0,0-.513,1.126q-.031.23-.054.461-.022.215-.035.431a12.845,12.845,0,0,0-.013,1.432q.005.131.014.262a6.632,6.632,0,0,1-3.089-1.172,1.7,1.7,0,0,1-.588-.477,1.077,1.077,0,0,1-.157-.7.776.776,0,0,1,.011-.1,2.836,2.836,0,0,1,.156-.592,7.309,7.309,0,0,1,1.308-2.226,2.83,2.83,0,0,0,.633-.922c.05-.156.068-.322.119-.477.226-.673,1.043-.992,1.322-1.646a5.022,5.022,0,0,1,.184-.477,1.2,1.2,0,0,1,.29-.324c.05-.042.1-.082.153-.122q.719-.563,1.384-1.189.124-.117.245-.236A4.044,4.044,0,0,0,560.773,552.96Z" transform="translate(-518.973 -524.007)" fill="#4c4981"/><path d="M647.149,474.255c-.1.1-.2.2-.309.3l-.028.025-.11.1a2.658,2.658,0,0,0-.515.6l-.012.019a3.357,3.357,0,0,0-.122,2.1,17.852,17.852,0,0,1,.161,2.658c-.018,1.227-.162,2.446-.165,3.671q0,.417.018.834c.02.452.054.9.095,1.354.044.495.1.989.147,1.483.04.382.077.764.108,1.146.016.2.031.395.043.592.014.232.026.464.033.7h0c0,.147.007.294.007.441v.25q0,.239-.013.477-.014.306-.042.613a1,1,0,0,1-.215.623l-.03.027-.221-.027a22.688,22.688,0,0,0-4.588-.082c.033-.23.064-.46.094-.691.014-.109.027-.219.04-.329q.023-.188.043-.376c.016-.136.03-.273.044-.409q.053-.527.093-1.054.059-.77.09-1.542.015-.369.023-.738.012-.458.011-.917t-.008-.893c0-.1,0-.2-.012-.294a1.843,1.843,0,0,0-.036-.261,3.411,3.411,0,0,0-.2-.578c-.015-.035-.029-.068-.044-.106-.008-.018-.016-.038-.023-.056a5.1,5.1,0,0,0,.941-1.279,5.825,5.825,0,0,0,.954-2.375,1.979,1.979,0,0,0-1.172-2.082,5.679,5.679,0,0,0-.688-.127,3.026,3.026,0,0,1-.92-.28q-.2.21-.409.412a1.507,1.507,0,0,1,.148-.594l.1,0a.182.182,0,0,1-.011-.068.358.358,0,0,1,.158-.247c.321-.273.826-.333,1.029-.7a5.09,5.09,0,0,0,.167-.5c.2-.459.757-.628,1.1-.995a9.362,9.362,0,0,0,.7-1.3,1.951,1.951,0,0,1,.818-.682l.083-.037a4.721,4.721,0,0,1,1.824-.3,3.848,3.848,0,0,1,1.107.122.364.364,0,0,1,.126.077C647.855,473.3,647.376,474.012,647.149,474.255Z" transform="translate(-598.479 -450.14)" fill="#4c4981"/><path d="M625.276,540.282a4.15,4.15,0,0,1,3.186.332,3.012,3.012,0,0,1,1.2,1.144,4.731,4.731,0,0,1,.359,2.464,3.005,3.005,0,0,1-.218,1.234,2.509,2.509,0,0,1-1.033.982,2.881,2.881,0,0,1-.84.363,3.6,3.6,0,0,1-1.4-.068,2.43,2.43,0,0,1-1.389-.578,2.368,2.368,0,0,1-.427-.774q-.238-.6-.477-1.192a2.066,2.066,0,0,1,0-1.934c.166-.306.368-.592.532-.9C624.852,541.2,625.146,540.322,625.276,540.282Z" transform="translate(-583.374 -512.886)" fill="#4c4981"/><path d="M200.149,660.638v2.038a11.4,11.4,0,0,1-4.412.872H177.353l-.03.027-.221-.027H144.4a14.244,14.244,0,0,1-7.371-2v-3.112l15.727-1.815h.012l9.159.776,2.37.2,1.231.1,2.548.216,1.311.111,1.909.162.269.022,1.376.117,1.866.153,2.624.222,4.375.372,3.078.261,5.054.429.961.081.1.009.09.008,1.269.108,1.393.119.162.014Z" transform="translate(-129.598 -621.459)" fill="#504f60"/><path d="M484.123,527.134l-19.709-3.364-.764,3.864,9.035,1.082,2.782.348,7.652-1.507Z" transform="translate(-432.046 -488.03)" fill="#9c9ca1"/><path d="M642.33,714.483l9.874-1.856a.341.341,0,0,1,.4.336h0a.341.341,0,0,1-.279.336l-9.643,1.806Z" transform="translate(-600.455 -673.642)" fill="#9c9ca1"/><path d="M600.115,636.265a2.549,2.549,0,0,0,.9-.213,8.462,8.462,0,0,0,.922-.678,2.744,2.744,0,0,1,2.418-.267,3.894,3.894,0,0,1,1.924,1.562,1.741,1.741,0,0,1,.322,1.578,2.078,2.078,0,0,1-.281.439l-.568.743a1.976,1.976,0,0,1-.386.415,1.639,1.639,0,0,1-.738.256c-.692.1-1.4.044-2.093.09-1.2.08-2.367.466-3.568.453a10.755,10.755,0,0,1-2.045-.286l-2.984-.614a1.827,1.827,0,0,1-1.351-.733,1.7,1.7,0,0,1-.143-.7,2.45,2.45,0,0,1,.455-1.862,8.134,8.134,0,0,1,1.616-.913c.626-.4.832-.273,1.492.03A8.18,8.18,0,0,0,600.115,636.265Z" transform="translate(-553.956 -601.261)" fill="#ae6e79"/><path d="M600.115,636.265a2.549,2.549,0,0,0,.9-.213,8.462,8.462,0,0,0,.922-.678,2.744,2.744,0,0,1,2.418-.267,3.894,3.894,0,0,1,1.924,1.562,1.741,1.741,0,0,1,.322,1.578,2.078,2.078,0,0,1-.281.439l-.568.743a1.976,1.976,0,0,1-.386.415,1.639,1.639,0,0,1-.738.256c-.692.1-1.4.044-2.093.09-1.2.08-2.367.466-3.568.453a10.755,10.755,0,0,1-2.045-.286l-2.984-.614a1.827,1.827,0,0,1-1.351-.733,1.7,1.7,0,0,1-.143-.7,2.45,2.45,0,0,1,.455-1.862,8.134,8.134,0,0,1,1.616-.913c.626-.4.832-.273,1.492.03A8.18,8.18,0,0,0,600.115,636.265Z" transform="translate(-553.956 -601.261)" opacity="0.05"/><path d="M639.655,635.831a17.678,17.678,0,0,1-2.555.842c-1.47.324-3.008.273-4.466.643a7.259,7.259,0,0,1-2.327.448,6.983,6.983,0,0,1-1.039-.218,6.712,6.712,0,0,0-5.7.9,7.091,7.091,0,0,0-1.376,1.5,1,1,0,0,0,.4,1.491,5.9,5.9,0,0,0,1.935.516,11.759,11.759,0,0,0,2.684-.174c1.321-.187,2.643-.376,3.96-.586.473-.076.946-.154,1.422-.214,3.424-.433,6.91.093,10.343-.268a3.159,3.159,0,0,0,1.016-.232,2.064,2.064,0,0,0,1.029-2.232,3.124,3.124,0,0,0-1.568-2.033,6.9,6.9,0,0,0-2.05-.682A2.588,2.588,0,0,0,639.655,635.831Z" transform="translate(-581.515 -601.761)" fill="#ae6e79"/><path d="M866.6,524.7a2.633,2.633,0,0,1,.417,1.778c-.041.62-.188,1.232-.21,1.855-.03.854.176,1.7.141,2.555a7.351,7.351,0,0,1-.333,1.75,2.651,2.651,0,0,1-1.1,1.723c-.826.43-2.559.188-3.428.525.079-.493.837-1.207.916-1.7a3.173,3.173,0,0,0,.051-1.033,2.284,2.284,0,0,0-.634-1.144,3.346,3.346,0,0,0-1.8-1.022,5.205,5.205,0,0,0-2.939.414c-.068-.451,1.2-.886,1.646-.984.222-.05.477-.022.655-.163.341-.267.094-.8.11-1.227.013-.341.212-.653.252-.994.068-.545-.288-1.1-.148-1.636a4.244,4.244,0,0,1,.247-.56,3.119,3.119,0,0,0,.007-1.845,1.533,1.533,0,0,1,.055-1.146c.2-.306.761.784,1.122.733,1.191-.167,2.268-1.05,3.23-.327a2.249,2.249,0,0,1,.75,1.275C865.79,524.03,866.282,524.286,866.6,524.7Z" transform="translate(-801.117 -495.823)" opacity="0.1"/><path d="M869.6,518.4a2.633,2.633,0,0,1,.417,1.778c-.041.62-.188,1.232-.21,1.855-.03.853.176,1.7.141,2.555a7.353,7.353,0,0,1-.333,1.75,2.652,2.652,0,0,1-1.1,1.723c-.826.43-2.559.188-3.428.525.079-.493.837-1.207.916-1.7a3.173,3.173,0,0,0,.051-1.033,2.284,2.284,0,0,0-.634-1.144,3.345,3.345,0,0,0-1.8-1.023,5.205,5.205,0,0,0-2.939.414c-.068-.451,1.2-.886,1.646-.984.222-.05.477-.022.655-.163.341-.267.093-.8.11-1.227.013-.341.212-.653.252-.994.068-.545-.288-1.1-.148-1.636a4.248,4.248,0,0,1,.247-.56,3.118,3.118,0,0,0,.007-1.845,1.532,1.532,0,0,1,.055-1.146,1.3,1.3,0,0,1,.947-.473,4.664,4.664,0,0,1,3.408.879,2.25,2.25,0,0,1,.75,1.275C868.79,517.729,869.282,517.986,869.6,518.4Z" transform="translate(-803.913 -489.522)" fill="#4c4981"/><path d="M329.591,485.614l3.706,13.7a.856.856,0,0,0,.744.628l16.681,1.6a.855.855,0,0,0,.912-1.055l-4.059-16.522a.855.855,0,0,0-.894-.648l-16.332,1.222a.855.855,0,0,0-.759,1.076Z" transform="translate(-309.006 -459.966)" fill="#9c9ca1"/><ellipse cx="1.834" cy="1.857" rx="1.834" ry="1.857" transform="translate(51.819 24.606)" fill="#fff"/><path d="M824.9,478.909a1.307,1.307,0,0,1-.754,1.633L824,480.8l.714.7a6.189,6.189,0,0,0,.785-2.177S825.363,478.745,824.9,478.909Z" transform="translate(-769.741 -455.834)" fill="#fff"/><circle cx="1.768" cy="1.768" r="1.768" transform="translate(52.095 24.785)" fill="#6c63ff"/><path d="M815.435,440.635l-.281-.463-.409-.058c.087-1.526-.309-1.981-.309-1.981l-.092-.009-.4-.039-.754-.783v-.222a2.377,2.377,0,0,1,1.961,1.219A3.874,3.874,0,0,1,815.435,440.635Z" transform="translate(-759.668 -416.883)" fill="#6c63ff"/><path d="M814.395,440.881v.281l-.4-.039-.754-.783S814.406,440.6,814.395,440.881Z" transform="translate(-759.714 -419.921)" stroke="#4c4981" stroke-miterlimit="10" stroke-width="1" opacity="0.1"/><path d="M842.291,457.333l-.281-.464V455A3.88,3.88,0,0,1,842.291,457.333Z" transform="translate(-786.523 -433.582)" stroke="#4c4981" stroke-miterlimit="10" stroke-width="1" opacity="0.1"/><ellipse cx="0.984" cy="1.794" rx="0.984" ry="1.794" transform="translate(47.95 24.664) rotate(-30)" fill="#fff"/><path d="M734.772,496.957c.5.858,1.1,1.431.633,1.7a2.04,2.04,0,0,1-2.336-.723,1.928,1.928,0,0,1,.425-2.318C733.964,495.348,734.276,496.1,734.772,496.957Z" transform="translate(-684.807 -471.381)" fill="#6c63ff"/><path d="M694.7,363.147c0,2.742-1.877,5.385-4.619,5.385a4.966,4.966,0,0,1,0-9.932A4.339,4.339,0,0,1,694.7,363.147Z" transform="translate(-640.328 -343.753)" opacity="0.1"/><circle cx="4.966" cy="4.966" r="4.966" transform="translate(44.792 14.713)" fill="#ae6e79"/><path d="M661.279,308.77c.591.217.941.828,1.471,1.168a3.239,3.239,0,0,0,2.582.118,2.632,2.632,0,0,1,1.446-.145.409.409,0,0,0,.22.031c.1-.029.153-.142.186-.243a6.732,6.732,0,0,0-.557-5.294,3.422,3.422,0,0,0-.871-1.1,3.635,3.635,0,0,0-.99-.5,9.881,9.881,0,0,0-1.969-.486,1.222,1.222,0,0,0-.359-.012,1.505,1.505,0,0,0-.458.194,4.689,4.689,0,0,1-2.035.553c-.954.036-2.045-.189-2.78.423-.886.734-.665,2.166-1.24,3.163-.38.659-1.114,1.138-1.234,1.888a1.743,1.743,0,0,0,.043.686,2.793,2.793,0,0,0,2.59,2.07.983.983,0,0,0,.529-.108,1.2,1.2,0,0,0,.279-.265C658.911,309.989,659.8,308.228,661.279,308.77Z" transform="translate(-611.957 -291.292)" fill="#444053"/><path d="M667.156,380.249c-.033.1-.084.214-.186.243a.409.409,0,0,1-.22-.031,2.626,2.626,0,0,0-1.445.145,3.227,3.227,0,0,1-2.582-.118c-.531-.341-.88-.954-1.472-1.168-1.474-.545-2.367,1.219-3.15,2.143a1.2,1.2,0,0,1-.279.265.983.983,0,0,1-.529.108,2.8,2.8,0,0,1-2.59-2.07c-.016-.068-.029-.136-.04-.2a.032.032,0,0,1,0,.018,1.744,1.744,0,0,0,.043.686,2.794,2.794,0,0,0,2.59,2.07.982.982,0,0,0,.529-.108,1.2,1.2,0,0,0,.279-.265c.782-.924,1.675-2.686,3.15-2.143.592.217.941.828,1.472,1.168a3.238,3.238,0,0,0,2.582.118,2.629,2.629,0,0,1,1.445-.144.41.41,0,0,0,.22.031c.1-.029.153-.142.186-.243a6.155,6.155,0,0,0,.305-2.2A6.052,6.052,0,0,1,667.156,380.249Z" transform="translate(-611.929 -362.343)" opacity="0.1"/></g></g></svg>